<svg viewBox="0 0 1263.92041015625 400" xmlns="http://www.w3.org/2000/svg"><g><g><g><g><g><line x1="40" y1="375" x2="35" y2="375" style="visibility: inherit;" fill="rgb(0, 0, 0)" stroke="rgb(204, 204, 204)" stroke-width="1px"></line><line x1="40" y1="333.33333333333337" x2="35" y2="333.33333333333337" style="visibility: inherit;" fill="rgb(0, 0, 0)" stroke="rgb(204, 204, 204)" stroke-width="1px"></line><line x1="40" y1="291.6666666666667" x2="35" y2="291.6666666666667" style="visibility: inherit;" fill="rgb(0, 0, 0)" stroke="rgb(204, 204, 204)" stroke-width="1px"></line><line x1="40" y1="250.00000000000003" x2="35" y2="250.00000000000003" style="visibility: inherit;" fill="rgb(0, 0, 0)" stroke="rgb(204, 204, 204)" stroke-width="1px"></line><line x1="40" y1="208.33333333333331" x2="35" y2="208.33333333333331" style="visibility: inherit;" fill="rgb(0, 0, 0)" stroke="rgb(204, 204, 204)" stroke-width="1px"></line><line x1="40" y1="166.66666666666666" x2="35" y2="166.66666666666666" style="visibility: inherit;" fill="rgb(0, 0, 0)" stroke="rgb(204, 204, 204)" stroke-width="1px"></line><line x1="40" y1="125" x2="35" y2="125" style="visibility: inherit;" fill="rgb(0, 0, 0)" stroke="rgb(204, 204, 204)" stroke-width="1px"></line><line x1="40" y1="83.33333333333331" x2="35" y2="83.33333333333331" style="visibility: inherit;" fill="rgb(0, 0, 0)" stroke="rgb(204, 204, 204)" stroke-width="1px"></line><line x1="40" y1="41.666666666666686" x2="35" y2="41.666666666666686" style="visibility: inherit;" fill="rgb(0, 0, 0)" stroke="rgb(204, 204, 204)" stroke-width="1px"></line><line x1="40" y1="0" x2="35" y2="0" style="visibility: inherit;" fill="rgb(0, 0, 0)" stroke="rgb(204, 204, 204)" stroke-width="1px"></line></g><g transform="translate(30, 0)"><text x="0" y="375" dx="0em" dy="0.3em" style="text-anchor: end; visibility: hidden; font-family: &quot;Helvetica Neue&quot;, sans-serif; font-size: 12px; font-weight: 200;" fill="rgb(50, 49, 63)" stroke="none" stroke-width="1px">0.4</text><text x="0" y="333.33333333333337" dx="0em" dy="0.3em" style="text-anchor: end; visibility: inherit; font-family: &quot;Helvetica Neue&quot;, sans-serif; font-size: 12px; font-weight: 200;" fill="rgb(50, 49, 63)" stroke="none" stroke-width="1px">0.5</text><text x="0" y="291.6666666666667" dx="0em" dy="0.3em" style="text-anchor: end; visibility: inherit; font-family: &quot;Helvetica Neue&quot;, sans-serif; font-size: 12px; font-weight: 200;" fill="rgb(50, 49, 63)" stroke="none" stroke-width="1px">0.6</text><text x="0" y="250.00000000000003" dx="0em" dy="0.3em" style="text-anchor: end; visibility: inherit; font-family: &quot;Helvetica Neue&quot;, sans-serif; font-size: 12px; font-weight: 200;" fill="rgb(50, 49, 63)" stroke="none" stroke-width="1px">0.7</text><text x="0" y="208.33333333333331" dx="0em" dy="0.3em" style="text-anchor: end; visibility: inherit; font-family: &quot;Helvetica Neue&quot;, sans-serif; font-size: 12px; font-weight: 200;" fill="rgb(50, 49, 63)" stroke="none" stroke-width="1px">0.8</text><text x="0" y="166.66666666666666" dx="0em" dy="0.3em" style="text-anchor: end; visibility: inherit; font-family: &quot;Helvetica Neue&quot;, sans-serif; font-size: 12px; font-weight: 200;" fill="rgb(50, 49, 63)" stroke="none" stroke-width="1px">0.9</text><text x="0" y="125" dx="0em" dy="0.3em" style="text-anchor: end; visibility: inherit; font-family: &quot;Helvetica Neue&quot;, sans-serif; font-size: 12px; font-weight: 200;" fill="rgb(50, 49, 63)" stroke="none" stroke-width="1px">1</text><text x="0" y="83.33333333333331" dx="0em" dy="0.3em" style="text-anchor: end; visibility: inherit; font-family: &quot;Helvetica Neue&quot;, sans-serif; font-size: 12px; font-weight: 200;" fill="rgb(50, 49, 63)" stroke="none" stroke-width="1px">1.1</text><text x="0" y="41.666666666666686" dx="0em" dy="0.3em" style="text-anchor: end; visibility: inherit; font-family: &quot;Helvetica Neue&quot;, sans-serif; font-size: 12px; font-weight: 200;" fill="rgb(50, 49, 63)" stroke="none" stroke-width="1px">1.2</text><text x="0" y="0" dx="0em" dy="0.3em" style="text-anchor: end; visibility: hidden; font-family: &quot;Helvetica Neue&quot;, sans-serif; font-size: 12px; font-weight: 200;" fill="rgb(50, 49, 63)" stroke="none" stroke-width="1px">1.3</text></g><line x1="40" y1="0" x2="40" y2="375" fill="rgb(0, 0, 0)" stroke="rgb(204, 204, 204)" stroke-width="1px"></line></g></g><g transform="translate(40, 0)" clip-path="url(#clip_0)"><clipPath id="clip_0"><rect width="1223" height="375"></rect></clipPath><g><g><g><line x1="0" y1="0" x2="0" y2="375" fill="rgb(0, 0, 0)" stroke="rgb(60, 60, 60)" stroke-width="1px" opacity="0.25"></line><line x1="122.39200000000001" y1="0" x2="122.39200000000001" y2="375" fill="rgb(0, 0, 0)" stroke="rgb(60, 60, 60)" stroke-width="1px" opacity="0.25"></line><line x1="244.78400000000002" y1="0" x2="244.78400000000002" y2="375" fill="rgb(0, 0, 0)" stroke="rgb(60, 60, 60)" stroke-width="1px" opacity="0.25"></line><line x1="367.176" y1="0" x2="367.176" y2="375" fill="rgb(0, 0, 0)" stroke="rgb(60, 60, 60)" stroke-width="1px" opacity="0.25"></line><line x1="489.56800000000004" y1="0" x2="489.56800000000004" y2="375" fill="rgb(0, 0, 0)" stroke="rgb(60, 60, 60)" stroke-width="1px" opacity="0.25"></line><line x1="611.96" y1="0" x2="611.96" y2="375" fill="rgb(0, 0, 0)" stroke="rgb(60, 60, 60)" stroke-width="1px" opacity="0.25"></line><line x1="734.352" y1="0" x2="734.352" y2="375" fill="rgb(0, 0, 0)" stroke="rgb(60, 60, 60)" stroke-width="1px" opacity="0.25"></line><line x1="856.744" y1="0" x2="856.744" y2="375" fill="rgb(0, 0, 0)" stroke="rgb(60, 60, 60)" stroke-width="1px" opacity="0.25"></line><line x1="979.1360000000001" y1="0" x2="979.1360000000001" y2="375" fill="rgb(0, 0, 0)" stroke="rgb(60, 60, 60)" stroke-width="1px" opacity="0.25"></line><line x1="1101.528" y1="0" x2="1101.528" y2="375" fill="rgb(0, 0, 0)" stroke="rgb(60, 60, 60)" stroke-width="1px" opacity="0.25"></line><line x1="1223.92" y1="0" x2="1223.92" y2="375" fill="rgb(0, 0, 0)" stroke="rgb(60, 60, 60)" stroke-width="1px" opacity="0.25"></line></g><g><line x1="0" y1="375" x2="1223.92" y2="375" fill="rgb(0, 0, 0)" stroke="rgb(60, 60, 60)" stroke-width="1px" opacity="0.25"></line><line x1="0" y1="333.33333333333337" x2="1223.92" y2="333.33333333333337" fill="rgb(0, 0, 0)" stroke="rgb(60, 60, 60)" stroke-width="1px" opacity="0.25"></line><line x1="0" y1="291.6666666666667" x2="1223.92" y2="291.6666666666667" fill="rgb(0, 0, 0)" stroke="rgb(60, 60, 60)" stroke-width="1px" opacity="0.25"></line><line x1="0" y1="250.00000000000003" x2="1223.92" y2="250.00000000000003" fill="rgb(0, 0, 0)" stroke="rgb(60, 60, 60)" stroke-width="1px" opacity="0.25"></line><line x1="0" y1="208.33333333333331" x2="1223.92" y2="208.33333333333331" fill="rgb(0, 0, 0)" stroke="rgb(60, 60, 60)" stroke-width="1px" opacity="0.25"></line><line x1="0" y1="166.66666666666666" x2="1223.92" y2="166.66666666666666" fill="rgb(0, 0, 0)" stroke="rgb(60, 60, 60)" stroke-width="1px" opacity="0.25"></line><line x1="0" y1="125" x2="1223.92" y2="125" fill="rgb(0, 0, 0)" stroke="rgb(60, 60, 60)" stroke-width="1px" opacity="0.25"></line><line x1="0" y1="83.33333333333331" x2="1223.92" y2="83.33333333333331" fill="rgb(0, 0, 0)" stroke="rgb(60, 60, 60)" stroke-width="1px" opacity="0.25"></line><line x1="0" y1="41.666666666666686" x2="1223.92" y2="41.666666666666686" fill="rgb(0, 0, 0)" stroke="rgb(60, 60, 60)" stroke-width="1px" opacity="0.25"></line><line x1="0" y1="0" x2="1223.92" y2="0" fill="rgb(0, 0, 0)" stroke="rgb(60, 60, 60)" stroke-width="1px" opacity="0.25"></line></g></g></g><g><g><line x1="0" y1="541.6666666666667" x2="1223.92" y2="541.6666666666667" fill="rgb(0, 0, 0)" stroke="rgb(153, 153, 153)" stroke-width="1.5px"></line></g></g><g><g><line x1="122.39200000000001" y1="0" x2="122.39200000000001" y2="375" fill="rgb(0, 0, 0)" stroke="rgb(153, 153, 153)" stroke-width="1.5px"></line></g></g><g><g><g><g><g><path stroke="rgb(255, 112, 67)" stroke-width="2px" d="M142.953856,-7.644666190374494L144.300168,0.837983532024623L144.91212800000002,11.248561177011652L145.156912,-10.695619632164096L145.76887200000002,0.1498790995222521L150.54216,1.0224598348373206L151.15412,5.194149459643199L152.99,11.96703883418786L153.724352,8.206935207811057L154.336312,12.839238542685337L155.193056,17.698707917264414L155.927408,22.397860353909834L158.252856,27.643285040663727L160.211128,32.05910272947904L160.455912,29.877950061744627L161.435048,32.9992589156285L162.903752,38.72760215021202L164.00528000000003,43.99538846466987L164.984416,46.93291968160196L166.942688,51.351179330718026L167.43225600000002,57.13405200701942L174.041424,58.74416650632031L174.16381600000003,60.443703925369675L176.24448,60.909558519718416L176.611656,61.525359045895755L176.978832,61.934406418131346L178.81471200000001,65.45950006272568L179.18188800000001,66.47123120165651L179.30428,60.917552509736936L180.5282,63.65509491730842L182.608864,66.06528341727352L182.85364800000002,68.75157314630417L185.42388,73.31149294981037L187.504544,74.16627967167528L188.11650400000002,77.75796981023115L191.42108800000003,81.76271035715592L192.64500800000002,85.55571375515808L193.37936000000002,87.34302564059908L193.62414400000003,89.04354833861419L194.236104,91.46611436616405L194.358496,95.19456632375312L196.194376,98.83294018245641L198.397432,99.56095817282016L198.64221600000002,101.65855200302798L200.11092000000002,104.38814412982987L200.967664,106.649080867399L201.090056,107.89214193698496L201.33484,110.98297025266288L201.70201600000001,112.26518667737736L201.94680000000002,114.20317181739989L203.415504,115.97643984976821L204.639424,117.35473955863051L206.108128,117.96674371386587L206.720088,119.02330870190465L209.90228000000002,119.06733635330724L210.391848,121.8669092430305L210.88141600000003,122.73991117417006L211.00380800000002,124.0391924547605L211.860552,125.99853008013199L212.96208,128.79484164219562L213.451648,129.94869672101683L213.94121600000003,131.8573519977458L214.55317600000004,131.99029407859723L215.042744,131.81485306679147L216.14427200000003,129.31082934029783L216.63384,131.19661202457092L216.878624,133.40447477794314L217.123408,135.1872697918081L217.98015200000003,136.66577887058327L218.59211200000001,137.81538302852664L218.836896,139.2700827117532L219.448856,140.88281033570618L219.69364000000002,142.58548410117072L220.183208,143.39366698997668L220.672776,144.1084565376953L221.40712800000003,146.22881547885507L221.52952000000002,147.84446946117924L224.344536,149.4260848754729L224.83410400000002,151.42515332928556L228.87304,152.27922617209865L229.72978400000002,151.78638461809535L230.464136,153.5127178253269L232.17762400000004,154.86313799426776L232.667192,154.96860661974063L233.52393600000002,155.3211037936606L233.76872000000003,156.84543963060432L234.503072,157.54354499929434L234.747856,158.96789165448195L236.46134400000003,159.95539339244544L236.58373600000002,161.00650361000967L237.807656,162.15203943493705L238.174832,163.4943093040963L239.27636,163.65269030827696L239.765928,164.65652464693048L240.25549600000002,164.82878064014204L241.357024,164.92782553235764L241.47941600000001,166.37803356860505L242.21376800000002,165.2075759346107L242.33616000000004,165.8407024649359L242.94812000000002,166.28948826423462L245.15117600000002,167.20585970579586L245.51835200000002,166.68878403956293L246.61988000000002,167.1968406437248L250.29164,167.54300735649105L251.88273600000002,168.6957530061603L252.61708800000002,169.90889737881398L252.984264,171.02745586774498L253.229048,171.89771249801188L253.71861600000003,172.6591534233691L254.45296800000003,172.7311503875336L255.064928,173.24224863930448L256.28884800000003,174.36826433002742L257.02320000000003,175.31636332117947L257.63516,175.92773155823187L258.85908,175.1186713001879L259.47104,176.13770528019052L263.999544,176.91568730303342L264.489112,178.01521427506808L264.611504,178.62363617724245L264.733896,179.9518192736666L266.936952,180.50791456087424L268.405656,181.0495772268689L268.528048,181.79707870473197L269.2624,182.6542998077881L270.119144,182.0805499934717L273.301336,182.69318754428744L274.77004,183.0737125447065L276.116352,184.20492629509135L276.483528,184.95271396697655L276.850704,185.82740170169566L279.298544,186.5237422380921L280.032896,187.40025641010988L280.88964000000004,188.25609238102962L281.62399200000004,187.7960484406392L283.582264,188.73315306199493L283.94944000000004,189.55817429940893L285.295752,189.7567714544139L285.662928,190.3994846914502L286.030104,191.0685419450003L286.15249600000004,191.82364970305625L292.02731200000005,192.77435318968458L292.394488,192.9424731078394L292.761664,192.59865472829105L292.88405600000004,193.33735569408094L295.57668,194.06691730690326L297.045384,194.99794816241595L297.29016800000005,195.8873124772558L297.779736,196.738492092602L298.26930400000003,197.0429854909762L298.75887200000005,197.4467240496173L301.81867200000005,197.98029922317832L301.94106400000004,198.49950987473076L303.287376,199.14313316810473L304.266512,199.4135521029718L304.75608,200.20793409106736L305.00086400000004,200.88824534852444L307.08152800000005,201.23474085304917L308.917408,201.58245474657204L309.40697600000004,201.97007900464823L312.46677600000004,202.79746378453385L314.42504800000006,202.34866103536027L314.54744000000005,203.10429988751702L316.38332,203.79084271021267L316.87288800000005,204.5703987943309L318.83116,205.02600159976362L318.953552,205.62105548754377L320.54464800000005,205.23078104478344L321.64617599999997,205.62395643947818L322.258136,206.06687609471615L322.870096,207.0349319979653L323.237272,207.12755675809893L323.84923200000003,208.01484493051527L324.21640800000006,208.29828199869763L325.685112,208.8494196577199L326.66424800000004,209.61174772063939L327.52099200000004,210.0766642697531L328.37773599999997,209.78100960437789L329.479264,210.13486308523684L329.968832,210.25578178601728L330.213616,210.10528478411155L330.45840000000004,210.07223947557685L330.825576,210.75500650396884L331.68232000000006,210.96681462692098L332.783848,211.13305060895408L334.007768,211.65285044587202L334.497336,212.14710966773606L334.74212000000006,212.6252222705994L335.10929600000003,212.83800761836594L335.721256,213.088988185671L336.088432,213.69391843074345L336.210824,213.97587205265438L336.333216,214.5708922098984L338.65866400000004,214.5863491745294L339.760192,214.58414390446157L340.494544,214.28546344201447L341.351288,214.49759562648111L341.47368000000006,214.78340186806722L342.575208,215.27966767807553L343.431952,215.25035829466364L346.00218400000006,215.74867210295753L346.491752,216.29980539854807L347.71567200000004,216.13014657270656L348.20524,215.99999756991264L349.306768,216.21130097548942L350.897864,216.5754993674943L351.26504,216.93433447656076L351.99939200000006,216.56774903125628L352.24417600000004,217.02299491569028L356.40550400000006,217.56478741328777L357.139856,218.16126023075495L359.22052,217.71676937704945L359.46530400000006,217.99855863694052L360.44444,218.31031891220437L360.811616,218.61331059131032L361.0564,218.43293863147346L363.25945600000006,219.01356016866185L364.97294400000004,219.01628986781796L365.217728,219.2059295382179L367.420784,219.40187945608406L367.910352,219.31786706288656L368.88948800000003,220.0034334636805L370.970152,219.48816579114623L371.70450400000004,219.49446736498737L374.641912,219.9091117953936L376.11061600000005,219.65182916523065L376.23300800000004,220.17083965897243L376.600184,220.6605683287735L376.72257600000006,220.65752968748217L376.96736000000004,220.29165566971622L377.21214399999997,220.6804328056663L377.701712,221.35238599356347L378.19128,221.33680569240394L379.048024,221.53222900049835L380.883904,221.97937959838768L385.045232,222.400526491551L385.5348,223.0642681290234L385.779584,223.1490207981655L386.391544,223.2719625167918L387.49307200000004,223.74798800810544L388.96177600000004,223.7682117601499L390.185696,223.98973901947917L390.43048000000005,224.07812696153889L390.675264,224.68609897028017L390.797656,224.45721178461528L391.287224,224.97635629898875L391.6544,225.3312457889105L392.633536,225.2957140578265L393.123104,225.6451018963167L394.836592,226.03642740694934L395.570944,226.08888209990153L396.182904,226.66533103734722L396.305296,226.4852211404064L396.55008000000004,226.75528903937683L396.917256,227.30056001603822L397.40682400000003,227.19996284507664L397.529216,227.48711839186956L398.38596,227.65399717389536L398.753136,227.92012624742665L399.365096,227.96155554569566L401.690544,228.40549217951093L402.914464,228.48413242354957L403.648816,229.01553947184175L404.38316800000007,229.52266145333087L404.872736,229.94964424379805L406.34144000000003,230.18374793472518L406.463832,230.62571350012405L409.523632,230.9685244219541L410.62516000000005,231.3710542301707L412.705824,231.66526272316347L414.90888000000007,232.0959642922103L415.03127200000006,232.43045026135766L415.27605600000004,232.2365784199212L416.499976,232.78690405304152L416.989544,233.0167061281956L419.314992,232.97190460736L420.66130400000003,233.42100797880423L421.64044,233.58907475260952L422.37479200000007,234.0135797256131L422.49718400000006,234.1767324465171L422.741968,234.43765048051918L422.986752,234.44306406091602L423.59871200000003,234.52579524615942L426.65851200000003,234.64171635808339L426.780904,234.9908055786802L428.00482400000004,235.19536051626875L428.249608,235.37465556406394L428.86156800000003,235.33668439590795L430.575056,235.4669051909708L431.309408,235.87749440245975L432.41093600000005,236.29011453033928L434.246816,236.7471689527662L434.73638400000004,237.05709510189834L434.981168,237.16344346342632L436.5722640000001,237.51685847647178L438.040968,237.77164453591607L439.509672,238.23245276269267L440.733592,238.08445665124216L441.46794400000005,238.3535718380159L443.548608,238.7270364611175L444.28296,239.00767380495193L444.405352,238.89205483743L445.38448800000003,238.67957268495775L446.11884000000003,239.0281074382042L446.853192,239.30619423867205L447.465152,239.86241602902444L450.28016800000006,240.0213465650552L451.136912,240.21691096620967L451.748872,240.38424314464842L453.33996800000006,240.6253956547936L454.196712,240.36930260071244L456.032592,240.18478661733872L457.501296,240.7263618482688L457.868472,240.54448433261092L459.58196000000004,240.83667365775818L459.70435200000003,241.33790282509554L459.94913600000007,241.5552274345217L463.86568000000005,241.57762169898845L463.98807200000005,242.06661259394681L464.110464,242.17612940511154L464.967208,242.02440198832733L466.31352000000004,242.04784221457408L468.1494,242.5578650722618L468.76136,242.66025933426056L472.43312000000003,242.97682215839282L474.024216,242.99530734011455L475.125744,243.119828538653L476.227272,243.28797647187506L476.96162400000003,243.14538985111312L477.45119200000005,243.4137377626844L479.531856,243.44045370867195L479.77664000000004,243.87231023433029L479.89903200000003,243.91430693442857L481.367736,244.21274458561606L483.57079200000004,243.68074569345325L485.651456,243.76519843389323L486.63059200000004,244.02701085339572L489.445608,244.1392424115985L490.547136,244.3623360395049L490.79192000000006,244.6495167673524L491.03670400000004,244.89484122767794L491.52627200000006,245.34361783457373L491.64866400000005,245.29000758333603L492.994976,245.10857772508655L493.36215200000004,245.15907497590703L494.341288,245.45749898106413L494.70846400000005,245.25213726874165L497.64587200000005,245.3427707340285L498.13544,245.48738073735257L498.38022400000006,245.64749842384978L500.21610400000003,245.4311722430971L501.8072,245.80043105961477L504.62221600000004,246.01109650815087L506.458096,246.33777507215575L506.580488,246.57667437611278L507.43723200000005,246.77405249204705L508.04919200000006,246.81651639994698L508.6611520000001,247.132388843479L509.15072000000004,247.23611910876133L509.3955040000001,247.59179482336168L511.35377600000004,247.92832272767112L513.556832,248.2537868314359L513.6792240000001,248.24479673989117L514.535968,248.60210443464868L514.903144,248.759008889164L517.840552,248.65010304870233L518.207728,248.82974505105358L519.064472,249.1965281327308L519.431648,249.38803230598276L519.55404,249.6032437404835L519.7988240000001,249.627841156878L519.9212160000001,249.45804145608344L522.9810160000001,249.5178805150717L524.0825440000001,249.76699312432422L527.019952,249.91185601871734L527.999088,249.73746150418452L529.712576,249.86899647908933L529.834968,250.19042413156075L530.4469280000001,250.13623436274742L531.915632,250.29885361211217L535.465,250.15303625500428L535.709784,250.0054242631312L535.954568,250.3585974746652L536.933704,250.56469761269318L539.0143680000001,250.6676333483542L539.6263280000001,250.78137418004385L542.3189520000001,251.06657261565277L542.686128,251.51199872166228L543.298088,251.82637778813574L544.6444,252.01936389109784L544.889184,252.02204645685256L545.623536,252.12914439773607L545.745928,252.45656276412336L546.48028,252.67339239030622L547.337024,252.70871777539543L548.071376,252.75990383682222L548.4385520000001,252.76406002620942L550.519216,252.9672310766843L551.98792,253.1804450755509L552.355096,253.04259963468195L553.21184,253.13628433134937L555.170112,253.42823151341975L555.414896,253.7929885936452L556.1492480000001,254.03210968105034L556.638816,254.0082585927039L558.597088,253.97847312039482L560.677752,253.8546440276645L563.1255920000001,254.11587665296048L565.328648,253.85859088608265L565.573432,253.72019868735947L565.818216,253.97435249082685L566.1853920000001,254.18543404683155L566.552568,254.35492209330226L568.633232,254.46998177477022L569.979544,254.0896588978607L570.101936,254.39264446397425L571.693032,254.68591300837414L575.3647920000001,254.89736885180548L575.6095760000001,254.7075552734279L578.5469840000001,254.96885564842313L579.036552,255.37364588187964L579.281336,255.73076007064816L580.0156880000001,256.13076452804137L580.382864,256.48211909461105L580.627648,256.6309665649287L581.729176,256.93185621182016L582.58592,257.2034352155388L584.177016,257.29254944141246L585.156152,257.5238877643326L586.747248,257.7564867375025L586.9920320000001,257.9337200680849L587.3592080000001,257.9336728665359L588.8279120000001,258.02113249721367L589.31748,258.27485651964184L589.92944,258.519404969623L590.1742240000001,258.7972136004333L591.398144,259.0337576458161L591.887712,259.27609008493806L595.43708,259.59937436313834L596.04904,259.7244452280028L596.905784,259.97158696619715L600.087976,259.72116378003045L601.0671120000001,260.00367438917704L602.291032,260.18891905350586L603.270168,260.3395158198001L604.1269120000001,260.40614358196575L604.61648,260.69162693982247L605.962792,260.985955300938L606.697144,261.0348267389827L607.431496,261.1024932554024L610.1241200000001,261.066051501864L611.4704320000001,261.1579243034663L612.082392,261.4218415557077L613.1839200000001,261.60797816558636L613.306312,261.79774525858795L614.775016,261.9878004429919L616.121328,262.0156829454766L616.488504,262.0048286663772L617.712424,262.1978034704605L623.464848,262.3294676995164L624.076808,262.4210443791612L624.1992,262.3653495646331L625.42312,262.6885344054412L634.357736,262.6760218180667L635.7040480000001,262.48685320184325L635.82644,262.6981602718347L636.0712240000001,262.884655362371L636.3160080000001,262.8858243123695L636.683184,263.0159596924141L636.805576,263.2472628090686L639.8653760000001,263.4786777659949L640.477336,263.7770785418642L640.844512,263.59931895245643L641.823648,263.75991299764536L643.16996,263.95633908944967L644.271488,264.19267975636075L644.638664,264.26110151843784L644.761056,264.2736808746324L646.596936,264.20939950850095L648.5552080000001,264.2242020450225L649.28956,264.4558921728943L649.7791280000001,264.44559868712486L650.880656,264.6251200076533L651.12544,264.68640962226857L652.226968,264.85419837907097L652.716536,264.90100075702765L653.4508880000001,265.09196771094383L654.062848,264.585687687554L657.2450400000001,264.61614547899705L658.346568,264.57201002657587L660.182448,264.9145016634842L661.0391920000001,265.1939195463053L661.773544,265.3845092053066L662.2631120000001,265.5868461052475L662.3855040000001,265.5832979360359L664.710952,265.82299237266295L665.078128,266.0036103828863L665.81248,266.2622722225698L669.4842400000001,266.5374991842402L670.2185920000001,266.65147913975045L670.7081600000001,266.74437360122045L672.054472,267.0161600649664L672.299256,267.1706319770032L674.3799200000001,267.13960080212775L674.5023120000001,267.1548477271365L676.8277600000001,267.4670524276768L676.9501520000001,267.6686066095863L677.3173280000001,267.73457278731235L678.418856,267.7798871222361L679.397992,267.6631205112193L679.642776,267.77050328862543L679.765168,267.8937153296172L682.824968,268.12290831470546L683.1921440000001,268.3613406540285L684.5384560000001,268.59885403860653L684.905632,268.812234128041L685.150416,269.08830568829814L685.3952000000002,268.8801120274987L686.863904,268.9441345822466L688.944568,269.0982581742205L691.5147999999999,269.24277223864294L692.371544,269.39274233973197L693.35068,269.6750917962248L693.840248,269.96635254315356L694.696992,270.13390045808893L694.819384,270.26497916178226L694.941776,270.50689836261864L696.165696,270.7171331009575L699.347888,270.8571852421761L699.959848,270.9719629805944L701.91812,270.9726226674711L703.264432,271.04633537637255L703.754,271.2124461632211L703.876392,271.39467504920765L704.855528,271.4936370124382L705.2227040000001,271.6933636088772L705.3450960000001,271.9403959009843L705.5898800000001,271.9887131689272L705.957056,272.0505423630261L707.058584,272.3055053839439L707.548152,272.6004905935357L708.404896,272.6947297061115L708.527288,272.62813438994L709.26164,272.73177143409L709.995992,272.9708392766819L710.2407760000001,273.1596261887959L710.6079520000001,273.151322023591L714.891672,273.37784063469627L716.3603760000001,273.1210603583492L718.6858240000001,273.3605448711416L718.9306080000001,273.47019794729067L721.2560560000001,273.6255903597153L721.50084,273.7420256878888L721.623232,273.7362921035864L723.9486800000001,273.6128174896746L726.886088,273.7613387510801L727.253264,273.47292262946127L728.84436,273.53173264632557L729.8234960000001,273.74653836091403L730.925024,273.66854363210615L731.2922000000001,273.6905801004493L731.5369840000001,273.84916798389725L731.6593760000001,273.97213143073463L733.3728639999999,274.1646928191628L734.352,274.1495741044566L737.044624,274.14017279477946L737.7789760000001,274.40610495228L738.146152,274.2624375388134L739.0028960000001,274.4004653834879L740.593992,274.09561979502047L740.8387759999999,274.3865840019788L740.9611680000002,274.47228482078924L741.817912,274.6952397205754L744.020968,274.9576037630809L746.835984,275.1891851611091L747.4479440000001,275.4059776995904L749.895784,275.5251829971918L750.140568,275.5444699124286L750.8749200000001,275.74666608531743L754.0571120000001,275.6234786413334L754.6690720000001,275.65452095197327L756.260168,275.8612830271454L756.749736,275.93886008945566L758.952792,276.12602576303766L759.9319280000001,276.32730250029033L762.746944,276.51960233619536L763.1141200000001,276.7002076425081L763.2365120000001,276.87101002838506L763.72608,277.0687582606603L763.848472,277.21176159999004L764.3380400000001,277.1913409886748L767.0306640000001,277.24230424191944L769.84568,277.21273344679696L771.436776,277.17961412332977L773.3950480000001,277.35705433063265L774.7413600000001,277.47293009292855L776.6996320000001,277.47117141338333L778.41312,277.52207108895L778.535512,277.37785260051044L778.902688,277.50038317842854L780.9833520000001,277.6858265208247L781.47292,277.8390266544569L783.92076,277.96464136030613L784.1655440000001,278.0925423274882L785.879032,278.21461589556293L788.2044800000001,278.4783817810591L788.3268720000001,278.3118818083855L788.5716560000001,278.5272733968905L789.1836160000001,278.76256701694047L792.610592,278.7974531337634L793.71212,278.8912403176504L794.5688640000001,278.9534586096153L795.058432,279.0538345118537L795.7927840000001,279.2679447895855L796.5271360000002,279.47334317824163L797.139096,279.4531286426816L797.506272,279.5626412351836L797.7510560000001,279.53341144289084L799.586936,279.7913685840133L800.6884640000001,279.9732549347434L801.6676000000001,280.1527829115401L803.748264,280.31230093751856L804.360224,280.45454266847673L804.605008,280.42626635582707L806.073712,280.3936805062991L806.3184960000001,280.2767989772287L807.052848,280.2586516047702L808.521552,280.3730237474274L809.1335120000001,280.51506934790814L810.3574320000001,280.63915418313263L811.581352,280.77683149667376L815.0083280000001,280.888741422675L815.2531120000001,281.0709600993633L815.7426800000001,281.1732955517483L817.57856,281.35452217880754L822.5966320000001,281.4403908859123L822.9638080000001,281.6093748920488L823.453376,281.7517935355902L825.166864,281.7342816470325L826.513176,281.900375798049L827.3699200000001,281.9180530399373L829.450584,282.0091098471686L829.8177600000001,282.1447573352467L830.4297200000001,282.23083964321887L831.0416800000002,282.36229429963055L831.776032,282.4959182237765L833.244736,282.6291244530157L833.367128,282.8331644661983L835.447792,282.89850779147537L835.814968,283.02018420255695L836.6717120000001,283.01141452610614L839.976296,282.99412398998635L840.22108,283.1340066788402L841.0778240000001,283.2956347659611L843.28088,283.51555975291365L843.5256640000001,283.70160771102326L844.382408,283.78759151948645L845.483936,283.87500958467524L846.707856,284.0767173738329L846.830248,284.2862829630892L848.054168,284.31059784327744L848.5437360000001,284.3872873706606L848.6661280000001,284.5009260641461L850.9915760000001,284.7391615638865L851.603536,284.85775840473127L851.84832,284.9170200692893L852.337888,285.10571201510913L853.439416,285.1971424958014L855.6424720000001,285.309293585275L858.090312,285.50585024332634L858.7022720000001,285.50650902515395L859.8038,285.2124133988658L860.538152,285.4152613631462L860.6605440000001,285.4904752346832L860.7829360000001,285.53958283359924L861.150112,285.7545092210166L861.517288,285.9088027577557L864.209912,286.0218495839758L866.290576,286.20357309030794L866.412968,286.3382355676042L866.902536,286.4700066181863L867.514496,286.7066719958683L868.3712400000001,286.85401426091147L869.4727680000001,286.98437064522875L869.7175520000001,287.07879709950333L870.9414720000001,287.2489142538816L871.6758240000001,287.33603195261134L871.9206080000001,287.52591083175605L872.65496,287.61642758463233L872.8997439999999,287.7083224752697L873.1445280000002,287.8015901916282L874.613232,287.91839091362743L874.858016,287.9848195004267L875.1028,288.15019507692364L877.9178160000001,288.2512381424219L879.019344,288.3757010014402L879.3865200000001,288.51613988769566L881.344792,288.64555820949164L882.568712,288.62048451200894L882.691104,288.5254245934272L882.9358880000001,288.6446875481946L883.67024,288.66684649808485L884.4045920000001,288.6475130155046L885.2613360000001,288.5243575660447L885.8732960000001,288.7056001444711L886.7300400000001,288.82718825607265L887.464392,288.86021752007235L889.0554880000001,288.877790371545L892.2376800000001,289.0439343392625L894.68552,289.0473999168074L895.052696,289.17904359004393L895.542264,289.3433337067745L895.664656,289.283443951899L896.5214000000001,289.2816107221401L898.602064,289.48219284414154L899.948376,289.57146185340787L901.2946880000001,289.63161432019604L902.151432,289.6515462143019L902.8857840000001,289.75944890986636L905.8231920000001,289.92141223226906L911.5756160000001,290.0709346950195L912.5547520000001,290.1960923425946L913.0443200000001,290.2626918364398L914.635416,290.2534271170714L915.981728,290.34605921985445L916.471296,290.5028367420477L917.4504320000001,290.56145949498426L917.5728240000001,290.4064122405327L918.062392,290.4984177047971L919.1639200000001,290.49588545510227L919.2863120000001,290.536104182938L920.5102320000001,290.6869282362437L920.6326240000001,290.7251321897994L920.7550160000001,290.8019113686372L921.734152,290.9447289629626L924.181992,291.0445962282421L927.1194,291.2473239257031L927.6089680000001,291.1796802069906L927.8537520000001,291.2788382690342L927.9761440000001,291.4358279625226L928.34332,291.47862701398844L929.56724,291.5479581467955L930.668768,291.58890477584123L931.0359440000001,291.5968753840127L932.2598640000001,291.72443476847997L932.8718240000001,291.789937651684L937.2779360000001,291.62113981379963L938.3794640000001,291.56898364199435L938.6242480000001,291.6610933771999L939.113816,291.813663553225L939.8481680000001,292.05525111973566L940.2153440000001,292.17884932883226L941.0720880000001,292.22369944690416L942.0512240000002,292.35995725650537L942.4184000000001,292.3540176616307L943.3975360000001,292.48670164391297L943.887104,292.57260471253807L944.376672,292.602617650478L945.600592,292.7854758246956L945.7229840000001,292.88989792918244L947.1916880000001,293.0133139144881L947.6812560000001,293.10404066501485L948.5380000000001,293.19606232261066L949.027568,293.34936260574966L950.37388,293.5422089930049L951.842584,293.63549348747677L953.8008560000001,293.7998712828339L956.8606560000001,293.9262505047301L958.696536,293.7451865072942L960.410024,293.74366493213086L960.8995920000001,293.7734946705625L961.3891600000001,293.92547347901575L962.3682960000001,293.9427077451171L963.1026480000002,293.897358180132L963.2250400000001,293.8879443793552L965.305704,294.01636799317066L966.407232,294.00294864958914L967.1415840000001,294.09142327741984L968.1207200000001,294.2389056273887L968.4878960000001,294.30403831770866L971.18052,294.5047283180885L973.2611840000001,294.5291158321548L973.750752,294.4436707077332L974.7298880000001,294.53393650827167L975.097064,294.6179187313106L975.8314160000001,294.6367354018528L978.034472,294.8177335108754L978.279256,294.8550068951359L980.4823120000001,294.9614900467483L980.97188,295.11888066622186L981.339056,295.0961023220188L983.5421120000001,295.2109116249724L984.0316800000002,295.2923814745363L984.888424,295.2678448712074L986.4795200000001,295.33633669936626L987.213872,295.3866719073638L988.9273600000001,295.222051655149L990.3960640000001,295.26578054091436L991.252808,295.2914603692297L992.231944,295.4089223880608L993.21108,295.58950342422617L993.333472,295.7204119879962L993.9454320000001,295.90760080243706L994.4350000000001,296.0168921751001L996.026096,296.2121829209086L996.5156640000001,296.3794732481057L998.229152,296.424542963087L999.697856,296.54073399192623L999.820248,296.6796132103637L1000.676992,296.66106786657895L1001.6561280000001,296.696613041537L1002.39048,296.8511661479761L1003.1248320000001,296.88262313444966L1003.9815760000001,296.9996774338298L1004.2263600000001,297.0758424877858L1005.327888,297.0802805224634L1005.572672,297.2217691393992L1005.695064,297.1869171781175L1008.020512,297.3250574260757L1008.387688,297.40770832456036L1009.489216,297.3366112568922L1011.080312,297.4903211189349L1012.4266240000001,297.64804449483285L1012.7938,297.7269438077315L1014.01772,297.7902640721338L1015.975992,297.9075820654716L1017.3223040000001,298.0648268002235L1019.52536,298.12083430583806L1020.74928,298.05621940804605L1020.871672,298.19533732063485L1021.4836320000001,298.3144217317257L1021.606024,298.36253919460273L1022.4627680000001,298.50444945183415L1022.9523360000001,298.60163075143663L1023.074728,298.6462317559635L1023.19712,298.8185647101057L1025.889744,298.9345797282564L1026.012136,299.0829453867648L1026.501704,299.07729291072565L1026.746488,299.0919328696628L1027.8480160000001,299.12752376472906L1028.337584,299.27584006571766L1028.70476,299.3204538734253L1031.886952,299.34834930351883L1032.009344,299.44256060107756L1033.110872,299.57475532869614L1033.4780480000002,299.5192902790934L1033.9676160000001,299.64467971970595L1034.334792,299.4431224081972L1035.558712,299.5526442504095L1035.681104,299.54048393808307L1035.8034960000002,299.59870812199875L1035.9258880000002,299.58863821264765L1036.537848,299.6897076991259L1037.2722,299.79267970930675L1037.761768,299.8452920850017L1038.006552,299.91208291627896L1039.9648240000001,299.92081148062897L1040.699176,300.0145207316392L1040.821568,300.09515430437415L1041.800704,300.16703299147116L1042.5350560000002,300.15320453501L1044.126152,300.16790028638496L1044.982896,300.10355466254885L1046.2068160000001,300.19868681791934L1049.389008,300.286481906737L1052.2040240000001,300.2966474194837L1053.060768,300.35931045846803L1053.79512,300.4097653867991L1054.162296,300.5153823819136L1057.956448,300.591707063767L1058.0788400000001,300.7655207339417L1060.037112,300.79109771643516L1060.159504,300.7911693532506L1061.383424,300.9324987226903L1061.7506,301.0156150042341L1061.995384,301.090774567521L1063.3416960000002,300.99025446067765L1064.076048,301.016753880712L1064.443224,301.08682886444393L1064.932792,301.253801421773L1066.8910640000001,301.3669586385502L1067.1358480000001,301.5009193425501L1067.2582400000001,301.5854284677316L1067.747808,301.6697375111813L1068.114984,301.7440337487541L1068.359768,301.7256912383985L1070.0732560000001,301.90409255221215L1070.562824,301.96735082180373L1071.909136,301.97803118152206L1072.276312,302.13119635272466L1074.724152,302.19743622621195L1075.7032880000002,302.264218106625L1076.927208,302.2639154594554L1077.0496,302.21554152634843L1078.395912,302.27380373573413L1081.210928,302.0884132964813L1081.8228880000001,302.22815912012294L1083.9035520000002,302.347428446232L1086.718568,302.3935109065224L1086.963352,302.4436493853839L1089.2888,302.4624661351611L1089.411192,302.6163707175285L1089.90076,302.71590067227703L1090.3903280000002,302.75568187377246L1092.593384,302.7303595754238L1093.327736,302.81775377690803L1093.450128,302.9456966891882L1098.590592,303.0636801616643L1099.569728,303.1648359406426L1100.548864,303.20164964083324L1100.671256,303.362378158735L1102.7519200000002,303.4291086345481L1103.731056,303.54453263546407L1104.343016,303.5778736577164L1104.832584,303.384396827973L1106.1788960000001,303.3431137199703L1107.6476,303.35613551330323L1108.014776,303.4678769752357L1108.25956,303.5094601034464L1108.7491280000002,303.64340641322394L1109.728264,303.74008697462943L1114.501552,303.75993914615435L1117.071784,303.8412662277642L1117.8061360000002,303.88415316344765L1117.9285280000001,303.8812026347731L1118.1733120000001,303.98264278046355L1120.009192,304.09203407671515L1120.865936,304.0546802276367L1123.6809520000002,304.2421237674075L1123.9257360000001,304.2501666971856L1124.1705200000001,304.3180389125427L1125.516832,304.34361889818786L1125.8840080000002,304.43638449222203L1127.964672,304.5839232528197L1128.699024,304.56899809162087L1130.2901200000001,304.66800157287184L1132.7379600000002,304.70987020887577L1133.839488,304.81664598817423L1135.552976,304.8873179280067L1135.7977600000002,304.89764461914507L1136.0425440000001,304.9180855948361L1137.144072,304.972926714198L1138.2456000000002,305.0843443058807L1139.2247360000001,305.15638718487844L1141.672576,305.3186059483892L1141.9173600000001,305.48854710408284L1142.2845360000001,305.59818291534964L1142.52932,305.55078601655595L1143.263672,305.5707444569026L1144.7323760000002,305.64845770323103L1144.8547680000001,305.7562233415525L1145.711512,305.829515105028L1146.078688,305.92545305769295L1146.690648,305.9400545535215L1147.547392,306.0852804682661L1147.792176,306.110321410878L1154.034168,306.0362621948306L1155.38048,306.1523104284989L1155.747656,306.2386922140763L1156.359616,306.41172435764906L1157.338752,306.3927722964913L1158.317888,306.4652688286239L1158.807456,306.4655911237228L1158.929848,306.5645402412138L1159.1746320000002,306.50143320471994L1159.5418080000002,306.63082447498846L1160.398552,306.73664965980504L1160.88812,306.8375892340081L1161.377688,306.96156229709396L1162.479216,307.0826080342072L1162.601608,307.17219873596673L1163.2135680000001,307.33919205338236L1163.703136,307.40374343872764L1163.825528,307.4562299831373L1165.6614080000002,307.55759455524367L1169.3331680000001,307.6726335517298L1169.45556,307.79072878804425L1170.924264,307.90526293959147L1171.7810080000002,308.03474006065426L1172.392968,308.11640775625744L1174.1064560000002,308.1820648545014L1175.2079840000001,308.3095585631038L1175.819944,308.376810603731" style="fill: none;" fill="none"></path></g></g></g></g><g opacity="0.2"><g><g><g><path stroke="rgb(255, 112, 67)" stroke-width="2px" d="M124.71744800000002,-166.6666865348816L125.4518,51.666667064030946L127.410072,-57.91667103767395L127.65485600000001,40.41668772697449L128.022032,-7.91666905085242L129.001168,-33.33333134651184L129.368344,35.00001629193628L131.204224,-10.416686534881535L131.5714,78.75002423922223L134.01924,-53.333322207132994L134.998376,-79.58335677782696L135.48794400000003,231.2499980131785L137.935784,141.66667560736337L139.52688,29.99998132387799L141.485152,-162.5000238418579L141.852328,121.6666599114736L142.953856,0.00001986821496302582L144.300168,152.0833323399226L144.91212800000002,207.08334445953372L145.156912,-445.0000127156576L145.76887200000002,225.41666527589163L150.54216,20.00001072883606L151.15412,100.00002384185791L152.99,172.500009338061L153.724352,-84.5833420753479L154.336312,131.66665534178418L155.193056,147.083322207133L155.927408,152.0833323399226L158.252856,177.49999463558197L160.211128,162.4999890724818L160.455912,-36.66667143503827L161.435048,131.24999403953552L162.903752,224.58334267139435L164.00528000000003,219.9999938408534L164.984416,147.9166696468989L166.942688,207.50000576178235L167.43225600000002,267.08334187666577L174.041424,118.75000596046448L174.16381600000003,125.41666130224866L176.24448,79.16666070620221L176.611656,86.24997735023499L176.978832,78.75002423922223L178.81471200000001,213.74999980131787L179.18188800000001,109.99999443689984L179.30428,-183.33333730697632L180.5282,186.66666746139526L182.608864,176.66667203108472L182.85364800000002,194.583331545194L185.42388,291.2499954303106L187.504544,115.83335200945538L188.11650400000002,256.24999900658923L191.42108800000003,284.5833400885264L192.64500800000002,281.25L193.37936000000002,181.24999602635702L193.62414400000003,180.0000121196111L194.236104,223.3333339293798L194.358496,301.6666769981384L196.194376,303.75000834465027L198.397432,141.2499894698461L198.64221600000002,223.74999523162842L200.11092000000002,265.8333331346512L200.967664,242.50000218550366L201.090056,183.7499886751175L201.33484,302.49999960263574L201.70201600000001,192.9166615009308L201.94680000000002,237.91667819023135L203.415504,230.83333671092987L204.639424,207.91666706403097L206.108128,158.74998768170676L206.720088,190.41666885217032L209.90228000000002,122.0833460489909L210.391848,316.2499964237213L210.88141600000003,184.1666748126348L211.00380800000002,216.66667858759564L211.860552,267.5000031789144L212.96208,333.33333333333337L213.451648,215.41666984558105L213.94121600000003,275.0000059604645L214.55317600000004,142.08333690961203L215.042744,118.3333198229472L216.14427200000003,-65.41667381922406L216.63384,279.5833299557368L216.878624,309.16665494441986L217.123408,278.75000735123956L217.98015200000003,257.08332161108655L218.59211200000001,232.50000675519308L218.836896,260.416661699613L219.448856,276.6666760047277L219.69364000000002,287.4999940395355L220.183208,212.9166771968206L220.672776,206.24999701976776L221.40712800000003,332.50001072883606L221.52952000000002,291.2499954303106L224.344536,291.2499954303106L224.83410400000002,332.50001072883606L228.87304,230.41667540868124L229.72978400000002,106.25001788139343L230.464136,314.58332637945813L232.17762400000004,282.0833226044973L232.667192,165.00000655651093L233.52393600000002,189.16666011015576L233.76872000000003,304.5833309491476L234.503072,225.8333265781403L234.747856,299.5833456516266L236.46134400000003,258.33333035310113L236.58373600000002,266.6666557391485L237.807656,278.33332121372223L238.174832,300.8333295583725L239.27636,180.0000121196111L239.765928,269.1666732231776L240.25549600000002,182.91666607062024L241.357024,175.41666328907016L241.47941600000001,321.2500065565109L242.21376800000002,39.1666789849599L242.33616000000004,234.58333810170492L242.94812000000002,215.41666984558105L245.15117600000002,268.3333257834117L245.51835200000002,109.16667183240253L246.61988000000002,224.16665653387707L250.29164,206.6666583220164L251.88273600000002,300.00000695387524L252.61708800000002,309.16665494441986L252.984264,300.4166682561239L253.229048,273.3333359162013L253.71861600000003,262.08333174387616L254.45296800000003,181.24999602635702L255.064928,234.16667679945627L256.28884800000003,309.5833410819372L257.02320000000003,290.0000115235647L257.63516,250.41666626930237L258.85908,75.83332061767578L259.47104,302.0833383003871L263.999544,273.74999721844995L264.489112,315.83333512147266L264.611504,255.41667640209198L264.733896,348.75000019868213L266.936952,251.66667501131695L268.405656,250.83332757155102L268.528048,278.75000735123956L269.2624,294.583335518837L270.119144,106.66665434837341L273.301336,263.75000178813934L274.77004,233.749990661939L276.116352,335.8333383997282L276.483528,285.83332399527234L276.850704,304.5833309491476L279.298544,281.66666130224866L280.032896,307.91667103767395L280.88964000000004,306.6666622956594L281.62399200000004,123.74999125798544L283.582264,319.9999978144964L283.94944000000004,305.8333396911621L285.295752,217.91666249434155L285.662928,282.0833226044973L286.030104,287.0833327372869L286.15249600000004,300.8333295583725L292.02731200000005,330.8333406845729L292.394488,217.5000011920929L292.761664,142.08333690961203L292.88405600000004,302.49999960263574L295.57668,302.49999960263574L297.045384,334.16666835546494L297.29016800000005,329.5833319425583L297.779736,325.4166692495346L298.26930400000003,243.33332479000092L298.75887200000005,259.166677792867L301.81867200000005,279.99999125798547L301.94106400000004,278.75000735123956L303.287376,299.1666595141093L304.266512,241.66665474573773L304.75608,325.00000794728595L305.00086400000004,308.3333323399226L307.08152800000005,256.24999900658923L308.917408,257.08332161108655L309.40697600000004,264.166663090388L312.46677600000004,336.2499997019768L314.42504800000006,129.5833239952723L314.54744000000005,326.2499918540319L316.38332,316.2499964237213L316.87288800000005,332.9166720310847L318.83116,280.41667739550275L318.953552,304.5833309491476L320.54464800000005,140.0000055631002L321.64617599999997,271.66666587193805L322.258136,280.83333869775134L322.870096,371.2499961256981L323.237272,222.91667262713116L323.84923200000003,360.0000043710073L324.21640800000006,257.08332161108655L325.685112,304.1666696468989L326.66424800000004,342.0833324392637L327.52099200000004,291.2499954303106L328.37773599999997,157.91666507720947L329.479264,272.49998847643536L329.968832,231.66665931542715L330.213616,183.33332737286887L330.45840000000004,204.16666567325595L330.825576,333.33333333333337L331.68232000000006,249.1666575272878L332.783848,241.2499934434891L334.007768,306.25000099341077L334.497336,302.49999960263574L334.74212000000006,300.4166682561239L335.10929600000003,252.08333631356558L335.721256,259.58333909511566L336.088432,326.2499918540319L336.210824,266.6666557391485L336.333216,326.2499918540319L338.65866400000004,217.5000011920929L339.760192,214.1666611035665L340.494544,157.50000377496085L341.351288,254.9999902645747L341.47368000000006,269.58333452542627L342.575208,310.8333249886831L343.431952,209.58333710829416L346.00218400000006,312.4999950329463L346.491752,323.7499992052714L347.71567200000004,182.91666607062024L348.20524,190.41666885217032L349.306768,257.9166690508525L350.897864,288.7500027815501L351.26504,288.33334147930145L351.99939200000006,143.3333456516266L352.24417600000004,308.3333323399226L356.40550400000006,326.6666779915492L357.139856,338.7500047683716L359.22052,127.4999926487605L359.46530400000006,275.41666726271313L360.44444,282.0833226044973L360.811616,280.83333869775134L361.0564,181.24999602635702L363.25945600000006,339.16666607062024L364.97294400000004,219.58333253860476L365.217728,258.74999165534973L367.420784,260.416661699613L367.910352,201.66667302449545L368.88948800000003,364.5833283662796L370.970152,110.41668057441711L371.70450400000004,220.83334128061932L374.641912,308.3333323399226L376.11061600000005,164.5833452542623L376.23300800000004,331.66666328907013L376.600184,326.2499918540319L376.72257600000006,219.9999938408534L376.96736000000004,140.83332816759747L377.21214399999997,305.4166783889135L377.701712,368.3333297570547L378.19128,217.91666249434155L379.048024,264.58332439263665L380.883904,320.8333452542623L385.045232,315.83333512147266L385.5348,370.8333348234495L385.779584,242.083340883255L386.391544,250.83332757155102L387.49307200000004,330.8333406845729L388.96177600000004,228.3333440621694L390.185696,274.16665852069855L390.43048000000005,244.16667222976687L390.675264,363.3333320418994L390.797656,172.08332320054373L391.287224,344.1666637857755L391.6544,307.083323597908L392.633536,217.08333988984427L393.123104,306.6666622956594L394.836592,317.08334386348724L395.570944,238.33333949247998L396.182904,361.6666619976362L396.305296,184.1666748126348L396.55008000000004,290.4166728258133L396.917256,356.25000298023224L397.40682400000003,203.33334306875864L397.529216,295.83334426085156L398.38596,267.5000031789144L398.753136,291.6666567325592L399.365096,237.91667819023135L401.690544,335.4166646798452L402.914464,247.50001231829327L403.648816,357.9166606068611L404.38316800000007,352.91666289170587L404.872736,334.16666835546494L406.34144000000003,287.4999940395355L406.463832,339.16666607062024L409.523632,315.41667381922406L410.62516000000005,330.8333406845729L412.705824,304.5833309491476L414.90888000000007,339.16666607062024L415.03127200000006,315.83333512147266L415.27605600000004,183.7499886751175L416.499976,370.8333348234495L416.989544,290.83333412806195L419.314992,221.66666388511658L420.66130400000003,347.08333015441895L421.64044,276.2499898672104L422.37479200000007,342.0833324392637L422.49718400000006,275.8333285649618L422.741968,301.24999086062115L422.986752,235.83332200845084L423.59871200000003,255.83333770434064L426.65851200000003,264.58332439263665L426.780904,325.4166692495346L428.00482400000004,288.33334147930145L428.249608,282.0833226044973L428.86156800000003,225.41666527589163L430.575056,269.58333452542627L431.309408,343.7500024835269L432.41093600000005,344.9999988079071L434.246816,357.4999993046125L434.73638400000004,319.1666752099991L434.981168,265.4166718324025L436.5722640000001,331.66666328907013L438.040968,305.8333396911621L439.509672,361.6666619976362L440.733592,198.33333293596905L441.46794400000005,310.8333249886831L443.548608,339.5833273728689L444.28296,314.9999876817068L444.405352,207.50000576178235L445.38448800000003,180.8333347241084L446.11884000000003,334.16666835546494L446.853192,315.41667381922406L447.465152,392.49999572833383L450.28016800000006,283.7499926487605L451.136912,294.1666742165884L451.748872,286.66667143503827L453.33996800000006,307.50000973542535L454.196712,169.16666924953464L456.032592,188.74999880790713L457.501296,392.0833344260852L457.868472,189.5833214124044L459.58196000000004,322.91667660077417L459.70435200000003,382.5000002980232L459.94913600000007,302.91666090488434L463.86568000000005,247.9166736205419L463.98807200000005,380.83333025376004L464.110464,273.3333359162013L464.967208,198.74999423821768L466.31352000000004,248.74999622503918L468.1494,388.74999433755875L468.76136,272.0833271741867L472.43312000000003,334.16666835546494L474.024216,248.33333492279053L475.125744,279.16666865348816L476.227272,292.08334287007654L476.96162400000003,201.66667302449545L477.45119200000005,321.6666678587596L479.531856,251.24998887379965L479.77664000000004,370.4166611035665L479.89903200000003,256.24999900658923L481.367736,332.0833245913188L483.57079200000004,86.66666348775232L485.651456,268.75001192092896L486.63059200000004,321.6666678587596L489.445608,277.499998609225L490.547136,310.8333249886831L490.79192000000006,330.4166545470556L491.03670400000004,318.33332777023315L491.52627200000006,379.9999952316284L491.64866400000005,229.16666666666669L492.994976,190.41666885217032L493.36215200000004,260.416661699613L494.341288,335.8333383997282L494.70846400000005,182.91666607062024L497.64587200000005,272.91667461395264L498.13544,289.58332538604736L498.38022400000006,294.583335518837L500.21610400000003,179.16666467984518L501.8072,359.1666693488757L504.62221600000004,310.8333249886831L506.458096,347.08333015441895L506.580488,320.416659116745L507.43723200000005,307.91667103767395L508.04919200000006,260.0000003973643L508.6611520000001,345.41667252779007L509.15072000000004,279.5833299557368L509.3955040000001,358.74999562899274L511.35377600000004,353.33333661158883L513.556832,350.4166702429454L513.6792240000001,245.41665613651276L514.535968,361.25000069538754L514.903144,298.33333690961206L517.840552,214.1666611035665L518.207728,305.8333396911621L519.064472,365.8333371082942L519.431648,310.41666368643445L519.55404,318.33332777023315L519.7988240000001,257.5000077486038L519.9212160000001,194.99999284744266L522.9810160000001,268.75001192092896L524.0825440000001,329.99999324480694L527.019952,296.6666668653488L527.999088,193.33332280317944L529.712576,292.50000417232513L529.834968,354.58333293596905L530.4469280000001,232.50000675519308L531.915632,303.333322207133L535.465,202.49999562899274L535.709784,201.66667302449545L535.954568,366.24999841054284L536.933704,318.33332777023315L539.0143680000001,284.5833400885264L539.6263280000001,288.33334147930145L542.3189520000001,345.41667252779007L542.686128,399.1666634877523L543.298088,356.25000298023224L544.6444,316.2499964237213L544.889184,252.91665891806286L545.623536,287.9166553417842L545.745928,362.0833357175191L546.48028,325.4166692495346L547.337024,264.58332439263665L548.071376,269.99999582767487L548.4385520000001,254.16666766007742L550.519216,321.6666678587596L551.98792,325.4166692495346L552.355096,206.24999701976776L553.21184,285.0000013907751L555.170112,352.91666289170587L555.414896,378.33333760499954L556.1492480000001,335.8333383997282L556.638816,245.83334227403006L558.597088,243.75001092751822L560.677752,211.25000715255737L563.1255920000001,344.1666637857755L565.328648,165.00000655651093L565.573432,205.83333571751913L565.818216,342.0833324392637L566.1853920000001,327.50000059604645L566.552568,313.3333424727122L568.633232,294.583335518837L569.979544,121.25002344449362L570.101936,360.4166656732559L571.693032,357.4999993046125L575.3647920000001,329.1666706403097L575.6095760000001,187.91667620340982L578.5469840000001,347.08333015441895L579.036552,398.3333284656207L580.382864,381.250003973643L580.627648,309.5833410819372L581.729176,364.166667064031L582.58592,354.1666716337204L584.177016,289.16666408379876L585.156152,340.41666239500046L586.747248,341.2499974171321L586.9920320000001,321.6666678587596L587.3592080000001,257.9166690508525L588.8279120000001,289.58332538604736L589.31748,349.9999965230624L589.92944,347.08333015441895L590.1742240000001,359.58333065112436L591.398144,344.9999988079071L591.887712,347.5000038743019L595.43708,377.5000025828679L596.04904,305.4166783889135L596.905784,350.4166702429454L600.087976,167.91666050752005L601.0671120000001,363.75000576178235L602.291032,328.33332320054376L603.270168,315.83333512147266L604.1269120000001,285.0000013907751L604.61648,366.24999841054284L605.962792,369.99999980131787L606.697144,279.16666865348816L607.431496,286.2500101327896L610.1241200000001,247.50001231829327L611.4704320000001,295.4166581233343L612.082392,360.0000043710073L613.1839200000001,331.25000198682153L613.306312,332.9166720310847L614.775016,333.33333333333337L616.121328,272.49998847643536L616.488504,257.9166690508525L617.712424,335.00000337759656L623.464848,312.08333373069763L624.076808,297.0833281675975L624.1992,241.2499934434891L625.42312,385.4166666666667L634.357736,257.9166690508525L635.7040480000001,190.41666885217032L635.82644,343.3333287636439L636.0712240000001,334.16666835546494L636.3160080000001,263.33334048589074L636.683184,312.9166563351949L636.805576,352.08332786957425L639.8653760000001,352.5000015894572L640.477336,378.7499989072482L640.844512,194.99999284744266L641.823648,325.83333055178326L643.16996,340.00000109275186L644.271488,355.8333292603493L644.638664,290.83333412806195L644.761056,269.1666732231776L646.596936,239.16666209697723L648.5552080000001,269.99999582767487L649.28956,354.9999942382177L649.7791280000001,260.416661699613L650.880656,335.00000337759656L651.12544,288.7500027815501L652.226968,330.8333406845729L652.716536,283.33333134651184L653.4508880000001,340.41666239500046L654.062848,64.58334128061932L657.2450400000001,276.6666760047277L658.346568,247.08332618077594L660.182448,400.8333335320155L661.0391920000001,376.2499938408534L661.773544,341.2499974171321L662.2631120000001,346.2499951322874L662.3855040000001,264.166663090388L664.710952,361.6666619976362L665.078128,338.3333310484886L665.81248,369.99999980131787L669.4842400000001,377.083328862985L670.2185920000001,312.4999950329463L670.7081600000001,304.1666696468989L672.054472,376.66666756073636L672.299256,329.5833319425583L674.3799200000001,254.58332896232605L674.5023120000001,273.3333359162013L676.8277600000001,394.166665772597L676.9501520000001,349.58333522081375L677.3173280000001,294.583335518837L678.418856,286.2500101327896L679.397992,219.9999938408534L679.642776,311.66667242844903L679.765168,318.33332777023315L682.824968,362.0833357175191L683.1921440000001,366.24999841054284L684.5384560000001,366.24999841054284L684.905632,356.6666642824809L685.150416,382.9166616002719L685.3952000000002,182.91666607062024L686.863904,295.4166581233343L688.944568,332.9166720310847L691.5147999999999,329.1666706403097L692.371544,331.66666328907013L693.35068,387.08333671092987L693.840248,391.24999940395355L694.696992,340.00000109275186L694.819384,325.00000794728595L694.941776,371.66666984558105L696.165696,358.74999562899274L699.347888,329.5833319425583L699.959848,319.1666752099991L701.91812,271.25000456968945L703.264432,302.0833383003871L703.754,341.2499974171321L703.876392,348.33333889643353L704.855528,313.3333424727122L705.2227040000001,356.25000298023224L705.3450960000001,376.66666756073636L705.5898800000001,292.50000417232513L705.957056,298.33333690961206L707.058584,380.83333025376004L707.548152,398.3333284656207L708.404896,312.9166563351949L708.527288,244.16667222976687L709.26164,317.08334386348724L709.995992,375.4166712363561L710.2407760000001,354.1666716337204L710.6079520000001,269.58333452542627L714.891672,370.8333348234495L716.3603760000001,162.4999890724818L718.6858240000001,376.66666756073636L718.9306080000001,320.8333452542623L721.2560560000001,340.8333361148834L721.50084,324.1666605075201L721.623232,271.25000456968945L723.9486800000001,219.9999938408534L726.886088,338.3333310484886L727.253264,147.9166696468989L728.84436,299.1666595141093L729.8234960000001,367.49999473492306L730.925024,239.5833233992259L731.2922000000001,283.33333134651184L731.5369840000001,343.3333287636439L731.6593760000001,327.9166618982951L733.3728639999999,358.74999562899274L734.352,267.5000031789144L737.044624,269.99999582767487L737.7789760000001,391.6666607062022L738.146152,210.8333210150401L739.0028960000001,335.4166646798452L740.593992,139.16665812333426L740.8387759999999,403.3333385984103L740.9611680000002,312.4999950329463L741.817912,373.7500011920929L744.020968,391.6666607062022L746.835984,378.33333760499954L747.4479440000001,372.0833311478297L749.895784,328.75000933806103L750.140568,284.16667878627777L750.8749200000001,366.24999841054284L754.0571120000001,220.41665514310202L754.6690720000001,289.58332538604736L756.260168,368.7500034769376L756.749736,310.8333249886831L758.952792,360.4166656732559L759.9319280000001,367.0833334326744L762.746944,363.3333320418994L763.1141200000001,358.3333343267441L763.2365120000001,354.1666716337204L763.72608,366.6666721304258L763.848472,342.0833324392637L764.3380400000001,267.916664481163L767.0306640000001,300.4166682561239L769.84568,263.75000178813934L771.436776,262.08333174387616L773.3950480000001,358.3333343267441L774.7413600000001,330.4166545470556L776.6996320000001,276.6666760047277L778.41312,300.8333295583725L778.535512,211.25000715255737L778.902688,333.74999463558197L780.9833520000001,362.9166707396507L781.47292,348.33333889643353L783.92076,335.8333383997282L784.1655440000001,337.0833347241084L785.879032,334.5833296577136L788.2044800000001,400.41667222976685L788.3268720000001,201.25001172224682L788.5716560000001,378.33333760499954L789.1836160000001,387.9166717330615L792.610592,294.99999682108563L793.71212,322.49999046325684L794.5688640000001,307.91667103767395L795.058432,325.83333055178326L795.7927840000001,379.16667262713116L796.5271360000002,375.4166712363561L797.139096,269.99999582767487L797.506272,330.8333406845729L797.7510560000001,265.8333331346512L799.586936,400.8333335320155L800.6884640000001,365.4166633884112L801.6676000000001,364.5833283662796L803.748264,355.4166679581007L804.360224,347.5000038743019L804.605008,267.08334187666577L806.073712,265.00001053015393L806.3184960000001,225.00000397364298L807.052848,271.66666587193805L808.521552,334.5833296577136L809.1335120000001,347.91666517655057L810.3574320000001,339.5833273728689L811.581352,346.2499951322874L815.0083280000001,334.16666835546494L815.2531120000001,367.91666845480603L815.7426800000001,329.99999324480694L817.57856,367.91666845480603L822.5966320000001,322.49999046325684L822.9638080000001,362.49999701976776L823.453376,349.9999965230624L825.166864,273.3333359162013L826.513176,361.6666619976362L827.3699200000001,290.4166728258133L829.450584,325.83333055178326L829.8177600000001,347.5000038743019L830.4297200000001,323.7499992052714L831.0416800000002,345.8333338300387L831.776032,347.08333015441895L833.244736,347.08333015441895L833.367128,381.66666527589166L835.447792,314.58332637945813L835.814968,342.0833324392637L836.6717120000001,278.75000735123956L839.976296,274.5833446582158L840.22108,351.250005265077L841.0778240000001,362.0833357175191L843.28088,390.83333810170495L843.5256640000001,374.5833362142245L844.382408,325.83333055178326L845.483936,326.6666779915492L846.707856,382.9166616002719L846.830248,387.08333671092987L848.054168,296.2500055631002L848.5437360000001,322.0833291610082L848.6661280000001,340.41666239500046L850.9915760000001,402.0833298563957L851.603536,343.3333287636439L851.84832,314.1666650772095L852.337888,378.33333760499954L853.439416,330.4166545470556L855.6424720000001,340.8333361148834L858.090312,382.9166616002719L858.7022720000001,285.83332399527234L859.8038,139.16665812333426L860.538152,386.2500016887983L860.6605440000001,322.91667660077417L860.7829360000001,310.0000023841858L861.150112,392.9166694482168L861.517288,362.9166707396507L864.209912,342.50000615914666L866.290576,377.083328862985L866.412968,353.74999791383743L866.902536,352.5000015894572L867.514496,405.41666994492215L868.3712400000001,360.8333393931389L869.4727680000001,352.5000015894572L869.7175520000001,334.5833296577136L870.9414720000001,372.91666616996133L871.6758240000001,331.25000198682153L871.9206080000001,383.33333532015484L872.65496,333.33333333333337L872.8997439999999,334.16666835546494L873.1445280000002,335.00000337759656L874.613232,347.08333015441895L874.858016,321.6666678587596L875.1028,372.0833311478297L877.9178160000001,339.5833273728689L879.019344,351.6666665673256L879.3865200000001,360.0000043710073L881.344792,354.58333293596905L882.568712,275.8333285649618L882.691104,240.00000953674316L882.9358880000001,349.58333522081375L883.67024,300.00000695387524L884.4045920000001,278.75000735123956L885.2613360000001,225.41666527589163L885.8732960000001,381.66666527589166L886.7300400000001,351.250005265077L887.464392,305.8333396911621L889.0554880000001,297.9166756073634L892.2376800000001,374.5833362142245L894.68552,290.83333412806195L895.052696,357.08333800236386L895.542264,374.16666249434155L895.664656,258.33333035310113L896.5214000000001,288.33334147930145L898.602064,393.3333307504654L899.948376,335.8333383997282L901.2946880000001,320.8333452542623L902.151432,300.00000695387524L902.8857840000001,345.8333338300387L905.8231920000001,374.16666249434155L911.5756160000001,367.91666845480603L912.5547520000001,355.4166679581007L913.0443200000001,325.00000794728595L914.635416,285.4166626930237L915.981728,338.7500047683716L916.471296,372.5000048677127L917.4504320000001,321.2500065565109L917.5728240000001,209.16667580604553L918.062392,338.7500047683716L919.1639200000001,289.16666408379876L919.2863120000001,311.66667242844903L920.5102320000001,369.99999980131787L920.6326240000001,310.8333249886831L920.7550160000001,331.25000198682153L921.734152,366.24999841054284L924.181992,343.7500024835269L927.1194,398.3333284656207L927.6089680000001,255.41667640209198L927.8537520000001,343.7500024835269L927.9761440000001,374.5833362142245L928.34332,314.1666650772095L929.56724,328.33332320054376L930.668768,313.3333424727122L931.0359440000001,295.83334426085156L932.2598640000001,359.58333065112436L932.8718240000001,326.6666779915492L937.2779360000001,201.66667302449545L938.3794640000001,263.75000178813934L938.6242480000001,340.8333361148834L939.113816,373.33332747220993L939.8481680000001,421.2499981125196L940.2153440000001,358.3333343267441L941.0720880000001,316.2499964237213L942.0512240000002,365.4166633884112L942.4184000000001,289.16666408379876L943.3975360000001,363.75000576178235L943.887104,338.7500047683716L944.376672,308.74999364217126L945.600592,391.24999940395355L945.7229840000001,349.1666615009308L947.1916880000001,359.58333065112436L947.6812560000001,342.0833324392637L948.5380000000001,342.91666746139526L949.027568,376.2499938408534L950.37388,397.91666716337204L951.842584,344.1666637857755L953.8008560000001,382.9166616002719L956.8606560000001,362.49999701976776L958.696536,195.41667898495993L960.410024,292.9166654745738L960.8995920000001,310.0000023841858L961.3891600000001,376.66666756073636L962.3682960000001,303.333322207133L963.1026480000002,269.1666732231776L963.2250400000001,288.7500027815501L965.305704,364.166667064031L966.407232,286.66667143503827L967.1415840000001,342.50000615914666L968.1207200000001,374.9999975164731L968.4878960000001,329.99999324480694L971.18052,404.5833349227905L973.2611840000001,307.91667103767395L973.750752,247.50001231829327L974.7298880000001,344.1666637857755L975.097064,340.8333361148834L975.8314160000001,304.9999922513962L978.034472,394.58333949248L978.279256,315.41667381922406L980.4823120000001,353.74999791383743L980.97188,382.0833389957746L981.339056,282.5000087420146L983.5421120000001,358.74999562899274L984.0316800000002,340.41666239500046L984.888424,281.66666130224866L986.4795200000001,333.33333333333337L987.213872,323.33333790302277L988.9273600000001,203.7500043710073L990.3960640000001,319.58333651224774L991.252808,309.5833410819372L992.231944,360.8333393931389L993.21108,396.24999711910885L993.333472,368.7500034769376L993.9454320000001,400.41667222976685L994.4350000000001,357.08333800236386L996.026096,405.41666994492215L996.5156640000001,390.00000307957333L998.229152,321.6666678587596L999.697856,361.6666619976362L999.820248,374.5833362142245L1000.676992,286.2500101327896L1001.6561280000001,316.66665772596997L1002.39048,383.7499966224035L1003.1248320000001,314.58332637945813L1003.9815760000001,362.9166707396507L1004.2263600000001,340.00000109275186L1005.327888,299.5833456516266L1005.572672,377.083328862985L1005.695064,277.499998609225L1008.020512,375.4166712363561L1008.387688,344.1666637857755L1009.489216,257.08332161108655L1011.080312,384.58333164453506L1012.4266240000001,387.08333671092987L1012.7938,342.50000615914666L1014.01772,333.74999463558197L1015.975992,364.5833283662796L1017.3223040000001,387.4999980131785L1019.52536,329.99999324480694L1020.74928,261.2500091393789L1020.871672,377.5000025828679L1021.4836320000001,366.24999841054284L1021.606024,325.83333055178326L1022.4627680000001,379.58333392937976L1022.9523360000001,354.1666716337204L1023.074728,324.1666605075201L1023.19712,397.50000586112344L1025.889744,365.4166633884112L1026.012136,384.16667034228647L1026.501704,295.83334426085156L1026.746488,307.50000973542535L1027.8480160000001,319.58333651224774L1028.337584,384.58333164453506L1028.70476,325.00000794728595L1031.886952,315.41667381922406L1032.009344,353.74999791383743L1033.110872,375.83333253860474L1033.4780480000002,267.5000031789144L1033.9676160000001,372.0833311478297L1034.334792,182.91666607062024L1035.558712,362.9166707396507L1035.681104,292.50000417232513L1035.8034960000002,333.33333333333337L1035.9258880000002,293.74998807907104L1036.537848,358.3333343267441L1037.2722,359.58333065112436L1037.761768,330.4166545470556L1038.006552,338.7500047683716L1039.9648240000001,304.9999922513962L1040.699176,354.58333293596905L1040.821568,347.08333015441895L1041.800704,342.0833324392637L1042.5350560000002,292.08334287007654L1044.126152,308.74999364217126L1044.982896,262.49999304612476L1046.2068160000001,355.8333292603493L1049.389008,351.6666665673256L1052.2040240000001,306.25000099341077L1053.060768,337.0833347241084L1053.79512,329.99999324480694L1054.162296,362.49999701976776L1057.956448,345.41667252779007L1058.0788400000001,402.91666487852734L1060.037112,315.83333512147266L1060.159504,300.8333295583725L1061.383424,384.16667034228647L1061.7506,349.9999965230624L1061.995384,345.41667252779007L1063.3416960000002,241.66665474573773L1064.076048,316.66665772596997L1064.443224,342.50000615914666L1064.932792,399.9999985098839L1066.8910640000001,368.3333297570547L1067.1358480000001,380.83333025376004L1067.2582400000001,351.6666665673256L1067.747808,351.6666665673256L1068.114984,345.8333338300387L1068.359768,290.83333412806195L1070.0732560000001,407.91666259368264L1070.562824,339.5833273728689L1071.909136,308.3333323399226L1072.276312,393.3333307504654L1074.724152,341.66667113701504L1075.7032880000002,342.0833324392637L1076.927208,302.0833383003871L1077.0496,273.3333359162013L1078.395912,337.0833347241084L1081.210928,191.24999145666757L1081.8228880000001,385.83332796891534L1083.9035520000002,373.7500011920929L1086.718568,329.99999324480694L1086.963352,332.50001072883606L1089.2888,313.7500037749609L1089.411192,395.0000007947286L1089.90076,362.49999701976776L1090.3903280000002,326.6666779915492L1092.593384,287.4999940395355L1093.327736,355.4166679581007L1093.450128,379.9999952316284L1098.590592,374.16666249434155L1099.569728,364.166667064031L1100.548864,325.4166692495346L1100.671256,400.41667222976685L1102.7519200000002,343.7500024835269L1103.731056,373.33332747220993L1104.343016,323.7499992052714L1104.832584,186.25000615914664L1106.1788960000001,278.33332121372223L1107.6476,311.2500111262004L1108.014776,371.2499961256981L1108.25956,328.75000933806103L1108.7491280000002,385.00000536441803L1109.728264,362.49999701976776L1114.501552,315.83333512147266L1117.071784,353.33333661158883L1117.8061360000002,329.99999324480694L1117.9285280000001,302.0833383003871L1118.1733120000001,365.8333371082942L1120.009192,370.8333348234495L1120.865936,281.25L1123.6809520000002,418.7500054637591L1123.9257360000001,309.16665494441986L1124.1705200000001,345.8333338300387L1125.516832,319.9999978144964L1125.8840080000002,361.25000069538754L1127.964672,395.0000007947286L1128.699024,295.4166581233343L1130.2901200000001,365.4166633884112L1132.7379600000002,330.4166545470556L1133.839488,370.4166611035665L1135.552976,348.33333889643353L1135.7977600000002,311.2500111262004L1136.0425440000001,317.5000051657359L1137.144072,338.7500047683716L1138.2456000000002,373.7500011920929L1139.2247360000001,349.58333522081375L1141.672576,405.41666994492215L1141.9173600000001,410.41666766007745L1142.2845360000001,373.33332747220993L1142.52932,276.2499898672104L1143.263672,317.91666646798456L1144.7323760000002,353.74999791383743L1144.8547680000001,372.5000048677127L1145.711512,351.250005265077L1146.078688,365.4166633884112L1146.690648,314.9999876817068L1147.547392,396.24999711910885L1147.792176,321.6666678587596L1154.034168,260.0000003973643L1155.38048,378.33333760499954L1155.747656,360.0000043710073L1156.359616,414.1666690508525L1157.338752,294.583335518837L1158.317888,351.6666665673256L1158.807456,306.6666622956594L1158.929848,368.3333297570547L1159.1746320000002,267.08334187666577L1159.5418080000002,387.4999980131785L1160.398552,372.91666616996133L1160.88812,369.99999980131787L1161.377688,384.58333164453506L1162.479216,382.9166616002719L1162.601608,363.3333320418994L1163.2135680000001,412.08333770434064L1163.703136,347.91666517655057L1163.825528,340.41666239500046L1165.6614080000002,371.2499961256981L1169.3331680000001,379.9999952316284L1171.7810080000002,389.58332935969037L1172.392968,359.58333065112436L1174.1064560000002,349.58333522081375L1175.2079840000001,388.74999433755875L1175.819944,350.833331545194" style="fill: none;" fill="none"></path></g></g></g></g></g></g><g transform="translate(40, 375)" clip-path="url(#clip_1)"><clipPath id="clip_1"><rect width="1223" height="25"></rect></clipPath><g><g><line x1="0" y1="0" x2="0" y2="5" style="visibility: inherit;" fill="rgb(0, 0, 0)" stroke="rgb(204, 204, 204)" stroke-width="1px"></line><line x1="122.39200000000001" y1="0" x2="122.39200000000001" y2="5" style="visibility: inherit;" fill="rgb(0, 0, 0)" stroke="rgb(204, 204, 204)" stroke-width="1px"></line><line x1="244.78400000000002" y1="0" x2="244.78400000000002" y2="5" style="visibility: inherit;" fill="rgb(0, 0, 0)" stroke="rgb(204, 204, 204)" stroke-width="1px"></line><line x1="367.176" y1="0" x2="367.176" y2="5" style="visibility: inherit;" fill="rgb(0, 0, 0)" stroke="rgb(204, 204, 204)" stroke-width="1px"></line><line x1="489.56800000000004" y1="0" x2="489.56800000000004" y2="5" style="visibility: inherit;" fill="rgb(0, 0, 0)" stroke="rgb(204, 204, 204)" stroke-width="1px"></line><line x1="611.96" y1="0" x2="611.96" y2="5" style="visibility: inherit;" fill="rgb(0, 0, 0)" stroke="rgb(204, 204, 204)" stroke-width="1px"></line><line x1="734.352" y1="0" x2="734.352" y2="5" style="visibility: inherit;" fill="rgb(0, 0, 0)" stroke="rgb(204, 204, 204)" stroke-width="1px"></line><line x1="856.744" y1="0" x2="856.744" y2="5" style="visibility: inherit;" fill="rgb(0, 0, 0)" stroke="rgb(204, 204, 204)" stroke-width="1px"></line><line x1="979.1360000000001" y1="0" x2="979.1360000000001" y2="5" style="visibility: inherit;" fill="rgb(0, 0, 0)" stroke="rgb(204, 204, 204)" stroke-width="1px"></line><line x1="1101.528" y1="0" x2="1101.528" y2="5" style="visibility: inherit;" fill="rgb(0, 0, 0)" stroke="rgb(204, 204, 204)" stroke-width="1px"></line><line x1="1223.92" y1="0" x2="1223.92" y2="5" style="visibility: inherit;" fill="rgb(0, 0, 0)" stroke="rgb(204, 204, 204)" stroke-width="1px"></line></g><g transform="translate(0, 8)"><text x="0" y="0" dx="0em" dy="0.95em" style="text-anchor: middle; visibility: hidden; font-family: &quot;Helvetica Neue&quot;, sans-serif; font-size: 12px; font-weight: 200;" fill="rgb(50, 49, 63)" stroke="none" stroke-width="1px">-1k</text><text x="122.39200000000001" y="0" dx="0em" dy="0.95em" style="text-anchor: middle; visibility: inherit; font-family: &quot;Helvetica Neue&quot;, sans-serif; font-size: 12px; font-weight: 200;" fill="rgb(50, 49, 63)" stroke="none" stroke-width="1px">0</text><text x="244.78400000000002" y="0" dx="0em" dy="0.95em" style="text-anchor: middle; visibility: inherit; font-family: &quot;Helvetica Neue&quot;, sans-serif; font-size: 12px; font-weight: 200;" fill="rgb(50, 49, 63)" stroke="none" stroke-width="1px">1k</text><text x="367.176" y="0" dx="0em" dy="0.95em" style="text-anchor: middle; visibility: inherit; font-family: &quot;Helvetica Neue&quot;, sans-serif; font-size: 12px; font-weight: 200;" fill="rgb(50, 49, 63)" stroke="none" stroke-width="1px">2k</text><text x="489.56800000000004" y="0" dx="0em" dy="0.95em" style="text-anchor: middle; visibility: inherit; font-family: &quot;Helvetica Neue&quot;, sans-serif; font-size: 12px; font-weight: 200;" fill="rgb(50, 49, 63)" stroke="none" stroke-width="1px">3k</text><text x="611.96" y="0" dx="0em" dy="0.95em" style="text-anchor: middle; visibility: inherit; font-family: &quot;Helvetica Neue&quot;, sans-serif; font-size: 12px; font-weight: 200;" fill="rgb(50, 49, 63)" stroke="none" stroke-width="1px">4k</text><text x="734.352" y="0" dx="0em" dy="0.95em" style="text-anchor: middle; visibility: inherit; font-family: &quot;Helvetica Neue&quot;, sans-serif; font-size: 12px; font-weight: 200;" fill="rgb(50, 49, 63)" stroke="none" stroke-width="1px">5k</text><text x="856.744" y="0" dx="0em" dy="0.95em" style="text-anchor: middle; visibility: inherit; font-family: &quot;Helvetica Neue&quot;, sans-serif; font-size: 12px; font-weight: 200;" fill="rgb(50, 49, 63)" stroke="none" stroke-width="1px">6k</text><text x="979.1360000000001" y="0" dx="0em" dy="0.95em" style="text-anchor: middle; visibility: inherit; font-family: &quot;Helvetica Neue&quot;, sans-serif; font-size: 12px; font-weight: 200;" fill="rgb(50, 49, 63)" stroke="none" stroke-width="1px">7k</text><text x="1101.528" y="0" dx="0em" dy="0.95em" style="text-anchor: middle; visibility: inherit; font-family: &quot;Helvetica Neue&quot;, sans-serif; font-size: 12px; font-weight: 200;" fill="rgb(50, 49, 63)" stroke="none" stroke-width="1px">8k</text><text x="1223.92" y="0" dx="0em" dy="0.95em" style="text-anchor: middle; visibility: hidden; font-family: &quot;Helvetica Neue&quot;, sans-serif; font-size: 12px; font-weight: 200;" fill="rgb(50, 49, 63)" stroke="none" stroke-width="1px">9k</text></g><line x1="0" y1="0" x2="1223.92" y2="0" fill="rgb(0, 0, 0)" stroke="rgb(204, 204, 204)" stroke-width="1px"></line></g></g></g></g></svg>