<svg viewBox="0 0 1263.92041015625 400" xmlns="http://www.w3.org/2000/svg"><g><g><g><g><g><line x1="50" y1="375" x2="45" y2="375" style="visibility: inherit;" fill="rgb(0, 0, 0)" stroke="rgb(204, 204, 204)" stroke-width="1px"></line><line x1="50" y1="328.125" x2="45" y2="328.125" style="visibility: inherit;" fill="rgb(0, 0, 0)" stroke="rgb(204, 204, 204)" stroke-width="1px"></line><line x1="50" y1="281.25" x2="45" y2="281.25" style="visibility: inherit;" fill="rgb(0, 0, 0)" stroke="rgb(204, 204, 204)" stroke-width="1px"></line><line x1="50" y1="234.37499999999997" x2="45" y2="234.37499999999997" style="visibility: inherit;" fill="rgb(0, 0, 0)" stroke="rgb(204, 204, 204)" stroke-width="1px"></line><line x1="50" y1="187.49999999999997" x2="45" y2="187.49999999999997" style="visibility: inherit;" fill="rgb(0, 0, 0)" stroke="rgb(204, 204, 204)" stroke-width="1px"></line><line x1="50" y1="140.625" x2="45" y2="140.625" style="visibility: inherit;" fill="rgb(0, 0, 0)" stroke="rgb(204, 204, 204)" stroke-width="1px"></line><line x1="50" y1="93.75" x2="45" y2="93.75" style="visibility: inherit;" fill="rgb(0, 0, 0)" stroke="rgb(204, 204, 204)" stroke-width="1px"></line><line x1="50" y1="46.875" x2="45" y2="46.875" style="visibility: inherit;" fill="rgb(0, 0, 0)" stroke="rgb(204, 204, 204)" stroke-width="1px"></line><line x1="50" y1="0" x2="45" y2="0" style="visibility: inherit;" fill="rgb(0, 0, 0)" stroke="rgb(204, 204, 204)" stroke-width="1px"></line></g><g transform="translate(40, 0)"><text x="0" y="375" dx="0em" dy="0.3em" style="text-anchor: end; visibility: hidden; font-family: &quot;Helvetica Neue&quot;, sans-serif; font-size: 12px; font-weight: 200;" fill="rgb(50, 49, 63)" stroke="none" stroke-width="1px">-0.2</text><text x="0" y="328.125" dx="0em" dy="0.3em" style="text-anchor: end; visibility: inherit; font-family: &quot;Helvetica Neue&quot;, sans-serif; font-size: 12px; font-weight: 200;" fill="rgb(50, 49, 63)" stroke="none" stroke-width="1px">0</text><text x="0" y="281.25" dx="0em" dy="0.3em" style="text-anchor: end; visibility: inherit; font-family: &quot;Helvetica Neue&quot;, sans-serif; font-size: 12px; font-weight: 200;" fill="rgb(50, 49, 63)" stroke="none" stroke-width="1px">0.2</text><text x="0" y="234.37499999999997" dx="0em" dy="0.3em" style="text-anchor: end; visibility: inherit; font-family: &quot;Helvetica Neue&quot;, sans-serif; font-size: 12px; font-weight: 200;" fill="rgb(50, 49, 63)" stroke="none" stroke-width="1px">0.4</text><text x="0" y="187.49999999999997" dx="0em" dy="0.3em" style="text-anchor: end; visibility: inherit; font-family: &quot;Helvetica Neue&quot;, sans-serif; font-size: 12px; font-weight: 200;" fill="rgb(50, 49, 63)" stroke="none" stroke-width="1px">0.6</text><text x="0" y="140.625" dx="0em" dy="0.3em" style="text-anchor: end; visibility: inherit; font-family: &quot;Helvetica Neue&quot;, sans-serif; font-size: 12px; font-weight: 200;" fill="rgb(50, 49, 63)" stroke="none" stroke-width="1px">0.8</text><text x="0" y="93.75" dx="0em" dy="0.3em" style="text-anchor: end; visibility: inherit; font-family: &quot;Helvetica Neue&quot;, sans-serif; font-size: 12px; font-weight: 200;" fill="rgb(50, 49, 63)" stroke="none" stroke-width="1px">1</text><text x="0" y="46.875" dx="0em" dy="0.3em" style="text-anchor: end; visibility: inherit; font-family: &quot;Helvetica Neue&quot;, sans-serif; font-size: 12px; font-weight: 200;" fill="rgb(50, 49, 63)" stroke="none" stroke-width="1px">1.2</text><text x="0" y="0" dx="0em" dy="0.3em" style="text-anchor: end; visibility: hidden; font-family: &quot;Helvetica Neue&quot;, sans-serif; font-size: 12px; font-weight: 200;" fill="rgb(50, 49, 63)" stroke="none" stroke-width="1px">1.4</text></g><line x1="50" y1="0" x2="50" y2="375" fill="rgb(0, 0, 0)" stroke="rgb(204, 204, 204)" stroke-width="1px"></line></g></g><g transform="translate(50, 0)" clip-path="url(#clip_0)"><clipPath id="clip_0"><rect width="1213" height="375"></rect></clipPath><g><g><g><line x1="0" y1="0" x2="0" y2="375" fill="rgb(0, 0, 0)" stroke="rgb(60, 60, 60)" stroke-width="1px" opacity="0.25"></line><line x1="121.39200000000001" y1="0" x2="121.39200000000001" y2="375" fill="rgb(0, 0, 0)" stroke="rgb(60, 60, 60)" stroke-width="1px" opacity="0.25"></line><line x1="242.78400000000002" y1="0" x2="242.78400000000002" y2="375" fill="rgb(0, 0, 0)" stroke="rgb(60, 60, 60)" stroke-width="1px" opacity="0.25"></line><line x1="364.176" y1="0" x2="364.176" y2="375" fill="rgb(0, 0, 0)" stroke="rgb(60, 60, 60)" stroke-width="1px" opacity="0.25"></line><line x1="485.56800000000004" y1="0" x2="485.56800000000004" y2="375" fill="rgb(0, 0, 0)" stroke="rgb(60, 60, 60)" stroke-width="1px" opacity="0.25"></line><line x1="606.96" y1="0" x2="606.96" y2="375" fill="rgb(0, 0, 0)" stroke="rgb(60, 60, 60)" stroke-width="1px" opacity="0.25"></line><line x1="728.352" y1="0" x2="728.352" y2="375" fill="rgb(0, 0, 0)" stroke="rgb(60, 60, 60)" stroke-width="1px" opacity="0.25"></line><line x1="849.744" y1="0" x2="849.744" y2="375" fill="rgb(0, 0, 0)" stroke="rgb(60, 60, 60)" stroke-width="1px" opacity="0.25"></line><line x1="971.1360000000001" y1="0" x2="971.1360000000001" y2="375" fill="rgb(0, 0, 0)" stroke="rgb(60, 60, 60)" stroke-width="1px" opacity="0.25"></line><line x1="1092.528" y1="0" x2="1092.528" y2="375" fill="rgb(0, 0, 0)" stroke="rgb(60, 60, 60)" stroke-width="1px" opacity="0.25"></line><line x1="1213.92" y1="0" x2="1213.92" y2="375" fill="rgb(0, 0, 0)" stroke="rgb(60, 60, 60)" stroke-width="1px" opacity="0.25"></line></g><g><line x1="0" y1="375" x2="1213.92" y2="375" fill="rgb(0, 0, 0)" stroke="rgb(60, 60, 60)" stroke-width="1px" opacity="0.25"></line><line x1="0" y1="328.125" x2="1213.92" y2="328.125" fill="rgb(0, 0, 0)" stroke="rgb(60, 60, 60)" stroke-width="1px" opacity="0.25"></line><line x1="0" y1="281.25" x2="1213.92" y2="281.25" fill="rgb(0, 0, 0)" stroke="rgb(60, 60, 60)" stroke-width="1px" opacity="0.25"></line><line x1="0" y1="234.37499999999997" x2="1213.92" y2="234.37499999999997" fill="rgb(0, 0, 0)" stroke="rgb(60, 60, 60)" stroke-width="1px" opacity="0.25"></line><line x1="0" y1="187.49999999999997" x2="1213.92" y2="187.49999999999997" fill="rgb(0, 0, 0)" stroke="rgb(60, 60, 60)" stroke-width="1px" opacity="0.25"></line><line x1="0" y1="140.625" x2="1213.92" y2="140.625" fill="rgb(0, 0, 0)" stroke="rgb(60, 60, 60)" stroke-width="1px" opacity="0.25"></line><line x1="0" y1="93.75" x2="1213.92" y2="93.75" fill="rgb(0, 0, 0)" stroke="rgb(60, 60, 60)" stroke-width="1px" opacity="0.25"></line><line x1="0" y1="46.875" x2="1213.92" y2="46.875" fill="rgb(0, 0, 0)" stroke="rgb(60, 60, 60)" stroke-width="1px" opacity="0.25"></line><line x1="0" y1="0" x2="1213.92" y2="0" fill="rgb(0, 0, 0)" stroke="rgb(60, 60, 60)" stroke-width="1px" opacity="0.25"></line></g></g></g><g><g><line x1="0" y1="328.125" x2="1213.92" y2="328.125" fill="rgb(0, 0, 0)" stroke="rgb(153, 153, 153)" stroke-width="1.5px"></line></g></g><g><g><line x1="121.39200000000001" y1="0" x2="121.39200000000001" y2="375" fill="rgb(0, 0, 0)" stroke="rgb(153, 153, 153)" stroke-width="1.5px"></line></g></g><g><g><g><g><g><path stroke="rgb(255, 112, 67)" stroke-width="2px" d="M143.121168,-0.6084636719221521L143.72812800000003,6.319412700869918L143.970912,8.777287385421175L144.577872,13.078724973943395L149.31216,16.037650382124582L149.91912000000002,17.742391703133364L151.74,21.758648429244545L152.468352,25.21950183229302L153.075312,29.14508368268048L153.925056,29.5832668382306L154.653408,29.50768749748414L156.959856,32.27478628750936L158.902128,37.18104738393572L159.144912,38.455692307261984L160.116048,36.59326169560404L161.572752,39.35340982295162L162.66528000000002,39.864858946546974L163.63641600000003,41.98427868924665L165.578688,45.91743478030725L166.06425600000003,47.840450926268716L172.619424,50.70601453763629L172.74081600000002,51.558290552313224L174.80447999999998,53.75107427827277L175.16865600000003,53.857365848917595L175.532832,56.0960118233686L177.35371200000003,57.65602446892268L177.71788800000002,58.75805512825298L177.83928,58.86903640742389L179.0532,60.0824964958054L181.11686400000002,60.915485961421155L181.35964800000002,62.78733203039661L183.90888,64.57948630877121L185.97254400000003,65.26953292051786L186.57950400000001,65.17483532197338L189.85708800000003,67.80208261286708L191.07100800000003,68.60293825144134L191.79936,70.32020388143297L192.042144,72.63424625198411L192.64910400000002,74.05105240116143L192.770496,74.7995602099117L194.591376,76.45084806037602L196.776432,75.7541631292018L197.019216,77.65346320280804L198.47592000000003,79.21480762301871L199.32566400000002,80.42729978150675L199.447056,81.15977949809474L199.68984000000003,82.30151492529228L200.05401600000002,83.88912696676755L200.29680000000002,84.91601738525145L201.753504,85.73095633758669L202.967424,87.28119742599728L204.424128,87.5812754969287L205.031088,87.42514169232834L208.18728000000002,88.05906359682166L208.67284800000002,89.07159757580166L209.15841600000002,89.31450682275232L209.279808,89.6319877483271L210.12955200000002,90.25160820429954L211.22208,91.23760806742956L211.707648,92.46368507118302L212.19321600000004,93.72655489437165L212.80017600000002,95.10713849932654L213.285744,95.22519227360857L214.378272,94.65002762117507L214.86384,95.45932569222941L215.106624,96.19409921323313L215.349408,97.10131212127527L216.19915200000003,96.9924359466882L216.806112,98.10906933686846L217.04889599999998,97.72085537461174L217.655856,98.8214286346369L217.89864,99.64440038943246L218.38420800000003,99.67362344151394L218.869776,99.75285080157198L219.59812800000003,100.98577569410202L219.71952000000002,101.49005593519553L222.511536,102.31716608130915L222.997104,103.5697819416041L227.00304000000003,102.9618544512465L227.852784,104.07028543479447L228.58113600000001,104.72882386495286L230.28062400000002,105.75820896310631L230.766192,105.86249323066107L231.615936,106.24496672076333L231.85872,106.70856841410301L232.587072,107.26048652411271L232.829856,108.04395983105167L234.52934400000004,108.57039650976623L234.65073600000002,108.99925722529605L235.86465600000002,109.38813165038306L236.228832,109.38649220294337L237.32136000000003,110.13828189291479L237.806928,110.51528683514476L238.29249600000003,110.25542815683713L239.385024,110.76315409049323L239.50641600000003,111.35110978075443L240.234768,111.805911074405L240.35616000000002,112.12024943169467L240.96312000000003,112.55438745974055L243.14817600000003,113.2926586857144L243.51235200000002,113.50901975661765L244.60488000000004,113.84399974637358L248.24664,114.55577157540057L249.82473600000003,114.57255581471873L250.553088,115.15582184127481L250.91726400000002,115.42634200927188L251.16004800000002,115.32568902119561L251.64561600000002,114.99906951109256L252.37396800000002,115.73434956389008L252.980928,116.32748717540375L254.194848,116.94238688760538L254.9232,117.39599848430385L255.53016,117.74155245338045L256.74408,117.45859034448586L257.35104,117.87590487885944L261.84254400000003,118.64563722475611L262.328112,118.94389246713212L262.44950400000005,119.22670094092152L262.570896,119.93537157869713L264.755952,120.22483993764368L266.21265600000004,120.31156351612879L266.33404800000005,120.57457220115828L267.0624,121.4501894922823L267.912144,121.46047573193897L271.068336,122.14398825901361L272.52504000000005,122.48086090361278L273.86035200000003,122.71241472703238L274.224528,123.22706552678164L274.588704,123.70042895844443L277.016544,123.7144123007549L277.74489600000004,124.05989807915691L278.59464,124.45122394719664L279.322992,124.43117937637783L281.265264,124.88653828773676L281.62944000000005,125.44987123553275L282.96475200000003,125.73997526273746L283.328928,126.20416827842627L283.693104,125.5887088451648L283.814496,125.79372596047205L289.641312,126.18208110016073L290.005488,126.67709404090596L290.369664,126.784060195644L290.491056,127.17483302691667L293.16168,127.49341650377124L294.618384,127.82054269764333L294.861168,127.75492400055495L295.346736,128.13982756321903L295.832304,128.41286978759905L296.317872,128.81515217941268L299.35267200000004,129.30352605771284L299.474064,129.68968256266663L300.809376,130.34251286227334L301.780512,130.64488461053946L302.26608000000004,131.01044480946342L302.508864,131.0547171489982L304.57252800000003,131.30091088596427L306.393408,130.9241147225316L306.878976,131.13952347695528L309.91377600000004,131.42903117641615L311.85604800000004,131.5945931498471L311.97744,131.8126170687769L313.79832000000005,132.19744617470218L314.28388800000005,132.73224268137665L316.22616000000005,133.0527811734811L316.347552,133.50569019355018L317.925648,133.320822401525L319.018176,133.68307293453427L319.625136,134.16564159963102L320.232096,134.46584564831656L320.596272,134.6739975556577L321.203232,134.88130074302907L321.56740800000006,134.64506545777633L323.024112,135.07827333986435L323.99524800000006,135.37821611153237L324.84499200000005,135.55224630293105L325.694736,135.6646947327445L326.787264,135.75086221931235L327.27283200000005,136.2007372377506L327.515616,136.22022827774305L327.75840000000005,136.5564361899623L328.122576,137.03335971942292L328.97232,137.2134199881833L330.064848,137.6168331786404L331.278768,137.9598824941026L331.764336,138.16055134992092L332.00712000000004,138.47350053161864L332.37129600000003,138.82635905300214L332.978256,139.0348407687238L333.34243200000003,139.09972230503072L333.46382400000005,139.36607089908236L333.585216,139.5578186018609L335.89166400000005,139.65992064423605L336.98419200000006,139.74873602487637L337.71254400000004,139.80359986722166L338.562288,140.09729170426476L338.68368000000004,140.37485213869653L339.776208,140.54325661568606L340.62595200000004,140.93439913250262L343.175184,141.21743971912508L343.66075200000006,141.37109521427277L344.87467200000003,141.8211254282585L345.36024,142.04639799126048L346.452768,142.4338512018393L348.030864,142.6483494949768L348.39504,142.72378927422005L349.123392,142.89310840482588L349.366176,143.10044894908194L353.49350400000003,143.44029102451273L354.221856,143.54640778889052L356.28552,143.63665160038204L356.52830400000005,143.71122380588977L357.49944,144.08843530977737L357.86361600000004,144.31244091695197L358.1064,144.2210955568437L360.29145600000004,144.21394574741265L361.99094400000007,144.41795457907767L362.23372800000004,144.7578091733675L364.4187840000001,145.14714783033892L364.904352,145.30336527137317L365.875488,145.56555654553185L367.939152,145.5764888282033L368.66750400000006,145.84534713315765L371.580912,146.14259323868998L373.03761600000007,146.25644432371575L373.15900800000003,146.43451111932978L373.523184,146.75393832639836L373.64457600000003,147.17855752615404L373.88736,147.51054398809853L374.130144,147.83233585106777L374.61571200000003,148.09178892425655L375.10128000000003,148.29387960229093L375.951024,148.10459689298028L377.771904,148.40758429315326L381.899232,148.41788494548425L382.38480000000004,148.67963484753702L382.627584,148.76907227160243L383.23454399999997,148.83178391748928L384.327072,148.85769906573907L385.78377600000005,148.93302970273663L386.99769599999996,149.10461190832314L387.24048000000005,149.23584674533006L387.483264,149.4018803172987L387.604656,149.59314984137006L388.090224,149.8083613907815L388.4544,150.18502565988098L389.42553599999997,150.30539024527172L389.911104,150.55667319045014L391.610592,150.69572051815445L392.338944,150.84771693715396L392.945904,151.18392405355118L393.067296,151.39345599259144L393.31008,151.29054188105823L393.674256,151.4893953309335L394.159824,151.76744421293014L394.281216,151.950286339122L395.13096,152.12005568513925L395.495136,151.98846716314648L396.102096,151.96565625337203L398.408544,151.4859784614387L399.62246400000004,151.64781490745025L400.350816,151.9566727776225L401.07916800000004,151.80189332866993L401.564736,151.96094220729896L403.02144000000004,152.23802973521975L403.14283200000006,152.37817849779125L406.177632,152.3865675358288L407.27016000000003,152.43646435929685L409.33382400000005,152.54157917261625L411.5188800000001,152.56707905761914L411.64027200000004,152.7880669964664L411.883056,152.96644517089715L413.09697600000004,153.27294243450905L413.58254400000004,153.43628142140068L415.88899200000003,153.7169114516979L417.224304,153.83880105977667L418.19544,154.0113598648825L418.92379200000005,154.27077601715675L419.045184,154.36292491271848L419.28796800000003,154.60761929376704L419.53075200000006,154.85338670376387L420.137712,154.76753482114185L423.17251200000004,154.88111757724633L423.29390400000005,155.04080896305896L424.507824,155.1859532756578L424.750608,155.28980209156933L425.357568,155.45194691365967L427.05705600000005,155.65490656722164L427.785408,155.688563985705L428.87793600000003,155.9364685608109L430.698816,156.03074164553732L431.184384,155.9428453951333L431.427168,156.06206359385925L433.00526400000007,156.11652481877735L434.461968,156.3096161204444L435.918672,156.4753120270851L437.132592,156.56257112826998L437.8609440000001,156.30767040819347L439.92460800000003,156.35789697168158L440.65296,156.545780879031L440.774352,156.59056486680262L441.745488,156.8263464350635L442.47384,156.95285072340215L443.202192,157.19374541802625L443.809152,157.44334282500287L446.60116800000003,157.6090532048885L447.450912,157.71955417436936L448.05787200000003,158.00498785441454L449.63596800000005,158.18086255024534L450.48571200000004,158.35229226027852L452.306592,158.42967313390514L453.763296,158.55170369566898L454.127472,158.6696540404349L455.82696000000004,158.6264306330109L455.948352,158.83888171615268L456.19113600000003,158.94913169905587L460.07568000000003,159.02158713914304L460.197072,159.22199378658533L460.318464,159.41791267081186L461.16820800000005,159.63476787783497L462.50352000000004,159.84624357398573L464.3244,159.93912499772688L464.93136000000004,160.11842572152196L468.57312,160.29504311152706L470.151216,160.50377938390835L471.243744,160.61285173311202L472.336272,160.7494544626467L473.06462400000004,160.91255695754361L473.55019200000004,161.14359167622814L475.613856,161.22545745415275L475.85664,161.37938676039707L475.97803200000004,161.56025775429046L477.434736,161.71152521077963L479.619792,161.90307650922148L481.68345600000004,162.02878464216423L482.65459200000004,162.2782284170224L485.446608,162.37536785728216L486.53913600000004,162.50409798348937L486.78192000000007,162.64226539080212L487.02470400000004,162.72112558478773L487.51027200000004,162.76762124608948L487.63166400000006,162.93968319696566L488.96697600000005,163.11077902229556L489.33115200000003,163.24999115508837L490.30228800000003,163.33288740243586L490.666464,163.49228233354L493.579872,163.68073804794838L494.06544,163.5440867829718L494.30822400000005,163.6428527534013L496.12910400000004,163.73192276096867L497.7072,163.97192882453837L500.49921600000005,163.9570376605931L502.32009600000004,164.08085598154148L502.441488,164.25993163502991L503.29123200000004,164.415408558044L503.89819200000005,164.6091720528303L504.50515200000007,164.82441251238149L504.99072,164.99428975063356L505.23350400000004,165.14979704862904L507.17577600000004,165.19034541023694L509.360832,165.3415752934581L509.48222400000003,165.3902518388484L510.331968,165.5839175198168L510.69614400000006,165.7417995740853L513.609552,165.6346860349949L513.973728,165.72767392605132L514.823472,165.68351380301925L515.1876480000001,165.82507388181727L515.30904,165.9819866134345L515.551824,166.18042120175195L515.673216,166.16509596811835L518.708016,166.39702200076474L519.8005440000001,166.49135909291365L522.7139520000001,166.57434856054059L523.6850880000001,166.78622320550903L525.384576,166.98330832123796L525.505968,167.12182579467458L526.112928,167.24240223301888L527.5696320000001,167.31364213635285L531.09,167.28298922078892L531.3327840000001,167.42231289864625L531.5755680000001,167.54027883924525L532.546704,167.70454856889467L534.610368,167.73466103552101L535.2173280000001,167.88706291613963L537.887952,167.980779583985L538.2521280000001,168.09023891033908L538.859088,168.2132202492455L540.1944000000001,168.3299708409309L540.437184,168.47416747659625L541.165536,168.61345176572186L541.2869280000001,168.72412893500174L542.0152800000001,168.75415691274742L542.8650240000001,168.809062738223L543.593376,168.98233853674486L543.9575520000001,169.0322006139312L546.021216,169.23385919674627L547.47792,169.39797533485617L547.842096,169.48831940749972L548.6918400000001,169.5088286787628L550.6341120000001,169.68353380759487L550.876896,169.85670848149317L551.6052480000001,170.01196831457816L552.090816,170.12216135680325L554.033088,170.29579361589936L556.096752,170.3898021240477L558.5245920000001,170.53352841146278L560.709648,170.55070904646163L560.952432,170.6643882727569L561.1952160000001,170.77685291605997L561.559392,170.6290613252749L561.923568,170.74456496198974L563.9872320000001,170.80388412518184L565.322544,170.83816690810275L565.443936,170.91903917610858L567.0220320000001,171.01486468801704L570.6637920000001,171.10159144982322L570.906576,171.24768989050594L573.8199840000001,171.3447108879036L574.305552,171.49355979865388L574.5483360000001,171.58425003023808L575.276688,171.71012572336213L575.6408640000001,171.81962422639816L575.883648,171.92533329491638L576.976176,172.08170805752115L577.82592,172.1601208755504L579.4040160000001,172.2081163541567L580.3751520000001,172.31264067343074L581.953248,172.4622666685003L582.1960320000001,172.615761869124L582.560208,172.77634617701315L584.016912,172.74773295365083L584.50248,172.74963566153716L585.1094400000001,172.85672826504768L585.3522240000001,173.009725697256L586.566144,173.0771424237186L587.051712,173.14361505996118L590.57208,173.29182577799853L591.17904,173.43489675244908L592.0287840000001,173.57477604813698L595.184976,173.6477249886564L596.156112,173.75281159919973L597.370032,173.91080699508183L598.341168,174.03448619003L599.190912,174.12912495589612L599.6764800000001,174.19363620340735L601.011792,174.3310706549795L601.740144,174.44774275795066L602.4684960000001,174.5639051426814L605.13912,174.54205036198567L606.474432,174.70771890194752L607.081392,174.7856816265414L608.1739200000001,174.87517695915176L608.2953120000001,175.00233222410114L609.752016,174.98696646523564L611.087328,175.10034959849224L611.4515040000001,175.20145345801046L612.665424,175.32938648288723L618.370848,175.43573979198246L618.9778080000001,175.48173353019203L619.0992,175.49793576404198L620.31312,175.5953240349147L629.174736,175.6910696616583L630.510048,175.64528774951108L630.63144,175.62604049960504L630.8742240000001,175.7230775264467L631.117008,175.86183806959187L631.481184,175.89942573944907L631.602576,175.98372247796317L634.6373760000001,176.04032024727968L635.244336,175.92437237449823L635.608512,176.01668373038478L636.579648,176.1485277490345L637.91496,176.28586250033405L639.007488,176.4413176333424L639.371664,176.62020746782522L639.4930560000001,176.67695489713603L641.313936,176.72686762297266L643.2562080000001,176.88561743689675L643.98456,176.96953819629306L644.470128,177.06207415535258L645.5626560000001,177.01408871101137L645.8054400000001,176.98535303256654L646.8979680000001,177.01024101494335L647.383536,176.9079962980824L648.1118880000001,176.95256267444302L648.718848,176.96558350080798L651.8750400000001,177.1038205309152L652.9675680000001,177.18073031302427L654.788448,177.2461373774484L655.6381920000001,177.32304562058556L656.366544,177.47129856487342L656.852112,177.46179188097094L656.973504,177.6250633567047L659.2799520000001,177.75727968360874L659.644128,177.81073864727048L660.3724800000001,177.97124640847753L664.0142400000001,178.07756615761144L664.7425920000001,178.16137862582355L665.2281600000001,178.2883863528221L666.563472,178.39461034628332L666.8062560000001,178.48710699554377L668.8699200000001,178.530704814553L668.9913120000001,178.6531741841694L671.2977600000002,178.77862044274056L671.419152,178.89264595376866L671.7833280000001,178.9734834744253L672.8758560000001,179.00926484061858L673.8469920000001,179.1113490582692L674.089776,179.19244678023807L674.211168,179.24010484667414L677.245968,179.3389062850265L677.6101440000001,179.44472964238184L678.945456,179.6104250913158L679.3096320000001,179.69427783356292L679.552416,179.69388339168768L679.7952000000001,179.5366369614816L681.2519040000001,179.61578800719406L683.315568,179.6342181024536L685.8648,179.7653509609499L686.714544,179.87740326556062L687.68568,179.85351912427666L688.171248,179.94370995525944L689.020992,179.97580548677027L689.142384,180.09065040998652L689.263776,180.1614475176049L690.477696,180.27162344033667L693.6338880000001,180.3942102815377L694.240848,180.42891193151468L696.18312,180.44624502786522L697.5184320000001,180.41631103842636L698.004,180.55174800476007L698.1253919999999,180.62631548970816L699.096528,180.67848348880005L699.4607040000001,180.7680141137852L699.5820960000001,180.7314590096162L699.82488,180.7787617642018L700.189056,180.85669328039953L701.2815840000001,180.96400078618055L701.767152,181.0632329101407L702.616896,181.17305726868528L702.738288,181.21791835814727L703.4666400000001,181.29321299894082L704.194992,181.34258598443628L704.4377760000001,181.44899749322914L704.801952,181.45107512396177L709.050672,181.4634717148308L710.5073760000001,181.57189627333406L712.8138240000001,181.69293730038586L713.0566080000001,181.7832238135915L715.3630560000001,181.77316310717057L715.6058400000001,181.84737054537771L715.7272320000001,181.9153789307997L718.0336800000001,182.0036073650449L720.947088,182.11572205832454L721.3112639999999,182.17371977490222L722.8893600000001,182.2980306343109L723.8604960000001,182.30188550954574L724.953024,182.38438323558037L725.3172000000001,182.3858937589466L725.5599840000001,182.49734319874517L725.681376,182.39518528143765L727.380864,182.4621446755241L728.352,182.54853912656878L731.022624,182.594803290893L731.750976,182.692876650409L732.115152,182.81708775060974L732.9648960000001,182.88373076344143L734.542992,182.92742164991276L734.7857759999999,183.0406117480411L734.9071680000001,183.17448623752009L735.756912,183.20525443666887L737.9419680000001,183.2579946298455L740.733984,183.28429895590776L741.340944,183.4043784611205L743.7687840000001,183.4082932752445L744.011568,183.46084286809858L744.7399200000001,183.58165252260818L747.896112,183.71404665157834L748.5030720000001,183.77354071443926L750.081168,183.85000770870133L750.566736,183.96364495592712L752.751792,184.01406026016858L753.722928,184.09593993549086L756.514944,184.0977654079752L756.8791200000001,184.1233844522837L757.0005120000001,184.2222964654132L757.48608,184.3265491801131L757.607472,184.39796955438774L758.0930400000001,184.42949986523342L760.7636640000001,184.49075201154795L763.55568,184.4069405490072L765.133776,184.50811512447387L767.076048,184.48390953872365L768.4113600000001,184.54782314491106L770.3536320000001,184.64986487878048L772.05312,184.60245752692387L772.174512,184.5597994904999L772.538688,184.59064334002477L774.602352,184.61375146674996L775.0879199999999,184.6672771557968L777.51576,184.723670371771L777.7585440000001,184.7905241881089L779.458032,184.92502307263425L781.76448,184.95435759375528L781.8858720000001,185.00885986261554L782.128656,185.05359223855297L782.735616,185.13850760562724L786.134592,185.16473055390946L787.22712,185.22205173669363L788.076864,185.2389923398755L788.562432,185.34419891909013L789.290784,185.3232454736239L790.0191360000001,185.3879778138188L790.6260960000001,185.41348941386582L790.990272,185.48187910603627L791.2330560000001,185.5166138582088L793.053936,185.6025731621014L794.146464,185.70518044771822L795.1176,185.80447098440123L797.1812639999999,185.8840667196805L797.788224,185.95546588996177L798.031008,186.04001660339364L799.487712,186.13568152668896L799.7304960000001,186.09504117405746L800.458848,186.13109947860332L801.915552,186.19418117662514L802.5225120000001,186.24473816461943L803.736432,186.33501378166497L804.9503520000001,186.44073865593808L808.3493280000001,186.53580921262855L808.592112,186.612910228244L809.07768,186.56721644862162L810.8985600000001,186.6548562051991L815.8756320000001,186.68841341136377L816.239808,186.77170131709588L816.725376,186.84594028568148L818.4248640000001,186.80000929123074L819.7601760000001,186.86234077883606L820.6099200000001,186.94734085043027L822.673584,187.06657710580959L823.0377600000002,187.13446655580557L823.64472,187.14540634075985L824.2516800000001,187.21395661854052L824.980032,187.32584275656552L826.436736,187.42481129456868L826.558128,187.53264535462188L828.621792,187.54367231794348L828.985968,187.60188577112032L829.8357120000001,187.66473163262978L833.1132960000001,187.70286009339657L833.35608,187.75960302496387L834.2058240000001,187.820008886898L836.39088,187.91617697708082L836.6336640000001,187.95889927947348L837.483408,188.04119046214038L838.5759360000001,188.13278477748037L839.789856,188.1987991739393L839.911248,188.29179036650126L841.125168,188.3992630162269L841.6107360000001,188.30036409329074L841.7321280000001,188.26546565673797L844.038576,188.3327709888353L844.645536,188.40508932747585L844.88832,188.46202269904154L845.3738880000001,188.53866638307986L846.4664160000001,188.58812016269832L848.6514720000001,188.67569255251271L851.079312,188.75497620537442L851.686272,188.80478742386043L852.7788,188.87564398550958L853.507152,188.93969922608568L853.6285440000001,188.96971656608412L853.749936,188.98884288162427L854.1141120000001,189.0398122794337L854.478288,189.0967212984371L857.148912,189.22509264340215L859.212576,189.26468043133852L859.333968,189.3186348865078L859.8195360000001,189.40276986062688L860.426496,189.49038472066445L861.27624,189.51624404752792L862.368768,189.60346058465169L862.6115520000001,189.7136657864228L863.8254720000001,189.78684921182497L864.5538240000001,189.83243766279952L864.7966080000001,189.85656643812925L865.52496,189.9264739761977L865.767744,190.00496627527093L866.0105280000001,190.02359973530477L867.4672320000001,190.11236907100405L867.710016,190.18611498034238L867.9528,190.1356659469535L870.7448160000001,190.20185653975452L871.837344,190.22461361829198L872.2015200000001,190.23673440490924L874.143792,190.3231963812086L875.357712,190.39931548187715L875.479104,190.46513177539623L875.7218880000001,190.52343192121955L876.45024,190.54634582229642L877.1785920000001,190.63224938936244L878.0283360000001,190.66266827057802L878.635296,190.74042966447155L879.4850400000001,190.81933331019158L880.213392,190.8474818725231L881.7914880000001,190.84689857926062L884.94768,190.8831190237577L887.37552,190.96417344747516L887.739696,191.01007603980443L888.225264,191.07532910360908L888.346656,191.11640490325425L889.1964000000002,191.17500012058005L891.260064,191.11731322596378L892.595376,191.17173552667688L893.9306880000001,191.2517081625075L894.780432,191.30892544956157L895.5087840000001,191.3934386799914L898.422192,191.47681255776283L904.1276160000001,191.52265703710756L905.0987520000001,191.59440801501285L905.58432,191.66775004739455L907.162416,191.73102711042353L908.497728,191.8268058614218L908.9832960000001,191.84359577917468L909.9544320000001,191.9023433904311L910.0758240000001,191.93369206249895L910.5613920000001,191.9533553565711L911.6539200000001,192.05674571914273L911.7753120000001,192.0690158421172L912.989232,192.1137255730196L913.110624,192.18097731896532L913.232016,192.2027481813126L914.203152,192.25906341885988L916.630992,192.30768651929614L919.5444,192.39780365749542L920.029968,192.41908766646736L920.2727520000001,192.49557238314597L920.394144,192.47246581606615L920.75832,192.55312773098422L921.9722399999999,192.6379758172122L923.064768,192.67148958645546L923.4289440000001,192.7546458121459L924.6428640000001,192.79843574345585L925.249824,192.81925851360498L929.619936,192.87645912407538L930.7124640000001,192.9247309258121L930.9552480000001,192.9816346895468L931.440816,193.0502041472399L932.1691680000001,193.1002131872889L932.533344,193.15533055620799L933.383088,193.19195640640888L934.3542240000002,193.22411931862797L934.7184000000001,193.28409503702775L935.6895360000001,193.35871706239655L936.175104,193.43748847811645L936.660672,193.46343287663848L937.874592,193.54100659388092L937.9959840000001,193.56020379977878L939.4526880000001,193.6118773841568L939.938256,193.67727845177157L940.7880000000001,193.77151249059645L941.2735680000001,193.8200690277183L942.60888,193.83910253588192L944.065584,193.79719020148798L946.0078560000001,193.83306278799833L949.0426560000001,193.84814399602996L950.8635360000001,193.9540813842004L952.563024,194.05930507805382L953.0485920000001,194.12081079556862L953.53416,194.16754228742616L954.505296,194.21329055048108L955.2336480000001,194.1675410478259L955.3550400000001,194.2672219385034L957.418704,194.316528837233L958.5112320000001,194.38795732477382L959.239584,194.42456280223888L960.2107200000002,194.52002847630348L960.5748960000001,194.54011198602217L963.24552,194.59170520975357L965.3091840000001,194.6397529684766L965.794752,194.66595702081565L966.765888,194.67805133990532L967.1300640000001,194.7185976794986L967.858416,194.8299767813148L970.0434720000001,194.87442654922148L970.2862560000001,194.9395406213056L972.4713120000001,195.02312947645606L972.9568800000001,195.0379071109956L973.321056,195.0742227640518L975.506112,195.12693018634587L975.9916800000001,195.22554089774403L976.8414240000001,195.23990658689954L978.4195200000001,195.3242395480143L979.147872,195.39444807017694L980.8473600000001,195.46742178597933L982.304064,195.53010948151126L983.153808,195.56573109386608L984.124944,195.65712584474085L985.09608,195.70631390232737L985.217472,195.73608383604653L985.8244320000001,195.81396715756742L986.3100000000001,195.88788159015283L987.888096,195.91851229929526L988.3736640000001,195.9766561091498L990.073152,196.0718287142782L991.529856,196.14672206874073L991.651248,196.19848444017356L992.500992,196.18260051863444L993.4721280000001,196.25670576207946L994.20048,196.24448809476152L994.928832,196.24726976212958L995.778576,196.26167726676604L996.0213600000001,196.34413120560697L997.1138880000001,196.4168347857138L997.356672,196.46614176567832L997.478064,196.53768964124163L999.7845120000001,196.56849748208234L1000.148688,196.62900292198046L1001.241216,196.68894222319926L1002.819312,196.75740149677807L1004.1546240000001,196.8170234619157L1004.5188,196.84062598430296L1005.7327200000001,196.90371896360347L1007.674992,196.9407184220006L1009.0103040000001,196.98832018710803L1011.19536,197.07978425844595L1012.40928,197.0851756610192L1012.530672,197.16935528062848L1013.137632,197.22912748809372L1013.2590240000001,197.29161906806334L1014.108768,197.2872056089307L1014.594336,197.37200830115367L1014.715728,197.4578265250536L1014.83712,197.53689386702786L1017.507744,197.59208420179127L1017.6291360000001,197.66590473999148L1018.1147040000001,197.71263531161202L1018.357488,197.7527320599746L1019.450016,197.78011015178356L1019.935584,197.8436238979506L1020.2997600000001,197.8821855263996L1023.455952,197.94542911523743L1023.577344,197.97888730981416L1024.669872,198.056472171132L1025.0340480000002,198.10752229485348L1025.519616,198.1705968860632L1025.883792,198.16026572307373L1027.097712,198.1560259960624L1027.219104,198.1732147036683L1027.340496,198.24124292410323L1027.461888,198.25866361186965L1028.0688480000001,198.33370495169214L1028.7972000000002,198.37592439465752L1029.282768,198.44018721914728L1029.525552,198.44393805006095L1031.467824,198.50557959151607L1032.196176,198.52126680240218L1032.3175680000002,198.58630139822213L1033.288704,198.6447587716556L1034.0170560000001,198.54229910995772L1035.595152,198.59313625697507L1036.444896,198.65105713909398L1037.6588160000001,198.76044900155452L1040.815008,198.76802740841563L1043.6070240000001,198.84070922222242L1044.4567680000002,198.85971813564268L1045.18512,198.92775310550482L1045.549296,198.99243518910137L1049.312448,199.0354485081447L1049.4338400000001,199.1054308152351L1051.3761120000001,199.16888000306855L1051.497504,199.25165799693838L1052.711424,199.3096062307816L1053.0756000000001,199.3956038994044L1053.3183840000002,199.45600521847388L1054.653696,199.49643946242372L1055.382048,199.4931967476034L1055.7462240000002,199.52282264758216L1056.231792,199.57611664593352L1058.174064,199.55614068675968L1058.416848,199.628665138166L1058.53824,199.68640909040286L1059.023808,199.62564905106757L1059.3879840000002,199.6821363011417L1059.630768,199.714060875921L1061.330256,199.75260386246407L1061.815824,199.75603592338686L1063.1511360000002,199.80428657035694L1063.515312,199.8579249452282L1065.943152,199.86038819457346L1066.9142880000002,199.88756809426454L1068.128208,199.94095857865696L1068.2496,200.00989953028323L1069.584912,200.07515432968597L1072.376928,200.1390823189283L1072.983888,200.21654945939233L1075.0475520000002,200.24693459176186L1077.839568,200.29287206805327L1078.0823520000001,200.35977978788213L1080.3888000000002,200.30093181468078L1080.510192,200.35838199376064L1080.99576,200.3907677664078L1081.481328,200.45694626853037L1083.666384,200.33857120422198L1084.394736,200.29978025322492L1084.516128,200.31508301757614L1089.614592,200.34393953365827L1090.585728,200.42743831788394L1091.5568640000001,200.41845909155592L1091.6782560000001,200.43197554935628L1093.7419200000002,200.45436751367345L1094.713056,200.4736119525378L1095.3200160000001,200.46457994317547L1095.805584,200.525523525332L1097.140896,200.57010506666833L1098.5976,200.59914471318908L1098.961776,200.64663333455832L1099.2045600000001,200.72600899018127L1099.6901280000002,200.80019486611556L1100.661264,200.83301667095796L1105.395552,200.84998884638378L1107.944784,200.90960193864785L1108.673136,200.9483293615729L1108.7945280000001,200.96623206845402L1109.037312,200.96797592877158L1110.8581920000001,201.00308206797473L1111.707936,201.03964157998962L1114.4999520000001,201.09143944343063L1114.7427360000001,201.08110788285862L1114.98552,201.11938330003153L1116.320832,201.17859894109083L1116.6850080000002,201.22239810405318L1118.748672,201.22257034229884L1119.477024,201.26853231238502L1121.05512,201.31477200005727L1123.48296,201.27668314085682L1124.5754880000002,201.3540828138848L1126.274976,201.37992346589053L1126.5177600000002,201.4368982108508L1126.7605440000002,201.4671342038571L1127.853072,201.51781800953796L1128.9456000000002,201.57750065727717L1129.9167360000001,201.62870184096192L1132.344576,201.70026601866627L1132.5873600000002,201.74362583469522L1132.951536,201.79029755578244L1133.19432,201.80507015277954L1133.9226720000001,201.85007219499977L1135.379376,201.86662047215194L1135.500768,201.92431385769453L1136.3505120000002,201.96262218946444L1136.714688,201.98160038868534L1137.321648,201.99148549511676L1138.171392,202.01906273942893L1138.414176,202.03075894490016L1144.605168,202.0537223884724L1145.94048,202.05443872955684L1146.304656,202.05552946481123L1146.911616,202.09118720862458L1147.882752,202.15230221233506L1148.853888,202.22116390617367L1149.339456,202.24974085789228L1149.460848,202.2797543674995L1149.7036320000002,202.30895267006116L1150.067808,202.31337629718638L1150.9175520000001,202.3492212521126L1151.4031200000002,202.39957193384072L1151.888688,202.44532755859487L1152.9812160000001,202.4562465066684L1153.102608,202.52425493323588L1153.709568,202.58651879713864L1154.195136,202.61732754461698L1154.316528,202.62720195941296L1156.137408,202.6787645771449L1159.779168,202.6892741680795L1159.90056,202.75444054024967L1161.357264,202.79009690494348L1162.207008,202.86171468387852L1162.813968,202.86931059821202L1164.5134560000001,202.90435146026266L1165.605984,202.96119858022243L1166.212944,203.00087199180842" style="fill: none;" fill="none"></path></g></g></g></g><g opacity="0.2"><g><g><g><path stroke="rgb(255, 112, 67)" stroke-width="2px" d="M124.4268,-9.609371423721313L126.369072,24.609385058283806L126.61185600000002,-11.24998927116394L126.976032,11.718744412064552L127.947168,-15.703126788139343L130.132224,-77.10936851799488L130.4964,79.4531274586916L132.92424,86.48437075316906L133.895376,32.81250223517418L134.38094400000003,124.68750681728125L136.808784,103.59374899417162L138.38688000000002,45.93750089406967L140.329152,71.01562432944775L140.693328,44.531241059303284L141.78585600000002,13.12500424683094L143.121168,89.76563438773155L143.72812800000003,136.64063159376383L143.970912,57.42188170552254L144.577872,102.42187511175871L149.31216,80.39061538875103L149.91912000000002,56.484365835785866L151.74,116.95311963558197L152.468352,110.6250062584877L153.075312,129.8437463119626L153.925056,41.25000536441803L154.653408,27.421876788139343L156.959856,111.32812220603228L158.902128,182.10936896502972L159.144912,77.34373770654202L160.116048,-22.031240165233612L161.572752,128.90624441206455L162.66528000000002,56.95313774049282L163.63641600000003,114.84374385327101L165.578688,184.92187466472387L166.06425600000003,117.65624955296516L172.619424,157.50000346451998L172.74081600000002,84.14062298834324L174.80447999999998,139.68749530613422L175.16865600000003,58.12501162290573L175.532832,148.12499843537807L177.35371200000003,123.28124698251486L177.71788800000002,106.1718687415123L177.83928,63.749995082616806L179.0532,114.60937187075615L181.11686400000002,99.14062544703484L181.35964800000002,150.4687462002039L183.90888,150.23437421768904L185.97254400000003,98.90625346451998L186.57950400000001,60.46875938773155L189.85708800000003,200.85937902331352L191.07100800000003,109.92187634110451L191.79936,160.546881146729L192.042144,196.40625547617674L192.64910400000002,151.1718761175871L192.770496,116.2500036880374L194.591376,169.45312824100256L196.776432,35.859379917383194L197.019216,188.20312432944775L198.47592000000003,171.56250402331352L199.32566400000002,153.28125189989805L199.447056,125.85938069969416L199.68984000000003,153.0468799173832L200.05401600000002,183.75000078231096L200.29680000000002,150.4687462002039L201.753504,138.5156214237213L202.967424,189.1406262293458L204.424128,107.57812857627869L205.031088,76.8749937415123L208.18728000000002,131.48437812924385L208.67284800000002,159.37499329447746L209.15841600000002,106.40625469386578L209.279808,112.26562410593033L210.12955200000002,134.99999977648258L211.22208,163.35937287658453L211.707648,183.28125681728125L212.19321600000004,188.4374963119626L212.80017600000002,199.92187712341547L213.285744,104.29687891155481L214.378272,49.92186650633812L214.86384,159.1406213119626L215.106624,154.68749776482582L215.349408,170.15624418854713L216.19915200000003,88.12498860061169L216.806112,190.07812812924385L217.04889599999998,65.39061293005943L217.655856,191.48437399417162L217.89864,169.68750022351742L218.38420800000003,102.18750312924385L218.869776,106.64062667638063L219.59812800000003,209.29686818271875L219.71952000000002,146.24999463558197L222.511536,176.48437153548002L222.997104,217.03124837949872L227.00304000000003,47.34376072883606L227.852784,206.48437645286322L228.58113600000001,166.1718785762787L230.28062400000002,202.734368853271L230.766192,115.78124575316906L231.615936,142.9687449708581L231.85872,151.6406200826168L232.587072,161.24999709427357L232.829856,185.3906186297536L234.52934400000004,161.0156251117587L234.65073600000002,152.10937801748514L235.86465600000002,148.82812835276127L236.228832,109.21874642372131L237.32136000000003,187.73438036441803L237.806928,149.76563025265932L238.29249600000003,82.96874910593033L239.385024,164.53124675899744L239.50641600000003,174.1406237706542L240.234768,160.78125312924385L240.35616000000002,146.24999463558197L240.96312000000003,160.07812321186066L243.14817600000003,194.7656236588955L243.51235200000002,137.57811952382326L244.60488000000004,151.40624810010195L248.24664,194.99999564141035L249.82473600000003,116.48437567055225L250.553088,182.10936896502972L250.91726400000002,146.7187525704503L251.16004800000002,103.59374899417162L251.64561600000002,76.64063572883606L252.37396800000002,202.734368853271L252.980928,187.03125044703484L254.194848,190.78124407678843L254.9232,172.2656199708581L255.53016,159.8437512293458L256.74408,82.73436315357685L257.35104,169.45312824100256L261.84254400000003,214.45312164723873L262.328112,156.32812958210707L262.44950400000005,154.92186974734068L262.570896,209.99999810010195L264.755952,157.26563148200512L266.21265600000004,131.48437812924385L266.33404800000005,154.68749776482582L267.0624,235.78125145286322L267.912144,122.81250301748514L271.068336,212.57812483236194L272.52504000000005,167.3437524586916L273.86035200000003,153.74999586492777L274.224528,192.65624787658453L274.588704,187.9687523469329L277.016544,125.62499474734068L277.74489600000004,171.56250402331352L278.59464,178.59374731779099L279.322992,121.64062913507223L281.265264,188.67186829447746L281.62944000000005,204.84374463558197L282.96475200000003,166.87499452382326L283.328928,192.42187589406967L283.693104,37.26561181247234L283.814496,155.39062768220901L289.641312,182.57812689989805L290.005488,198.98437522351742L290.369664,142.50000100582838L290.491056,184.92187466472387L293.16168,174.8437536880374L294.618384,176.71874351799488L294.861168,117.89062153548002L295.346736,186.32812052965164L295.832304,169.92187220603228L296.317872,190.3125001117587L299.35267200000004,204.37500067055225L299.474064,189.37499821186066L300.809376,231.79687187075615L301.780512,177.8906313702464L302.26608000000004,188.4374963119626L302.508864,138.0468774586916L304.57252800000003,170.3906301409006L306.393408,70.78123837709427L306.878976,165.70312064141035L309.91377600000004,178.12500335276127L311.85604800000004,158.43750536441803L311.97744,167.3437524586916L313.79832000000005,195.23438159376383L314.28388800000005,220.78124899417162L316.22616000000005,186.09374854713678L316.347552,208.82812421768904L317.925648,102.42187511175871L319.018176,194.53125167638063L319.625136,215.62500251457095L320.232096,185.3906186297536L320.596272,170.15624418854713L321.203232,170.3906301409006L321.56740800000006,93.98437198251486L323.024112,209.99999810010195L323.99524800000006,187.49999441206455L324.84499200000005,165.93750659376383L325.694736,155.39062768220901L326.787264,150.93750413507223L327.27283200000005,215.8593744970858L327.515616,139.68749530613422L327.75840000000005,196.6406274586916L328.122576,222.65625279396772L328.97232,169.68750022351742L330.064848,210.70312801748514L331.278768,200.3906210884452L331.764336,174.8437536880374L332.00712000000004,195.9374975413084L332.37129600000003,203.90625670552254L332.978256,177.65624541789293L333.34243200000003,151.1718761175871L333.46382400000005,189.1406262293458L333.585216,175.54686963558197L335.89166400000005,158.90624932944775L336.98419200000006,156.56250156462193L337.71254400000004,150.23437421768904L338.562288,196.17186952382326L338.68368000000004,193.59374977648258L339.776208,172.9687498882413L340.62595200000004,216.5624974295497L343.175184,196.17186952382326L343.66075200000006,171.32811807096004L344.87467200000003,229.92187505587935L345.36024,186.32812052965164L346.452768,218.90625217929482L348.030864,185.15624664723873L348.39504,157.73437544703484L349.123392,176.71874351799488L349.366176,184.68750268220901L353.49350400000003,211.87500189989805L354.221856,165.00000469386578L356.28552,161.95312701165676L356.52830400000005,158.90624932944775L357.49944,221.24999994412065L357.86361600000004,190.3125001117587L358.1064,125.39062276482582L360.29145600000004,142.73437298834324L361.99094400000007,186.79687846451998L362.23372800000004,215.62500251457095L364.4187840000001,226.64062539115548L364.904352,178.12500335276127L365.875488,200.85937902331352L367.939152,147.89062645286322L368.66750400000006,202.96875480562449L371.580912,209.53125413507223L373.03761600000007,170.62500212341547L373.15900800000003,184.68750268220901L373.523184,215.62500251457095L373.64457600000003,239.0625011175871L373.88736,219.6093751117587L374.130144,217.96875027939677L374.61571200000003,204.84374463558197L375.10128000000003,192.65624787658453L375.951024,106.40625469386578L377.771904,215.39062354713678L381.899232,150.70311818271875L382.38480000000004,206.95312041789293L382.627584,168.74999832361937L383.23454399999997,162.8906289115548L384.327072,154.68749776482582L385.78377600000005,165.93750659376383L386.99769599999996,187.9687523469329L387.24048000000005,179.06250525265932L387.483264,187.2656224295497L387.604656,193.35937779396772L388.090224,199.21874720603228L388.4544,236.95312533527613L389.42553599999997,178.12500335276127L389.911104,208.82812421768904L391.610592,183.04687086492777L392.338944,186.32812052965164L392.945904,229.92187505587935L393.067296,200.62499307096004L393.31008,127.03125458210707L393.674256,198.5156312584877L394.159824,217.7343782968819L394.281216,195.4687535762787L395.13096,192.65624787658453L395.495136,120.46875525265932L396.102096,146.48438058793545L398.408544,35.859379917383194L399.62246400000004,190.78124407678843L400.350816,226.87499737367034L401.07916800000004,114.14062790572643L401.564736,190.78124407678843L403.02144000000004,220.07812606170774L403.14283200000006,186.79687846451998L406.177632,154.45312578231096L407.27016000000003,164.7656187415123L409.33382400000005,178.59374731779099L411.5188800000001,158.90624932944775L411.64027200000004,207.89062231779099L411.883056,197.57812935858965L413.09697600000004,230.1562470383942L413.58254400000004,194.53125167638063L415.88899200000003,224.53124960884452L417.224304,184.68750268220901L418.19544,197.8125013411045L418.92379200000005,220.3124980442226L419.045184,177.8906313702464L419.28796800000003,217.2656273469329L419.53075200000006,217.96875027939677L420.137712,132.65625201165676L423.17251200000004,184.21874474734068L423.29390400000005,196.40625547617674L424.507824,192.8906198590994L424.750608,182.3437549173832L425.357568,197.8125013411045L427.05705600000005,208.82812421768904L427.785408,164.53124675899744L428.87793600000003,221.24999994412065L430.698816,180.9374950826168L431.184384,132.65625201165676L431.427168,187.73438036441803L433.00526400000007,170.62500212341547L434.461968,207.89062231779099L435.918672,200.85937902331352L437.132592,179.99999318271875L437.8609440000001,87.65624463558197L439.92460800000003,169.92187220603228L440.65296,207.42187835276127L440.774352,168.74999832361937L441.745488,221.0156279616058L442.47384,191.48437399417162L443.202192,223.12499675899744L443.809152,225.9375024586916L446.60116800000003,203.20312678813934L447.450912,188.20312432944775L448.05787200000003,236.95312533527613L449.63596800000005,206.95312041789293L450.48571200000004,206.01561851799488L452.306592,179.99999318271875L453.763296,192.65624787658453L454.127472,191.71874597668648L455.82696000000004,146.48438058793545L455.948352,218.67187321186066L456.19113600000003,190.07812812924385L460.07568000000003,179.53124921768904L460.197072,216.09375346451998L460.318464,215.15625156462193L461.16820800000005,221.4843719266355L462.50352000000004,220.3124980442226L464.3244,186.56250648200512L464.93136000000004,211.64062293246388L468.57312,211.17187198251486L470.151216,220.78124899417162L471.243744,192.1875039115548L472.336272,200.3906210884452L473.06462400000004,208.35938025265932L473.55019200000004,228.51562220603228L475.613856,185.15624664723873L475.85664,206.48437645286322L475.97803200000004,214.6875006146729L477.434736,206.25000447034836L479.619792,218.4375012293458L481.68345600000004,199.21874720603228L482.65459200000004,236.25000240281224L485.446608,191.25000201165676L486.53913600000004,200.85937902331352L486.78192000000007,203.90625670552254L487.02470400000004,186.32812052965164L487.51027200000004,176.71874351799488L487.63166400000006,214.6875006146729L488.96697600000005,214.6875006146729L489.33115200000003,205.3125025704503L490.30228800000003,188.4374963119626L490.666464,211.87500189989805L493.579872,221.0156279616058L494.06544,121.87500111758709L494.30822400000005,193.82812175899744L496.12910400000004,191.0156300291419L497.7072,237.65624826774L500.49921600000005,159.37499329447746L502.32009600000004,202.2656248882413L502.441488,219.6093751117587L503.29123200000004,212.57812483236194L503.89819200000005,224.76562159135938L504.50515200000007,231.79687187075615L504.99072,217.96875027939677L505.23350400000004,213.74999871477485L507.17577600000004,177.8906313702464L509.360832,212.8124968148768L509.48222400000003,180.70312310010195L510.331968,226.64062539115548L510.69614400000006,215.62500251457095L513.609552,131.7187501117587L513.973728,195.23438159376383L514.823472,151.6406200826168L515.1876480000001,210.9375L515.30904,216.09375346451998L515.551824,229.6875030733645L515.673216,161.24999709427357L518.708016,240.93749793246388L519.8005440000001,196.87499944120646L522.7139520000001,193.35937779396772L523.6850880000001,235.3125005029142L525.384576,230.8593769557774L525.505968,212.1093738824129L526.112928,206.48437645286322L527.5696320000001,190.54687209427357L531.09,157.26563148200512L531.3327840000001,213.04687578231096L531.5755680000001,206.25000447034836L532.546704,221.71875089406967L534.610368,177.65624541789293L535.2173280000001,218.20312226191163L537.887952,198.98437522351742L538.2521280000001,204.37500067055225L538.859088,209.0624962002039L540.1944000000001,207.1875063702464L540.437184,216.5624974295497L541.165536,215.15625156462193L541.2869280000001,205.78124653548002L542.0152800000001,178.82811930030584L542.8650240000001,187.2656224295497L543.593376,227.34374832361937L543.9575520000001,185.85937656462193L546.021216,237.42187628522515L547.47792,225.00000055879354L547.842096,200.15624910593033L548.6918400000001,176.48437153548002L550.6341120000001,229.21875212341547L550.876896,228.9843731559813L551.6052480000001,223.12499675899744L552.090816,207.89062231779099L554.033088,229.92187505587935L556.096752,202.734368853271L558.5245920000001,220.07812606170774L560.709648,176.48437153548002L560.952432,209.99999810010195L561.1952160000001,209.7656261175871L561.559392,119.29688137024641L561.923568,210.9375L563.9872320000001,191.48437399417162L565.322544,182.8124988824129L565.443936,199.21874720603228L567.0220320000001,204.6093726530671L570.6637920000001,201.5624949708581L570.906576,222.65625279396772L573.8199840000001,205.54687455296516L574.305552,224.0624986588955L574.5483360000001,203.67187075316906L575.276688,216.32812544703484L575.6408640000001,210.70312801748514L575.883648,209.53125413507223L576.976176,227.8124992735684L577.82592,200.15624910593033L579.4040160000001,189.37499821186066L580.3751520000001,209.7656261175871L581.953248,226.17187444120646L582.1960320000001,227.8124992735684L582.560208,230.62499798834324L584.016912,162.42187097668648L584.50248,173.437493853271L585.1094400000001,211.64062293246388L585.3522240000001,228.51562220603228L586.566144,197.57812935858965L587.051712,197.34374340623617L590.57208,227.34374832361937L591.17904,225.70312349125743L592.0287840000001,224.76562159135938L595.184976,200.3906210884452L596.156112,212.34375284984708L597.370032,232.03125083819032L598.341168,219.6093751117587L599.190912,209.0624962002039L599.6764800000001,198.04687332361937L601.011792,225.2343725413084L601.740144,217.7343782968819L602.4684960000001,217.7343782968819L605.13912,166.40625055879354L606.474432,236.4843743853271L607.081392,203.90625670552254L608.1739200000001,208.35938025265932L608.2953120000001,222.65625279396772L609.752016,169.2187562584877L611.087328,217.7343782968819L611.4515040000001,213.28124776482582L612.665424,223.59374770894647L618.370848,215.62500251457095L618.9778080000001,192.8906198590994L619.0992,181.640625L620.31312,212.57812483236194L629.174736,212.1093738824129L630.510048,158.20311941206455L630.63144,168.28125435858965L630.8742240000001,212.8124968148768L631.117008,228.9843731559813L631.481184,190.3125001117587L631.602576,208.35938025265932L634.6373760000001,197.8125013411045L635.244336,131.250006146729L635.608512,211.64062293246388L636.579648,227.1093763411045L637.91496,229.45312410593033L639.007488,236.71875335276127L639.371664,246.09375139698386L639.4930560000001,198.75000324100256L641.313936,196.17186952382326L643.2562080000001,238.82812215015292L643.98456,209.7656261175871L644.470128,213.28124776482582L645.5626560000001,158.20311941206455L645.8054400000001,165.70312064141035L646.8979680000001,186.79687846451998L647.383536,136.64063159376383L648.1118880000001,194.53125167638063L648.718848,182.10936896502972L651.8750400000001,231.79687187075615L652.9675680000001,207.65625033527613L654.788448,203.20312678813934L655.6381920000001,207.89062231779099L656.366544,236.4843743853271L656.852112,173.67187980562449L656.973504,242.81250173226L659.2799520000001,230.62499798834324L659.644128,199.21874720603228L660.3724800000001,242.34375078231096L664.0142400000001,220.78124899417162L664.7425920000001,211.87500189989805L665.2281600000001,229.45312410593033L666.563472,221.24999994412065L666.8062560000001,215.8593744970858L668.8699200000001,196.17186952382326L668.9913120000001,228.28125022351742L671.2977600000002,229.6875030733645L671.419152,225.2343725413084L671.7833280000001,211.87500189989805L672.8758560000001,193.59374977648258L673.8469920000001,220.78124899417162L674.089776,212.34375284984708L674.211168,198.75000324100256L677.245968,219.84374709427357L677.6101440000001,222.89062477648258L678.945456,247.7343762293458L679.3096320000001,214.21874966472387L679.552416,179.53124921768904L679.7952000000001,114.60937187075615L681.2519040000001,212.34375284984708L683.315568,187.2656224295497L685.8648,234.14062662050128L686.714544,226.40625340864062L687.68568,169.92187220603228L688.171248,217.49999932944775L689.020992,193.35937779396772L689.142384,228.04687824100256L689.263776,209.7656261175871L690.477696,226.40625340864062L693.6338880000001,231.79687187075615L694.240848,194.99999564141035L696.18312,187.73438036441803L697.5184320000001,167.8124964237213L698.004,237.65624826774L698.1253919999999,212.1093738824129L699.096528,202.734368853271L699.4607040000001,218.67187321186066L699.5820960000001,165.23437667638063L699.82488,200.85937902331352L700.189056,213.98437768220901L701.2815840000001,226.64062539115548L701.767152,223.3593757264316L702.616896,228.04687824100256L702.738288,200.3906210884452L703.4666400000001,213.51562673226L704.194992,202.49999687075615L704.4377760000001,227.1093763411045L704.801952,182.3437549173832L709.050672,186.79687846451998L710.5073760000001,228.28125022351742L712.8138240000001,233.9062476530671L713.0566080000001,220.78124899417162L715.3630560000001,177.42187343537807L715.6058400000001,213.98437768220901L715.7272320000001,211.40625094994903L718.0336800000001,220.3124980442226L720.947088,230.8593769557774L721.3112639999999,207.42187835276127L722.8893600000001,236.4843743853271L723.8604960000001,183.98437276482582L724.953024,218.4375012293458L725.3172000000001,183.04687086492777L725.5599840000001,231.32812790572643L725.681376,137.57811952382326L727.380864,211.87500189989805L728.352,220.54687701165676L731.022624,202.96875480562449L731.750976,225.9375024586916L732.115152,237.65624826774L732.9648960000001,212.34375284984708L734.542992,202.2656248882413L734.7857759999999,233.20312472060323L734.9071680000001,242.57812276482582L735.756912,196.87499944120646L737.9419680000001,206.71874843537807L740.733984,194.99999564141035L741.340944,236.95312533527613L743.7687840000001,185.15624664723873L744.011568,206.95312041789293L744.7399200000001,237.65624826774L747.896112,243.04687371477485L748.5030720000001,210.46875603497028L750.081168,218.20312226191163L750.566736,235.07812153548002L752.751792,206.71874843537807L753.722928,221.0156279616058L756.514944,184.92187466472387L756.8791200000001,195.70312555879354L757.0005120000001,228.9843731559813L757.48608,231.5624998882413L757.607472,216.79687639698386L758.0930400000001,198.75000324100256L760.7636640000001,212.34375284984708L763.55568,146.24999463558197L765.133776,230.62499798834324L767.076048,173.437493853271L768.4113600000001,213.74999871477485L770.3536320000001,231.32812790572643L772.05312,162.8906289115548L772.174512,165.00000469386578L772.538688,198.75000324100256L774.602352,195.23438159376383L775.0879199999999,209.29686818271875L777.51576,210.70312801748514L777.7585440000001,215.62500251457095L779.458032,247.0312532968819L781.76448,198.5156312584877L781.8858720000001,210.2343700826168L782.128656,205.78124653548002L782.735616,224.53124960884452L786.134592,197.34374340623617L787.22712,211.87500189989805L788.076864,193.12500581145287L788.562432,234.37499860301614L789.290784,175.54686963558197L790.0191360000001,215.62500251457095L790.6260960000001,197.34374340623617L790.990272,217.49999932944775L791.2330560000001,201.79688092321157L793.053936,225.9375024586916L794.146464,233.9062476530671L795.1176,232.50000178813934L797.1812639999999,223.3593757264316L797.788224,219.6093751117587L798.031008,225.9375024586916L799.487712,231.32812790572643L799.7304960000001,166.87499452382326L800.458848,203.20312678813934L801.915552,216.09375346451998L802.5225120000001,210.2343700826168L803.736432,229.21875212341547L804.9503520000001,236.71875335276127L808.3493280000001,231.79687187075615L808.592112,223.3593757264316L809.07768,164.7656187415123L810.8985600000001,228.51562220603228L815.8756320000001,202.734368853271L816.239808,226.64062539115548L816.725376,222.42187382653356L818.4248640000001,164.7656187415123L819.7601760000001,216.79687639698386L820.6099200000001,227.8124992735684L822.673584,244.45312656462193L823.0377600000002,219.84374709427357L823.64472,192.42187589406967L824.2516800000001,220.3124980442226L824.980032,241.4062488824129L826.436736,235.3125005029142L826.558128,239.76562405005097L828.621792,192.8906198590994L828.985968,215.8593744970858L829.8357120000001,218.20312226191163L833.1132960000001,206.25000447034836L833.35608,215.39062354713678L834.2058240000001,217.2656273469329L836.39088,234.84374955296516L836.6336640000001,208.82812421768904L837.483408,228.28125022351742L838.5759360000001,232.96875273808837L839.789856,220.54687701165676L839.911248,233.9062476530671L841.125168,241.17187689989805L841.6107360000001,139.68749530613422L841.7321280000001,171.0937460884452L844.038576,221.4843719266355L844.645536,224.0624986588955L844.88832,216.5624974295497L845.3738880000001,226.40625340864062L846.4664160000001,213.04687578231096L848.6514720000001,232.03125083819032L851.079312,228.04687824100256L851.686272,213.51562673226L852.7788,224.0624986588955L853.507152,220.78124899417162L853.6285440000001,203.90625670552254L853.749936,198.5156312584877L854.1141120000001,214.45312164723873L854.478288,217.49999932944775L857.148912,253.3593736588955L859.212576,209.0624962002039L859.333968,216.32812544703484L859.8195360000001,231.5624998882413L860.426496,233.4374967031181L861.27624,202.49999687075615L862.368768,233.4374967031181L862.6115520000001,245.1562494970858L863.8254720000001,226.64062539115548L864.5538240000001,212.8124968148768L864.7966080000001,202.03125290572643L865.52496,225.2343725413084L865.767744,229.6875030733645L866.0105280000001,199.45311918854713L867.4672320000001,235.07812153548002L867.710016,227.57812729105353L867.9528,164.53124675899744L870.7448160000001,223.82812667638063L871.837344,201.79688092321157L872.2015200000001,196.40625547617674L874.143792,234.37499860301614L875.357712,229.21875212341547L875.479104,224.0624986588955L875.7218880000001,220.3124980442226L876.45024,202.2656248882413L877.1785920000001,234.6093775704503L878.0283360000001,206.25000447034836L878.635296,230.62499798834324L879.4850400000001,231.32812790572643L880.213392,205.3125025704503L881.7914880000001,190.54687209427357L884.94768,209.53125413507223L887.37552,232.7343737706542L887.739696,214.6875006146729L888.225264,224.76562159135938L888.346656,212.34375284984708L889.1964000000002,221.4843719266355L891.260064,161.24999709427357L892.595376,219.37500312924385L893.9306880000001,232.7343737706542L894.780432,221.0156279616058L895.5087840000001,235.3125005029142L898.422192,234.84374955296516L904.1276160000001,215.39062354713678L905.0987520000001,228.9843731559813L905.58432,229.92187505587935L907.162416,224.76562159135938L908.497728,241.87499983236194L908.9832960000001,200.62499307096004L909.9544320000001,222.65625279396772L910.0758240000001,208.35938025265932L910.5613920000001,202.2656248882413L911.6539200000001,246.32812337949872L911.7753120000001,198.5156312584877L912.989232,215.62500251457095L913.110624,227.57812729105353L913.232016,203.67187075316906L914.203152,221.95312287658453L916.630992,217.96875027939677L919.5444,240.00000301748514L920.029968,203.67187075316906L920.2727520000001,232.96875273808837L920.394144,180.23437913507223L920.75832,235.3125005029142L921.9722399999999,237.65624826774L923.064768,210.46875603497028L923.4289440000001,236.95312533527613L924.6428640000001,216.09375346451998L925.249824,203.90625670552254L929.619936,223.3593757264316L930.7124640000001,218.67187321186066L930.9552480000001,223.3593757264316L931.440816,229.6875030733645L932.1691680000001,219.84374709427357L932.533344,222.65625279396772L933.383088,212.8124968148768L934.3542240000002,210.46875603497028L934.7184000000001,225.46875150874257L935.6895360000001,233.4374967031181L936.175104,235.78125145286322L936.660672,207.42187835276127L937.874592,235.3125005029142L937.9959840000001,203.90625670552254L939.4526880000001,221.4843719266355L939.938256,228.9843731559813L940.7880000000001,244.68749854713678L941.2735680000001,220.07812606170774L942.60888,204.1406286880374L944.065584,171.0937460884452L946.0078560000001,213.28124776482582L949.0426560000001,202.03125290572643L950.8635360000001,251.4843768440187L952.563024,251.24999787658453L953.0485920000001,227.57812729105353L953.53416,219.6093751117587L954.505296,219.14062416180968L955.2336480000001,169.2187562584877L955.3550400000001,248.67187812924385L957.418704,221.24999994412065L958.5112320000001,233.4374967031181L959.239584,214.45312164723873L960.2107200000002,246.79687432944775L960.5748960000001,205.54687455296516L963.24552,222.89062477648258L965.3091840000001,221.0156279616058L965.794752,209.0624962002039L966.765888,201.32812298834324L967.1300640000001,217.03124837949872L967.858416,256.17187237367034L970.0434720000001,219.37500312924385L970.2862560000001,230.8593769557774L972.4713120000001,241.17187689989805L972.9568800000001,203.20312678813934L973.321056,215.15625156462193L975.506112,224.29687762632966L975.9916800000001,249.84375201165676L976.8414240000001,203.20312678813934L978.4195200000001,242.1093718148768L979.147872,234.37499860301614L980.8473600000001,236.01562343537807L982.304064,230.39062600582838L983.153808,215.39062354713678L984.124944,246.5625023469329L985.09608,223.12499675899744L985.217472,212.34375284984708L985.8244320000001,239.29687310010195L986.3100000000001,237.18749731779099L987.888096,213.04687578231096L988.3736640000001,228.51562220603228L990.073152,249.37500106170774L991.529856,238.12499921768904L991.651248,225.2343725413084L992.500992,187.2656224295497L993.4721280000001,237.89062723517418L994.20048,189.37499821186066L994.928832,197.8125013411045L995.778576,204.37500067055225L996.0213600000001,242.81250173226L997.1138880000001,237.42187628522515L997.356672,224.29687762632966L997.478064,236.95312533527613L999.7845120000001,213.98437768220901L1000.148688,230.8593769557774L1001.241216,230.62499798834324L1002.819312,235.54687248542905L1004.1546240000001,230.62499798834324L1004.5188,210.2343700826168L1005.7327200000001,232.7343737706542L1007.674992,217.96875027939677L1009.0103040000001,224.0624986588955L1011.19536,249.14062209427357L1012.40928,200.15624910593033L1012.530672,245.1562494970858L1013.137632,231.32812790572643L1013.2590240000001,232.96875273808837L1014.108768,194.7656236588955L1014.594336,245.8593724295497L1014.715728,246.5625023469329L1014.83712,242.81250173226L1017.507744,229.21875212341547L1017.6291360000001,240.00000301748514L1018.1147040000001,224.53124960884452L1018.357488,220.78124899417162L1019.450016,213.51562673226L1019.935584,234.37499860301614L1020.2997600000001,220.07812606170774L1023.455952,234.37499860301614L1023.577344,217.2656273469329L1024.669872,242.81250173226L1025.0340480000002,227.57812729105353L1025.519616,234.6093775704503L1025.883792,192.1875039115548L1027.097712,195.70312555879354L1027.219104,208.12499430030584L1027.340496,237.65624826774L1027.461888,208.35938025265932L1028.0688480000001,241.87499983236194L1028.7972000000002,222.89062477648258L1029.282768,235.78125145286322L1029.525552,200.62499307096004L1031.467824,234.37499860301614L1032.196176,207.65625033527613L1032.3175680000002,236.4843743853271L1033.288704,232.7343737706542L1034.0170560000001,138.74999340623617L1035.595152,228.28125022351742L1036.444896,232.50000178813934L1037.6588160000001,262.7343717031181L1040.815008,203.20312678813934L1043.6070240000001,241.4062488824129L1044.4567680000002,209.99999810010195L1045.18512,238.82812215015292L1045.549296,236.95312533527613L1049.312448,224.29687762632966L1049.4338400000001,240.234375L1051.3761120000001,236.4843743853271L1051.497504,247.96874821186066L1052.711424,233.4374967031181L1053.0756000000001,250.07812399417162L1053.3183840000002,235.07812153548002L1054.653696,223.3593757264316L1055.382048,197.57812935858965L1055.7462240000002,217.03124837949872L1056.231792,231.09374893829226L1058.174064,187.73438036441803L1058.416848,242.57812276482582L1058.53824,233.9062476530671L1059.023808,163.5937448590994L1059.3879840000002,233.20312472060323L1059.630768,218.67187321186066L1061.330256,222.65625279396772L1061.815824,201.79688092321157L1063.1511360000002,228.51562220603228L1063.515312,231.79687187075615L1065.943152,201.32812298834324L1066.9142880000002,216.09375346451998L1068.128208,231.79687187075615L1068.2496,241.17187689989805L1069.584912,239.0625011175871L1072.376928,238.3593781851232L1072.983888,246.5625023469329L1075.0475520000002,218.4375012293458L1077.839568,227.8124992735684L1078.0823520000001,240.46874698251486L1080.3888000000002,165.00000469386578L1080.510192,234.84374955296516L1080.99576,219.84374709427357L1081.481328,240.234375L1083.666384,129.14063036441803L1084.394736,176.95312947034836L1084.516128,209.53125413507223L1089.614592,217.7343782968819L1090.585728,250.7812469266355L1091.5568640000001,194.99999564141035L1091.6782560000001,208.59375223517418L1093.7419200000002,213.98437768220901L1094.713056,212.1093738824129L1095.3200160000001,194.99999564141035L1095.805584,237.42187628522515L1097.140896,227.57812729105353L1098.5976,218.20312226191163L1098.961776,229.45312410593033L1099.2045600000001,248.9062501117587L1099.6901280000002,245.8593724295497L1100.661264,220.78124899417162L1105.395552,211.17187198251486L1107.944784,237.18749731779099L1108.673136,224.53124960884452L1108.7945280000001,211.87500189989805L1109.037312,202.03125290572643L1110.8581920000001,222.42187382653356L1111.707936,223.3593757264316L1114.4999520000001,232.7343737706542L1114.7427360000001,194.7656236588955L1114.98552,224.53124960884452L1116.320832,237.42187628522515L1116.6850080000002,228.04687824100256L1118.748672,201.32812298834324L1119.477024,229.45312410593033L1121.05512,229.6875030733645L1123.48296,177.8906313702464L1124.5754880000002,248.9062501117587L1126.274976,217.2656273469329L1126.5177600000002,236.4843743853271L1126.7605440000002,220.07812606170774L1127.853072,232.7343737706542L1128.9456000000002,238.3593781851232L1129.9167360000001,233.20312472060323L1132.344576,245.8593724295497L1132.5873600000002,228.51562220603228L1132.951536,230.62499798834324L1133.19432,210.9375L1133.9226720000001,229.6875030733645L1135.379376,212.1093738824129L1135.500768,237.65624826774L1136.3505120000002,225.70312349125743L1136.714688,213.74999871477485L1137.321648,208.12499430030584L1138.171392,219.14062416180968L1138.414176,209.29686818271875L1144.605168,216.32812544703484L1145.94048,202.49999687075615L1146.304656,202.734368853271L1146.911616,224.29687762632966L1147.882752,240.234375L1148.853888,245.1562494970858L1149.339456,220.07812606170774L1149.460848,221.0156279616058L1149.7036320000002,220.54687701165676L1150.067808,205.07813058793545L1150.9175520000001,224.76562159135938L1151.4031200000002,233.9062476530671L1151.888688,231.09374893829226L1152.9812160000001,209.29686818271875L1153.102608,245.1562494970858L1153.709568,241.64062784984708L1154.195136,221.95312287658453L1154.316528,208.82812421768904L1156.137408,235.07812153548002L1159.779168,209.29686818271875L1159.90056,243.74999664723873L1161.357264,225.2343725413084L1162.207008,247.96874821186066L1162.813968,207.65625033527613L1164.5134560000001,225.00000055879354L1165.605984,238.82812215015292L1166.212944,228.04687824100256" style="fill: none;" fill="none"></path></g></g></g></g></g></g><g transform="translate(50, 375)" clip-path="url(#clip_1)"><clipPath id="clip_1"><rect width="1213" height="25"></rect></clipPath><g><g><line x1="0" y1="0" x2="0" y2="5" style="visibility: inherit;" fill="rgb(0, 0, 0)" stroke="rgb(204, 204, 204)" stroke-width="1px"></line><line x1="121.39200000000001" y1="0" x2="121.39200000000001" y2="5" style="visibility: inherit;" fill="rgb(0, 0, 0)" stroke="rgb(204, 204, 204)" stroke-width="1px"></line><line x1="242.78400000000002" y1="0" x2="242.78400000000002" y2="5" style="visibility: inherit;" fill="rgb(0, 0, 0)" stroke="rgb(204, 204, 204)" stroke-width="1px"></line><line x1="364.176" y1="0" x2="364.176" y2="5" style="visibility: inherit;" fill="rgb(0, 0, 0)" stroke="rgb(204, 204, 204)" stroke-width="1px"></line><line x1="485.56800000000004" y1="0" x2="485.56800000000004" y2="5" style="visibility: inherit;" fill="rgb(0, 0, 0)" stroke="rgb(204, 204, 204)" stroke-width="1px"></line><line x1="606.96" y1="0" x2="606.96" y2="5" style="visibility: inherit;" fill="rgb(0, 0, 0)" stroke="rgb(204, 204, 204)" stroke-width="1px"></line><line x1="728.352" y1="0" x2="728.352" y2="5" style="visibility: inherit;" fill="rgb(0, 0, 0)" stroke="rgb(204, 204, 204)" stroke-width="1px"></line><line x1="849.744" y1="0" x2="849.744" y2="5" style="visibility: inherit;" fill="rgb(0, 0, 0)" stroke="rgb(204, 204, 204)" stroke-width="1px"></line><line x1="971.1360000000001" y1="0" x2="971.1360000000001" y2="5" style="visibility: inherit;" fill="rgb(0, 0, 0)" stroke="rgb(204, 204, 204)" stroke-width="1px"></line><line x1="1092.528" y1="0" x2="1092.528" y2="5" style="visibility: inherit;" fill="rgb(0, 0, 0)" stroke="rgb(204, 204, 204)" stroke-width="1px"></line><line x1="1213.92" y1="0" x2="1213.92" y2="5" style="visibility: inherit;" fill="rgb(0, 0, 0)" stroke="rgb(204, 204, 204)" stroke-width="1px"></line></g><g transform="translate(0, 8)"><text x="0" y="0" dx="0em" dy="0.95em" style="text-anchor: middle; visibility: hidden; font-family: &quot;Helvetica Neue&quot;, sans-serif; font-size: 12px; font-weight: 200;" fill="rgb(50, 49, 63)" stroke="none" stroke-width="1px">-1k</text><text x="121.39200000000001" y="0" dx="0em" dy="0.95em" style="text-anchor: middle; visibility: inherit; font-family: &quot;Helvetica Neue&quot;, sans-serif; font-size: 12px; font-weight: 200;" fill="rgb(50, 49, 63)" stroke="none" stroke-width="1px">0</text><text x="242.78400000000002" y="0" dx="0em" dy="0.95em" style="text-anchor: middle; visibility: inherit; font-family: &quot;Helvetica Neue&quot;, sans-serif; font-size: 12px; font-weight: 200;" fill="rgb(50, 49, 63)" stroke="none" stroke-width="1px">1k</text><text x="364.176" y="0" dx="0em" dy="0.95em" style="text-anchor: middle; visibility: inherit; font-family: &quot;Helvetica Neue&quot;, sans-serif; font-size: 12px; font-weight: 200;" fill="rgb(50, 49, 63)" stroke="none" stroke-width="1px">2k</text><text x="485.56800000000004" y="0" dx="0em" dy="0.95em" style="text-anchor: middle; visibility: inherit; font-family: &quot;Helvetica Neue&quot;, sans-serif; font-size: 12px; font-weight: 200;" fill="rgb(50, 49, 63)" stroke="none" stroke-width="1px">3k</text><text x="606.96" y="0" dx="0em" dy="0.95em" style="text-anchor: middle; visibility: inherit; font-family: &quot;Helvetica Neue&quot;, sans-serif; font-size: 12px; font-weight: 200;" fill="rgb(50, 49, 63)" stroke="none" stroke-width="1px">4k</text><text x="728.352" y="0" dx="0em" dy="0.95em" style="text-anchor: middle; visibility: inherit; font-family: &quot;Helvetica Neue&quot;, sans-serif; font-size: 12px; font-weight: 200;" fill="rgb(50, 49, 63)" stroke="none" stroke-width="1px">5k</text><text x="849.744" y="0" dx="0em" dy="0.95em" style="text-anchor: middle; visibility: inherit; font-family: &quot;Helvetica Neue&quot;, sans-serif; font-size: 12px; font-weight: 200;" fill="rgb(50, 49, 63)" stroke="none" stroke-width="1px">6k</text><text x="971.1360000000001" y="0" dx="0em" dy="0.95em" style="text-anchor: middle; visibility: inherit; font-family: &quot;Helvetica Neue&quot;, sans-serif; font-size: 12px; font-weight: 200;" fill="rgb(50, 49, 63)" stroke="none" stroke-width="1px">7k</text><text x="1092.528" y="0" dx="0em" dy="0.95em" style="text-anchor: middle; visibility: inherit; font-family: &quot;Helvetica Neue&quot;, sans-serif; font-size: 12px; font-weight: 200;" fill="rgb(50, 49, 63)" stroke="none" stroke-width="1px">8k</text><text x="1213.92" y="0" dx="0em" dy="0.95em" style="text-anchor: middle; visibility: hidden; font-family: &quot;Helvetica Neue&quot;, sans-serif; font-size: 12px; font-weight: 200;" fill="rgb(50, 49, 63)" stroke="none" stroke-width="1px">9k</text></g><line x1="0" y1="0" x2="1213.92" y2="0" fill="rgb(0, 0, 0)" stroke="rgb(204, 204, 204)" stroke-width="1px"></line></g></g></g></g></svg>