<svg viewBox="0 0 1263.92041015625 400" xmlns="http://www.w3.org/2000/svg"><g><g><g><g><g><line x1="60" y1="375" x2="55" y2="375" style="visibility: inherit;" fill="rgb(0, 0, 0)" stroke="rgb(204, 204, 204)" stroke-width="1px"></line><line x1="60" y1="340.9090909090909" x2="55" y2="340.9090909090909" style="visibility: inherit;" fill="rgb(0, 0, 0)" stroke="rgb(204, 204, 204)" stroke-width="1px"></line><line x1="60" y1="306.81818181818176" x2="55" y2="306.81818181818176" style="visibility: inherit;" fill="rgb(0, 0, 0)" stroke="rgb(204, 204, 204)" stroke-width="1px"></line><line x1="60" y1="272.7272727272727" x2="55" y2="272.7272727272727" style="visibility: inherit;" fill="rgb(0, 0, 0)" stroke="rgb(204, 204, 204)" stroke-width="1px"></line><line x1="60" y1="238.63636363636357" x2="55" y2="238.63636363636357" style="visibility: inherit;" fill="rgb(0, 0, 0)" stroke="rgb(204, 204, 204)" stroke-width="1px"></line><line x1="60" y1="204.54545454545465" x2="55" y2="204.54545454545465" style="visibility: inherit;" fill="rgb(0, 0, 0)" stroke="rgb(204, 204, 204)" stroke-width="1px"></line><line x1="60" y1="170.45454545454555" x2="55" y2="170.45454545454555" style="visibility: inherit;" fill="rgb(0, 0, 0)" stroke="rgb(204, 204, 204)" stroke-width="1px"></line><line x1="60" y1="136.36363636363646" x2="55" y2="136.36363636363646" style="visibility: inherit;" fill="rgb(0, 0, 0)" stroke="rgb(204, 204, 204)" stroke-width="1px"></line><line x1="60" y1="102.27272727272731" x2="55" y2="102.27272727272731" style="visibility: inherit;" fill="rgb(0, 0, 0)" stroke="rgb(204, 204, 204)" stroke-width="1px"></line><line x1="60" y1="68.18181818181819" x2="55" y2="68.18181818181819" style="visibility: inherit;" fill="rgb(0, 0, 0)" stroke="rgb(204, 204, 204)" stroke-width="1px"></line><line x1="60" y1="34.09090909090912" x2="55" y2="34.09090909090912" style="visibility: inherit;" fill="rgb(0, 0, 0)" stroke="rgb(204, 204, 204)" stroke-width="1px"></line><line x1="60" y1="0" x2="55" y2="0" style="visibility: inherit;" fill="rgb(0, 0, 0)" stroke="rgb(204, 204, 204)" stroke-width="1px"></line></g><g transform="translate(50, 0)"><text x="0" y="375" dx="0em" dy="0.3em" style="text-anchor: end; visibility: hidden; font-family: &quot;Helvetica Neue&quot;, sans-serif; font-size: 12px; font-weight: 200;" fill="rgb(50, 49, 63)" stroke="none" stroke-width="1px">0.21</text><text x="0" y="340.9090909090909" dx="0em" dy="0.3em" style="text-anchor: end; visibility: inherit; font-family: &quot;Helvetica Neue&quot;, sans-serif; font-size: 12px; font-weight: 200;" fill="rgb(50, 49, 63)" stroke="none" stroke-width="1px">0.215</text><text x="0" y="306.81818181818176" dx="0em" dy="0.3em" style="text-anchor: end; visibility: inherit; font-family: &quot;Helvetica Neue&quot;, sans-serif; font-size: 12px; font-weight: 200;" fill="rgb(50, 49, 63)" stroke="none" stroke-width="1px">0.22</text><text x="0" y="272.7272727272727" dx="0em" dy="0.3em" style="text-anchor: end; visibility: inherit; font-family: &quot;Helvetica Neue&quot;, sans-serif; font-size: 12px; font-weight: 200;" fill="rgb(50, 49, 63)" stroke="none" stroke-width="1px">0.225</text><text x="0" y="238.63636363636357" dx="0em" dy="0.3em" style="text-anchor: end; visibility: inherit; font-family: &quot;Helvetica Neue&quot;, sans-serif; font-size: 12px; font-weight: 200;" fill="rgb(50, 49, 63)" stroke="none" stroke-width="1px">0.23</text><text x="0" y="204.54545454545465" dx="0em" dy="0.3em" style="text-anchor: end; visibility: inherit; font-family: &quot;Helvetica Neue&quot;, sans-serif; font-size: 12px; font-weight: 200;" fill="rgb(50, 49, 63)" stroke="none" stroke-width="1px">0.235</text><text x="0" y="170.45454545454555" dx="0em" dy="0.3em" style="text-anchor: end; visibility: inherit; font-family: &quot;Helvetica Neue&quot;, sans-serif; font-size: 12px; font-weight: 200;" fill="rgb(50, 49, 63)" stroke="none" stroke-width="1px">0.24</text><text x="0" y="136.36363636363646" dx="0em" dy="0.3em" style="text-anchor: end; visibility: inherit; font-family: &quot;Helvetica Neue&quot;, sans-serif; font-size: 12px; font-weight: 200;" fill="rgb(50, 49, 63)" stroke="none" stroke-width="1px">0.245</text><text x="0" y="102.27272727272731" dx="0em" dy="0.3em" style="text-anchor: end; visibility: inherit; font-family: &quot;Helvetica Neue&quot;, sans-serif; font-size: 12px; font-weight: 200;" fill="rgb(50, 49, 63)" stroke="none" stroke-width="1px">0.25</text><text x="0" y="68.18181818181819" dx="0em" dy="0.3em" style="text-anchor: end; visibility: inherit; font-family: &quot;Helvetica Neue&quot;, sans-serif; font-size: 12px; font-weight: 200;" fill="rgb(50, 49, 63)" stroke="none" stroke-width="1px">0.255</text><text x="0" y="34.09090909090912" dx="0em" dy="0.3em" style="text-anchor: end; visibility: inherit; font-family: &quot;Helvetica Neue&quot;, sans-serif; font-size: 12px; font-weight: 200;" fill="rgb(50, 49, 63)" stroke="none" stroke-width="1px">0.26</text><text x="0" y="0" dx="0em" dy="0.3em" style="text-anchor: end; visibility: hidden; font-family: &quot;Helvetica Neue&quot;, sans-serif; font-size: 12px; font-weight: 200;" fill="rgb(50, 49, 63)" stroke="none" stroke-width="1px">0.265</text></g><line x1="60" y1="0" x2="60" y2="375" fill="rgb(0, 0, 0)" stroke="rgb(204, 204, 204)" stroke-width="1px"></line></g></g><g transform="translate(60, 0)" clip-path="url(#clip_0)"><clipPath id="clip_0"><rect width="1203" height="375"></rect></clipPath><g><g><g><line x1="0" y1="0" x2="0" y2="375" fill="rgb(0, 0, 0)" stroke="rgb(60, 60, 60)" stroke-width="1px" opacity="0.25"></line><line x1="120.39200000000001" y1="0" x2="120.39200000000001" y2="375" fill="rgb(0, 0, 0)" stroke="rgb(60, 60, 60)" stroke-width="1px" opacity="0.25"></line><line x1="240.78400000000002" y1="0" x2="240.78400000000002" y2="375" fill="rgb(0, 0, 0)" stroke="rgb(60, 60, 60)" stroke-width="1px" opacity="0.25"></line><line x1="361.176" y1="0" x2="361.176" y2="375" fill="rgb(0, 0, 0)" stroke="rgb(60, 60, 60)" stroke-width="1px" opacity="0.25"></line><line x1="481.56800000000004" y1="0" x2="481.56800000000004" y2="375" fill="rgb(0, 0, 0)" stroke="rgb(60, 60, 60)" stroke-width="1px" opacity="0.25"></line><line x1="601.96" y1="0" x2="601.96" y2="375" fill="rgb(0, 0, 0)" stroke="rgb(60, 60, 60)" stroke-width="1px" opacity="0.25"></line><line x1="722.352" y1="0" x2="722.352" y2="375" fill="rgb(0, 0, 0)" stroke="rgb(60, 60, 60)" stroke-width="1px" opacity="0.25"></line><line x1="842.744" y1="0" x2="842.744" y2="375" fill="rgb(0, 0, 0)" stroke="rgb(60, 60, 60)" stroke-width="1px" opacity="0.25"></line><line x1="963.1360000000001" y1="0" x2="963.1360000000001" y2="375" fill="rgb(0, 0, 0)" stroke="rgb(60, 60, 60)" stroke-width="1px" opacity="0.25"></line><line x1="1083.528" y1="0" x2="1083.528" y2="375" fill="rgb(0, 0, 0)" stroke="rgb(60, 60, 60)" stroke-width="1px" opacity="0.25"></line><line x1="1203.92" y1="0" x2="1203.92" y2="375" fill="rgb(0, 0, 0)" stroke="rgb(60, 60, 60)" stroke-width="1px" opacity="0.25"></line></g><g><line x1="0" y1="375" x2="1203.92" y2="375" fill="rgb(0, 0, 0)" stroke="rgb(60, 60, 60)" stroke-width="1px" opacity="0.25"></line><line x1="0" y1="340.9090909090909" x2="1203.92" y2="340.9090909090909" fill="rgb(0, 0, 0)" stroke="rgb(60, 60, 60)" stroke-width="1px" opacity="0.25"></line><line x1="0" y1="306.81818181818176" x2="1203.92" y2="306.81818181818176" fill="rgb(0, 0, 0)" stroke="rgb(60, 60, 60)" stroke-width="1px" opacity="0.25"></line><line x1="0" y1="272.7272727272727" x2="1203.92" y2="272.7272727272727" fill="rgb(0, 0, 0)" stroke="rgb(60, 60, 60)" stroke-width="1px" opacity="0.25"></line><line x1="0" y1="238.63636363636357" x2="1203.92" y2="238.63636363636357" fill="rgb(0, 0, 0)" stroke="rgb(60, 60, 60)" stroke-width="1px" opacity="0.25"></line><line x1="0" y1="204.54545454545465" x2="1203.92" y2="204.54545454545465" fill="rgb(0, 0, 0)" stroke="rgb(60, 60, 60)" stroke-width="1px" opacity="0.25"></line><line x1="0" y1="170.45454545454555" x2="1203.92" y2="170.45454545454555" fill="rgb(0, 0, 0)" stroke="rgb(60, 60, 60)" stroke-width="1px" opacity="0.25"></line><line x1="0" y1="136.36363636363646" x2="1203.92" y2="136.36363636363646" fill="rgb(0, 0, 0)" stroke="rgb(60, 60, 60)" stroke-width="1px" opacity="0.25"></line><line x1="0" y1="102.27272727272731" x2="1203.92" y2="102.27272727272731" fill="rgb(0, 0, 0)" stroke="rgb(60, 60, 60)" stroke-width="1px" opacity="0.25"></line><line x1="0" y1="68.18181818181819" x2="1203.92" y2="68.18181818181819" fill="rgb(0, 0, 0)" stroke="rgb(60, 60, 60)" stroke-width="1px" opacity="0.25"></line><line x1="0" y1="34.09090909090912" x2="1203.92" y2="34.09090909090912" fill="rgb(0, 0, 0)" stroke="rgb(60, 60, 60)" stroke-width="1px" opacity="0.25"></line><line x1="0" y1="0" x2="1203.92" y2="0" fill="rgb(0, 0, 0)" stroke="rgb(60, 60, 60)" stroke-width="1px" opacity="0.25"></line></g></g></g><g><g><line x1="0" y1="1806.8181818181813" x2="1203.92" y2="1806.8181818181813" fill="rgb(0, 0, 0)" stroke="rgb(153, 153, 153)" stroke-width="1.5px"></line></g></g><g><g><line x1="120.39200000000001" y1="0" x2="120.39200000000001" y2="375" fill="rgb(0, 0, 0)" stroke="rgb(153, 153, 153)" stroke-width="1.5px"></line></g></g><g><g><g><g><g><path stroke="rgb(255, 112, 67)" stroke-width="2px" d="M121.114352,129.54540821638997L122.67944800000001,-23.940431708619144L132.792376,-0.05948627480449886L133.27394400000003,19.46741683438802L135.681784,32.28323349879088L137.24688,86.41740880056523L139.173152,66.80742665575616L139.53432800000002,83.86900574543142L140.61785600000002,79.55190457478932L141.942168,79.67226259848002L142.54412800000003,85.28712534018484L142.784912,90.36722229883287L143.386872,85.58996133721854L148.08216000000002,77.33181105794029L148.68412,50.22060520956785L150.49,66.95653629220527L151.212352,77.62547299323188L151.814312,68.573142789847L152.657056,67.32493103946678L153.379408,74.26900941733953L155.666856,76.83016812616944L157.593128,87.93314465767645L157.833912,96.39463039752832L158.797048,88.5980515990044L160.241752,99.60779360017739L161.32528000000002,74.91814138098084L162.288416,51.21481431704336L164.214688,34.79650478307576L164.696256,47.93680161539368L171.197424,60.04681930222171L171.31781600000002,54.51875196722307L173.36448,51.29613684273943L173.72565600000001,46.570102758897406L174.08683200000002,42.711583531067845L175.89271200000002,43.61962354219605L176.25388800000002,52.38587406348961L176.37428,41.97469554255389L177.5782,30.225451683015365L179.624864,36.85137528079645L179.86564800000002,46.05708220320139L182.39388,50.42303327543925L184.44054400000002,60.37429972939373L185.042504,60.528307478722866L188.293088,69.65384894789423L189.49700800000002,77.66349443195134L190.21936000000002,76.08560354401521L190.460144,77.06674500707345L191.06210400000003,75.0614775733045L191.18249600000001,77.96290176766348L192.98837600000002,76.60279422923969L195.15543200000002,73.76673968375866L195.396216,75.28466768230192L196.84092,75.39329577242455L197.68366400000002,75.83332094491675L197.804056,77.68863217875855L198.04484000000002,82.194055539653L198.40601600000002,90.61753157497145L198.6468,92.79533843368023L200.091504,96.56770849607659L201.295424,105.34134893419161L202.740128,103.68313662902244L203.34208800000002,112.2137329751655L206.47228000000004,113.83649632353308L206.95384800000002,115.51158382743631L207.43541600000003,115.70823875351539L207.555808,123.35056093234724L208.39855200000002,121.85212169589346L209.48208,121.12827409776617L209.963648,120.33217191574519L210.44521600000002,117.58246312020873L211.04717600000004,121.01763741930279L211.52874400000002,121.12718736126465L212.61227200000002,125.9084489351687L213.09384,134.16803738104736L213.33462400000002,140.96208112708982L213.575408,139.5675772890095L214.41815200000002,137.13043097784524L215.020112,131.64135203822656L215.260896,132.50638037956665L215.862856,132.231535463937L216.10364,133.46722050735553L216.58520800000002,131.85518648418693L217.066776,133.84483058292335L217.78912800000003,135.9451352115682L217.90952000000001,133.82291485003088L220.678536,133.02376264085632L221.16010400000002,136.18716903469203L225.13304000000002,138.10578704383633L225.97578400000003,140.27723180963227L226.698136,136.4760568729376L228.38362400000003,132.53612449954164L228.865192,134.49131423188575L229.70793600000002,135.98646242571186L229.94872,139.81999026653236L230.671072,139.02607031671295L230.911856,137.5635732051857L232.59734400000002,136.73853249971648L232.717736,141.77179198223897L233.921656,146.17919297628572L234.282832,147.93196338186368L235.36636000000001,145.98908465726066L235.847928,145.63804453183292L236.329496,145.61487368557192L237.413024,150.18434748276448L237.53341600000002,147.02000722618442L238.25576800000002,143.22069277989863L238.37616000000003,144.1536836853826L238.97812000000002,145.25587316698474L241.14517600000002,145.78830397517694L241.50635200000002,147.76962547032943L242.58988000000002,147.307204435104L246.20164,148.28759411915857L247.76673600000004,148.06514833226717L248.489088,145.01990939485705L248.850264,146.17290309602706L249.09104800000003,149.51136127985293L249.57261600000004,148.47929499542354L250.294968,151.80621099562896L250.89692800000003,154.45713032596151L252.100848,154.87080050095267L252.8232,158.57645117946674L253.42516,161.3373725708357L254.62908000000002,164.16662497161468L255.23104,165.20211656975607L259.685544,166.87423196912638L260.167112,172.083268335466L260.287504,170.08745016146904L260.407896,170.94199266235825L262.574952,169.61646559702697L264.019656,169.67543629096673L264.14004800000004,173.1243266937852L264.86240000000004,173.05221451559126L265.705144,174.0107422426316L268.83533600000004,172.75655928306782L270.28004000000004,173.65408540048713L271.604352,178.6793840031738L271.965528,178.6690341117829L272.326704,175.76743143063638L274.734544,176.02606336280724L275.45689600000003,175.64122126803264L276.29964,175.31044534982342L277.021992,174.30329779515796L278.948264,173.0677799815472L279.30944000000005,170.79162833769658L280.633752,172.74695072982234L280.994928,176.52806795637665L281.356104,173.51356184799025L281.47649600000005,169.92777553675072L287.255312,170.53757269343643L287.616488,170.4906486704289L287.977664,169.1998189831127L288.09805600000004,170.67475967683677L290.74668,171.4023698051797L292.191384,173.38971691603064L292.43216800000005,172.51426106704417L292.91373600000003,174.7857554311954L293.395304,174.71289522178625L293.87687200000005,171.0074068610791L296.88667200000003,173.07506073979616L297.007064,173.62799515609439L298.33137600000003,176.00529717826996L299.294512,177.79106468580747L299.77608000000004,179.81478253228786L300.016864,182.41563522732358L302.063528,180.37780083843938L303.869408,180.1037679517182L304.35097600000006,181.3531147979811L307.36077600000004,183.17646576891744L309.287048,184.56132160420444L309.40744,184.22579525135484L311.21332,184.30771914280146L311.69488800000005,180.47828822624123L313.62116000000003,179.6808635669757L313.741552,179.58496577038696L315.30664800000005,181.67983632097193L316.390176,180.84673832761018L316.992136,181.94998369636056L317.594096,181.56295111485758L317.95527200000004,182.88992931910852L318.557232,183.84666297574245L318.91840800000006,183.57238384631282L320.363112,184.79047286283603L321.3262480000001,184.86449364282987L322.168992,188.4323044965623L323.011736,188.17581440600287L324.095264,188.4220395350425L324.576832,189.3166690560317L324.817616,186.5051530035337L325.05840000000006,186.1123230044217L325.419576,186.25219500988962L326.26232000000005,186.05229445351327L327.345848,190.75740698648835L328.549768,192.6212526165858L329.031336,192.426463967097L329.27212000000003,194.48636583030105L329.63329600000003,195.86427142566396L330.235256,198.69305411623526L330.59643200000005,200.80189165041057L330.71682400000003,203.4347384618447L330.837216,206.29524077312746L333.124664,210.38769032424076L334.20819200000005,210.46447160956896L334.930544,209.61298476866938L335.773288,208.8760955607042L335.8936800000001,209.73801123054812L336.977208,209.57027152906068L337.81995200000006,210.00047870835505L340.348184,208.74973732198316L340.82975200000004,209.38935605510184L342.033672,209.74590111159037L342.51524,212.51491249559933L343.598768,214.0557901992967L345.16386400000005,214.38459692846305L345.52504,214.19901409429625L346.24739200000005,216.3582941231528L346.488176,219.61451810633739L350.58150400000005,220.28126486973616L351.30385600000005,220.20381333810442L353.35052,219.72590900825378L353.59130400000004,219.98475221343548L354.55444,218.61604579516973L354.91561600000006,219.2417293333654L355.1564,219.92782504740947L357.323456,219.88663902489978L359.00894400000004,219.81314159075816L359.249728,221.8229339964616L361.41678400000006,194.24923692711258L361.898352,193.29677231328105L362.861488,196.11714616034337L364.908152,196.63765313472433L365.63050400000003,195.1735046818516L368.519912,197.28574344556225L369.96461600000004,197.92193134153055L370.085008,199.69014882308105L370.446184,201.44380169318885L370.56657600000005,202.6812507242225L370.80736,203.2523156566166L371.048144,203.63189579934738L371.529712,200.0056783827824L372.01128,199.65523685636592L372.854024,201.1870319994413L374.659904,199.72845371525509L378.753232,199.44411929901227L379.2348,199.19253311197474L379.475584,199.0340880406687L380.077544,201.54139938743486L381.161072,202.1280126158079L382.60577600000005,204.60455008040825L383.809696,207.1217233346647L384.05048000000005,207.64806221114839L384.291264,207.87265574674575L384.411656,208.4515288044602L384.89322400000003,208.73027388602915L385.25440000000003,208.53536537513187L386.217536,208.430059229998L386.69910400000003,209.11599608774748L388.384592,209.41741073389346L389.106944,210.99625835010895L389.708904,213.6938448972786L389.829296,214.60862682180766L390.07008,216.49586992002298L390.431256,215.92877494375205L390.912824,214.27839706655286L391.033216,216.3201189648185L391.87596,217.23783806142546L392.237136,216.41972261740523L392.839096,215.91839988164696L395.126544,216.0122560398949L396.330464,214.22404021404492L397.052816,213.6804259046282L397.77516800000006,212.66630816309697L398.256736,212.1602241055104L399.70144000000005,212.29565890507993L399.82183200000003,212.01537694459617L402.831632,212.86728795745677L403.91516000000007,214.4277219443227L405.96182400000004,214.16881476011193L408.12888000000004,215.38683505063543L408.249272,213.70943071413163L408.49005600000004,213.67293483695786L409.693976,214.6383908078121L410.175544,212.0881082418238L412.46299200000004,213.02720732674632L413.787304,213.04749422911758L414.75043999999997,213.54924050003035L415.472792,215.0613045449059L415.593184,217.5472777903563L415.833968,219.03503629245475L416.07475200000005,220.27471717945832L416.67671200000007,220.8204070156666L419.68651200000005,222.2038807046965L419.80690400000003,223.31588964758612L421.010824,223.79297533746032L421.25160800000003,224.1365278788039L421.853568,223.30786357481213L423.539056,221.62912626447684L424.261408,223.71016952448056L425.344936,220.38926011249924L427.150816,220.0209995174612L427.63238400000006,219.39875365302615L427.873168,218.90839482296255L429.43826400000006,220.20607827401483L430.882968,217.22340809539656L432.327672,215.78150052092002L433.531592,215.48691908810613L434.25394400000005,216.1274395291774L436.300608,215.80801442021863L437.02296,216.89547659300914L437.143352,216.32474440347295L438.106488,217.00527313757806L438.82884,214.57065600715796L439.551192,213.86399111916398L440.153152,214.57282836691633L442.92216800000006,214.38837170173485L443.764912,213.17076324299862L444.366872,215.37483760329775L445.93196800000004,217.14880039228447L446.774712,217.2991121398052L448.580592,218.08216996586245L450.025296,216.939984708951L450.386472,217.3081086508758L452.07196000000005,218.5930310072723L452.192352,219.96663825591253L452.43313600000005,220.2250302183081L456.28568,221.87398334648248L456.406072,222.26802849435276L456.52646400000003,223.42392390558723L457.36920800000007,222.73858725529934L458.69352000000003,223.17420122708376L460.49940000000004,222.77758073596908L461.10136000000006,222.50154267597222L464.71312000000006,224.16129221404938L466.278216,223.95242238922503L467.361744,224.40199356098174L468.44527200000005,221.4538020148608L469.167624,221.60609741932672L469.649192,220.6157417497701L471.695856,221.25830573157748L471.93664000000007,221.7580047875215L472.05703200000005,223.29582580598662L473.501736,223.04773145116604L475.66879200000005,223.79107637375472L477.715456,224.2315585855391L478.67859200000004,223.95916534718026L481.447608,224.71705748832503L482.531136,224.9688810811553L482.7719200000001,225.35579701309345L483.01270400000004,225.0595044969585L483.494272,224.81018053755557L483.614664,223.18394209600376L484.938976,224.33965096069426L485.300152,224.72418210290363L486.263288,226.3856322821097L486.62446400000005,226.17958621616015L489.51387200000005,227.98505596680792L489.99544,228.13130589613704L490.23622400000005,228.76594601111825L492.04210400000005,229.15304174579535L493.6072,227.96633882184577L496.37621600000006,228.06716278799144L498.18209600000006,229.26929791841889L498.30248800000004,230.79470142203166L499.1452320000001,231.85108376162572L499.74719200000004,233.01119071504394L500.34915200000006,233.1165815075319L500.83072,233.91882725573083L501.07150400000006,234.19483475443195L502.99777600000004,234.33916528824827L505.164832,235.56532133732838L505.285224,235.72628720457934L506.127968,235.43367362209625L506.48914400000007,234.77691556443824L509.378552,235.36863301813966L509.739728,233.6225059627046L510.582472,233.63822332404544L510.94364800000005,235.23213878639913L511.06404000000003,234.19990626281094L511.30482400000005,235.48799142188327L511.42521600000003,234.54409464931493L514.435016,232.9495124587064L515.518544,232.29178660417696L518.407952,232.7536409931456L519.371088,232.16230998392476L521.0565760000001,232.20319604507986L521.176968,232.20201408844937L521.7789280000001,233.64194750297602L523.2236320000001,235.1787274505049L526.715,236.68686478681533L526.955784,235.4473627467142L527.1965680000001,236.45136865046413L528.159704,236.70606732495048L530.206368,237.10389496680682L530.8083280000001,236.53202614909532L533.456952,235.79865176418L533.818128,235.93022458699372L534.4200880000001,237.71882736526814L535.7444,239.51892381848128L535.985184,240.41316940760404L536.707536,240.9164494393386L536.827928,242.22935355498248L537.55028,243.17103221220356L538.393024,242.65200656013664L539.115376,242.29700257187L539.4765520000001,241.68187182176655L541.523216,241.9141465443076L542.96792,243.0482320015782L543.329096,242.89508737080428L544.1718400000001,242.88260262910305L546.098112,242.9699252001869L546.338896,243.57450963707709L547.0612480000001,243.79859018231497L547.542816,245.52903658066757L549.469088,247.2115673751121L551.515752,247.81901716799985L553.9235920000001,248.28550527236564L556.090648,250.2654888420074L556.3314320000001,249.54431041941012L556.572216,249.10111113631123L556.933392,249.01234638626022L557.294568,248.35741521659347L559.3412320000001,248.81713869148092L560.6655440000001,249.6250638368326L560.785936,250.29318905912936L562.351032,248.8443463511249L565.962792,249.91872992549563L566.203576,248.70813106416625L569.092984,247.50317258388168L569.574552,247.61289518395895L569.815336,247.62602829023513L570.537688,246.8718505743295L570.898864,247.55714558037124L571.139648,248.50685035157392L572.2231760000001,249.07063707924573L573.06592,248.8129739433253L574.631016,249.39289732358645L575.594152,248.49009673706777L577.159248,247.06104780789127L577.400032,245.7897614998074L577.761208,247.31766476279847L579.205912,246.93569343515378L579.68748,245.99120848303076L580.28944,245.55790647267753L580.5302240000001,245.6700748316245L581.734144,245.2391676891802L582.215712,246.08021378265994L585.70708,246.0412140213127L586.30904,245.74181898156115L587.151784,245.66671641717815L590.2819760000001,246.3338656166415L591.2451120000001,246.57218687970953L592.449032,246.32885987345696L593.4121680000001,246.84317235446042L594.254912,246.65520688647496L594.73648,246.1002658495347L596.060792,247.05319126477838L596.783144,246.46240092647167L597.5054960000001,246.73415149391533L600.15412,245.57994883909888L601.478432,246.23609659014576L602.0803920000001,247.0896523314717L603.1639200000001,245.50408536675855L603.284312,244.9414716184195L604.729016,245.1239797223197L606.053328,245.46846268752452L606.4145040000001,244.9267849040879L607.6184240000001,245.68522959391711L613.276848,246.62038212977538L613.878808,246.5993441069735L613.9992000000001,246.27347319234633L615.20312,247.29204582012363L623.9917360000001,247.60903804714883L625.316048,248.03178338243174L625.43644,249.00517856531584L625.6772240000001,249.76096303489305L625.9180080000001,249.85632312982773L626.279184,249.96901718262865L626.399576,250.08123842866993L629.4093760000001,250.06924227756468L630.011336,249.88079539150772L630.372512,249.81648920817184L631.335648,249.9107985528417L632.65996,250.09254859899295L633.743488,250.72955415449337L634.104664,250.54089354527L634.2250560000001,250.99991476961753L636.030936,250.93334744318008L637.957208,251.32021721436575L638.67956,251.68809610097017L639.1611280000001,251.28995419316215L640.2446560000001,250.5985169992935L640.48544,251.36492470004197L641.568968,251.78230862107938L642.0505360000001,252.61243914616415L642.7728880000001,251.64602318161855L643.374848,251.07948524738543L646.5050400000001,251.22000999572958L647.5885680000001,251.80621695940118L649.394448,251.91021411974836L650.237192,252.20202020452905L650.9595439999999,252.7147698355119L651.4411120000001,253.08898502501535L651.561504,253.802393296995L653.848952,253.35634363381604L654.210128,253.81220148122193L654.93248,252.96045680720079L658.5442400000001,252.992615141653L659.2665920000001,253.7347840112501L659.7481600000001,255.6389497858796L661.0724720000001,254.6697106424452L661.313256,255.67379615278804L663.3599200000001,256.8252119307612L663.480312,256.2936978779735L665.7677600000001,257.2055926412558L665.8881520000001,256.2228426599082L666.249328,257.0319953004572L667.3328560000001,256.9035407326159L668.2959920000001,257.45875115046465L668.536776,257.5792040093395L668.6571680000001,257.6327314928374L671.666968,257.9515044816067L672.0281440000001,258.46785124635977L673.3524560000001,257.9068879067817L673.7136320000001,257.5132812469304L673.954416,258.20994474496894L674.1952000000001,258.7392081197261L675.6399040000001,258.1643182899705L677.686568,258.3308154197431L680.2148,259.0215847137326L681.057544,259.85714768367325L682.0206800000001,260.31331607553517L682.502248,261.0617758977065L683.344992,260.0620435848016L683.465384,259.5547622112681L683.585776,259.26085876272197L684.789696,260.5599718722657L687.919888,259.71295592983967L688.521848,260.0354621474131L690.44812,260.58323734515085L691.7724320000001,259.1742357639265L692.254,259.14177319834823L692.374392,259.3994238925944L693.337528,260.01006839652865L693.6987040000001,259.26882488203603L693.8190960000001,259.65348958585884L694.05988,259.1394169108344L694.421056,260.56346766872934L695.504584,259.9527642175861L695.986152,259.0730084942032L696.828896,258.6905502370307L696.949288,258.99389302814274L697.67164,258.11989330426917L698.393992,259.20157808165595L698.6347760000001,259.6769056294221L698.9959520000001,259.9288545923928L703.209672,259.8952895211719L704.6543760000001,260.3987106307401L706.9418240000001,259.79645007450824L707.1826080000001,261.57442283948603L709.4700560000001,262.1978175323762L709.7108400000001,261.35815884853207L709.8312320000001,262.18435955205416L712.11868,262.7255871728465L715.008088,263.42133567171317L715.3692639999999,264.5364971631199L716.9343600000001,264.80494138943027L717.8974960000002,265.8049660527484L718.9810239999999,266.9726486918639L719.3422,267.6542471082429L719.582984,266.70318034466885L719.703376,267.1200446434892L721.388864,267.6593241768998L722.352,266.6345379045403L725.000624,265.5824769774966L725.722976,266.0614775751669L726.084152,266.6620580380591L726.926896,266.21407927173175L728.491992,267.3507439483809L728.732776,267.4703012729797L728.8531680000001,266.97619305689625L729.695912,267.61690339932454L731.862968,267.5977798313423L734.631984,266.72337724234984L735.2339440000001,267.33175971423634L737.641784,268.5017722998624L737.882568,267.9633741764828L738.6049200000001,268.1563785747659L741.7351120000001,268.77375872371493L742.337072,269.1464258508855L743.9021680000001,270.09324244769726L744.383736,271.56616144967893L746.550792,272.3542509070837L747.5139280000001,273.29051700338186L750.282944,274.3290658989673L750.6441200000002,274.3706836505963L750.7645120000001,275.35924538063097L751.24608,275.93903484448595L751.366472,276.20191613112775L751.8480400000001,276.34407274881835L754.4966640000001,275.5132752296187L757.2656800000001,276.3141054861283L758.830776,276.73909262793006L760.757048,276.596151166835L762.08136,277.5257774205167L764.0076320000001,278.45227661945313L765.69312,277.9495909063411L765.8135120000001,277.9975760702174L766.1746880000001,278.2232406109726L768.221352,278.6849929466601L768.70292,278.92342399162646L771.11076,278.7180182750614L771.3515440000001,278.8378152631557L773.0370320000001,277.9847882482047L775.3244800000001,278.9005885746619L775.444872,280.077947931687L775.685656,280.0180706706151L776.2876160000001,280.17837705291925L779.658592,281.9348807678869L780.74212,281.6810080336404L781.584864,281.427970109591L782.066432,282.15387016860996L782.7887840000001,283.34401337786556L783.5111360000001,282.2434946119031L784.113096,282.8196917336347L784.474272,282.681921620322L784.7150560000001,283.4591056820231L786.520936,283.66827659107514L787.604464,283.3843367111588L788.5676000000001,282.76857700182296L790.6142639999999,283.84555525466516L791.216224,283.8508861628503L791.457008,283.95712953902677L792.901712,283.68856596954885L793.1424960000002,284.1833504847836L793.864848,284.8202486019389L795.309552,284.5938241641106L795.9115120000001,285.1567581335742L797.115432,284.8012191999268L798.3193520000001,284.8474194519094L801.6903280000001,285.90817042129316L801.9311120000001,286.22319331818437L802.41268,285.35360983330315L804.2185600000001,284.1021837480712L809.1546320000001,284.4768633996957L809.515808,284.9924928413631L809.997376,285.40710116251864L811.6828640000001,286.48700123634825L813.0071760000001,286.4725770677037L813.8499200000001,286.6563331595892L815.896584,286.2881574301337L816.2577600000001,285.4833538026849L816.85972,285.80963591085435L817.4616800000001,286.3462741460776L818.184032,287.13461702422416L819.628736,287.44238954239404L819.749128,287.7070604190085L821.795792,288.5321917026406L822.156968,288.8641488005044L822.999712,288.7329908784502L826.250296,288.5602766520194L826.49108,288.8212636595285L827.333824,288.5649803890411L829.5008799999999,288.35132074896114L829.7416640000001,288.20796722388366L830.584408,288.3850953559172L831.667936,287.89446379499356L832.871856,288.23849310469166L832.992248,289.26116965778726L834.1961680000001,289.39385241025013L834.6777360000001,289.81682925392016L834.798128,289.42262414260335L837.0855760000001,289.8584877917092L837.687536,290.40342455750954L837.92832,290.93291584165996L838.409888,291.1027233286482L839.4934160000001,291.808578474709L841.6604720000001,292.67722174764975L844.068312,293.39220311108954L844.6702720000001,293.44664473519555L845.7538000000001,293.4324101191918L846.476152,293.5414150983683L846.5965440000001,293.6774412480236L846.7169360000001,294.46878588368054L847.078112,294.7118613149384L847.439288,294.34069349750155L850.087912,293.7935774495244L852.134576,294.7039890735887L852.2549680000001,294.07567994781573L852.7365360000001,294.6442355947371L853.3384960000001,294.6684578253053L854.1812400000001,295.07207969444545L855.2647680000001,295.6098937824423L855.5055520000001,295.72680970783193L856.7094720000001,296.12714282872975L857.4318240000001,295.90532235524415L857.6726080000001,295.03682513237993L858.39496,293.7128136514419L858.6357439999999,293.7117653740889L858.8765280000001,292.446731812712L860.3212320000001,292.6362507950368L860.5620160000001,293.2680929848749L860.8028,293.4154071924287L863.5718160000001,293.54889505888406L864.655344,294.672242973845L865.0165200000001,294.88322292389415L866.942792,295.0000946412406L868.146712,294.6896409973302L868.267104,294.99329474549074L868.5078880000001,295.72223500929374L869.23024,296.06321047176107L869.9525920000001,296.3766121044398L870.7953360000001,296.30399033712797L871.3972960000001,295.5416799942121L872.2400400000001,295.6033661536482L872.962392,295.90323452684686L874.5274880000001,295.845034935525L877.65768,295.9191761695798L880.06552,295.30644678954127L880.426696,295.81684699912444L880.908264,295.42952550557095L881.0286560000001,295.3593446021406L881.8714000000001,295.0920284195407L883.918064,294.2340175747981L885.242376,295.5451244143485L886.5666880000001,295.0026902991001L887.409432,295.3006525718644L888.131784,294.8120683018923L891.021192,295.10984796898606L896.6796160000001,295.7989116369769L897.6427520000001,296.02896048626087L898.12432,295.30592595011285L899.689416,295.380075654944L901.013728,295.1023887909498L901.495296,295.6452022986484L902.4584320000001,295.79650075469164L902.578824,295.84347142655156L903.0603920000001,296.1238794479418L904.1439200000001,295.9238197885177L904.264312,295.9445161239379L905.4682320000001,296.5863246231851L905.588624,297.0841165366035L905.709016,297.2834088494736L906.6721520000001,297.7531782469353L909.0799920000001,298.2474297466452L911.9694,298.5728242070995L912.4509680000001,299.6052675110361L912.6917520000001,299.58029110361866L912.812144,299.74811974770694L913.17332,300.2364267035576L914.37724,300.5951204773682L915.460768,299.64568576595275L915.8219440000001,300.452991943095L917.0258640000001,300.5672753905336L917.627824,300.5150864749795L921.9619360000002,300.43750041091107L923.0454640000002,300.32184986990586L923.2862480000001,299.7985810443845L923.767816,299.46779794956745L924.490168,300.0796323855494L924.851344,299.83790203815914L925.6940880000001,300.0160579456171L926.6572240000002,298.72135270613535L927.0184,299.3197835178678L927.9815360000001,300.0179565417266L928.463104,299.7014180754162L928.944672,298.89241281864776L930.148592,299.2988996921597L930.2689840000002,299.95684245434705L931.713688,300.77702882278857L932.1952560000001,301.04032446324004L933.0380000000001,300.5723652351491L933.519568,299.61485302261497L934.84388,299.69100913969396L936.288584,298.937756441624L938.214856,298.45014039552285L941.2246560000001,297.77569233176393L943.0305360000001,298.3687872799409L944.716024,298.7849945670062L945.1975920000001,299.30017885455516L945.67916,299.6764816515548L946.6422960000001,300.8261771677474L947.3646480000001,300.63746694840233L947.4850400000001,300.2996243603014L949.531704,299.1403725846646L950.615232,300.0880574064985L951.3375840000001,300.77202051900196L952.3007200000001,300.38533382282486L952.6618960000001,300.6205767525505L955.31052,301.79820341762627L957.3571840000001,302.2288564073624L957.838752,301.3700586798917L958.8018880000001,302.3825303112908L959.163064,302.7987022818912L959.8854160000001,303.5968611058728L962.0524720000001,303.1952315452546L962.293256,302.9180277265852L964.460312,303.0730078918761L964.9418800000001,303.94199425941275L965.303056,304.6117916871117L967.4701120000001,304.72644977945197L967.9516800000001,305.41833255717256L968.794424,306.0470254728607L970.3595200000001,305.8030518707576L971.0818720000001,306.05004217174024L972.7673600000002,306.2963918570279L974.212064,306.0035986230822L975.054808,306.5798236912117L976.017944,306.53137349170015L976.98108,306.84933795171685L977.1014720000001,307.0322822839975L977.7034320000001,307.6901801758263L978.1850000000001,307.33537962204315L979.750096,308.2351260294986L980.2316640000001,307.97720372759534L981.9171520000001,308.46122347169313L983.361856,308.36115622413377L983.482248,308.3705436575276L984.3249920000001,308.71937104649993L985.288128,308.3767930866868L986.01048,307.1030131941875L986.732832,306.582400998065L987.5755760000001,307.3805049528739L987.81636,307.7297367244484L988.899888,308.1022163218472L989.1406720000001,308.11200372333644L989.261064,307.20604476072566L991.5485120000001,307.8555055028271L991.9096880000001,308.23865186764147L992.9932160000001,308.74104319273533L994.558312,309.1100326184605L995.8826240000001,309.6221277434358L996.2438000000001,310.67265835499967L997.4477200000001,311.3370318393988L999.373992,311.1255073751998L1000.6983040000001,311.0461475418832L1002.86536,311.3018007714367L1004.06928,311.09081650052366L1004.189672,311.36988621863924L1004.791632,311.38578293366976L1004.9120240000001,311.7235271918532L1005.7547680000001,312.4416395036524L1006.236336,312.34849388622666L1006.3567280000001,311.2207091660934L1006.47712,310.4760886690159L1009.1257439999999,310.9091799253176L1009.2461360000001,311.5785677514252L1009.727704,312.30559468209634L1009.968488,310.98059197100315L1011.0520160000001,310.86678175052987L1011.533584,310.7295856663808L1011.8947600000001,310.9356497152453L1015.024952,311.0703082887784L1015.145344,310.7087183087477L1016.228872,311.2683332239789L1016.5900480000001,311.6025563913588L1017.0716160000001,310.74600648125096L1017.4327920000001,311.05709874365397L1018.636712,311.5438970636513L1018.757104,311.78262601585817L1018.8774960000002,311.1397050238959L1018.9978880000001,311.2613941140527L1019.5998480000001,311.8402792660096L1020.3222000000001,312.2536423422878L1020.803768,312.0100297650882L1021.0445520000001,311.8957686179489L1022.9708240000001,312.6590554039839L1023.693176,313.3737335149398L1023.8135680000001,313.0354569026972L1024.776704,312.6279688701739L1025.499056,312.6530211775398L1027.064152,313.3773317605426L1027.906896,313.2496566014246L1029.110816,312.4123222045173L1032.2410080000002,312.60049967763416L1035.0100240000002,313.03229371262046L1035.8527680000002,313.869545193148L1036.57512,313.57899729859906L1036.936296,314.4257411092543L1040.668448,314.4243993369064L1040.7888400000002,314.22617245264155L1042.715112,314.5492314500125L1042.8355040000001,314.23541409952304L1044.039424,313.88767476074645L1044.4006000000002,313.74865575834616L1044.641384,314.2793714037266L1045.965696,313.2518078029589L1046.688048,313.1256776749953L1047.049224,313.587240884466L1047.530792,312.97731578164473L1049.4570640000002,313.61101923592275L1049.697848,313.46164298807975L1049.81824,313.4849091986969L1050.299808,313.4392519532656L1050.660984,313.4166431450648L1050.9017680000002,313.10752822594634L1052.587256,313.24587156266944L1053.0688240000002,313.97912185342693L1054.3931360000001,314.27596145938264L1054.754312,314.52637730734153L1057.162152,314.92471040105494L1058.1252880000002,315.0595433443634L1059.329208,314.2928160822407L1059.4496000000001,312.9350622480464L1060.773912,312.30962935440243L1063.542928,312.56231869267225L1064.144888,312.37069249653666L1066.1915520000002,311.1675882860182L1068.9605680000002,311.1148905378916L1069.201352,311.2894117587307L1071.4888,310.9869418979488L1071.6091920000001,310.87795111496627L1072.09076,310.8258746651866L1072.5723280000002,310.6606722344278L1074.7393840000002,310.57507369485603L1075.461736,311.1343299238855L1075.582128,311.6244770515727L1080.638592,311.53745083443096L1081.601728,311.11200150043936L1082.5648640000002,311.66890182652475L1082.685256,312.0103358860255L1084.7319200000002,313.0944955615398L1085.695056,313.14042224690724L1086.297016,313.321251476248L1086.778584,313.09690385990166L1088.102896,312.27755952164677L1089.5476,311.4600951102394L1089.908776,311.19435992514974L1090.14956,310.80587597495315L1090.6311280000002,310.4967305493077L1091.594264,311.4874756729923L1096.289552,310.875406636198L1098.817784,311.3832832787299L1099.540136,311.59936544566494L1099.660528,311.7590995954178L1099.901312,311.44957980218294L1101.707192,311.252333034703L1102.5499360000001,312.33776744678715L1105.318952,312.0390347234903L1105.5597360000002,312.21981498740786L1105.80052,312.8230748794432L1107.124832,313.0245908339159L1107.486008,312.66992048371696L1109.532672,312.80478632924076L1110.255024,313.28346752339644L1111.82012,313.43935306815365L1114.2279600000002,313.9829224242782L1115.311488,314.40339089385714L1116.996976,313.94815817902975L1117.2377600000002,314.5452134720038L1117.478544,315.0082199207721L1118.5620720000002,315.28230078954266L1119.6456,315.23545303275154L1120.608736,316.10490445798774L1123.016576,316.4980500783944L1123.25736,316.68084506148847L1123.6185360000002,316.32334791763526L1123.85932,315.9226030604937L1124.581672,316.23804348095L1126.026376,316.5857746677397L1126.146768,317.3833635932201L1126.989512,317.46520138346085L1127.350688,317.94205012875136L1127.952648,317.9351220442237L1128.795392,317.88435241025957L1129.036176,317.5049691258238L1135.176168,317.7834788210577L1136.50048,318.4006448338848L1136.861656,317.9336210513935L1137.463616,317.97045571369733L1138.426752,318.0946047364303L1139.3898880000002,317.8254368978023L1139.871456,319.0517110790253L1139.9918480000001,318.55233560662515L1140.2326320000002,317.3020794168565L1140.593808,317.37246563969074L1141.4365520000001,317.8781057996604L1141.91812,317.8713379406752L1142.399688,318.33209148164036L1143.483216,318.15075557429475L1143.6036080000001,318.2304402513358L1144.205568,318.37506829844926L1144.687136,318.98577970062325L1144.807528,319.12903596710026L1146.6134080000002,318.74112908578104L1150.2251680000002,318.26744813892265L1150.34556,318.20599342586877L1151.790264,318.9882115077087L1152.633008,319.5633741708577L1153.234968,317.9660977663487L1154.920456,318.6609588648794L1156.0039840000002,319.14931775952914L1156.6059440000001,319.2484295221763" style="fill: none;" fill="none"></path></g></g></g></g><g opacity="0.2"><g><g><g><path stroke="rgb(255, 112, 67)" stroke-width="2px" d="M121.114352,129.5454082163898L122.67944800000001,-177.2727857936511L125.93003200000001,-334.0909806164826L126.893168,136.36360385201198L127.25434400000002,552.2727248343554L129.060224,88.63633600148296L129.4214,231.81813955307007L131.82924,184.09087170254105L132.792376,122.72731417959392L133.27394400000003,252.27272645993665L135.681784,197.72726297378543L137.24688,838.6363319375296L139.173152,-225.00005364418018L139.53432800000002,354.5454577966169L140.61785600000002,6.818191571669217L141.942168,81.8182419646871L142.54412800000003,190.90906733816323L142.784912,190.90906733816323L143.386872,-13.636293736370988L150.49,463.6363847689194L151.212352,340.90906652537257L151.814312,-163.6363945224067L152.657056,34.09097411415803L153.379408,265.909117731181L155.666856,149.99999512325638L157.593128,415.9091169183904L157.833912,354.5454577966169L158.797048,-156.81809728795815L174.08683200000002,-115.90912667187763L175.89271200000002,81.8182419646871L176.25388800000002,429.54540659080845L177.5782,-497.72726947611L179.624864,340.90906652537257L179.86564800000002,477.2727760401638L182.39388,259.0909220955589L184.44054400000002,545.4545291987331L185.042504,68.1818506934427L188.293088,531.8181379274887L190.21936000000002,-6.818199699575132L190.460144,129.5454082163898L191.06210400000003,-34.090982242063944L191.18249600000001,238.63633518869227L192.98837600000002,0.00009753487336183753L195.15543200000002,-88.63634412938882L195.396216,163.63638639450076L196.84092,81.8182419646871L197.68366400000002,102.27272727272731L197.804056,190.90906733816323L198.04484000000002,361.3636534322391L198.40601600000002,620.4545795917509L198.6468,231.81813955307007L200.091504,340.90906652537257L201.295424,681.8181371146981L203.34208800000002,688.6363327503202L206.47228000000004,225.0000455162742L206.95384800000002,231.81813955307007L207.43541600000003,129.5454082163898L207.555808,668.1818474422801L208.39855200000002,13.63628560846513L209.48208,68.1818506934427L209.963648,61.36355345899415L210.44521600000002,-88.63634412938882L211.04717600000004,381.8181387402794L211.52874400000002,129.5454082163898L212.61227200000002,497.7272613482041L213.33462400000002,681.8181371146981L213.575408,27.27267687970948L214.41815200000002,-61.36356158690006L215.020112,-320.4545893452382L215.260896,204.54545860940763L215.862856,109.09092290834951L216.10364,238.63633518869227L216.58520800000002,-6.818199699575132L217.066776,306.8181899460879L217.78912800000003,320.4545812173323L217.90952000000001,-54.54546755010415L220.678536,61.36355345899415L221.16010400000002,422.7273125540126L225.13304000000002,313.6363855817101L225.97578400000003,340.90906652537257L226.698136,-218.18175640973163L228.38362400000003,-238.63644491542448L228.865192,320.4545812173323L229.70793600000002,279.54540740359914L229.94872,511.36365261944843L230.671072,61.36355345899415L230.911856,-6.818199699575132L232.59734400000002,54.54545942219829L232.717736,647.7272605354134L233.921656,593.1817970492622L234.282832,327.2727768529545L235.36636000000001,-54.54546755010415L235.847928,109.09092290834951L236.329496,143.18179948763415L237.413024,634.090869264169L238.25576800000002,-265.9090242602607L238.37616000000003,245.45453082431447L238.97812000000002,265.909117731181L241.14517600000002,204.54545860940763L241.50635200000002,368.1818490678613L242.58988000000002,95.45463323593145L246.20164,259.0909220955589L247.76673600000004,122.72731417959392L248.489088,-204.54536513848723L248.850264,279.54540740359914L249.09104800000003,538.636333563111L249.57261600000004,27.27267687970948L250.294968,545.4545291987331L250.89692800000003,470.4545804045416L252.100848,204.54545860940763L252.8232,606.8181883205066L254.62908000000002,511.36365261944843L255.23104,293.1817986748435L259.685544,375.0000447034835L260.287504,-81.81825009259296L260.407896,279.54540740359914L262.574952,0.00009753487336183753L264.019656,177.27277766574514L264.14004800000004,620.4545795917509L264.86240000000004,163.63638639450076L265.705144,299.9999943104657L268.83533600000004,6.818191571669217L270.28004000000004,293.1817986748435L271.604352,852.272723208774L271.965528,177.27277766574514L272.326704,-218.18175640973163L274.734544,211.3636542450298L275.45689600000003,122.72731417959392L276.29964,129.5454082163898L277.021992,34.09097411415803L278.948264,0.00009753487336183753L279.30944000000005,-150.0000032511623L281.47649600000005,-347.72737188772703L287.255312,259.0909220955589L287.616488,163.63638639450076L287.977664,-20.454590970819595L288.09805600000004,388.6363343759016L290.74668,279.54540740359914L292.191384,470.4545804045416L292.43216800000005,40.909068150953885L292.91373600000003,518.1818482550707L293.395304,163.63638639450076L293.87687200000005,-395.454639738256L296.88667200000003,490.9090657125819L297.007064,259.0909220955589L298.33137600000003,545.4545291987331L302.063528,-143.18190921436644L303.869408,136.36360385201198L304.35097600000006,381.8181387402794L309.287048,409.0909212827682L309.40744,129.5454082163898L311.21332,197.72726297378543L311.69488800000005,-450.0000016255809L313.62116000000003,47.727365385402436L313.741552,163.63638639450076L315.30664800000005,531.8181379274887L316.390176,40.909068150953885L316.992136,368.1818490678613L317.594096,115.90911854397172L317.95527200000004,409.0909212827682L318.557232,347.72726216099477L318.91840800000006,136.36360385201198L320.363112,395.4545300115238L321.3262480000001,197.72726297378543L322.168992,811.3636509938672L323.011736,143.18179948763415L324.095264,231.81813955307007L324.576832,347.72726216099477L324.817616,-313.63629211078967L325.05840000000006,115.90911854397172L325.419576,211.3636542450298L326.26232000000005,149.99999512325638L327.345848,1043.1817946108902L328.549768,531.8181379274887L329.031336,156.81819075887856L329.27212000000003,572.7273117412219L333.124664,981.8181862885299L334.20819200000005,225.0000455162742L334.930544,47.727365385402436L335.773288,68.1818506934427L335.8936800000001,375.0000447034835L336.977208,177.27277766574514L337.81995200000006,293.1817986748435L340.348184,-34.090982242063944L340.82975200000004,334.09087088975036L342.033672,279.54540740359914L342.51524,756.818187507716L343.598768,518.1818482550707L345.16386400000005,279.54540740359914L345.52504,177.27277766574514L346.24739200000005,647.7272605354134L346.488176,872.7273101156406L350.58150400000005,354.5454577966169L351.30385600000005,204.54545860940763L353.35052,122.72731417959392L353.59130400000004,272.72731336680323L354.55444,-61.36356158690006L354.91561600000006,347.72726216099477L355.1564,361.3636534322391L357.323456,211.3636542450298L359.00894400000004,204.54545860940763L359.249728,640.9090648997912L362.861488,790.9090640870006L364.908152,306.8181899460879L365.63050400000003,-115.90912667187763L368.519912,647.7272605354134L369.96461600000004,334.09087088975036L370.085008,579.5454057780178L370.56657600000005,470.4545804045416L370.80736,327.2727768529545L371.048144,286.3636030392213L371.529712,-593.181805177168L372.01128,122.72731417959392L372.854024,538.636333563111L374.659904,-122.72722070867349L378.753232,136.36360385201198L379.2348,143.18179948763415L379.475584,163.63638639450076L380.077544,763.6363831433381L381.161072,334.09087088975036L382.60577600000005,763.6363831433381L383.809696,777.2727744145825L384.05048000000005,327.2727768529545L384.291264,259.0909220955589L384.411656,340.90906652537257L384.89322400000003,272.72731336680323L385.25440000000003,163.63638639450076L386.217536,184.09087170254105L386.69910400000003,368.1818490678613L388.384592,279.54540740359914L389.106944,579.5454057780178L390.07008,661.3636518066578L390.431256,81.8182419646871L390.912824,-177.2727857936511L391.87596,436.36360222643066L392.237136,20.454582842913624L392.839096,95.45463323593145L395.126544,238.63633518869227L396.330464,-218.18175640973163L397.052816,81.8182419646871L397.77516800000006,-34.090982242063944L398.256736,88.63633600148296L399.70144000000005,245.45453082431447L399.82183200000003,143.18179948763415L402.831632,422.7273125540126L403.91516000000007,599.9999926848843L405.96182400000004,149.99999512325638L408.12888000000004,518.1818482550707L408.249272,-204.54536513848723L408.49005600000004,204.54545860940763L409.693976,456.8181891332972L412.46299200000004,449.99999349767506L413.787304,218.181849880652L414.75043999999997,340.90906652537257L415.472792,599.9999926848843L416.07475200000005,538.636333563111L416.67671200000007,361.3636534322391L419.68651200000005,579.5454057780178L419.80690400000003,511.36365261944843L421.010824,347.72726216099477L421.25160800000003,313.6363855817101L421.853568,6.818191571669217L423.539056,-218.18175640973163L425.344936,-654.5454642989414L427.150816,122.72731417959392L427.63238400000006,54.54545942219829L427.873168,88.63633600148296L429.43826400000006,565.9091161055998L432.327672,-170.45448855920256L433.531592,136.36360385201198L434.25394400000005,388.6363343759016L436.300608,129.5454082163898L437.02296,511.36365261944843L437.143352,61.36355345899415L438.106488,402.272725647146L438.82884,-450.0000016255809L439.551192,20.454582842913624L440.153152,409.0909212827682L442.92216800000006,163.63638639450076L443.764912,-122.72722070867349L445.93196800000004,709.0909196571869L446.774712,259.0909220955589L448.580592,436.36360222643066L450.025296,-102.27273540063328L450.386472,320.4545812173323L452.07196000000005,579.5454057780178L452.192352,606.8181883205066L452.43313600000005,293.1817986748435L456.28568,688.6363327503202L456.406072,334.09087088975036L456.52646400000003,552.2727248343554L457.36920800000007,27.27267687970948L458.69352000000003,347.72726216099477L460.49940000000004,109.09092290834951L461.10136000000006,143.18179948763415L464.71312000000006,702.2727240215647L466.278216,163.63638639450076L467.361744,354.5454577966169L468.44527200000005,-634.0909789909012L469.167624,265.909117731181L469.649192,-68.18185882134861L471.695856,409.0909212827682L471.93664000000007,368.1818490678613L472.05703200000005,675.0000430779022L473.501736,149.99999512325638L475.66879200000005,443.1817978620528L477.715456,354.5454577966169L478.67859200000004,143.18179948763415L481.447608,449.99999349767506L482.531136,299.9999943104657L482.7719200000001,340.90906652537257L483.01270400000004,136.36360385201198L483.494272,149.99999512325638L483.614664,-265.9090242602607L484.938976,572.7273117412219L485.300152,340.90906652537257L486.263288,729.5454049652271L486.62446400000005,163.63638639450076L489.51387200000005,777.2727744145825L489.99544,272.72731336680323L490.23622400000005,422.7273125540126L492.04210400000005,347.72726216099477L493.6072,-136.3636119799179L496.37621600000006,259.0909220955589L498.18209600000006,599.9999926848843L499.74719200000004,593.1817970492622L500.34915200000006,265.909117731181L500.83072,484.0908700769597L501.07150400000006,320.4545812173323L502.99777600000004,279.54540740359914L505.164832,620.4545795917509L505.285224,286.3636030392213L506.127968,143.18179948763415L506.48914400000007,27.27267687970948L509.378552,422.7273125540126L509.739728,-320.4545893452382L510.582472,238.63633518869227L510.94364800000005,743.1817962364715L514.435016,-279.545415531505L515.518544,20.454582842913624L518.407952,381.8181387402794L519.371088,40.909068150953885L521.0565760000001,245.45453082431447L521.176968,231.81813955307007L521.7789280000001,702.2727240215647L527.1965680000001,565.9091161055998L528.159704,320.4545812173323L530.206368,368.1818490678613L530.8083280000001,47.727365385402436L533.456952,-6.818199699575132L533.818128,279.54540740359914L534.4200880000001,831.8181363019074L537.55028,559.0909204699775L538.393024,68.1818506934427L539.115376,122.72731417959392L539.4765520000001,34.09097411415803L541.523216,320.4545812173323L542.96792,627.2727752273731L543.329096,190.90906733816323L544.1718400000001,238.63633518869227L546.098112,272.72731336680323L546.338896,449.99999349767506L547.0612480000001,320.4545812173323L547.542816,838.6363319375296L556.090648,934.0908676385877L556.3314320000001,0.00009753487336183753L556.572216,95.45463323593145L556.933392,218.181849880652L557.294568,20.454582842913624L559.3412320000001,409.0909212827682L569.092984,-177.2727857936511L569.574552,286.3636030392213L569.815336,252.27272645993665L570.537688,-20.454590970819595L572.2231760000001,449.99999349767506L573.06592,156.81819075887856L574.631016,456.8181891332972L577.761208,797.7272597226228L579.205912,109.09092290834951L579.68748,-95.45464136383742L580.28944,88.63633600148296L580.5302240000001,286.3636030392213L581.734144,88.63633600148296L582.215712,552.2727248343554L585.70708,231.81813955307007L586.30904,136.36360385201198L587.151784,218.181849880652L590.2819760000001,490.9090657125819L591.2451120000001,334.09087088975036L592.449032,156.81819075887856L593.4121680000001,436.36360222643066L594.254912,177.27277766574514L594.73648,40.909068150953885L596.060792,599.9999926848843L596.783144,27.27267687970948L597.5054960000001,347.72726216099477L600.15412,-184.09087983044697L603.1639200000001,-347.72737188772703L603.284312,34.09097411415803L604.729016,313.6363855817101L606.053328,375.0000447034835L606.4145040000001,40.909068150953885L607.6184240000001,531.8181379274887L613.276848,599.9999926848843L613.878808,238.63633518869227L613.9992000000001,122.72731417959392L615.20312,634.090869264169L623.9917360000001,368.1818490678613L625.316048,409.0909212827682L625.6772240000001,538.636333563111L625.9180080000001,286.3636030392213L626.279184,293.1817986748435L626.399576,293.1817986748435L629.4093760000001,245.45453082431447L630.011336,177.27277766574514L630.372512,225.0000455162742L631.335648,286.3636030392213L632.65996,320.4545812173323L633.743488,497.7272613482041L634.104664,177.27277766574514L634.2250560000001,429.54540659080845L636.030936,225.0000455162742L637.957208,402.272725647146L638.67956,395.4545300115238L639.1611280000001,95.45463323593145L640.2446560000001,-20.454590970819595L642.7728880000001,-129.54551794312198L643.374848,27.27267687970948L646.5050400000001,306.8181899460879L647.5885680000001,484.0908700769597L649.394448,293.1817986748435L650.237192,368.1818490678613L650.9595439999999,456.8181891332972L651.561504,538.636333563111L653.848952,74.99994473023855L654.210128,436.36360222643066L654.93248,-88.63634412938882L658.5442400000001,265.909117731181L659.2665920000001,552.2727248343554L663.3599200000001,722.7273109284313L663.480312,40.909068150953885L665.7677600000001,627.2727752273731L666.249328,586.36360141364L667.3328560000001,204.54545860940763L668.2959920000001,484.0908700769597L668.536776,306.8181899460879L668.6571680000001,279.54540740359914L671.666968,388.6363343759016L672.0281440000001,470.4545804045416L673.3524560000001,27.27267687970948L673.7136320000001,95.45463323593145L673.954416,545.4545291987331L674.1952000000001,477.2727760401638L675.6399040000001,20.454582842913624L677.686568,327.2727768529545L680.2148,545.4545291987331L683.344992,-156.81809728795815L683.465384,47.727365385402436L683.585776,136.36360385201198L684.789696,804.5454553582449L691.7724320000001,-334.0909806164826L692.254,245.45453082431447L692.374392,368.1818490678613L693.337528,518.1818482550707L693.8190960000001,422.7273125540126L694.05988,40.909068150953885L694.421056,865.9091144800184L695.504584,0.00009753487336183753L695.986152,-115.90912667187763L696.828896,95.45463323593145L696.949288,388.6363343759016L698.6347760000001,463.6363847689194L698.9959520000001,368.1818490678613L703.209672,245.45453082431447L704.6543760000001,477.2727760401638L706.9418240000001,0.00009753487336183753L707.1826080000001,1029.545454139059L726.084152,531.8181379274887L726.926896,68.1818506934427L728.491992,770.4545787789602L728.732776,320.4545812173323L728.8531680000001,47.727365385402436L729.695912,552.2727248343554L731.862968,259.0909220955589L734.631984,-122.72722070867349L737.641784,790.9090640870006L737.882568,27.27267687970948L738.6049200000001,354.5454577966169L741.7351120000001,545.4545291987331L750.282944,743.1817962364715L750.6441200000002,293.1817986748435L750.7645120000001,722.7273109284313L751.366472,395.4545300115238L751.8480400000001,340.90906652537257L754.4966640000001,-102.27273540063328L758.830776,470.4545804045416L760.757048,211.3636542450298L762.08136,702.2727240215647L764.0076320000001,702.2727240215647L765.69312,47.727365385402436L765.8135120000001,299.9999943104657L766.1746880000001,381.8181387402794L768.70292,388.6363343759016L771.11076,184.09087170254105L771.3515440000001,334.09087088975036L773.0370320000001,-115.90912667187763L775.444872,825.0000422651116L775.685656,252.27272645993665L776.2876160000001,354.5454577966169L779.658592,1097.7272580970414L780.74212,163.63638639450076L781.584864,163.63638639450076L782.066432,620.4545795917509L784.113096,552.2727248343554L784.474272,218.181849880652L784.7150560000001,647.7272605354134L786.520936,381.8181387402794L787.604464,149.99999512325638L788.5676000000001,-6.818199699575132L790.6142639999999,790.9090640870006L791.216224,286.3636030392213L791.457008,334.09087088975036L792.901712,156.81819075887856L793.1424960000002,518.1818482550707L793.864848,586.36360141364L795.309552,177.27277766574514L795.9115120000001,552.2727248343554L797.115432,115.90911854397172L798.3193520000001,306.8181899460879L801.6903280000001,790.9090640870006L811.6828640000001,804.5454553582449L813.0071760000001,279.54540740359914L813.8499200000001,375.0000447034835L815.896584,109.09092290834951L816.2577600000001,-102.27273540063328L822.156968,449.99999349767506L822.999712,225.0000455162742L826.250296,204.54545860940763L826.49108,415.9091169183904L827.333824,163.63638639450076L829.5008799999999,184.09087170254105L829.7416640000001,218.181849880652L830.584408,375.0000447034835L831.667936,47.727365385402436L832.871856,456.8181891332972L832.992248,790.9090640870006L834.1961680000001,354.5454577966169L834.6777360000001,497.7272613482041L834.798128,95.45463323593145L837.0855760000001,504.5454569838263L844.068312,647.7272605354134L844.6702720000001,320.4545812173323L845.7538000000001,286.3636030392213L846.476152,347.72726216099477L846.5965440000001,361.3636534322391L846.7169360000001,688.6363327503202L847.078112,415.9091169183904L847.439288,109.09092290834951L850.087912,20.454582842913624L852.134576,749.9999918720937L852.7365360000001,579.5454057780178L853.3384960000001,306.8181899460879L854.1812400000001,497.7272613482041L855.2647680000001,565.9091161055998L855.5055520000001,354.5454577966169L856.7094720000001,497.7272613482041L857.4318240000001,184.09087170254105L857.6726080000001,-143.18190921436644L858.39496,-374.99995123256315L858.6357439999999,293.1817986748435L858.8765280000001,-347.72737188772703L860.5620160000001,613.6363839561287L860.8028,368.1818490678613L863.5718160000001,361.3636534322391L864.655344,865.9091144800184L865.0165200000001,402.272725647146L866.942792,354.5454577966169L868.146712,136.36360385201198L868.267104,449.99999349767506L869.9525920000001,456.8181891332972L870.7953360000001,259.0909220955589L871.3972960000001,-95.45464136383742L872.2400400000001,327.2727768529545L872.962392,449.99999349767506L874.5274880000001,265.909117731181L877.65768,334.09087088975036L880.06552,-20.454590970819595L880.426696,559.0909204699775L880.908264,95.45463323593145L881.0286560000001,259.0909220955589L881.8714000000001,156.81819075887856L883.918064,-150.0000032511623L885.242376,974.9999906529076L886.5666880000001,13.63628560846513L887.409432,449.99999349767506L888.131784,40.909068150953885L891.021192,449.99999349767506L898.12432,-81.81825009259296L899.689416,334.09087088975036L901.013728,149.99999512325638L901.495296,579.5454057780178L902.4584320000001,375.0000447034835L902.578824,320.4545812173323L903.0603920000001,443.1817978620528L904.1439200000001,190.90906733816323L904.264312,306.8181899460879L905.4682320000001,634.090869264169L912.4509680000001,845.4545275731518L912.6917520000001,286.3636030392213L912.812144,388.6363343759016L915.8219440000001,729.5454049652271L917.0258640000001,361.3636534322391L917.627824,272.72731336680323L921.9619360000002,259.0909220955589L923.0454640000002,238.63633518869227L923.2862480000001,20.454582842913624L923.767816,122.72731417959392L924.490168,627.2727752273731L924.851344,170.45458203012296L925.6940880000001,395.4545300115238L927.9815360000001,675.0000430779022L928.463104,129.5454082163898L928.944672,-136.3636119799179L932.1952560000001,443.1817978620528L933.0380000000001,47.727365385402436L933.519568,-218.18175640973163L934.84388,340.90906652537257L936.288584,-109.09082943742914L938.214856,34.09097411415803L941.2246560000001,-68.18185882134861L946.6422960000001,927.2727736017919L947.3646480000001,197.72726297378543L947.4850400000001,115.90911854397172L949.531704,-334.0909806164826L951.3375840000001,675.0000430779022L952.3007200000001,88.63633600148296L952.6618960000001,429.54540659080845L959.8854160000001,743.1817962364715L962.0524720000001,81.8182419646871L962.293256,149.99999512325638L964.460312,388.6363343759016L965.303056,675.0000430779022L967.4701120000001,368.1818490678613L967.9516800000001,688.6363327503202L968.794424,654.5454561710355L970.3595200000001,170.45458203012296L971.0818720000001,443.1817978620528L972.7673600000002,443.1817978620528L974.212064,143.18179948763415L975.054808,627.2727752273731L976.017944,279.54540740359914L976.98108,484.0908700769597L977.7034320000001,675.0000430779022L978.1850000000001,109.09092290834951L979.750096,811.3636509938672L980.2316640000001,163.63638639450076L981.9171520000001,579.5454057780178L983.361856,252.27272645993665L983.482248,313.6363855817101L984.3249920000001,504.5454569838263L985.288128,115.90911854397172L986.01048,-409.0908278118477L986.732832,13.63628560846513L987.5755760000001,756.818187507716L988.899888,518.1818482550707L989.1406720000001,313.6363855817101L989.261064,-204.54536513848723L997.4477200000001,688.6363327503202L999.373992,190.90906733816323L1000.6983040000001,265.909117731181L1002.86536,456.8181891332972L1004.06928,190.90906733816323L1004.189672,470.4545804045416L1004.791632,320.4545812173323L1004.9120240000001,504.5454569838263L1005.7547680000001,722.7273109284313L1006.236336,259.0909220955589L1006.3567280000001,-334.0909806164826L1009.968488,-450.0000016255809L1011.0520160000001,245.45453082431447L1011.533584,231.81813955307007L1011.8947600000001,429.54540659080845L1015.024952,388.6363343759016L1015.145344,102.27272727272731L1016.228872,634.090869264169L1020.3222000000001,552.2727248343554L1020.803768,170.45458203012296L1021.0445520000001,245.45453082431447L1022.9708240000001,756.818187507716L1023.693176,729.5454049652271L1023.8135680000001,115.90911854397172L1024.776704,74.99994473023855L1025.499056,327.2727768529545L1027.064152,736.3636006008493L1027.906896,238.63633518869227L1029.110816,-177.2727857936511L1035.8527680000002,804.5454553582449L1036.57512,143.18179948763415L1036.936296,811.3636509938672L1040.668448,313.6363855817101L1040.7888400000002,197.72726297378543L1042.715112,504.5454569838263L1042.8355040000001,129.5454082163898L1044.039424,109.09092290834951L1044.4006000000002,231.81813955307007L1044.641384,627.2727752273731L1045.965696,-293.1818068027495L1046.688048,238.63633518869227L1047.049224,586.36360141364L1049.4570640000002,688.6363327503202L1049.697848,225.0000455162742L1049.81824,327.2727768529545L1050.299808,286.3636030392213L1050.660984,299.9999943104657L1050.9017680000002,129.5454082163898L1052.587256,395.4545300115238L1063.542928,463.6363847689194L1064.144888,197.72726297378543L1066.1915520000002,-409.0908278118477L1068.9605680000002,279.54540740359914L1069.201352,415.9091169183904L1071.4888,129.5454082163898L1071.6091920000001,245.45453082431447L1072.09076,279.54540740359914L1072.5723280000002,211.3636542450298L1074.7393840000002,259.0909220955589L1075.461736,647.7272605354134L1075.582128,606.8181883205066L1080.638592,259.0909220955589L1081.601728,54.54545942219829L1082.5648640000002,647.7272605354134L1084.7319200000002,968.1817950172855L1085.695056,340.90906652537257L1086.297016,422.7273125540126L1086.778584,177.27277766574514L1088.102896,-184.09087983044697L1089.5476,-184.09087983044697L1089.908776,149.99999512325638L1090.14956,74.99994473023855L1090.6311280000002,122.72731417959392L1091.594264,913.6363823305473L1099.660528,409.0909212827682L1099.901312,122.72731417959392L1101.707192,190.90906733816323L1102.5499360000001,974.9999906529076L1105.318952,129.5454082163898L1105.5597360000002,422.7273125540126L1107.124832,436.36360222643066L1107.486008,95.45463323593145L1109.532672,395.4545300115238L1115.311488,572.7273117412219L1116.996976,34.09097411415803L1117.2377600000002,681.8181371146981L1118.5620720000002,484.0908700769597L1119.6456,286.3636030392213L1120.608736,852.272723208774L1123.25736,429.54540659080845L1123.6185360000002,95.45463323593145L1123.85932,68.1818506934427L1124.581672,511.36365261944843L1126.146768,811.3636509938672L1126.989512,368.1818490678613L1127.350688,613.6363839561287L1127.952648,313.6363855817101L1128.795392,286.3636030392213L1129.036176,81.8182419646871L1135.176168,490.9090657125819L1136.50048,702.2727240215647L1136.861656,27.27267687970948L1137.463616,340.90906652537257L1138.426752,395.4545300115238L1139.3898880000002,149.99999512325638L1139.871456,1084.0909176252103L1139.9918480000001,6.818191571669217L1140.2326320000002,-463.6363928968253L1140.593808,361.3636534322391L1141.4365520000001,634.090869264169L1141.91812,313.6363855817101L1142.399688,606.8181883205066L1143.483216,204.54545860940763L1143.6036080000001,368.1818490678613L1144.205568,409.0909212827682L1144.807528,409.0909212827682L1146.6134080000002,74.99994473023855L1150.2251680000002,20.454582842913624L1150.34556,279.54540740359914L1151.790264,811.3636509938672" style="fill: none;" fill="none"></path></g></g></g></g></g><g><g opacity="0.131303"><span fill="rgb(0, 0, 0)" stroke="none" stroke-width="1px">Alt + Scroll to Zoom</span></g></g></g><g transform="translate(60, 375)" clip-path="url(#clip_1)"><clipPath id="clip_1"><rect width="1203" height="25"></rect></clipPath><g><g><line x1="0" y1="0" x2="0" y2="5" style="visibility: inherit;" fill="rgb(0, 0, 0)" stroke="rgb(204, 204, 204)" stroke-width="1px"></line><line x1="120.39200000000001" y1="0" x2="120.39200000000001" y2="5" style="visibility: inherit;" fill="rgb(0, 0, 0)" stroke="rgb(204, 204, 204)" stroke-width="1px"></line><line x1="240.78400000000002" y1="0" x2="240.78400000000002" y2="5" style="visibility: inherit;" fill="rgb(0, 0, 0)" stroke="rgb(204, 204, 204)" stroke-width="1px"></line><line x1="361.176" y1="0" x2="361.176" y2="5" style="visibility: inherit;" fill="rgb(0, 0, 0)" stroke="rgb(204, 204, 204)" stroke-width="1px"></line><line x1="481.56800000000004" y1="0" x2="481.56800000000004" y2="5" style="visibility: inherit;" fill="rgb(0, 0, 0)" stroke="rgb(204, 204, 204)" stroke-width="1px"></line><line x1="601.96" y1="0" x2="601.96" y2="5" style="visibility: inherit;" fill="rgb(0, 0, 0)" stroke="rgb(204, 204, 204)" stroke-width="1px"></line><line x1="722.352" y1="0" x2="722.352" y2="5" style="visibility: inherit;" fill="rgb(0, 0, 0)" stroke="rgb(204, 204, 204)" stroke-width="1px"></line><line x1="842.744" y1="0" x2="842.744" y2="5" style="visibility: inherit;" fill="rgb(0, 0, 0)" stroke="rgb(204, 204, 204)" stroke-width="1px"></line><line x1="963.1360000000001" y1="0" x2="963.1360000000001" y2="5" style="visibility: inherit;" fill="rgb(0, 0, 0)" stroke="rgb(204, 204, 204)" stroke-width="1px"></line><line x1="1083.528" y1="0" x2="1083.528" y2="5" style="visibility: inherit;" fill="rgb(0, 0, 0)" stroke="rgb(204, 204, 204)" stroke-width="1px"></line><line x1="1203.92" y1="0" x2="1203.92" y2="5" style="visibility: inherit;" fill="rgb(0, 0, 0)" stroke="rgb(204, 204, 204)" stroke-width="1px"></line></g><g transform="translate(0, 8)"><text x="0" y="0" dx="0em" dy="0.95em" style="text-anchor: middle; visibility: hidden; font-family: &quot;Helvetica Neue&quot;, sans-serif; font-size: 12px; font-weight: 200;" fill="rgb(50, 49, 63)" stroke="none" stroke-width="1px">-1k</text><text x="120.39200000000001" y="0" dx="0em" dy="0.95em" style="text-anchor: middle; visibility: inherit; font-family: &quot;Helvetica Neue&quot;, sans-serif; font-size: 12px; font-weight: 200;" fill="rgb(50, 49, 63)" stroke="none" stroke-width="1px">0</text><text x="240.78400000000002" y="0" dx="0em" dy="0.95em" style="text-anchor: middle; visibility: inherit; font-family: &quot;Helvetica Neue&quot;, sans-serif; font-size: 12px; font-weight: 200;" fill="rgb(50, 49, 63)" stroke="none" stroke-width="1px">1k</text><text x="361.176" y="0" dx="0em" dy="0.95em" style="text-anchor: middle; visibility: inherit; font-family: &quot;Helvetica Neue&quot;, sans-serif; font-size: 12px; font-weight: 200;" fill="rgb(50, 49, 63)" stroke="none" stroke-width="1px">2k</text><text x="481.56800000000004" y="0" dx="0em" dy="0.95em" style="text-anchor: middle; visibility: inherit; font-family: &quot;Helvetica Neue&quot;, sans-serif; font-size: 12px; font-weight: 200;" fill="rgb(50, 49, 63)" stroke="none" stroke-width="1px">3k</text><text x="601.96" y="0" dx="0em" dy="0.95em" style="text-anchor: middle; visibility: inherit; font-family: &quot;Helvetica Neue&quot;, sans-serif; font-size: 12px; font-weight: 200;" fill="rgb(50, 49, 63)" stroke="none" stroke-width="1px">4k</text><text x="722.352" y="0" dx="0em" dy="0.95em" style="text-anchor: middle; visibility: inherit; font-family: &quot;Helvetica Neue&quot;, sans-serif; font-size: 12px; font-weight: 200;" fill="rgb(50, 49, 63)" stroke="none" stroke-width="1px">5k</text><text x="842.744" y="0" dx="0em" dy="0.95em" style="text-anchor: middle; visibility: inherit; font-family: &quot;Helvetica Neue&quot;, sans-serif; font-size: 12px; font-weight: 200;" fill="rgb(50, 49, 63)" stroke="none" stroke-width="1px">6k</text><text x="963.1360000000001" y="0" dx="0em" dy="0.95em" style="text-anchor: middle; visibility: inherit; font-family: &quot;Helvetica Neue&quot;, sans-serif; font-size: 12px; font-weight: 200;" fill="rgb(50, 49, 63)" stroke="none" stroke-width="1px">7k</text><text x="1083.528" y="0" dx="0em" dy="0.95em" style="text-anchor: middle; visibility: inherit; font-family: &quot;Helvetica Neue&quot;, sans-serif; font-size: 12px; font-weight: 200;" fill="rgb(50, 49, 63)" stroke="none" stroke-width="1px">8k</text><text x="1203.92" y="0" dx="0em" dy="0.95em" style="text-anchor: middle; visibility: hidden; font-family: &quot;Helvetica Neue&quot;, sans-serif; font-size: 12px; font-weight: 200;" fill="rgb(50, 49, 63)" stroke="none" stroke-width="1px">9k</text></g><line x1="0" y1="0" x2="1203.92" y2="0" fill="rgb(0, 0, 0)" stroke="rgb(204, 204, 204)" stroke-width="1px"></line></g></g></g></g></svg>