<svg viewBox="0 0 1263.92041015625 400" xmlns="http://www.w3.org/2000/svg"><g><g><g><g><g><line x1="60" y1="375" x2="55" y2="375" style="visibility: inherit;" fill="rgb(0, 0, 0)" stroke="rgb(204, 204, 204)" stroke-width="1px"></line><line x1="60" y1="348.21428571428567" x2="55" y2="348.21428571428567" style="visibility: inherit;" fill="rgb(0, 0, 0)" stroke="rgb(204, 204, 204)" stroke-width="1px"></line><line x1="60" y1="321.4285714285714" x2="55" y2="321.4285714285714" style="visibility: inherit;" fill="rgb(0, 0, 0)" stroke="rgb(204, 204, 204)" stroke-width="1px"></line><line x1="60" y1="294.6428571428572" x2="55" y2="294.6428571428572" style="visibility: inherit;" fill="rgb(0, 0, 0)" stroke="rgb(204, 204, 204)" stroke-width="1px"></line><line x1="60" y1="267.85714285714295" x2="55" y2="267.85714285714295" style="visibility: inherit;" fill="rgb(0, 0, 0)" stroke="rgb(204, 204, 204)" stroke-width="1px"></line><line x1="60" y1="241.0714285714286" x2="55" y2="241.0714285714286" style="visibility: inherit;" fill="rgb(0, 0, 0)" stroke="rgb(204, 204, 204)" stroke-width="1px"></line><line x1="60" y1="214.2857142857143" x2="55" y2="214.2857142857143" style="visibility: inherit;" fill="rgb(0, 0, 0)" stroke="rgb(204, 204, 204)" stroke-width="1px"></line><line x1="60" y1="187.5" x2="55" y2="187.5" style="visibility: inherit;" fill="rgb(0, 0, 0)" stroke="rgb(204, 204, 204)" stroke-width="1px"></line><line x1="60" y1="160.7142857142857" x2="55" y2="160.7142857142857" style="visibility: inherit;" fill="rgb(0, 0, 0)" stroke="rgb(204, 204, 204)" stroke-width="1px"></line><line x1="60" y1="133.92857142857153" x2="55" y2="133.92857142857153" style="visibility: inherit;" fill="rgb(0, 0, 0)" stroke="rgb(204, 204, 204)" stroke-width="1px"></line><line x1="60" y1="107.14285714285722" x2="55" y2="107.14285714285722" style="visibility: inherit;" fill="rgb(0, 0, 0)" stroke="rgb(204, 204, 204)" stroke-width="1px"></line><line x1="60" y1="80.35714285714289" x2="55" y2="80.35714285714289" style="visibility: inherit;" fill="rgb(0, 0, 0)" stroke="rgb(204, 204, 204)" stroke-width="1px"></line><line x1="60" y1="53.57142857142861" x2="55" y2="53.57142857142861" style="visibility: inherit;" fill="rgb(0, 0, 0)" stroke="rgb(204, 204, 204)" stroke-width="1px"></line><line x1="60" y1="26.785714285714334" x2="55" y2="26.785714285714334" style="visibility: inherit;" fill="rgb(0, 0, 0)" stroke="rgb(204, 204, 204)" stroke-width="1px"></line><line x1="60" y1="0" x2="55" y2="0" style="visibility: inherit;" fill="rgb(0, 0, 0)" stroke="rgb(204, 204, 204)" stroke-width="1px"></line></g><g transform="translate(50, 0)"><text x="0" y="375" dx="0em" dy="0.3em" style="text-anchor: end; visibility: hidden; font-family: &quot;Helvetica Neue&quot;, sans-serif; font-size: 12px; font-weight: 200;" fill="rgb(50, 49, 63)" stroke="none" stroke-width="1px">0.19</text><text x="0" y="348.21428571428567" dx="0em" dy="0.3em" style="text-anchor: end; visibility: inherit; font-family: &quot;Helvetica Neue&quot;, sans-serif; font-size: 12px; font-weight: 200;" fill="rgb(50, 49, 63)" stroke="none" stroke-width="1px">0.195</text><text x="0" y="321.4285714285714" dx="0em" dy="0.3em" style="text-anchor: end; visibility: inherit; font-family: &quot;Helvetica Neue&quot;, sans-serif; font-size: 12px; font-weight: 200;" fill="rgb(50, 49, 63)" stroke="none" stroke-width="1px">0.2</text><text x="0" y="294.6428571428572" dx="0em" dy="0.3em" style="text-anchor: end; visibility: inherit; font-family: &quot;Helvetica Neue&quot;, sans-serif; font-size: 12px; font-weight: 200;" fill="rgb(50, 49, 63)" stroke="none" stroke-width="1px">0.205</text><text x="0" y="267.85714285714295" dx="0em" dy="0.3em" style="text-anchor: end; visibility: inherit; font-family: &quot;Helvetica Neue&quot;, sans-serif; font-size: 12px; font-weight: 200;" fill="rgb(50, 49, 63)" stroke="none" stroke-width="1px">0.21</text><text x="0" y="241.0714285714286" dx="0em" dy="0.3em" style="text-anchor: end; visibility: inherit; font-family: &quot;Helvetica Neue&quot;, sans-serif; font-size: 12px; font-weight: 200;" fill="rgb(50, 49, 63)" stroke="none" stroke-width="1px">0.215</text><text x="0" y="214.2857142857143" dx="0em" dy="0.3em" style="text-anchor: end; visibility: inherit; font-family: &quot;Helvetica Neue&quot;, sans-serif; font-size: 12px; font-weight: 200;" fill="rgb(50, 49, 63)" stroke="none" stroke-width="1px">0.22</text><text x="0" y="187.5" dx="0em" dy="0.3em" style="text-anchor: end; visibility: inherit; font-family: &quot;Helvetica Neue&quot;, sans-serif; font-size: 12px; font-weight: 200;" fill="rgb(50, 49, 63)" stroke="none" stroke-width="1px">0.225</text><text x="0" y="160.7142857142857" dx="0em" dy="0.3em" style="text-anchor: end; visibility: inherit; font-family: &quot;Helvetica Neue&quot;, sans-serif; font-size: 12px; font-weight: 200;" fill="rgb(50, 49, 63)" stroke="none" stroke-width="1px">0.23</text><text x="0" y="133.92857142857153" dx="0em" dy="0.3em" style="text-anchor: end; visibility: inherit; font-family: &quot;Helvetica Neue&quot;, sans-serif; font-size: 12px; font-weight: 200;" fill="rgb(50, 49, 63)" stroke="none" stroke-width="1px">0.235</text><text x="0" y="107.14285714285722" dx="0em" dy="0.3em" style="text-anchor: end; visibility: inherit; font-family: &quot;Helvetica Neue&quot;, sans-serif; font-size: 12px; font-weight: 200;" fill="rgb(50, 49, 63)" stroke="none" stroke-width="1px">0.24</text><text x="0" y="80.35714285714289" dx="0em" dy="0.3em" style="text-anchor: end; visibility: inherit; font-family: &quot;Helvetica Neue&quot;, sans-serif; font-size: 12px; font-weight: 200;" fill="rgb(50, 49, 63)" stroke="none" stroke-width="1px">0.245</text><text x="0" y="53.57142857142861" dx="0em" dy="0.3em" style="text-anchor: end; visibility: inherit; font-family: &quot;Helvetica Neue&quot;, sans-serif; font-size: 12px; font-weight: 200;" fill="rgb(50, 49, 63)" stroke="none" stroke-width="1px">0.25</text><text x="0" y="26.785714285714334" dx="0em" dy="0.3em" style="text-anchor: end; visibility: inherit; font-family: &quot;Helvetica Neue&quot;, sans-serif; font-size: 12px; font-weight: 200;" fill="rgb(50, 49, 63)" stroke="none" stroke-width="1px">0.255</text><text x="0" y="0" dx="0em" dy="0.3em" style="text-anchor: end; visibility: hidden; font-family: &quot;Helvetica Neue&quot;, sans-serif; font-size: 12px; font-weight: 200;" fill="rgb(50, 49, 63)" stroke="none" stroke-width="1px">0.26</text></g><line x1="60" y1="0" x2="60" y2="375" fill="rgb(0, 0, 0)" stroke="rgb(204, 204, 204)" stroke-width="1px"></line></g></g><g transform="translate(60, 0)" clip-path="url(#clip_0)"><clipPath id="clip_0"><rect width="1203" height="375"></rect></clipPath><g><g><g><line x1="0" y1="0" x2="0" y2="375" fill="rgb(0, 0, 0)" stroke="rgb(60, 60, 60)" stroke-width="1px" opacity="0.25"></line><line x1="120.39200000000001" y1="0" x2="120.39200000000001" y2="375" fill="rgb(0, 0, 0)" stroke="rgb(60, 60, 60)" stroke-width="1px" opacity="0.25"></line><line x1="240.78400000000002" y1="0" x2="240.78400000000002" y2="375" fill="rgb(0, 0, 0)" stroke="rgb(60, 60, 60)" stroke-width="1px" opacity="0.25"></line><line x1="361.176" y1="0" x2="361.176" y2="375" fill="rgb(0, 0, 0)" stroke="rgb(60, 60, 60)" stroke-width="1px" opacity="0.25"></line><line x1="481.56800000000004" y1="0" x2="481.56800000000004" y2="375" fill="rgb(0, 0, 0)" stroke="rgb(60, 60, 60)" stroke-width="1px" opacity="0.25"></line><line x1="601.96" y1="0" x2="601.96" y2="375" fill="rgb(0, 0, 0)" stroke="rgb(60, 60, 60)" stroke-width="1px" opacity="0.25"></line><line x1="722.352" y1="0" x2="722.352" y2="375" fill="rgb(0, 0, 0)" stroke="rgb(60, 60, 60)" stroke-width="1px" opacity="0.25"></line><line x1="842.744" y1="0" x2="842.744" y2="375" fill="rgb(0, 0, 0)" stroke="rgb(60, 60, 60)" stroke-width="1px" opacity="0.25"></line><line x1="963.1360000000001" y1="0" x2="963.1360000000001" y2="375" fill="rgb(0, 0, 0)" stroke="rgb(60, 60, 60)" stroke-width="1px" opacity="0.25"></line><line x1="1083.528" y1="0" x2="1083.528" y2="375" fill="rgb(0, 0, 0)" stroke="rgb(60, 60, 60)" stroke-width="1px" opacity="0.25"></line><line x1="1203.92" y1="0" x2="1203.92" y2="375" fill="rgb(0, 0, 0)" stroke="rgb(60, 60, 60)" stroke-width="1px" opacity="0.25"></line></g><g><line x1="0" y1="375" x2="1203.92" y2="375" fill="rgb(0, 0, 0)" stroke="rgb(60, 60, 60)" stroke-width="1px" opacity="0.25"></line><line x1="0" y1="348.21428571428567" x2="1203.92" y2="348.21428571428567" fill="rgb(0, 0, 0)" stroke="rgb(60, 60, 60)" stroke-width="1px" opacity="0.25"></line><line x1="0" y1="321.4285714285714" x2="1203.92" y2="321.4285714285714" fill="rgb(0, 0, 0)" stroke="rgb(60, 60, 60)" stroke-width="1px" opacity="0.25"></line><line x1="0" y1="294.6428571428572" x2="1203.92" y2="294.6428571428572" fill="rgb(0, 0, 0)" stroke="rgb(60, 60, 60)" stroke-width="1px" opacity="0.25"></line><line x1="0" y1="267.85714285714295" x2="1203.92" y2="267.85714285714295" fill="rgb(0, 0, 0)" stroke="rgb(60, 60, 60)" stroke-width="1px" opacity="0.25"></line><line x1="0" y1="241.0714285714286" x2="1203.92" y2="241.0714285714286" fill="rgb(0, 0, 0)" stroke="rgb(60, 60, 60)" stroke-width="1px" opacity="0.25"></line><line x1="0" y1="214.2857142857143" x2="1203.92" y2="214.2857142857143" fill="rgb(0, 0, 0)" stroke="rgb(60, 60, 60)" stroke-width="1px" opacity="0.25"></line><line x1="0" y1="187.5" x2="1203.92" y2="187.5" fill="rgb(0, 0, 0)" stroke="rgb(60, 60, 60)" stroke-width="1px" opacity="0.25"></line><line x1="0" y1="160.7142857142857" x2="1203.92" y2="160.7142857142857" fill="rgb(0, 0, 0)" stroke="rgb(60, 60, 60)" stroke-width="1px" opacity="0.25"></line><line x1="0" y1="133.92857142857153" x2="1203.92" y2="133.92857142857153" fill="rgb(0, 0, 0)" stroke="rgb(60, 60, 60)" stroke-width="1px" opacity="0.25"></line><line x1="0" y1="107.14285714285722" x2="1203.92" y2="107.14285714285722" fill="rgb(0, 0, 0)" stroke="rgb(60, 60, 60)" stroke-width="1px" opacity="0.25"></line><line x1="0" y1="80.35714285714289" x2="1203.92" y2="80.35714285714289" fill="rgb(0, 0, 0)" stroke="rgb(60, 60, 60)" stroke-width="1px" opacity="0.25"></line><line x1="0" y1="53.57142857142861" x2="1203.92" y2="53.57142857142861" fill="rgb(0, 0, 0)" stroke="rgb(60, 60, 60)" stroke-width="1px" opacity="0.25"></line><line x1="0" y1="26.785714285714334" x2="1203.92" y2="26.785714285714334" fill="rgb(0, 0, 0)" stroke="rgb(60, 60, 60)" stroke-width="1px" opacity="0.25"></line><line x1="0" y1="0" x2="1203.92" y2="0" fill="rgb(0, 0, 0)" stroke="rgb(60, 60, 60)" stroke-width="1px" opacity="0.25"></line></g></g></g><g><g><line x1="0" y1="1392.8571428571427" x2="1203.92" y2="1392.8571428571427" fill="rgb(0, 0, 0)" stroke="rgb(153, 153, 153)" stroke-width="1.5px"></line></g></g><g><g><line x1="120.39200000000001" y1="0" x2="120.39200000000001" y2="375" fill="rgb(0, 0, 0)" stroke="rgb(153, 153, 153)" stroke-width="1.5px"></line></g></g><g><g><g><g><g><path stroke="rgb(255, 112, 67)" stroke-width="2px" d="M129.060224,-4.981391109166111L129.4214,10.0484906311504L131.82924,-40.304331227554314L132.792376,8.85957625843497L133.27394400000003,21.025523483310394L135.681784,24.520821307212202L137.24688,14.962334823765673L139.173152,12.333461707947151L139.53432800000002,8.425592893841497L140.61785600000002,-6.754166988387283L141.942168,-6.679977550081446L142.54412800000003,1.228706730984868L142.784912,0.9119453178369668L143.386872,9.728686876031588L148.08216000000002,20.369135268968762L148.68412,12.511067984376098L150.49,25.66729693266808L151.212352,20.91233837698576L151.814312,12.489533786319555L152.657056,0.9838778777205448L153.379408,4.321381697092363L155.666856,17.038597986670652L157.593128,32.092794757006686L157.833912,33.9646019165433L158.797048,16.753729333388208L160.241752,25.38294089512715L161.32528000000002,29.004320967232502L162.288416,34.99879760672246L164.214688,28.72897716948023L164.696256,30.400116198416924L171.197424,41.64485205533947L171.31781600000002,40.99296429015169L173.36448,42.505577417990594L173.72565600000001,49.80445713197349L174.08683200000002,39.08019694124948L175.89271200000002,32.20202355636769L176.25388800000002,35.97296842213075L176.37428,40.7709377686848L177.5782,33.35239564172798L179.624864,29.327802501544397L179.86564800000002,32.7458989813079L182.39388,30.42794570943846L184.44054400000002,30.785493252244237L185.042504,30.81226706016554L188.293088,38.41031170742161L189.49700800000002,39.51345709231225L190.21936000000002,37.47471045630033L190.460144,37.47517545961807L191.06210400000003,40.471524744052545L191.18249600000001,44.124706797045235L192.98837600000002,42.981090962067015L195.15543200000002,43.16285646516383L195.396216,39.26688586513876L196.84092,38.25775510643223L197.68366400000002,43.59494034560015L197.804056,45.31045881976155L198.04484000000002,45.44166235660373L198.40601600000002,47.66479635632345L198.6468,48.49953033442881L200.091504,51.75323605583583L201.295424,57.08097369014399L202.740128,59.56355716774698L203.34208800000002,59.16366997088437L206.47228000000004,67.09935048464286L206.95384800000002,63.10428227017832L207.43541600000003,64.922498831535L207.555808,60.541499228965336L208.39855200000002,57.37333337196691L209.48208,62.23515629770344L209.963648,65.54504790273319L210.44521600000002,65.88093631422777L211.04717600000004,66.4870041552162L211.52874400000002,63.70595714666251L212.61227200000002,63.98537160440196L213.09384,67.82109400736402L213.33462400000002,71.49897800585313L213.575408,72.98754570603279L214.41815200000002,75.67606104012259L215.020112,77.08173643691276L215.260896,78.20118895432898L215.862856,81.4962981105163L216.10364,83.53609183276751L216.58520800000002,85.59258457149531L217.066776,80.41573888662907L217.78912800000003,79.87242403931731L217.90952000000001,80.05687307510692L220.678536,79.35117949340332L221.16010400000002,83.63245264282438L225.13304000000002,87.18823738177372L225.97578400000003,89.92572253300023L226.698136,87.49511521290378L228.38362400000003,87.87028544202497L228.865192,85.5068495884558L229.70793600000002,89.92649673388456L229.94872,91.14180166246723L230.671072,90.76161783137792L230.911856,89.63659717401322L232.59734400000002,89.81057608206879L232.717736,94.30828128141428L233.921656,99.35027938155628L234.282832,97.09241787363572L235.36636000000001,99.142233040799L235.847928,100.28864679819884L236.329496,99.544724201274L237.413024,99.06455162242395L237.53341600000002,98.99039901807708L238.25576800000002,100.10050912826722L238.37616000000003,96.88917804163327L238.97812000000002,97.1274855684689L241.14517600000002,97.98715423871909L241.50635200000002,98.21190456201975L242.58988000000002,98.66966858375423L246.20164,95.59602862857673L247.76673600000004,98.26073350989174L248.489088,96.07042131915546L248.850264,98.92022695815956L249.09104800000003,101.76994790219686L249.57261600000004,103.39838195865406L250.294968,107.47044009907762L250.89692800000003,110.7211407896753L252.100848,113.78864349344337L252.8232,116.5453401662698L253.42516,117.82073310860972L254.62908000000002,115.82915191704313L255.23104,112.53465336134866L259.685544,114.32765509186817L260.167112,114.69480302257165L260.287504,117.03573050485602L260.407896,118.46413978482485L262.574952,117.96094514671813L264.019656,116.96985885657585L264.14004800000004,117.05862187192633L264.86240000000004,117.30898992162793L265.705144,117.51537630770355L268.83533600000004,118.52259566284022L270.28004000000004,119.11653552148908L271.604352,117.7187366537596L271.965528,119.33590011768501L272.326704,117.01410978291494L274.734544,116.28068927857436L275.45689600000003,115.44108825475996L276.29964,116.65012643524915L277.021992,115.97102587608242L278.948264,114.27560283000633L279.30944000000005,114.18760631312614L280.633752,112.1874095689547L280.994928,113.7558792367675L281.356104,113.5618298505064L281.47649600000005,111.12219178938301L287.255312,112.81696838119456L287.616488,113.72544893430018L287.977664,111.54424057123208L288.09805600000004,107.55377794884578L290.74668,108.55351976302336L292.191384,109.57656901699664L292.43216800000005,106.197395189139L292.91373600000003,106.80206799187198L293.395304,109.2898976663111L293.87687200000005,108.99741802301799L296.88667200000003,111.54770974786896L297.007064,109.83196930215854L298.33137600000003,110.02028421381686L299.294512,110.95587777749517L299.77608000000004,112.08388165414846L300.016864,113.03028089780895L302.063528,111.8199167095546L303.869408,111.1237249653754L304.35097600000006,109.2741565891505L307.36077600000004,109.39305942069785L309.287048,113.02442720287775L309.40744,112.49848206324924L311.21332,113.34364590294172L311.69488800000005,113.75899936410087L313.62116000000003,112.39987920353337L313.741552,112.400477861919L315.30664800000005,113.29317947061656L316.390176,115.34925867350279L316.992136,116.15275402472815L317.594096,116.22553363916268L317.95527200000004,117.76599004802682L318.557232,117.33121089438947L318.91840800000006,114.51827465364045L320.363112,116.53931837609525L321.3262480000001,116.45490238499377L322.168992,119.60521769419947L323.011736,120.41517775699305L324.095264,121.09590675364655L324.576832,119.54339593835394L324.817616,119.95322088841314L325.05840000000006,118.60012115585084L325.419576,119.51590733690679L326.26232000000005,119.38860003132262L327.345848,121.35048974001387L328.549768,123.99551335223586L329.031336,123.5540751896917L329.27212000000003,124.7419317430097L329.63329600000003,125.4270393982828L330.235256,126.70949652482713L330.59643200000005,128.09407112545415L330.71682400000003,130.49178995889523L330.837216,132.63935134676905L333.124664,134.20099042758562L334.20819200000005,134.6217992871098L334.930544,137.0848205392386L335.773288,134.72377058893204L335.8936800000001,133.6634369732718L336.977208,134.52285629027054L337.81995200000006,136.2839044967845L340.348184,136.95809497377553L340.82975200000004,136.58724622798024L342.033672,136.4376049508348L342.51524,138.72969963875653L343.598768,138.65148580166758L345.16386400000005,138.60087635685838L345.52504,139.00613818393927L346.24739200000005,138.55393031397506L346.488176,140.65711206883927L350.58150400000005,141.07388354029L351.30385600000005,142.0143237600705L353.35052,141.8958866445673L353.59130400000004,142.8249966880387L354.55444,142.13018029803308L354.91561600000006,142.66158001695462L355.1564,143.3435484720889L357.323456,142.6799568558863L359.00894400000004,141.86807106651378L359.249728,140.55175825411632L361.41678400000006,140.2145988240848L361.898352,140.10869050794338L362.861488,141.84930036768128L364.908152,142.81961130976427L365.63050400000003,141.79921954287866L368.519912,144.06283394289704L369.96461600000004,145.83431442080325L370.085008,143.34661063696933L370.446184,143.25366696641586L370.56657600000005,144.61541370131687L370.80736,144.5664306024971L371.048144,142.8296389675006L371.529712,141.76517895840556L372.01128,140.97654163178157L372.854024,141.62251631437064L374.659904,142.79402503652074L378.753232,143.45137100473005L379.2348,144.67842148991804L379.475584,144.55890055043517L380.077544,145.03507823425429L381.161072,144.34579129154005L382.60577600000005,145.45760444240267L383.809696,146.6078465657093L384.05048000000005,147.27980292474336L384.291264,148.34416862157263L384.411656,148.3979938452465L384.89322400000003,147.3130207156244L385.25440000000003,146.97730848460827L386.217536,146.78262453008335L386.69910400000003,146.6124207545965L388.384592,146.90204015318307L389.106944,148.33207018799538L389.708904,149.20470575173647L389.829296,149.7529636272476L390.07008,151.79074025933588L390.431256,153.15921554578867L390.912824,151.05480978568713L391.033216,152.4624645002834L391.87596,152.54156503837842L392.237136,154.29048855232335L392.839096,155.71583227167972L395.126544,155.89140892775401L396.330464,157.0364970468819L397.052816,156.21579988791203L397.77516800000006,155.6202687319314L398.256736,154.78855523731022L399.70144000000005,154.52936627533674L399.82183200000003,156.0534853049967L402.831632,157.5451407061961L403.91516000000007,159.43653059468411L405.96182400000004,159.80764205483842L408.12888000000004,159.16737710916266L408.249272,157.07646203649168L408.49005600000004,157.79500589624095L409.693976,158.76381885785133L410.175544,158.38978621760992L412.46299200000004,157.74343503481472L413.787304,156.84852066023254L414.75043999999997,157.2210671829974L415.472792,159.4356261935468L415.593184,159.98401455118497L415.833968,161.54982006585107L416.07475200000005,162.23230195054867L416.67671200000007,163.4489004554573L419.68651200000005,162.67391281423878L419.80690400000003,162.70758021512367L421.010824,163.39840766713513L421.25160800000003,163.59299584736362L421.853568,163.479881384102L423.539056,163.2452931504678L424.261408,165.30765065723804L425.344936,164.5812967523453L427.150816,164.20310540534786L427.63238400000006,164.61302541542386L427.873168,164.05599470986297L429.43826400000006,164.5243180390348L430.882968,164.13049914016167L432.327672,164.25726838003308L433.531592,163.88644821877594L434.25394400000005,164.01343487250548L436.300608,164.83135088092237L437.02296,165.01331241193733L437.143352,163.95564694029775L438.106488,164.23787367846361L438.82884,162.77801977931975L439.551192,161.61987268435828L440.153152,161.77219190858003L442.92216800000006,161.8071606534942L443.764912,161.35818292550113L444.366872,161.7997345693182L445.93196800000004,162.46953763438063L446.774712,162.36725282254525L448.580592,161.9783562853266L450.025296,161.17163982275878L450.386472,160.21744596043288L452.07196000000005,158.47095341385716L452.192352,160.10897705440198L452.43313600000005,160.0733004382045L456.28568,161.4522495804064L456.406072,162.03281146338847L456.52646400000003,162.7412352965628L457.36920800000007,163.22080643086045L458.69352000000003,163.60415861595257L460.49940000000004,165.661439550206L461.10136000000006,165.60712582339156L464.71312000000006,166.38711059457364L466.278216,166.0162740987547L467.361744,165.9242532437138L468.44527200000005,164.876116933106L469.167624,165.43078821235036L469.649192,165.26820430409046L471.695856,165.39879053042412L471.93664000000007,166.09344140739228L472.05703200000005,167.43842328537448L473.501736,168.32231551170142L475.66879200000005,168.8393220247781L477.715456,168.75780964039876L478.67859200000004,168.82079878041088L481.447608,167.08723240640688L482.531136,168.0156639492573L482.7719200000001,167.9555421412535L483.01270400000004,167.16447690192916L483.494272,167.089667284232L483.614664,167.5123772866954L484.938976,167.54303811597893L485.300152,168.15669562924106L486.263288,167.32116434250815L486.62446400000005,168.33733510207747L489.51387200000005,169.01439520935503L489.99544,170.31810064802463L490.23622400000005,170.12953736995317L492.04210400000005,171.09252149024596L493.6072,170.9892561149104L496.37621600000006,171.89307449099803L498.18209600000006,171.87425813940706L498.30248800000004,173.03034080354905L499.1452320000001,174.0249943333272L499.74719200000004,173.43186100313494L500.34915200000006,173.16801362931187L500.83072,173.79605051019027L501.07150400000006,174.55740150651485L502.99777600000004,174.51334500620416L505.164832,175.40519839615195L505.285224,176.44506757127152L506.127968,175.39595224343856L506.48914400000007,177.19195389479145L509.378552,177.64604878353637L509.739728,176.85235758660608L510.582472,177.77579556081275L510.94364800000005,178.6273466349353L511.06404000000003,179.10654241252965L511.30482400000005,178.78226364899328L511.42521600000003,178.5762386606266L514.435016,179.18549803240512L515.518544,177.83495082216567L518.407952,178.09646282459542L519.371088,177.76217158095048L521.0565760000001,177.80860267863693L521.176968,178.56189191412537L521.7789280000001,179.06516569022602L523.2236320000001,179.4676064218164L526.715,180.01507809454458L526.955784,179.14085381948962L527.1965680000001,180.54971243601884L528.159704,181.2042594650736L530.206368,181.0125797095228L530.8083280000001,180.66009441340108L533.456952,180.6645630168571L533.818128,180.57233632822386L534.4200880000001,181.10768604071512L535.7444,182.29832055360444L535.985184,182.55410850968005L536.707536,183.86356851778862L536.827928,184.95915621007092L537.55028,185.82643344025567L538.393024,187.22967539372866L539.115376,187.40491737958553L539.4765520000001,186.80375997817626L541.523216,185.88961919763244L542.96792,187.13985067906916L543.329096,185.8506259051176L544.1718400000001,185.77693742073774L546.098112,186.47165490629953L546.338896,186.38079192210463L547.0612480000001,185.88439521804722L547.542816,187.21377764330882L549.469088,187.32349241656772L551.515752,186.5322162732619L553.9235920000001,186.39555313458925L556.090648,187.26486955114737L556.3314320000001,187.79041992829934L556.572216,187.00375416804502L556.933392,187.00517891009247L557.294568,185.82458026828002L559.3412320000001,185.82937232738013L560.6655440000001,186.64471485191936L560.785936,186.0212657148972L562.351032,184.71506088177728L565.962792,184.89026963479176L566.203576,185.15574840094584L569.092984,184.72292564775532L569.574552,185.18454434602427L569.815336,185.14577498894883L570.537688,185.21268192080635L570.898864,184.8279690013555L571.139648,185.31598849197053L572.2231760000001,185.27713088292344L573.06592,185.61251711649984L574.631016,185.49829282056214L575.594152,185.08640672990768L577.159248,184.69128045544974L577.400032,183.5551400824711L577.761208,183.44742106317827L579.205912,184.33204153130868L579.68748,184.2816695340257L580.28944,183.90698624562512L580.5302240000001,184.80041870628585L581.734144,184.79312630411457L582.215712,185.63699513160637L585.70708,185.39305396957016L586.30904,186.26160897454133L587.151784,186.04600572138588L590.2819760000001,186.41429594508068L591.2451120000001,186.89734044756742L592.449032,186.4051769890651L593.4121680000001,186.11816715074474L594.254912,186.74428015377117L594.73648,186.5295782859684L596.060792,187.0803362548959L596.783144,186.8366559504363L597.5054960000001,186.66592130432298L600.15412,185.01766841033714L601.478432,185.16758757429602L602.0803920000001,185.6315449915159L603.1639200000001,186.12205257424944L603.284312,185.3701273218339L604.729016,184.06636696932713L606.053328,185.29747182306656L606.4145040000001,186.09771077896747L607.6184240000001,187.17776731453728L613.276848,187.58865617287725L613.878808,186.3038562485459L613.9992000000001,186.6311434350435L615.20312,187.12587981400907L623.9917360000001,188.46135227078415L625.316048,188.89359581542777L625.43644,189.0999815986984L625.6772240000001,189.2915169751875L625.9180080000001,189.69159837039982L626.279184,189.17032196920536L626.399576,188.87382775071478L629.4093760000001,189.74533740010588L630.011336,190.4329218990764L630.372512,189.2899741705707L631.335648,189.83831658916716L632.65996,190.30156767463166L633.743488,190.17033658543264L634.104664,189.25539312708153L634.2250560000001,189.4981635014581L636.030936,190.32971527157866L637.957208,191.03459558345367L638.67956,191.16230623752043L639.1611280000001,192.04035494462988L640.2446560000001,192.2332661632778L640.48544,192.71119766075955L641.568968,192.99693621355868L642.0505360000001,192.67094742121031L642.7728880000001,191.88567178982933L643.374848,192.45624500514236L646.5050400000001,192.01155524177895L647.5885680000001,191.55517491503045L649.394448,191.50458687276782L650.237192,192.13988615200583L650.9595439999999,191.99401386506736L651.4411120000001,191.39297875842647L651.561504,191.50371053638207L653.848952,191.2531670588683L654.210128,191.68417859928965L654.93248,191.87363756286098L658.5442400000001,191.98251687238195L659.2665920000001,192.33009308008042L659.7481600000001,192.86200870110616L661.0724720000001,193.0474367077689L661.313256,193.2189080029277L663.3599200000001,191.97657378893678L663.480312,193.0996799871493L665.7677600000001,193.15175688510575L665.8881520000001,192.5461753890147L666.249328,192.33685771046424L667.3328560000001,193.11167826102508L668.2959920000001,193.2419764163402L668.536776,193.88162151453741L668.6571680000001,194.45351609722252L671.666968,195.33605334962593L672.0281440000001,195.42114880672233L673.3524560000001,194.67402057912523L673.7136320000001,193.13799517699576L673.954416,193.6428108016689L674.1952000000001,194.4822104274603L675.6399040000001,194.05177333280582L677.686568,193.4810087500353L680.2148,194.00793004866554L681.057544,195.42089314561798L682.0206800000001,194.66931319479036L682.502248,195.40935957838323L683.344992,194.48047399704433L683.465384,194.1438331114718L683.585776,194.4986261277231L684.789696,194.87760900105923L687.919888,194.7071104014479L688.521848,195.2245610380524L690.44812,195.5875475223518L691.7724320000001,194.59102136193607L692.254,194.25735108265812L692.374392,193.96289968734231L693.337528,194.55442492378012L693.6987040000001,194.28532136664572L693.8190960000001,194.5593120246495L694.05988,194.7441595058494L694.421056,194.9786155610779L695.504584,194.4588487392588L695.986152,194.78111684465563L696.828896,194.37590479433038L696.949288,193.99719117168846L697.67164,193.42004203135272L698.393992,194.1047099965729L698.6347760000001,194.66231991019134L698.9959520000001,194.35958490041986L703.209672,193.67284189621634L704.6543760000001,193.54688763345698L706.9418240000001,193.37182922995615L707.1826080000001,194.47192401515295L709.4700560000001,195.0613728746256L709.7108400000001,195.1797113988563L709.8312320000001,195.86460074642864L712.11868,196.68243189648052L715.008088,196.8826451547105L715.3692639999999,197.06986290203128L716.9343600000001,197.4403388766446L717.8974960000002,198.26259685028649L718.9810239999999,198.62939773790364L719.3422,199.08039519769682L719.582984,198.7124504241431L719.703376,198.17524242292254L721.388864,197.26272940303338L722.352,196.70586979564604L725.000624,196.17525168292303L725.722976,195.74347943287736L726.084152,196.58441489096268L726.926896,196.70900671539562L728.491992,197.5698053946955L728.732776,196.8355349288467L728.8531680000001,196.15201705564044L729.695912,196.49351399626568L731.862968,196.14891131669614L734.631984,196.39355869421072L735.2339440000001,196.67331403002046L737.641784,196.99998394150003L737.882568,197.14617318426704L738.6049200000001,197.7575895533335L741.7351120000001,198.37882129326354L742.337072,198.8668721276204L743.9021680000001,198.41329706490387L744.383736,199.268470044714L746.550792,199.28987257207808L747.5139280000001,199.97506281748056L750.282944,201.11968046578306L750.6441200000002,201.23152666563746L750.7645120000001,201.62647287947988L751.24608,201.35941320052424L751.366472,201.6470790088604L751.8480400000001,201.56892202401997L754.4966640000001,201.39698868284452L757.2656800000001,201.29608404962545L758.830776,202.07505760344958L760.757048,202.2891676363793L762.08136,202.49085696759872L764.0076320000001,202.80872311491612L765.69312,202.79871305058987L765.8135120000001,202.95194839543353L766.1746880000001,203.06973787034573L768.221352,203.41974638405824L768.70292,204.16356580669256L771.11076,203.5937126781434L771.3515440000001,203.87182370711048L773.0370320000001,203.92905714850028L775.3244800000001,204.02078980966562L775.444872,204.86294872067546L775.685656,204.89477660841823L776.2876160000001,205.2260990682393L779.658592,205.47576003785016L780.74212,205.75908874105025L781.584864,205.2031932722368L782.066432,205.45204688700946L782.7887840000001,206.34169159178919L783.5111360000001,205.48890024886808L784.113096,205.67913987155842L784.474272,205.1722422946387L784.7150560000001,205.6364553845901L786.520936,205.7459892357067L787.604464,205.8324076815666L788.5676000000001,205.16832815830148L790.6142639999999,205.74400752922134L791.216224,206.55599587436683L791.457008,206.36842279328795L792.901712,206.04566010101266L793.1424960000002,206.74126612862167L793.864848,206.53134499493876L795.309552,207.33717459658885L795.9115120000001,207.7686360544571L797.115432,208.3562684228625L798.3193520000001,209.0431941560576L801.6903280000001,209.89636218906216L801.9311120000001,210.44395707040778L802.41268,209.7349036572816L804.2185600000001,209.5877193134474L809.1546320000001,210.0335482335476L809.515808,210.600811284787L809.997376,210.27380867611296L811.6828640000001,210.44931131674142L813.0071760000001,210.4238876957996L813.8499200000001,210.07607006389566L815.896584,209.7404554019743L816.2577600000001,210.6597367776256L816.85972,211.23252635501123L817.4616800000001,210.90666986614872L818.184032,211.64363463956786L819.628736,211.45020764716128L819.749128,211.7650837709618L821.795792,211.80334718244512L822.156968,211.90757305044735L822.999712,211.60440159102296L826.250296,211.43405597522462L826.49108,212.01080070491696L827.333824,212.4980213099762L829.5008799999999,212.0853542357279L829.7416640000001,211.61923859498503L830.584408,212.00733657962007L831.667936,211.84815654888033L832.871856,212.49683055443484L832.992248,212.87103717295565L834.1961680000001,213.02634114895767L834.6777360000001,213.07240415217373L834.798128,212.7597698863402L837.0855760000001,212.88225763333136L837.687536,213.12364567068536L837.92832,213.85173736880026L838.409888,214.23134583887835L839.4934160000001,214.53413235032508L841.6604720000001,214.54443052041603L844.068312,214.88912357134686L844.6702720000001,215.1034498837178L845.7538000000001,215.26329830822775L846.476152,215.5732382044067L846.5965440000001,215.79628900001066L846.7169360000001,216.0616034515674L847.078112,216.58346978849903L847.439288,215.81831257217632L850.087912,215.38719310422883L852.134576,215.6736461597005L852.2549680000001,214.60286395011897L852.7365360000001,214.90097971169342L853.3384960000001,214.70789381410708L854.1812400000001,215.16493766421073L855.2647680000001,215.30148488443083L855.5055520000001,215.57578369035951L856.7094720000001,216.1359287884821L857.4318240000001,215.9837731724427L857.6726080000001,215.80027874920373L858.39496,214.71752776234877L858.6357439999999,214.88588404166674L858.8765280000001,214.37756827866087L860.3212320000001,213.7863079528308L860.5620160000001,213.67129855316688L860.8028,213.73571409878318L863.5718160000001,213.78941649505472L864.655344,213.48547749070735L865.0165200000001,213.19293090332076L866.942792,212.93272024086997L868.146712,212.06519626969862L868.267104,212.5722883613242L868.5078880000001,211.96872441100822L869.23024,212.19278009108885L869.9525920000001,211.14200855085537L870.7953360000001,211.20030238917923L871.3972960000001,210.32024150568978L872.2400400000001,210.03634625208548L872.962392,210.38795163505088L874.5274880000001,210.4163044245122L877.65768,209.81108694263233L880.06552,209.508493494773L880.426696,209.43481212809436L880.908264,209.94127390113914L881.0286560000001,210.15658977480533L881.8714000000001,210.0405172582225L883.918064,209.82150575352136L885.242376,210.57296175938203L886.5666880000001,210.34302320627145L887.409432,210.5153771899375L888.131784,210.4711739365668L891.021192,210.7046415532369L896.6796160000001,210.78339690127768L897.6427520000001,210.8721898855392L898.12432,210.4071651955478L899.689416,209.60547218927113L901.013728,208.85720348358169L901.495296,208.96979539548906L902.4584320000001,209.21485194697854L902.578824,209.62249513870196L903.0603920000001,209.84547517263442L904.1439200000001,210.29192831149246L904.264312,210.11632734470248L905.4682320000001,210.49028761071645L905.588624,210.15208427375498L905.709016,210.2411138993061L906.6721520000001,210.61383419106465L909.0799920000001,210.46880422246772L911.9694,210.83030755337995L912.4509680000001,210.95819415596586L912.6917520000001,210.89373809560266L912.812144,211.1525226417854L913.17332,211.0575543111496L914.37724,211.12409432812007L915.460768,210.90851884542542L915.8219440000001,211.58889076222007L917.0258640000001,212.01610621891177L917.627824,211.79942532974493L921.9619360000002,211.81411584553643L923.0454640000002,211.87889099241664L923.2862480000001,212.4042370529312L923.767816,211.9373963269523L924.490168,212.24174595822112L924.851344,211.65613395604407L925.6940880000001,211.49134628925236L926.6572240000002,210.97795282929667L927.0184,210.4360631444984L927.9815360000001,210.32374741080346L928.463104,210.48031364372324L928.944672,210.02025076535915L930.148592,210.4154389284628L930.2689840000002,210.88893270262642L931.713688,211.2223597748112L932.1952560000001,211.17849898598547L933.0380000000001,210.5112738226001L933.519568,210.0534966965306L934.84388,210.04154222968367L936.288584,209.79270428274916L938.214856,209.5445339909377L941.2246560000001,209.4645618128648L943.0305360000001,209.43403673470797L944.716024,209.98405704091394L945.1975920000001,210.17872313669935L945.67916,209.74426563021535L946.6422960000001,210.31196975831122L947.3646480000001,210.3878824870732L947.4850400000001,210.2676439785037L949.531704,210.20646089303787L950.615232,210.66384724966662L951.3375840000001,210.45544444316897L952.3007200000001,210.29641885217669L952.6618960000001,210.68421230048685L955.31052,211.21721844168383L957.3571840000001,211.7780420622759L957.838752,211.35433916423972L958.8018880000001,211.738944137926L959.163064,212.1031035150465L959.8854160000001,212.3497941196349L962.0524720000001,211.99434420079103L962.293256,212.19236329044114L964.460312,211.91525975163054L964.9418800000001,211.80340634658907L965.303056,212.10766298602854L967.4701120000001,211.43522300317807L967.9516800000001,210.83211739520516L968.794424,211.10844993171034L970.3595200000001,211.62504398939723L971.0818720000001,211.80319434413317L972.7673600000002,212.04824946429142L974.212064,211.66761964538577L975.054808,211.25914913698367L976.017944,211.4661920715619L976.98108,211.28896855022126L977.1014720000001,210.96841626015652L977.7034320000001,211.35747354478787L978.1850000000001,211.87951822160102L979.750096,212.419346802894L980.2316640000001,212.29845320556186L981.9171520000001,212.70301569540862L983.361856,212.08569242163975L983.482248,211.9180097582586L984.3249920000001,211.64597241351893L985.288128,211.69825441638432L986.01048,210.64712926459677L986.732832,210.66308778453458L987.5755760000001,210.89741971290044L987.81636,211.18808921934053L988.899888,210.91860482485978L989.1406720000001,211.17089204160197L989.261064,211.30893516058558L991.5485120000001,211.60744516963965L991.9096880000001,211.5460030731042L992.9932160000001,210.9463323139156L994.558312,211.06547307515396L995.8826240000001,211.03341828679174L996.2438000000001,210.9354778103161L997.4477200000001,210.3952023076086L999.373992,210.24207424748892L1000.6983040000001,210.7757048813894L1002.86536,211.27981120084172L1004.06928,210.92832689943896L1004.189672,211.12182927966325L1004.791632,211.03362436899795L1004.9120240000001,211.5170323672803L1005.7547680000001,212.25195641785828L1006.236336,212.48933464430712L1006.3567280000001,212.65135279839095L1006.47712,212.4394010711414L1009.1257439999999,212.2839693736652L1009.2461360000001,212.77237022297007L1009.727704,213.28751518006953L1009.968488,213.06577353841598L1011.0520160000001,212.22116860732586L1011.533584,212.1596671819257L1011.8947600000001,212.28413704104253L1015.024952,212.52899384109637L1015.145344,212.52275871960524L1016.228872,213.1191260112045L1016.5900480000001,213.23230892579124L1017.0716160000001,213.243386274949L1017.4327920000001,212.40340719763452L1018.636712,212.30497539788186L1018.757104,212.5208393560495L1018.8774960000002,212.25620396768264L1018.9978880000001,212.50873396304095L1019.5998480000001,213.27679354424572L1020.3222000000001,213.8771949415996L1020.803768,213.76745317506405L1021.0445520000001,213.59359930832593L1022.9708240000001,213.80616699880738L1023.693176,213.29269207910502L1023.8135680000001,213.60642209530295L1024.776704,213.37831538741906L1025.499056,213.00413301984176L1027.064152,213.02463936115234L1027.906896,213.1732137196359L1029.110816,212.9007693767023L1032.2410080000002,212.88485517812254L1035.0100240000002,213.06988055538488L1035.8527680000002,213.17233145162874L1036.57512,212.8732987818136L1036.936296,212.7390118847181L1040.668448,212.91465966133998L1040.7888400000002,212.96248795386035L1042.715112,212.83742474678454L1042.8355040000001,211.30414681733717L1044.039424,211.6633546216104L1044.4006000000002,211.52260376073195L1044.641384,211.51821272402898L1045.965696,210.643881442013L1046.688048,210.36025440320296L1047.049224,210.6474192274248L1047.530792,210.49078250552566L1049.4570640000002,210.83155415962037L1049.697848,210.53935998719308L1049.81824,211.0149520235689L1050.299808,211.4353073309392L1050.660984,212.07997579020991L1050.9017680000002,211.86753622823773L1052.587256,212.35760014810512L1053.0688240000002,212.35184327148568L1054.3931360000001,212.13938038236407L1054.754312,212.1250154340827L1057.162152,212.6402474416069L1058.1252880000002,212.88518133964533L1059.329208,213.15643104907267L1059.4496000000001,213.3374695414372L1060.773912,213.37485994905788L1063.542928,213.41216285107265L1064.144888,213.55665271679032L1066.1915520000002,212.62878093493018L1068.9605680000002,211.99768434000075L1069.201352,212.8312061320816L1071.4888,212.61073437828736L1071.6091920000001,211.90073783778988L1072.09076,212.3231838828839L1072.5723280000002,212.12178997412542L1074.7393840000002,212.1698422749113L1075.461736,212.4665978978568L1075.582128,212.22984290313937L1080.638592,212.41961425407024L1081.601728,211.45601192256592L1082.5648640000002,211.63795181897356L1082.685256,211.65118659797974L1084.7319200000002,211.94763374029893L1085.695056,211.97803110012833L1086.297016,211.87576126564812L1086.778584,212.01224646317337L1088.102896,211.61871769848022L1089.5476,211.31431804394384L1089.908776,211.883491519448L1090.14956,211.80814149209158L1090.6311280000002,211.1517973427647L1091.594264,211.15694527035873L1096.289552,211.26761226512315L1098.817784,211.67683925353757L1099.540136,211.76894628046315L1099.660528,212.2997115962569L1099.901312,211.8731472059015L1101.707192,211.93845823852672L1102.5499360000001,212.43289025045968L1105.318952,212.21704230420258L1105.5597360000002,212.40416016564018L1105.80052,212.31104773661815L1107.124832,212.5502062287685L1107.486008,212.5268365719835L1109.532672,212.37260848148446L1110.255024,212.38444515131388L1111.82012,212.0563135698707L1114.2279600000002,211.79860898358507L1115.311488,211.89841150080954L1116.996976,211.98928960558985L1117.2377600000002,212.8537897065137L1117.478544,212.4477170038661L1118.5620720000002,212.971728114206L1119.6456,213.1387476832543L1120.608736,213.85179845177123L1123.016576,213.5317945026113L1123.25736,213.74957306433842L1123.6185360000002,213.82835282069237L1123.85932,213.68201240925106L1124.581672,213.04315397517328L1126.026376,213.2266209775895L1126.146768,213.5219450713929L1126.989512,213.67852460774512L1127.350688,213.2741161265635L1127.952648,213.4136635504776L1128.795392,213.25138603226804L1129.036176,212.7795259252316L1135.176168,213.47889120416454L1136.50048,213.52318155730018L1136.861656,213.20643197326834L1137.463616,213.68053916135787L1138.426752,213.80167771185003L1139.3898880000002,214.16274251006118L1139.871456,214.75448825083507L1139.9918480000001,215.31066036294396L1140.2326320000002,215.8912990760051L1140.593808,216.01710087752411L1141.4365520000001,215.80907272703894L1141.91812,215.9775934517724L1142.399688,216.530156743909L1143.483216,216.80831414116804L1143.6036080000001,216.28382387241925L1144.205568,216.37444343032544L1144.687136,216.61826562517885L1144.807528,216.67417761504004L1146.6134080000002,216.2532853555178L1150.2251680000002,215.42496463883052L1150.34556,215.5676936382545L1151.790264,216.3643960213052L1152.633008,217.01500111530808L1153.234968,216.97672810692873L1154.920456,217.6256034435865L1156.0039840000002,217.62879564866506L1156.6059440000001,217.78448423602828" style="fill: none;" fill="none"></path></g></g></g></g><g opacity="0.2"><g><g><g><path stroke="rgb(255, 112, 67)" stroke-width="2px" d="M122.67944800000001,-128.57147838388158L123.4018,112.50003959451408L125.328072,187.50003193105974L125.56885600000001,69.64288971253808L125.93003200000001,-160.71424101080208L126.893168,-133.92855226993555L127.25434400000002,0.00005108969554612486L129.060224,482.14284756353925L129.4214,144.64288204908374L131.82924,-541.0714362348829L132.792376,546.4285324726786L133.27394400000003,166.0714170762471L135.681784,69.64288971253808L137.24688,-117.85717095647527L141.942168,-5.357182451656854L142.54412800000003,150.0000357627869L142.784912,-5.357182451656854L143.386872,192.85710581711362L148.08216000000002,251.7857168401991L148.68412,-166.07147455215443L150.49,337.5000166041511L151.212352,-96.42855610166265L152.657056,-305.3571517978395L153.379408,96.42857845340461L155.666856,380.357166486127L157.593128,476.7856938498361L157.833912,91.07142473970146L158.797048,-525.0000549214226L160.241752,305.3571741495814L161.32528000000002,150.0000357627869L162.288416,241.07140941279278L164.214688,-192.85716329302102L164.696256,91.07142473970146L171.197424,460.71431253637587L171.31781600000002,16.071432403155768L173.36448,101.78573216710777L173.72565600000001,342.8571703178542L174.08683200000002,-401.7857589891978L175.89271200000002,-257.1428482021604L176.25388800000002,198.21425953081678L176.37428,251.7857168401991L177.5782,-300.00007791178564L179.624864,-155.35716712474812L179.86564800000002,192.85710581711362L182.39388,-80.35717478820254L184.44054400000002,48.2143546853747L185.042504,32.14281371661599L188.293088,423.214316368103L189.49700800000002,96.42857845340461L190.21936000000002,-69.64286736079623L190.460144,37.50004725796839L191.06210400000003,203.57141324451993L191.18249600000001,246.42856312649593L192.98837600000002,-21.428563765117076L195.15543200000002,53.57142857142861L195.396216,-187.49992975166856L196.84092,-21.428563765117076L197.68366400000002,364.28570534501756L197.804056,150.0000357627869L198.04484000000002,53.57142857142861L198.40601600000002,187.50003193105974L198.6468,101.78573216710777L200.091504,262.5000242676054L201.295424,407.14285522699356L202.740128,225.00002809933255L203.34208800000002,32.14281371661599L206.47228000000004,610.7142972094672L206.95384800000002,-214.28577814783364L207.43541600000003,192.85710581711362L207.555808,-251.78577431610643L209.48208,417.8571626543999L209.963648,310.71424803563525L210.44521600000002,91.07142473970146L211.04717600000004,112.50003959451408L211.52874400000002,-149.99993358339577L212.61227200000002,85.7142710259983L213.09384,369.6428590587207L213.33462400000002,364.28570534501756L213.575408,192.85710581711362L214.41815200000002,294.6428667221751L215.020112,192.85710581711362L215.260896,171.42857078995024L215.862856,358.9285516313144L216.10364,257.14287055390224L216.58520800000002,262.5000242676054L217.066776,-369.64283670697887L217.78912800000003,32.14281371661599L217.90952000000001,96.42857845340461L220.678536,16.071432403155768L221.16010400000002,471.42854013613294L225.13304000000002,412.5000089406967L225.97578400000003,342.8571703178542L226.698136,-139.28578581128795L228.38362400000003,123.21426719427112L228.865192,-139.28578581128795L229.70793600000002,514.2856900181089L229.94872,208.9285669582231L230.671072,53.57142857142861L230.911856,-21.428563765117076L232.59734400000002,107.14288588081092L232.717736,546.4285324726786L234.282832,-133.92855226993555L235.36636000000001,310.71424803563525L235.847928,219.6428743856294L236.329496,21.42850628920968L237.413024,48.2143546853747L237.53341600000002,91.07142473970146L238.25576800000002,219.6428743856294L238.37616000000003,-251.78577431610643L238.97812000000002,123.21426719427112L241.14517600000002,192.85710581711362L241.50635200000002,123.21426719427112L242.58988000000002,150.0000357627869L246.20164,-251.78577431610643L249.09104800000003,433.9285439678601L249.57261600000004,294.6428667221751L250.294968,589.2856823546546L252.8232,450.00000510896956L253.42516,273.21425186736246L254.62908000000002,-128.57147838388158L255.23104,-294.6428443704332L259.685544,337.5000166041511L260.167112,160.71426336254393L260.287504,412.5000089406967L260.407896,300.00002043587824L262.574952,53.57142857142861L264.019656,-10.714256337710765L264.14004800000004,128.57142090797427L264.86240000000004,150.0000357627869L265.705144,144.64288204908374L268.83533600000004,251.7857168401991L270.28004000000004,198.21425953081678L271.604352,-69.64286736079623L271.965528,337.5000166041511L272.326704,-198.21423717907487L274.734544,16.071432403155768L275.45689600000003,0.00005108969554612486L276.29964,283.9285592947688L277.021992,21.42850628920968L278.948264,-123.21424484252924L279.30944000000005,101.78573216710777L280.633752,-171.4285484382084L280.994928,337.5000166041511L281.356104,85.7142710259983L281.47649600000005,-241.07146688870012L287.255312,358.9285516313144L287.616488,246.42856312649593L287.977664,-208.92854460648118L288.09805600000004,-482.14282521179734L290.74668,257.14287055390224L292.191384,262.5000242676054L292.43216800000005,-401.7857589891978L292.91373600000003,198.21425953081678L293.395304,487.5000012772424L293.87687200000005,64.28573599883492L296.88667200000003,503.57146241835187L297.007064,-155.35716712474812L298.33137600000003,139.28572833538058L299.294512,257.14287055390224L299.77608000000004,289.28571300847193L300.016864,262.5000242676054L302.063528,-80.35717478820254L303.869408,0.00005108969554612486L304.35097600000006,-187.49992975166856L307.36077600000004,128.57142090797427L309.287048,701.7857506871223L309.40744,26.78573983056208L311.21332,251.7857168401991L311.69488800000005,182.14287821735655L313.62116000000003,-112.49993741512293L313.741552,112.50003959451408L315.30664800000005,262.5000242676054L316.390176,460.71431253637587L316.992136,251.7857168401991L317.594096,128.57142090797427L317.95527200000004,380.357166486127L318.557232,42.8571211440223L318.91840800000006,-369.64283670697887L320.363112,466.071466250079L321.3262480000001,101.78573216710777L322.168992,669.6428284049034L323.011736,262.5000242676054L324.095264,241.07140941279278L324.576832,-155.35716712474812L324.817616,192.85710581711362L325.05840000000006,-123.21424484252924L325.419576,283.9285592947688L326.26232000000005,96.42857845340461L327.345848,476.7856938498361L328.549768,605.357143495764L329.031336,42.8571211440223L329.27212000000003,342.8571703178542L329.63329600000003,251.7857168401991L330.235256,364.28570534501756L330.59643200000005,385.7143201998302L333.124664,428.57139025415694L334.20819200000005,214.28572067192624L334.930544,605.357143495764L335.8936800000001,-69.64286736079623L336.977208,300.00002043587824L337.81995200000006,476.7856938498361L340.348184,267.85717798130855L340.82975200000004,64.28573599883492L342.033672,107.14288588081092L342.51524,589.2856823546546L343.598768,123.21426719427112L345.16386400000005,128.57142090797427L345.52504,219.6428743856294L346.24739200000005,48.2143546853747L346.488176,562.4999936137881L350.58150400000005,225.00002809933255L351.30385600000005,332.14286289044793L353.35052,117.85711348056799L353.59130400000004,332.14286289044793L354.55444,0.00005108969554612486L354.91561600000006,251.7857168401991L355.1564,283.9285592947688L357.323456,5.357124975749457L359.00894400000004,-26.785637651170987L359.249728,-133.92855226993555L361.41678400000006,69.64288971253808L361.898352,117.85711348056799L362.861488,508.9285363044057L364.908152,348.21432403155734L365.63050400000003,-74.99994124685003L370.085008,-391.0714515617915L370.446184,123.21426719427112L370.56657600000005,439.28569768156325L370.80736,133.92857462167743L371.048144,-235.71423334734777L372.01128,-32.14287119252339L372.854024,283.9285592947688L374.659904,401.7857015132904L378.753232,289.28571300847193L379.2348,417.8571626543999L379.475584,117.85711348056799L380.077544,251.7857168401991L381.161072,-10.714256337710765L383.809696,407.14285522699356L384.05048000000005,300.00002043587824L384.291264,391.0713940858841L384.411656,160.71426336254393L384.89322400000003,-101.78578964301516L385.25440000000003,69.64288971253808L386.217536,101.78573216710777L386.69910400000003,107.14288588081092L388.384592,214.28572067192624L389.106944,482.14284756353925L389.708904,353.57139791761125L389.829296,278.5714055810656L390.07008,632.1428322366305L391.033216,487.5000012772424L391.87596,171.42857078995024L392.237136,573.2143010411944L392.839096,498.2143087046487L395.126544,198.21425953081678L396.330464,433.9285439678601L397.052816,-42.8571786199297L397.77516800000006,10.714358517101857L398.256736,-48.21425250598361L399.70144000000005,91.07142473970146L399.82183200000003,530.3571511592183L403.91516000000007,626.7856785229274L405.96182400000004,251.7857168401991L408.12888000000004,0.00005108969554612486L408.249272,-364.2857628209249L408.49005600000004,337.5000166041511L409.693976,401.7857015132904L410.175544,64.28573599883492L412.46299200000004,-5.357182451656854L413.787304,-69.64286736079623L414.75043999999997,251.7857168401991L415.472792,723.2142857142857L415.593184,300.00002043587824L415.833968,562.4999936137881L416.07475200000005,337.5000166041511L416.67671200000007,476.7856938498361L419.68651200000005,-37.4999450785773L419.80690400000003,171.42857078995024L421.010824,342.8571703178542L421.25160800000003,214.28572067192624L421.853568,133.92857462167743L423.539056,101.78573216710777L424.261408,707.1428245731762L425.344936,-26.785637651170987L427.150816,64.28573599883492L427.63238400000006,273.21425186736246L427.873168,16.071432403155768L429.43826400000006,289.28571300847193L430.882968,58.92858228513177L432.327672,198.21425953081678L433.531592,64.28573599883492L434.25394400000005,198.21425953081678L436.300608,385.7143201998302L437.02296,214.28572067192624L437.143352,-123.21424484252924L438.106488,241.07140941279278L438.82884,-235.71423334734777L439.551192,-155.35716712474812L440.153152,203.57141324451993L442.92216800000006,171.42857078995024L443.764912,37.50004725796839L444.366872,283.9285592947688L445.93196800000004,348.21432403155734L446.774712,133.92857462167743L448.580592,53.57142857142861L450.025296,-64.28579347474232L452.192352,621.4286046368735L452.43313600000005,150.0000357627869L456.28568,551.7856861863818L456.406072,326.7857091767448L456.52646400000003,364.28570534501756L457.36920800000007,300.00002043587824L458.69352000000003,273.21425186736246L460.49940000000004,755.3571281688553L461.10136000000006,150.0000357627869L464.71312000000006,391.0713940858841L466.278216,58.92858228513177L467.361744,139.28572833538058L468.44527200000005,-139.28578581128795L469.167624,326.7857091767448L469.649192,117.85711348056799L471.695856,203.57141324451993L471.93664000000007,369.6428590587207L472.05703200000005,562.4999936137881L473.501736,428.57139025415694L475.66879200000005,321.4285554630416L477.715456,144.64288204908374L478.67859200000004,187.50003193105974L481.447608,-348.21422185216625L482.531136,444.6428513952664L482.7719200000001,150.0000357627869L483.01270400000004,-69.64286736079623L483.494272,144.64288204908374L483.614664,294.6428667221751L484.938976,176.7857245036534L485.300152,353.57139791761125L486.263288,-85.71424867425634L489.99544,567.8571473274912L490.23622400000005,112.50003959451408L492.04210400000005,466.071466250079L493.6072,139.28572833538058L496.37621600000006,450.00000510896956L498.18209600000006,166.0714170762471L498.30248800000004,530.3571511592183L499.74719200000004,-10.714256337710765L500.34915200000006,91.07142473970146L500.83072,369.6428590587207L501.07150400000006,412.5000089406967L502.99777600000004,160.71426336254393L505.164832,455.3571588226727L506.48914400000007,744.6428606552737L509.378552,321.4285554630416L509.739728,-74.99994124685003L510.94364800000005,450.00000510896956L511.06404000000003,332.14286289044793L511.30482400000005,74.99996359859199L511.42521600000003,112.50003959451408L514.435016,375.0000127724239L515.518544,-257.1428482021604L518.407952,262.5000242676054L519.371088,69.64288971253808L521.0565760000001,192.85710581711362L521.176968,423.214316368103L521.7789280000001,342.8571703178542L523.2236320000001,310.71424803563525L526.715,358.9285516313144L526.955784,-107.14286352906896L528.159704,396.42854779958725L530.206368,117.85711348056799L530.8083280000001,64.28573599883492L533.456952,182.14287821735655L533.818128,150.0000357627869L534.4200880000001,358.9285516313144L535.7444,578.5714547548976L535.985184,267.85717798130855L536.707536,621.4286046368735L538.393024,658.9286008051463L539.115376,246.42856312649593L539.4765520000001,-16.071489879063165L543.329096,-251.78577431610643L544.1718400000001,160.71426336254393L546.098112,423.214316368103L546.338896,155.35710964884083L547.0612480000001,16.071432403155768L547.542816,642.8571396640368L549.469088,225.00002809933255L551.515752,-85.71424867425634L553.9235920000001,139.28572833538058L556.090648,487.5000012772424L556.3314320000001,369.6428590587207L556.572216,-85.71424867425634L556.933392,187.50003193105974L557.294568,-224.99992591994146L559.3412320000001,187.50003193105974L560.6655440000001,471.42854013613294L562.351032,-273.21422951562056L565.962792,246.42856312649593L566.203576,278.5714055810656L569.092984,32.14281371661599L569.574552,348.21432403155734L569.815336,171.42857078995024L570.537688,208.9285669582231L570.898864,48.2143546853747L571.139648,358.9285516313144L572.2231760000001,171.42857078995024L573.06592,305.3571741495814L574.631016,144.64288204908374L575.594152,37.50004725796839L577.159248,42.8571211440223L577.400032,-224.99992591994146L577.761208,144.64288204908374L579.205912,503.57146241835187L579.68748,166.0714170762471L580.28944,48.2143546853747L580.5302240000001,508.9285363044057L581.734144,182.14287821735655L582.215712,492.85715499094556L585.70708,96.42857845340461L586.30904,503.57146241835187L587.151784,107.14288588081092L590.2819760000001,321.4285554630416L591.2451120000001,364.28570534501756L592.449032,5.357124975749457L593.4121680000001,80.35711731229514L594.254912,417.8571626543999L594.73648,107.14288588081092L596.060792,391.0713940858841L596.783144,96.42857845340461L597.5054960000001,123.21426719427112L600.15412,-428.5714477300643L601.478432,241.07140941279278L602.0803920000001,358.9285516313144L603.1639200000001,369.6428590587207L603.284312,-96.42855610166265L607.6184240000001,594.6428360683577L613.276848,342.8571703178542L613.878808,-300.00007791178564L613.9992000000001,310.71424803563525L615.20312,375.0000127724239L623.9917360000001,696.4285969734192L625.316048,353.57139791761125L625.43644,267.85717798130855L625.6772240000001,262.5000242676054L625.9180080000001,342.8571703178542L626.279184,-10.714256337710765L626.399576,74.99996359859199L629.4093760000001,524.9999974455152L631.335648,401.7857015132904L632.65996,369.6428590587207L633.743488,139.28572833538058L634.104664,-166.07147455215443L634.2250560000001,283.9285592947688L636.030936,514.2856900181089L637.957208,466.071466250079L638.67956,241.07140941279278L639.1611280000001,535.7143048729215L640.2446560000001,267.85717798130855L640.48544,380.357166486127L641.568968,305.3571741495814L642.0505360000001,64.28573599883492L642.7728880000001,-117.85717095647527L643.374848,417.8571626543999L646.5050400000001,16.071432403155768L647.5885680000001,10.714358517101857L649.394448,171.42857078995024L650.237192,444.6428513952664L650.9595439999999,133.92857462167743L651.4411120000001,-48.21425250598361L651.561504,235.71425569908962L653.848952,91.07142473970146L654.210128,364.28570534501756L654.93248,267.85717798130855L658.5442400000001,235.71425569908962L659.2665920000001,332.14286289044793L659.7481600000001,407.14285522699356L661.0724720000001,267.85717798130855L661.313256,262.5000242676054L663.3599200000001,-310.71422568389335L663.480312,648.21429337774L665.7677600000001,214.28572067192624L665.8881520000001,-53.57148604733601L666.249328,107.14288588081092L667.3328560000001,508.9285363044057L668.2959920000001,246.42856312649593L668.536776,455.3571588226727L671.666968,557.1428399000849L672.0281440000001,230.3571818130357L673.3524560000001,-112.49993741512293L674.1952000000001,541.0714585866247L675.6399040000001,16.071432403155768L677.686568,-42.8571786199297L683.344992,-192.85716329302102L683.465384,53.57142857142861L683.585776,342.8571703178542L684.789696,353.57139791761125L687.919888,123.21426719427112L688.521848,412.5000089406967L690.44812,348.21432403155734L691.7724320000001,-224.99992591994146L692.254,53.57142857142861L692.374392,69.64288971253808L693.337528,444.6428513952664L693.6987040000001,80.35711731229514L693.8190960000001,310.71424803563525L694.05988,273.21425186736246L694.421056,294.6428667221751L695.504584,-26.785637651170987L695.986152,332.14286289044793L696.828896,21.42850628920968L696.949288,32.14281371661599L697.67164,-53.57148604733601L698.6347760000001,433.9285439678601L698.9959520000001,64.28573599883492L703.209672,-101.78578964301516L704.6543760000001,139.28572833538058L706.9418240000001,117.85711348056799L707.1826080000001,669.6428284049034L709.4700560000001,450.00000510896956L709.7108400000001,246.42856312649593L709.8312320000001,492.85715499094556L712.11868,551.7856861863818L715.008088,283.9285592947688L715.3692639999999,278.5714055810656L716.9343600000001,358.9285516313144L717.8974960000002,557.1428399000849L718.9810239999999,358.9285516313144L719.3422,396.42854779958725L719.582984,37.50004725796839L719.703376,-37.4999450785773L725.000624,-37.4999450785773L725.722976,5.357124975749457L726.084152,567.8571473274912L726.926896,251.7857168401991L728.491992,578.5714547548976L728.8531680000001,-107.14286352906896L729.695912,348.21432403155734L731.862968,42.8571211440223L734.631984,305.3571741495814L735.2339440000001,321.4285554630416L737.641784,342.8571703178542L737.882568,262.5000242676054L738.6049200000001,471.42854013613294L744.383736,583.9286084686007L746.550792,208.9285669582231L747.5139280000001,508.9285363044057L750.282944,717.8571320005825L750.6441200000002,251.7857168401991L750.7645120000001,380.357166486127L751.24608,80.35711731229514L751.366472,332.14286289044793L751.8480400000001,166.0714170762471L754.4966640000001,123.21426719427112L757.2656800000001,155.35710964884083L758.830776,557.1428399000849L760.757048,300.00002043587824L762.08136,294.6428667221751L764.0076320000001,348.21432403155734L765.69312,198.21425953081678L765.8135120000001,273.21425186736246L766.1746880000001,257.14287055390224L768.221352,364.28570534501756L768.70292,546.4285324726786L771.11076,-58.92855993338992L771.3515440000001,332.14286289044793L773.0370320000001,230.3571818130357L775.3244800000001,246.42856312649593L775.444872,594.6428360683577L775.685656,219.6428743856294L776.2876160000001,358.9285516313144L779.658592,321.4285554630416L780.74212,337.5000166041511L781.584864,-53.57148604733601L782.066432,321.4285554630416L782.7887840000001,621.4286046368735L783.5111360000001,-192.85716329302102L784.113096,294.6428667221751L784.474272,-32.14287119252339L784.7150560000001,423.214316368103L786.520936,257.14287055390224L787.604464,246.42856312649593L788.5676000000001,-107.14286352906896L791.216224,589.2856823546546L791.457008,117.85711348056799L792.901712,53.57142857142861L793.1424960000002,535.7143048729215L793.864848,107.14288588081092L795.309552,589.2856823546546L802.41268,-128.57147838388158L804.2185600000001,139.28572833538058L809.1546320000001,423.214316368103L809.515808,482.14284756353925L809.997376,53.57142857142861L811.6828640000001,294.6428667221751L813.0071760000001,198.21425953081678L813.8499200000001,42.8571211440223L815.896584,48.2143546853747L816.2577600000001,653.5714470914431L816.85972,487.5000012772424L817.4616800000001,53.57142857142861L818.184032,567.8571473274912L819.628736,117.85711348056799L819.749128,364.28570534501756L821.795792,230.3571818130357L822.156968,262.5000242676054L822.999712,64.28573599883492L826.250296,128.57142090797427L826.49108,492.85715499094556L827.333824,450.00000510896956L829.5008799999999,10.714358517101857L829.7416640000001,-16.071489879063165L830.584408,401.7857015132904L831.667936,133.92857462167743L832.871856,530.3571511592183L832.992248,396.42854779958725L834.1961680000001,289.28571300847193L834.6777360000001,235.71425569908962L834.798128,58.92858228513177L837.0855760000001,273.21425186736246L837.687536,332.14286289044793L837.92832,573.2143010411944L838.409888,401.7857015132904L839.4934160000001,364.28570534501756L841.6604720000001,219.6428743856294L844.068312,385.7143201998302L844.6702720000001,321.4285554630416L845.7538000000001,294.6428667221751L846.476152,369.6428590587207L846.5965440000001,326.7857091767448L846.7169360000001,348.21432403155734L847.078112,476.7856938498361L847.439288,-166.07147455215443L850.087912,0.00005108969554612486L852.134576,358.9285516313144L852.2549680000001,-321.42853311129966L852.7365360000001,364.28570534501756L853.3384960000001,117.85711348056799L854.1812400000001,444.6428513952664L855.2647680000001,283.9285592947688L855.5055520000001,353.57139791761125L856.7094720000001,498.2143087046487L857.4318240000001,139.28572833538058L857.6726080000001,123.21426719427112L858.39496,-332.14284053870597L858.6357439999999,300.00002043587824L858.8765280000001,-42.8571786199297L860.3212320000001,-85.71424867425634L860.5620160000001,155.35710964884083L860.8028,246.42856312649593L863.5718160000001,241.07140941279278L864.655344,58.92858228513177L865.0165200000001,64.28573599883492L866.942792,80.35711731229514L868.146712,-230.3571594612938L868.5078880000001,-96.42855610166265L869.23024,326.7857091767448L869.9525920000001,-326.7857666526521L870.7953360000001,241.07140941279278L871.3972960000001,-241.07146688870012L872.2400400000001,64.28573599883492L872.962392,391.0713940858841L874.5274880000001,225.00002809933255L877.65768,-101.78578964301516L880.06552,53.57142857142861L880.426696,171.42857078995024L880.908264,471.42854013613294L881.0286560000001,321.4285554630416L881.8714000000001,150.0000357627869L883.918064,96.42857845340461L885.242376,599.9999897820609L886.5666880000001,91.07142473970146L887.409432,300.00002043587824L888.131784,187.50003193105974L891.021192,332.14286289044793L896.6796160000001,251.7857168401991L897.6427520000001,257.14287055390224L898.12432,-32.14287119252339L901.013728,-182.1428558656147L901.495296,267.85717798130855L902.4584320000001,337.5000166041511L902.578824,423.214316368103L903.0603920000001,326.7857091767448L904.1439200000001,444.6428513952664L904.264312,117.85711348056799L905.4682320000001,407.14285522699356L905.588624,32.14281371661599L905.709016,257.14287055390224L906.6721520000001,407.14285522699356L909.0799920000001,133.92857462167743L911.9694,401.7857015132904L912.4509680000001,278.5714055810656L912.6917520000001,176.7857245036534L912.812144,348.21432403155734L913.17332,160.71426336254393L914.37724,246.42856312649593L915.460768,96.42857845340461L915.8219440000001,573.2143010411944L917.0258640000001,439.28569768156325L917.627824,96.42857845340461L921.9619360000002,219.6428743856294L923.0454640000002,246.42856312649593L923.2862480000001,492.85715499094556L924.851344,-101.78578964301516L925.6940880000001,123.21426719427112L926.6572240000002,-64.28579347474232L927.0184,-80.35717478820254L927.9815360000001,150.0000357627869L928.463104,294.6428667221751L928.944672,-37.4999450785773L931.713688,391.0713940858841L932.1952560000001,187.50003193105974L933.0380000000001,-149.99993358339577L933.519568,-37.4999450785773L934.84388,203.57141324451993L936.288584,74.99996359859199L938.214856,74.99996359859199L941.2246560000001,166.0714170762471L943.0305360000001,192.85710581711362L944.716024,508.9285363044057L945.1975920000001,316.07140174933846L945.67916,-26.785637651170987L946.6422960000001,519.642843731812L947.3646480000001,251.7857168401991L947.4850400000001,144.64288204908374L949.531704,176.7857245036534L950.615232,460.71431253637587L951.3375840000001,96.42857845340461L952.3007200000001,123.21426719427112L952.6618960000001,423.214316368103L959.163064,412.5000089406967L959.8854160000001,348.21432403155734L962.0524720000001,16.071432403155768L962.293256,321.4285554630416L964.460312,58.92858228513177L964.9418800000001,150.0000357627869L965.303056,380.357166486127L967.9516800000001,-123.21424484252924L968.794424,364.28570534501756L970.3595200000001,498.2143087046487L971.0818720000001,310.71424803563525L972.7673600000002,348.21432403155734L974.212064,0.00005108969554612486L975.054808,-16.071489879063165L976.017944,326.7857091767448L976.98108,112.50003959451408L977.1014720000001,32.14281371661599L977.7034320000001,428.57139025415694L979.750096,514.2856900181089L980.2316640000001,144.64288204908374L981.9171520000001,439.28569768156325L983.361856,-133.92855226993555L983.482248,117.85711348056799L984.3249920000001,58.92858228513177L985.288128,241.07140941279278L986.01048,-380.3571441343852L986.732832,219.6428743856294L987.5755760000001,342.8571703178542L987.81636,375.0000127724239L988.899888,58.92858228513177L989.1406720000001,353.57139791761125L989.261064,289.28571300847193L991.5485120000001,380.357166486127L991.9096880000001,176.7857245036534L992.9932160000001,-128.57147838388158L994.558312,278.5714055810656L995.8826240000001,192.85710581711362L996.2438000000001,155.35710964884083L997.4477200000001,-96.42855610166265L999.373992,123.21426719427112L1000.6983040000001,514.2856900181089L1002.86536,498.2143087046487L1004.06928,10.714358517101857L1004.189672,321.4285554630416L1004.791632,160.71426336254393L1004.9120240000001,487.5000012772424L1005.7547680000001,632.1428322366305L1006.236336,348.21432403155734L1006.3567280000001,305.3571741495814L1006.47712,91.07142473970146L1009.1257439999999,123.21426719427112L1009.2461360000001,492.85715499094556L1009.727704,508.9285363044057L1009.968488,85.7142710259983L1011.0520160000001,-273.21422951562056L1011.533584,176.7857245036534L1011.8947600000001,283.9285592947688L1015.024952,353.57139791761125L1015.145344,208.9285669582231L1016.228872,557.1428399000849L1016.5900480000001,278.5714055810656L1017.0716160000001,219.6428743856294L1017.4327920000001,-273.21422951562056L1018.636712,155.35710964884083L1018.757104,337.5000166041511L1018.8774960000002,58.92858228513177L1018.9978880000001,358.9285516313144L1019.5998480000001,658.9286008051463L1020.3222000000001,562.4999936137881L1020.803768,150.0000357627869L1021.0445520000001,112.50003959451408L1022.9708240000001,337.5000166041511L1023.693176,-85.71424867425634L1023.8135680000001,396.42854779958725L1024.776704,80.35711731229514L1025.499056,-5.357182451656854L1027.064152,225.00002809933255L1027.906896,300.00002043587824L1029.110816,53.57142857142861L1032.2410080000002,203.57141324451993L1035.0100240000002,321.4285554630416L1035.8527680000002,273.21425186736246L1036.57512,37.50004725796839L1036.936296,133.92857462167743L1040.668448,316.07140174933846L1040.7888400000002,241.07140941279278L1042.715112,139.28572833538058L1042.8355040000001,-691.071420907974L1044.039424,423.214316368103L1044.4006000000002,128.57142090797427L1044.641384,208.9285669582231L1045.965696,-305.3571517978395L1046.688048,42.8571211440223L1047.049224,380.357166486127L1047.530792,117.85711348056799L1049.4570640000002,412.5000089406967L1049.697848,37.50004725796839L1049.81824,492.85715499094556L1050.660984,594.6428360683577L1050.9017680000002,85.7142710259983L1052.587256,503.57146241835187L1053.0688240000002,208.9285669582231L1054.3931360000001,85.7142710259983L1054.754312,203.57141324451993L1057.162152,519.642843731812L1058.1252880000002,358.9285516313144L1059.329208,375.0000127724239L1059.4496000000001,321.4285554630416L1060.773912,235.71425569908962L1063.542928,235.71425569908962L1064.144888,300.00002043587824L1066.1915520000002,-342.8571479661123L1069.201352,712.4999782868794L1071.4888,80.35711731229514L1071.6091920000001,-214.28577814783364L1072.09076,466.071466250079L1072.5723280000002,91.07142473970146L1074.7393840000002,241.07140941279278L1075.461736,391.0713940858841L1075.582128,69.64288971253808L1080.638592,326.7857091767448L1081.601728,-369.64283670697887L1082.5648640000002,321.4285554630416L1082.685256,219.6428743856294L1084.7319200000002,391.0713940858841L1085.695056,230.3571818130357L1086.297016,150.0000357627869L1086.778584,294.6428667221751L1088.102896,-26.785637651170987L1089.5476,26.78573983056208L1089.908776,557.1428399000849L1090.14956,166.0714170762471L1090.6311280000002,-187.49992975166856L1091.594264,214.28572067192624L1096.289552,278.5714055810656L1098.817784,460.71431253637587L1099.540136,267.85717798130855L1099.660528,535.7143048729215L1099.901312,-48.21425250598361L1101.707192,251.7857168401991L1102.5499360000001,514.2856900181089L1105.318952,80.35711731229514L1105.5597360000002,326.7857091767448L1105.80052,155.35710964884083L1107.124832,358.9285516313144L1107.486008,198.21425953081678L1109.532672,117.85711348056799L1110.255024,219.6428743856294L1111.82012,10.714358517101857L1114.2279600000002,53.57142857142861L1115.311488,273.21425186736246L1116.996976,267.85717798130855L1117.2377600000002,744.6428606552737L1118.5620720000002,535.7143048729215L1119.6456,316.07140174933846L1120.608736,653.5714470914431L1123.016576,16.071432403155768L1123.25736,348.21432403155734L1123.6185360000002,262.5000242676054L1123.85932,123.21426719427112L1124.581672,-182.1428558656147L1126.026376,326.7857091767448L1126.146768,396.42854779958725L1126.989512,310.71424803563525L1127.350688,-37.4999450785773L1127.952648,300.00002043587824L1128.795392,112.50003959451408L1129.036176,-80.35717478820254L1135.176168,648.21429337774L1136.50048,241.07140941279278L1136.861656,16.071432403155768L1137.463616,508.9285363044057L1138.426752,289.28571300847193L1139.3898880000002,439.28569768156325L1140.2326320000002,578.5714547548976L1140.593808,294.6428667221751L1141.4365520000001,85.7142710259983L1141.91812,321.4285554630416L1142.399688,562.4999936137881L1143.6036080000001,-112.49993741512293L1144.205568,273.21425186736246L1144.687136,369.6428590587207L1144.807528,251.7857168401991L1146.6134080000002,-48.21425250598361L1150.2251680000002,-305.3571517978395L1150.34556,305.3571741495814L1151.790264,717.8571320005825L1152.633008,626.7856785229274L1153.234968,192.85710581711362L1154.920456,626.7856785229274L1156.0039840000002,219.6428743856294L1156.6059440000001,316.07140174933846" style="fill: none;" fill="none"></path></g></g></g></g></g><g><g opacity="0.298898"><span fill="rgb(0, 0, 0)" stroke="none" stroke-width="1px">Alt + Scroll to Zoom</span></g></g></g><g transform="translate(60, 375)" clip-path="url(#clip_1)"><clipPath id="clip_1"><rect width="1203" height="25"></rect></clipPath><g><g><line x1="0" y1="0" x2="0" y2="5" style="visibility: inherit;" fill="rgb(0, 0, 0)" stroke="rgb(204, 204, 204)" stroke-width="1px"></line><line x1="120.39200000000001" y1="0" x2="120.39200000000001" y2="5" style="visibility: inherit;" fill="rgb(0, 0, 0)" stroke="rgb(204, 204, 204)" stroke-width="1px"></line><line x1="240.78400000000002" y1="0" x2="240.78400000000002" y2="5" style="visibility: inherit;" fill="rgb(0, 0, 0)" stroke="rgb(204, 204, 204)" stroke-width="1px"></line><line x1="361.176" y1="0" x2="361.176" y2="5" style="visibility: inherit;" fill="rgb(0, 0, 0)" stroke="rgb(204, 204, 204)" stroke-width="1px"></line><line x1="481.56800000000004" y1="0" x2="481.56800000000004" y2="5" style="visibility: inherit;" fill="rgb(0, 0, 0)" stroke="rgb(204, 204, 204)" stroke-width="1px"></line><line x1="601.96" y1="0" x2="601.96" y2="5" style="visibility: inherit;" fill="rgb(0, 0, 0)" stroke="rgb(204, 204, 204)" stroke-width="1px"></line><line x1="722.352" y1="0" x2="722.352" y2="5" style="visibility: inherit;" fill="rgb(0, 0, 0)" stroke="rgb(204, 204, 204)" stroke-width="1px"></line><line x1="842.744" y1="0" x2="842.744" y2="5" style="visibility: inherit;" fill="rgb(0, 0, 0)" stroke="rgb(204, 204, 204)" stroke-width="1px"></line><line x1="963.1360000000001" y1="0" x2="963.1360000000001" y2="5" style="visibility: inherit;" fill="rgb(0, 0, 0)" stroke="rgb(204, 204, 204)" stroke-width="1px"></line><line x1="1083.528" y1="0" x2="1083.528" y2="5" style="visibility: inherit;" fill="rgb(0, 0, 0)" stroke="rgb(204, 204, 204)" stroke-width="1px"></line><line x1="1203.92" y1="0" x2="1203.92" y2="5" style="visibility: inherit;" fill="rgb(0, 0, 0)" stroke="rgb(204, 204, 204)" stroke-width="1px"></line></g><g transform="translate(0, 8)"><text x="0" y="0" dx="0em" dy="0.95em" style="text-anchor: middle; visibility: hidden; font-family: &quot;Helvetica Neue&quot;, sans-serif; font-size: 12px; font-weight: 200;" fill="rgb(50, 49, 63)" stroke="none" stroke-width="1px">-1k</text><text x="120.39200000000001" y="0" dx="0em" dy="0.95em" style="text-anchor: middle; visibility: inherit; font-family: &quot;Helvetica Neue&quot;, sans-serif; font-size: 12px; font-weight: 200;" fill="rgb(50, 49, 63)" stroke="none" stroke-width="1px">0</text><text x="240.78400000000002" y="0" dx="0em" dy="0.95em" style="text-anchor: middle; visibility: inherit; font-family: &quot;Helvetica Neue&quot;, sans-serif; font-size: 12px; font-weight: 200;" fill="rgb(50, 49, 63)" stroke="none" stroke-width="1px">1k</text><text x="361.176" y="0" dx="0em" dy="0.95em" style="text-anchor: middle; visibility: inherit; font-family: &quot;Helvetica Neue&quot;, sans-serif; font-size: 12px; font-weight: 200;" fill="rgb(50, 49, 63)" stroke="none" stroke-width="1px">2k</text><text x="481.56800000000004" y="0" dx="0em" dy="0.95em" style="text-anchor: middle; visibility: inherit; font-family: &quot;Helvetica Neue&quot;, sans-serif; font-size: 12px; font-weight: 200;" fill="rgb(50, 49, 63)" stroke="none" stroke-width="1px">3k</text><text x="601.96" y="0" dx="0em" dy="0.95em" style="text-anchor: middle; visibility: inherit; font-family: &quot;Helvetica Neue&quot;, sans-serif; font-size: 12px; font-weight: 200;" fill="rgb(50, 49, 63)" stroke="none" stroke-width="1px">4k</text><text x="722.352" y="0" dx="0em" dy="0.95em" style="text-anchor: middle; visibility: inherit; font-family: &quot;Helvetica Neue&quot;, sans-serif; font-size: 12px; font-weight: 200;" fill="rgb(50, 49, 63)" stroke="none" stroke-width="1px">5k</text><text x="842.744" y="0" dx="0em" dy="0.95em" style="text-anchor: middle; visibility: inherit; font-family: &quot;Helvetica Neue&quot;, sans-serif; font-size: 12px; font-weight: 200;" fill="rgb(50, 49, 63)" stroke="none" stroke-width="1px">6k</text><text x="963.1360000000001" y="0" dx="0em" dy="0.95em" style="text-anchor: middle; visibility: inherit; font-family: &quot;Helvetica Neue&quot;, sans-serif; font-size: 12px; font-weight: 200;" fill="rgb(50, 49, 63)" stroke="none" stroke-width="1px">7k</text><text x="1083.528" y="0" dx="0em" dy="0.95em" style="text-anchor: middle; visibility: inherit; font-family: &quot;Helvetica Neue&quot;, sans-serif; font-size: 12px; font-weight: 200;" fill="rgb(50, 49, 63)" stroke="none" stroke-width="1px">8k</text><text x="1203.92" y="0" dx="0em" dy="0.95em" style="text-anchor: middle; visibility: hidden; font-family: &quot;Helvetica Neue&quot;, sans-serif; font-size: 12px; font-weight: 200;" fill="rgb(50, 49, 63)" stroke="none" stroke-width="1px">9k</text></g><line x1="0" y1="0" x2="1203.92" y2="0" fill="rgb(0, 0, 0)" stroke="rgb(204, 204, 204)" stroke-width="1px"></line></g></g></g></g></svg>