<svg viewBox="0 0 1263.92041015625 400" xmlns="http://www.w3.org/2000/svg"><g><g><g><g><g><line x1="50" y1="340.90909090909105" x2="45" y2="340.90909090909105" style="visibility: inherit;" fill="rgb(0, 0, 0)" stroke="rgb(204, 204, 204)" stroke-width="1px"></line><line x1="50" y1="306.8181818181819" x2="45" y2="306.8181818181819" style="visibility: inherit;" fill="rgb(0, 0, 0)" stroke="rgb(204, 204, 204)" stroke-width="1px"></line><line x1="50" y1="272.7272727272728" x2="45" y2="272.7272727272728" style="visibility: inherit;" fill="rgb(0, 0, 0)" stroke="rgb(204, 204, 204)" stroke-width="1px"></line><line x1="50" y1="238.63636363636368" x2="45" y2="238.63636363636368" style="visibility: inherit;" fill="rgb(0, 0, 0)" stroke="rgb(204, 204, 204)" stroke-width="1px"></line><line x1="50" y1="204.54545454545456" x2="45" y2="204.54545454545456" style="visibility: inherit;" fill="rgb(0, 0, 0)" stroke="rgb(204, 204, 204)" stroke-width="1px"></line><line x1="50" y1="170.45454545454544" x2="45" y2="170.45454545454544" style="visibility: inherit;" fill="rgb(0, 0, 0)" stroke="rgb(204, 204, 204)" stroke-width="1px"></line><line x1="50" y1="136.3636363636365" x2="45" y2="136.3636363636365" style="visibility: inherit;" fill="rgb(0, 0, 0)" stroke="rgb(204, 204, 204)" stroke-width="1px"></line><line x1="50" y1="102.27272727272737" x2="45" y2="102.27272727272737" style="visibility: inherit;" fill="rgb(0, 0, 0)" stroke="rgb(204, 204, 204)" stroke-width="1px"></line><line x1="50" y1="68.18181818181824" x2="45" y2="68.18181818181824" style="visibility: inherit;" fill="rgb(0, 0, 0)" stroke="rgb(204, 204, 204)" stroke-width="1px"></line><line x1="50" y1="34.09090909090912" x2="45" y2="34.09090909090912" style="visibility: inherit;" fill="rgb(0, 0, 0)" stroke="rgb(204, 204, 204)" stroke-width="1px"></line><line x1="50" y1="0" x2="45" y2="0" style="visibility: inherit;" fill="rgb(0, 0, 0)" stroke="rgb(204, 204, 204)" stroke-width="1px"></line></g><g transform="translate(40, 0)"><text x="0" y="340.90909090909105" dx="0em" dy="0.3em" style="text-anchor: end; visibility: inherit; font-family: &quot;Helvetica Neue&quot;, sans-serif; font-size: 12px; font-weight: 200;" fill="rgb(50, 49, 63)" stroke="none" stroke-width="1px">0.29</text><text x="0" y="306.8181818181819" dx="0em" dy="0.3em" style="text-anchor: end; visibility: inherit; font-family: &quot;Helvetica Neue&quot;, sans-serif; font-size: 12px; font-weight: 200;" fill="rgb(50, 49, 63)" stroke="none" stroke-width="1px">0.3</text><text x="0" y="272.7272727272728" dx="0em" dy="0.3em" style="text-anchor: end; visibility: inherit; font-family: &quot;Helvetica Neue&quot;, sans-serif; font-size: 12px; font-weight: 200;" fill="rgb(50, 49, 63)" stroke="none" stroke-width="1px">0.31</text><text x="0" y="238.63636363636368" dx="0em" dy="0.3em" style="text-anchor: end; visibility: inherit; font-family: &quot;Helvetica Neue&quot;, sans-serif; font-size: 12px; font-weight: 200;" fill="rgb(50, 49, 63)" stroke="none" stroke-width="1px">0.32</text><text x="0" y="204.54545454545456" dx="0em" dy="0.3em" style="text-anchor: end; visibility: inherit; font-family: &quot;Helvetica Neue&quot;, sans-serif; font-size: 12px; font-weight: 200;" fill="rgb(50, 49, 63)" stroke="none" stroke-width="1px">0.33</text><text x="0" y="170.45454545454544" dx="0em" dy="0.3em" style="text-anchor: end; visibility: inherit; font-family: &quot;Helvetica Neue&quot;, sans-serif; font-size: 12px; font-weight: 200;" fill="rgb(50, 49, 63)" stroke="none" stroke-width="1px">0.34</text><text x="0" y="136.3636363636365" dx="0em" dy="0.3em" style="text-anchor: end; visibility: inherit; font-family: &quot;Helvetica Neue&quot;, sans-serif; font-size: 12px; font-weight: 200;" fill="rgb(50, 49, 63)" stroke="none" stroke-width="1px">0.35</text><text x="0" y="102.27272727272737" dx="0em" dy="0.3em" style="text-anchor: end; visibility: inherit; font-family: &quot;Helvetica Neue&quot;, sans-serif; font-size: 12px; font-weight: 200;" fill="rgb(50, 49, 63)" stroke="none" stroke-width="1px">0.36</text><text x="0" y="68.18181818181824" dx="0em" dy="0.3em" style="text-anchor: end; visibility: inherit; font-family: &quot;Helvetica Neue&quot;, sans-serif; font-size: 12px; font-weight: 200;" fill="rgb(50, 49, 63)" stroke="none" stroke-width="1px">0.37</text><text x="0" y="34.09090909090912" dx="0em" dy="0.3em" style="text-anchor: end; visibility: inherit; font-family: &quot;Helvetica Neue&quot;, sans-serif; font-size: 12px; font-weight: 200;" fill="rgb(50, 49, 63)" stroke="none" stroke-width="1px">0.38</text><text x="0" y="0" dx="0em" dy="0.3em" style="text-anchor: end; visibility: hidden; font-family: &quot;Helvetica Neue&quot;, sans-serif; font-size: 12px; font-weight: 200;" fill="rgb(50, 49, 63)" stroke="none" stroke-width="1px">0.39</text></g><line x1="50" y1="0" x2="50" y2="375" fill="rgb(0, 0, 0)" stroke="rgb(204, 204, 204)" stroke-width="1px"></line></g></g><g transform="translate(50, 0)" clip-path="url(#clip_0)"><clipPath id="clip_0"><rect width="1213" height="375"></rect></clipPath><g><g><g><line x1="0" y1="0" x2="0" y2="375" fill="rgb(0, 0, 0)" stroke="rgb(60, 60, 60)" stroke-width="1px" opacity="0.25"></line><line x1="121.39200000000001" y1="0" x2="121.39200000000001" y2="375" fill="rgb(0, 0, 0)" stroke="rgb(60, 60, 60)" stroke-width="1px" opacity="0.25"></line><line x1="242.78400000000002" y1="0" x2="242.78400000000002" y2="375" fill="rgb(0, 0, 0)" stroke="rgb(60, 60, 60)" stroke-width="1px" opacity="0.25"></line><line x1="364.176" y1="0" x2="364.176" y2="375" fill="rgb(0, 0, 0)" stroke="rgb(60, 60, 60)" stroke-width="1px" opacity="0.25"></line><line x1="485.56800000000004" y1="0" x2="485.56800000000004" y2="375" fill="rgb(0, 0, 0)" stroke="rgb(60, 60, 60)" stroke-width="1px" opacity="0.25"></line><line x1="606.96" y1="0" x2="606.96" y2="375" fill="rgb(0, 0, 0)" stroke="rgb(60, 60, 60)" stroke-width="1px" opacity="0.25"></line><line x1="728.352" y1="0" x2="728.352" y2="375" fill="rgb(0, 0, 0)" stroke="rgb(60, 60, 60)" stroke-width="1px" opacity="0.25"></line><line x1="849.744" y1="0" x2="849.744" y2="375" fill="rgb(0, 0, 0)" stroke="rgb(60, 60, 60)" stroke-width="1px" opacity="0.25"></line><line x1="971.1360000000001" y1="0" x2="971.1360000000001" y2="375" fill="rgb(0, 0, 0)" stroke="rgb(60, 60, 60)" stroke-width="1px" opacity="0.25"></line><line x1="1092.528" y1="0" x2="1092.528" y2="375" fill="rgb(0, 0, 0)" stroke="rgb(60, 60, 60)" stroke-width="1px" opacity="0.25"></line><line x1="1213.92" y1="0" x2="1213.92" y2="375" fill="rgb(0, 0, 0)" stroke="rgb(60, 60, 60)" stroke-width="1px" opacity="0.25"></line></g><g><line x1="0" y1="340.90909090909105" x2="1213.92" y2="340.90909090909105" fill="rgb(0, 0, 0)" stroke="rgb(60, 60, 60)" stroke-width="1px" opacity="0.25"></line><line x1="0" y1="306.8181818181819" x2="1213.92" y2="306.8181818181819" fill="rgb(0, 0, 0)" stroke="rgb(60, 60, 60)" stroke-width="1px" opacity="0.25"></line><line x1="0" y1="272.7272727272728" x2="1213.92" y2="272.7272727272728" fill="rgb(0, 0, 0)" stroke="rgb(60, 60, 60)" stroke-width="1px" opacity="0.25"></line><line x1="0" y1="238.63636363636368" x2="1213.92" y2="238.63636363636368" fill="rgb(0, 0, 0)" stroke="rgb(60, 60, 60)" stroke-width="1px" opacity="0.25"></line><line x1="0" y1="204.54545454545456" x2="1213.92" y2="204.54545454545456" fill="rgb(0, 0, 0)" stroke="rgb(60, 60, 60)" stroke-width="1px" opacity="0.25"></line><line x1="0" y1="170.45454545454544" x2="1213.92" y2="170.45454545454544" fill="rgb(0, 0, 0)" stroke="rgb(60, 60, 60)" stroke-width="1px" opacity="0.25"></line><line x1="0" y1="136.3636363636365" x2="1213.92" y2="136.3636363636365" fill="rgb(0, 0, 0)" stroke="rgb(60, 60, 60)" stroke-width="1px" opacity="0.25"></line><line x1="0" y1="102.27272727272737" x2="1213.92" y2="102.27272727272737" fill="rgb(0, 0, 0)" stroke="rgb(60, 60, 60)" stroke-width="1px" opacity="0.25"></line><line x1="0" y1="68.18181818181824" x2="1213.92" y2="68.18181818181824" fill="rgb(0, 0, 0)" stroke="rgb(60, 60, 60)" stroke-width="1px" opacity="0.25"></line><line x1="0" y1="34.09090909090912" x2="1213.92" y2="34.09090909090912" fill="rgb(0, 0, 0)" stroke="rgb(60, 60, 60)" stroke-width="1px" opacity="0.25"></line><line x1="0" y1="0" x2="1213.92" y2="0" fill="rgb(0, 0, 0)" stroke="rgb(60, 60, 60)" stroke-width="1px" opacity="0.25"></line></g></g></g><g><g><line x1="0" y1="1329.5454545454547" x2="1213.92" y2="1329.5454545454547" fill="rgb(0, 0, 0)" stroke="rgb(153, 153, 153)" stroke-width="1.5px"></line></g></g><g><g><line x1="121.39200000000001" y1="0" x2="121.39200000000001" y2="375" fill="rgb(0, 0, 0)" stroke="rgb(153, 153, 153)" stroke-width="1.5px"></line></g></g><g><g><g><g><g><path stroke="rgb(255, 112, 67)" stroke-width="2px" d="M122.120352,279.5454602349889L123.69844800000001,180.63237017107116L124.4268,32.77376212244445L126.369072,2.3756565998363044L126.61185600000002,13.513690938016282L126.976032,31.191915525541162L127.947168,-6.005342355801815L128.31134400000002,24.682065324524956L130.132224,76.31232245961417L130.4964,93.30280220870185L132.92424,124.02345989976615L133.895376,164.19245732789778L134.38094400000003,186.0460562949159L136.808784,173.6508288612331L138.38688000000002,207.53756205742664L140.329152,199.40632913863223L140.693328,199.71105365322157L141.78585600000002,229.20628132303432L143.121168,209.97306496574794L143.72812800000003,220.8842694766439L143.970912,231.7400777864967L144.577872,225.47998782335966L149.31216,193.98864762604094L149.91912000000002,222.16495180898545L151.74,222.69374039365297L152.468352,202.20494301452018L153.075312,184.513032440354L153.925056,194.98716711493114L154.653408,210.81855208067697L156.959856,220.29097947307375L158.902128,226.69639937739137L159.144912,228.80645085427952L160.116048,212.41920008643848L161.572752,221.66340015447238L162.66528000000002,238.8991926069139L163.63641600000003,241.3972374372488L165.578688,225.93698912463464L166.06425600000003,217.32183155659752L172.619424,216.98796507345475L172.74081600000002,232.48669804725708L174.80447999999998,237.89874881548593L175.16865600000003,251.91743241984153L175.532832,263.8267405621412L177.35371200000003,263.7959347189442L177.71788800000002,266.3219195130001L177.83928,258.960991440765L179.0532,249.6126694193943L181.11686400000002,256.0674752763465L181.35964800000002,251.4277119524579L183.90888,254.6588870805959L185.97254400000003,261.6010340104242L186.57950400000001,266.863953054745L189.85708800000003,246.97648209441505L191.07100800000003,247.07718268509484L191.79936,243.29018947897507L192.042144,252.77747480729533L192.64910400000002,255.6588437279416L192.770496,260.98052915380924L194.591376,255.59493691063784L196.776432,235.6440510791561L197.019216,232.81555841237045L198.47592000000003,236.87993638115523L199.32566400000002,225.91452356228635L199.447056,228.04334189482938L199.68984000000003,231.40609974828232L200.05401600000002,235.46717600101366L200.29680000000002,232.83447146578777L201.753504,229.60540500571324L202.967424,229.68968337816906L204.424128,215.86077118248113L205.031088,221.9102653698828L208.18728000000002,209.29986716051397L208.67284800000002,217.7994859118032L209.15841600000002,223.53740364680866L209.279808,217.94587278712228L210.12955200000002,221.6739087261502L211.22208,227.78788937298066L211.707648,233.7450247659306L212.19321600000004,233.49537845306497L212.80017600000002,236.31002968808946L213.285744,237.0406197716778L214.378272,231.17461703462072L214.86384,230.92600692698866L215.106624,227.4690863518325L215.349408,232.45667261236605L216.19915200000003,235.26071118496645L216.806112,232.0705295421372L217.04889599999998,229.1146957998353L217.655856,231.70739404647526L217.89864,232.1045800593667L218.38420800000003,237.66402659054734L218.869776,236.55082614788537L219.59812800000003,233.8116928563156L219.71952000000002,235.72646602487174L222.511536,235.26977509000264L222.997104,236.27439767693718L227.00304000000003,236.9265522878555L227.852784,238.14941364473017L228.58113600000001,246.10773596072298L230.28062400000002,241.3385674024731L230.766192,242.69377286445865L231.615936,247.92284267916628L231.85872,247.02725459027516L232.587072,247.28731930245317L232.829856,242.3462022077065L234.52934400000004,244.71480083614154L234.65073600000002,247.27414324895753L235.86465600000002,246.49082019748744L236.228832,245.19394871621276L237.32136000000003,240.06065890268783L237.806928,242.18770344938522L238.29249600000003,239.9351991961986L239.385024,242.25105703840006L239.50641600000003,240.28831913059324L240.234768,237.1678194256711L240.35616000000002,234.35007205678446L240.96312000000003,227.13659693270577L243.14817600000003,230.85234581112474L243.51235200000002,230.496488488394L244.60488000000004,234.66659818069937L248.24664,239.54507591263413L249.82473600000003,241.94032499560856L250.553088,241.11686179022675L250.91726400000002,232.6221780915087L251.16004800000002,228.35246299143213L251.64561600000002,228.35294070527013L252.37396800000002,222.72503416295785L252.980928,223.50971072658632L254.194848,218.93274642252752L254.9232,220.04467486541066L255.53016,218.1423502939603L256.74408,220.73289441238168L257.35104,218.7423708413285L261.84254400000003,220.69420599051043L262.328112,218.54267915219665L262.44950400000005,217.86990480885987L262.570896,220.00153210224812L264.755952,213.37868207355265L266.21265600000004,212.47040328272539L266.33404800000005,210.9230505759712L267.0624,211.21141430787392L267.912144,213.76088000509188L271.068336,210.75085039886588L272.52504000000005,212.88967799875155L273.86035200000003,214.5192994286033L274.224528,212.18832556646456L274.588704,212.00781491633757L277.016544,210.69035199748907L277.74489600000004,214.8059591223106L278.59464,215.61300202510623L279.322992,214.99918643244803L281.265264,219.1297526898441L281.62944000000005,224.35910993433077L282.96475200000003,223.0743924401838L283.328928,222.04360148710325L283.693104,224.42316838295076L283.814496,225.59974924041936L289.641312,224.56977997715882L290.005488,222.23154306550597L290.369664,222.59595124249262L290.491056,225.70552388224314L293.16168,222.32880348944715L294.618384,221.14583640343182L294.861168,225.45160313145175L295.346736,225.38142893432885L295.832304,223.73035476659027L296.317872,221.32365668624445L299.35267200000004,222.60337565234184L299.474064,222.02708723891158L300.809376,222.6127981399002L301.780512,221.4789728548348L302.26608000000004,220.55243775337556L302.508864,214.1884508740821L304.57252800000003,210.05279592728226L306.393408,208.872355011169L306.878976,212.6462003145474L309.91377600000004,212.57528081809943L311.85604800000004,213.34106929062366L311.97744,208.8589292791518L313.79832000000005,209.74292230847723L314.28388800000005,211.44037339534034L316.22616000000005,211.23513096321318L316.347552,212.47884300328815L317.925648,211.7017522320724L319.018176,213.51553726495456L319.625136,209.44737917636985L320.232096,208.39972311615008L320.596272,208.87430288097573L321.203232,203.07145265730048L321.56740800000006,205.28548547887078L323.024112,206.79031722466985L323.99524800000006,205.7241547615621L324.84499200000005,202.66941016913316L325.694736,200.6510766929764L326.787264,199.86523232611256L327.27283200000005,201.7677102881849L327.515616,205.4421587971681L327.75840000000005,207.4669384090707L328.122576,205.09030379631926L328.97232,202.69991750666208L330.064848,202.2422033835984L331.278768,197.50409750746422L331.764336,194.85303958830565L332.00712000000004,197.3983625769637L332.37129600000003,197.3082152196399L332.978256,196.0108979081428L333.34243200000003,196.71259061608822L333.46382400000005,193.39740409321064L333.585216,193.78169481229693L335.89166400000005,194.19829210771684L336.98419200000006,195.64989309005392L337.71254400000004,194.19810109752453L338.562288,196.9340991507256L338.68368000000004,199.75055724033797L339.776208,199.4935088639642L340.62595200000004,200.30883999295966L343.175184,202.96827936601414L343.66075200000006,202.22827096421506L344.87467200000003,205.7224896461446L345.36024,204.18082418610527L346.452768,204.25140360001328L348.030864,205.82756835809536L348.39504,206.96334832583426L349.123392,207.93612815288785L349.366176,205.500836671393L353.49350400000003,205.10866589093962L354.221856,201.64931194642517L356.28552,204.52160005701774L356.52830400000005,205.15437836612753L357.49944,207.2576582703205L357.86361600000004,205.69156579543284L358.1064,204.84670342141698L360.29145600000004,206.9765638713214L361.99094400000007,208.53283434282116L362.23372800000004,209.8968209229641L364.4187840000001,195.05576690290476L364.904352,194.2609718410714L365.875488,193.79466458015284L367.939152,191.61714683540333L368.66750400000006,191.94920289431283L371.580912,190.87827718747667L373.03761600000007,190.40281948316928L373.15900800000003,190.27879943642697L373.523184,189.74659934686932L373.64457600000003,189.97149227462035L373.88736,190.36642896318477L374.130144,193.17146508540802L374.61571200000003,194.09203480426478L375.10128000000003,197.27772300441703L375.951024,197.5570456107916L377.771904,197.83413099404083L381.899232,196.8852084642114L382.38480000000004,197.16337129304185L382.627584,198.2748686249406L383.23454399999997,198.8628671893896L384.327072,199.08415143108783L385.78377600000005,198.1609815065303L386.99769599999996,196.2859854384936L387.24048000000005,196.8747254192535L387.483264,198.2179800130597L387.604656,199.75855640646708L388.090224,201.99694862562674L388.4544,200.81442447912357L389.42553599999997,203.7530636887579L389.911104,204.6640119992668L391.610592,205.23250608080295L392.338944,204.92419126431182L392.945904,203.96592709163141L393.067296,203.76611412176982L393.31008,204.17263853839447L393.674256,202.6525934980158L394.159824,203.37598416727639L394.281216,204.55046879945294L395.13096,205.91538010558904L395.495136,203.08923685783222L396.102096,203.10940049635L398.408544,201.59423875518536L399.62246400000004,203.8107118192565L400.350816,205.08741886092582L401.07916800000004,206.85726508196052L401.564736,206.33315308315528L403.02144000000004,206.86671432560658L403.14283200000006,207.50708102692965L406.177632,205.44144047128827L407.27016000000003,203.61025165384814L409.33382400000005,203.79210542265653L411.5188800000001,204.91511532516765L411.64027200000004,204.84555114868348L411.883056,204.31485949216548L413.09697600000004,202.71847208282435L413.58254400000004,203.62996170246637L415.88899200000003,204.10455495664823L417.224304,204.37463036855755L418.19544,203.85356907552062L418.92379200000005,203.7495663468744L419.045184,203.85907137349847L419.28796800000003,201.77968308799217L419.53075200000006,201.04990598643153L420.137712,199.6130378364083L423.17251200000004,199.50058393989084L423.29390400000005,199.11356886385863L424.507824,201.53982873182355L424.750608,203.3502947712052L425.357568,205.4217448956563L427.05705600000005,204.5239756622827L427.785408,205.18331524947877L428.87793600000003,206.59887436176314L430.698816,207.60666808848578L431.184384,207.01828505739758L431.427168,206.49764849636458L433.00526400000007,207.43377554116609L434.461968,208.91056399484717L435.918672,209.62974426690093L437.132592,210.16727379051494L437.8609440000001,209.50331469165044L439.92460800000003,210.40315070544642L440.65296,209.37813015716384L440.774352,209.5730636023481L441.745488,210.32820801981703L442.47384,206.84782822465263L443.202192,208.08050032621097L443.809152,209.08264930294325L446.60116800000003,208.38722313717358L447.450912,208.59498299052186L448.05787200000003,206.93473782379272L449.63596800000005,205.50525186461576L450.48571200000004,204.87872127941446L452.306592,203.50051448829552L453.763296,203.7716432097215L454.127472,203.5076762360468L455.82696000000004,204.90201475988147L455.948352,203.05527489321133L456.19113600000003,202.338649565163L460.07568000000003,202.52643409914867L460.197072,201.46811482865542L460.318464,202.50581094069534L461.16820800000005,205.09764360912644L462.50352000000004,205.34522988526504L464.3244,203.29205269886958L464.93136000000004,204.00576272320663L468.57312,202.1088576355975L470.151216,203.45843985579737L471.243744,203.53259743199325L472.336272,204.49607612058932L473.06462400000004,204.5429607954494L473.55019200000004,205.38181489913475L475.613856,205.41383120652029L475.85664,203.4629852693749L475.97803200000004,204.25320222843334L477.434736,203.7118483920638L479.619792,201.87278167816027L481.68345600000004,203.22546753383244L482.65459200000004,203.39030612874316L485.446608,204.37718831535756L486.53913600000004,205.41547042101664L486.78192000000007,206.44785846341043L487.02470400000004,205.49944976881366L487.51027200000004,204.9980281763492L487.63166400000006,205.55011541718096L488.96697600000005,205.45662079216947L489.33115200000003,206.64565644368227L490.30228800000003,208.27684714314145L490.666464,208.32056589100804L493.579872,207.2806750465967L494.06544,206.50284231369554L494.30822400000005,207.16354698584786L496.12910400000004,207.41016797489L497.7072,209.30458192700596L500.49921600000005,206.24121488629305L502.32009600000004,205.8060077734035L502.441488,203.6251140516182L503.29123200000004,203.84746900799982L503.89819200000005,205.5790835167682L504.50515200000007,205.75051224943223L504.99072,205.88832443786367L505.23350400000004,206.65605005575875L507.17577600000004,205.3799289391492L509.360832,204.74937204821364L509.48222400000003,205.1376150675107L510.331968,205.83638439897885L510.69614400000006,205.36981005626706L513.609552,203.55338530240294L513.973728,204.7774088543021L514.823472,204.9583578109944L515.1876480000001,204.46651962277625L515.30904,203.84956395646924L515.551824,203.88358830567287L515.673216,203.87504910672376L518.708016,204.07803809770573L519.8005440000001,204.27997304682611L522.7139520000001,203.75429608412492L523.6850880000001,204.17705446015702L525.384576,204.0838123736756L525.505968,203.8026898120798L526.112928,203.85717929483502L527.5696320000001,201.57701425055103L531.09,201.90846769311318L531.3327840000001,203.66010791750824L531.5755680000001,203.3313588769399L532.546704,202.30139980056666L534.610368,202.4319754027353L535.2173280000001,203.06632732171857L537.887952,203.92351323236406L538.2521280000001,204.09968804782835L538.859088,204.83777663018387L540.1944000000001,203.75440738439468L540.437184,202.7070101462754L541.165536,201.81739205985502L541.2869280000001,201.06415377218198L542.0152800000001,201.4189691970152L542.8650240000001,200.61932137350547L543.593376,201.60983600818872L543.9575520000001,203.34080926805805L546.021216,204.75168115112365L547.47792,201.48040293763955L547.842096,203.02143727033834L548.6918400000001,202.43626386338292L550.6341120000001,202.45240982895598L550.876896,202.62776528363213L551.6052480000001,203.15004742513756L552.090816,202.97559355317784L554.033088,201.83192430892524L556.096752,201.96822439358382L558.5245920000001,202.24192583046923L560.709648,201.20528616291764L560.952432,201.47033085792611L561.1952160000001,203.29316956934164L561.559392,202.9248583327861L561.923568,203.83799433132646L563.9872320000001,204.47380327819408L565.322544,204.66865661018767L565.443936,205.95060915964592L567.0220320000001,205.8302545560494L570.6637920000001,206.79447055166108L570.906576,207.61893193434733L573.8199840000001,208.6999181196768L574.305552,208.79406933659277L574.5483360000001,209.05112108989067L575.276688,209.13435183256547L575.6408640000001,210.24153751593926L575.883648,210.3306866826685L576.976176,211.56408045694562L577.82592,212.50616560375L579.4040160000001,212.34140159563395L580.3751520000001,212.27226672536653L581.953248,213.26417366686752L582.1960320000001,214.12866781989965L582.560208,214.9043035562557L584.016912,215.3372863868566L584.50248,216.10685613089115L585.1094400000001,217.05131805402033L585.3522240000001,216.37971015975987L586.566144,215.63628029400374L587.051712,215.73663707323564L590.57208,215.65010160743822L591.17904,215.42436136312233L592.0287840000001,215.65483516601853L595.184976,216.116134340164L596.156112,215.64958345681183L597.370032,215.66569076045175L598.341168,216.19840573428706L599.190912,214.49978700108502L599.6764800000001,214.21547677409907L601.011792,214.53825848710312L601.740144,214.2548061708422L602.4684960000001,215.15274980479464L605.13912,216.60389967564296L606.474432,216.35282086676406L607.081392,216.4123199971872L608.1739200000001,215.88088015720572L608.2953120000001,216.89402777269743L609.752016,218.24697877175223L611.087328,217.97553794584874L611.4515040000001,217.43444324370446L612.665424,217.7518563019968L618.370848,217.75299106696366L618.9778080000001,217.80801897255228L619.0992,216.69693118664537L620.31312,213.3073730493416L629.174736,211.14793461394527L630.510048,211.46086367114373L630.63144,211.3180449108419L630.8742240000001,211.45160286100526L631.117008,212.11749627268617L631.481184,212.42589425172383L631.602576,211.52896009881806L634.6373760000001,210.18498707687442L635.244336,207.93764999535944L635.608512,207.84077203996412L636.579648,209.49492305416044L637.91496,208.3315677794426L639.007488,207.28703826086036L639.371664,208.16431672031183L639.4930560000001,208.55716561291817L641.313936,210.03070161482162L643.2562080000001,210.1735438244767L643.98456,209.28906518430446L644.470128,207.46994516030145L645.5626560000001,207.93091197101128L645.8054400000001,206.90033134900432L646.8979680000001,207.12784105386288L647.383536,207.86384658083531L648.1118880000001,207.3381924921754L648.718848,207.75292721379503L651.8750400000001,208.79340329414373L652.9675680000001,208.55958510364582L654.788448,208.73800747578798L655.6381920000001,208.81304322609665L656.366544,208.3581196037326L656.852112,207.4102766793621L656.973504,205.6570859972471L659.2799520000001,203.16249672217626L659.644128,202.30826992636653L660.3724800000001,202.2544800904145L664.0142400000001,201.22724886241156L664.7425920000001,201.2016614823608L665.2281600000001,201.21838288826447L666.563472,201.9852272073167L666.8062560000001,201.05729489858126L668.8699200000001,202.61229453518447L668.9913120000001,203.27163343619287L671.2977600000002,202.9563320076935L671.419152,204.6839589275057L671.7833280000001,205.3938327521634L672.8758560000001,204.87446912386045L673.8469920000001,205.04862220656378L674.089776,204.9725209520146L674.211168,203.6256959666338L677.245968,203.5283892743266L677.6101440000001,203.2409373618412L678.945456,203.54188346821599L679.3096320000001,204.1059889036355L679.552416,203.5131836436364L679.7952000000001,203.21092771803978L681.2519040000001,203.48556704665066L683.315568,202.90498107874222L685.8648,202.14617195162128L686.714544,201.4803429081508L687.68568,201.87209488769335L688.171248,202.3113644471679L689.020992,202.71634750897547L689.142384,202.10987684135517L689.263776,202.84767939946758L690.477696,201.97454966279545L693.6338880000001,203.31083337487942L694.240848,202.81159131820468L696.18312,202.18480410174072L697.5184320000001,202.8204335924351L698.004,203.41335820971585L698.1253919999999,203.06159827436508L699.096528,202.0515085688064L699.4607040000001,202.32248946030077L699.5820960000001,201.67789256395085L699.82488,202.38165184164794L700.189056,201.0345738214634L701.2815840000001,201.58613362816848L701.767152,201.89627905734187L702.616896,202.35669060701926L702.738288,202.90295169741597L703.4666400000001,203.43926371614353L704.194992,203.48946075524825L704.4377760000001,203.23827088376402L704.801952,203.38379275663408L709.050672,203.02283491215636L710.5073760000001,203.21584261148658L712.8138240000001,203.68411421255573L713.0566080000001,202.9695381333055L715.3630560000001,203.48433658108374L715.6058400000001,204.45279650259627L715.7272320000001,203.98239636976814L718.0336800000001,203.96802352156922L720.947088,203.9771718605582L721.3112639999999,204.06441831208198L722.8893600000001,204.1981707067055L723.8604960000001,204.05089801941622L724.953024,204.098724878686L725.3172000000001,204.34847916084232L725.5599840000001,205.28825735271542L725.681376,204.52675898001752L727.380864,205.10754795771655L728.352,205.46201168671084L731.022624,206.20140622270026L731.750976,206.76848731225576L732.115152,207.34127598377856L732.9648960000001,207.2349375970572L734.542992,206.32975200590874L734.7857759999999,206.91672419238515L734.9071680000001,207.71627948825406L735.756912,207.6096301499775L737.9419680000001,208.42093356625867L740.733984,207.89293471236206L741.340944,207.7862868248313L743.7687840000001,207.89331664358906L744.011568,207.8097571928569L744.7399200000001,206.99694712729612L747.896112,207.17365018267265L748.5030720000001,206.52344251469077L750.081168,206.97333826745196L750.566736,206.46128185697737L752.751792,206.01896044085382L753.722928,205.94780497550423L756.514944,204.4980357398066L756.8791200000001,204.0315514105848L757.0005120000001,202.9653338012739L757.48608,204.03487980949527L757.607472,204.6283839583491L758.0930400000001,203.86427169156232L760.7636640000001,204.23979420426758L763.55568,202.2978397957038L765.133776,202.3848500747443L767.076048,202.44175120400985L768.4113600000001,202.35700486477828L770.3536320000001,202.05689276652382L772.05312,200.24258571974195L772.174512,199.50265868623583L772.538688,199.28390953605822L774.602352,199.6727998097601L775.0879199999999,199.69075892097493L777.51576,201.1854649320909L777.7585440000001,198.8620967712028L779.458032,198.95541365405745L781.76448,197.93731458022168L781.8858720000001,197.21658069428813L782.128656,197.54069861368185L782.735616,197.24778539258352L786.134592,196.91921612008437L787.22712,195.21631546912297L788.076864,194.67362379276332L788.562432,195.11082114928507L789.290784,194.14671562961257L790.0191360000001,194.7661109682313L790.6260960000001,194.48145238084834L790.990272,195.2585867432209L791.2330560000001,195.37997013880081L793.053936,195.58070628985206L794.146464,194.1296975374233L795.1176,194.8751482152604L797.1812639999999,194.36096446149773L797.788224,194.34643919177077L798.031008,194.69963331863426L799.487712,194.9868769415044L799.7304960000001,194.15105066426142L800.458848,193.54065575673536L801.915552,192.22884526007172L802.5225120000001,192.52001448254592L803.736432,192.70282905093836L804.9503520000001,192.24123392280924L808.3493280000001,190.35196031679055L808.592112,190.8170929133163L809.07768,190.98127862452193L810.8985600000001,191.70048680347918L815.8756320000001,189.72808640768935L816.239808,187.99646680351353L816.725376,188.70535207612423L818.4248640000001,188.4688247231696L819.7601760000001,189.01935291705337L820.6099200000001,188.95958935452938L822.673584,189.23930831726324L823.0377600000002,188.35307421050206L823.64472,188.4006835873522L824.2516800000001,188.31427045381898L824.980032,188.0662433379051L826.436736,188.6275531280408L826.558128,188.8008177920733L828.621792,188.4052407488994L828.985968,188.31927582419132L829.8357120000001,188.88469538951844L833.1132960000001,189.0636959201561L833.35608,189.3399532041815L834.2058240000001,188.7080563772684L836.39088,188.29424254357605L836.6336640000001,188.24386739399802L837.483408,188.07537206130388L838.5759360000001,188.8665162670497L839.789856,186.90582442132418L839.911248,186.42846642599284L841.125168,186.79093052785737L841.6107360000001,186.03101215037688L841.7321280000001,186.79456602203032L844.038576,186.367748126609L844.645536,186.4459412789363L844.88832,185.6967276718095L845.3738880000001,185.74168634189837L846.4664160000001,186.0960642363999L848.6514720000001,186.01642997325123L851.079312,184.62581233186248L851.686272,184.3366961995897L852.7788,184.93225377151208L853.507152,184.8005238506991L853.6285440000001,184.89482378201257L853.749936,183.54077464211946L854.1141120000001,182.64797766888034L854.478288,183.26437685846716L857.148912,182.93914723093238L859.212576,182.3087456180692L859.333968,183.34536062609087L859.8195360000001,183.53016788290492L860.426496,184.04679072762767L861.27624,183.80970861918266L862.368768,183.83734547902668L862.6115520000001,183.49970201072176L863.8254720000001,183.48736112950314L864.5538240000001,184.06227684161715L864.7966080000001,185.15470717724426L865.52496,186.11591874370674L865.767744,186.4484156187733L866.0105280000001,187.08248366233187L867.4672320000001,187.36541228300803L867.710016,187.35225651451617L867.9528,187.11791369152309L870.7448160000001,187.42674177021888L871.837344,188.12273732397307L872.2015200000001,188.56937424887994L874.143792,188.29348024013086L875.357712,188.4920763783576L875.479104,188.65676810829396L875.7218880000001,189.00743005486152L876.45024,189.69635399845745L877.1785920000001,189.91139777383188L878.0283360000001,189.0036712815865L878.635296,190.241235779851L879.4850400000001,189.8316371718879L880.213392,190.23761808398785L881.7914880000001,189.63696617836402L884.94768,189.85090986171036L887.37552,188.92201021228934L887.739696,188.8598919957029L888.225264,187.73694013809796L888.346656,188.19077797619593L889.1964000000002,187.2685438914558L891.260064,187.84073301648434L892.595376,187.26886385476544L893.9306880000001,185.2489539447487L894.780432,183.41173757063922L895.5087840000001,183.83862932058906L898.422192,183.26346362295664L904.1276160000001,182.79449609431398L905.0987520000001,182.90798029235657L905.58432,183.4451717569771L907.162416,183.2834673571142L908.497728,184.63291490691878L908.9832960000001,184.99619970152645L909.9544320000001,183.90900780264505L910.0758240000001,183.27295147492018L910.5613920000001,183.61188601352407L911.6539200000001,183.28868769689797L911.7753120000001,183.97670413723216L912.989232,183.5757485052869L913.110624,183.47328995560227L913.232016,183.76511179559674L914.203152,183.92060417202498L916.630992,184.89448325946051L919.5444,185.1441895224464L920.029968,185.32884299864725L920.2727520000001,185.04357826804517L920.394144,185.73563203345364L920.75832,186.7916456413103L921.9722399999999,186.53645063644467L923.064768,186.12177135638248L923.4289440000001,185.43295310513116L924.6428640000001,185.23854622005905L925.249824,185.5878832557715L929.619936,185.18281746235505L930.7124640000001,184.36419268451428L930.9552480000001,184.21070588819788L931.440816,184.2614296465944L932.1691680000001,184.17839327914194L932.533344,183.5361307969792L933.383088,183.94368760678879L934.3542240000002,184.21051244972713L934.7184000000001,184.54002106094953L935.6895360000001,184.4314824250007L936.175104,183.92444192315966L936.660672,184.47499807056872L937.874592,183.0334908597372L937.9959840000001,182.8839158927521L939.4526880000001,182.52025577911385L939.938256,182.46012837604658L940.7880000000001,183.351131519789L941.2735680000001,184.3215378234653L942.60888,184.67948024470542L944.065584,184.95479720426707L946.0078560000001,184.6582083175537L949.0426560000001,185.51633114131138L950.8635360000001,184.79938417143356L952.563024,184.4537401340285L953.0485920000001,183.71491977948386L953.53416,183.44684494640316L954.505296,182.01789147673512L955.2336480000001,181.95928664737053L955.3550400000001,181.73249915971564L957.418704,181.33188535079466L958.5112320000001,181.44273836042063L959.239584,181.4786660266438L960.2107200000002,182.40312691337084L960.5748960000001,181.39412167194965L963.24552,181.80228803455367L965.3091840000001,181.9862174786778L965.794752,182.36786489633633L966.765888,182.55046721437435L967.1300640000001,181.68753900410786L967.858416,181.63010798339417L970.0434720000001,182.12228561034337L970.2862560000001,181.86676311894274L972.4713120000001,181.87078444084224L972.9568800000001,180.92635253840638L973.321056,180.30438191410448L975.506112,180.84000867562085L975.9916800000001,181.54012440046077L976.8414240000001,181.28074316928675L978.4195200000001,179.96084903305348L979.147872,180.26860181654396L980.8473600000001,180.07336837076613L982.304064,180.45998100548135L983.153808,180.33808872815482L984.124944,180.49144624920118L985.09608,180.98627795222333L985.217472,181.24803325832661L985.8244320000001,180.33883746684953L986.3100000000001,180.86931431751694L987.888096,180.7594387796199L988.3736640000001,180.95388689229404L990.073152,180.7042831785816L991.529856,180.94102460124248L991.651248,180.94662994535386L992.500992,180.5218290466982L993.4721280000001,180.0133132144682L994.20048,181.37629958670567L994.928832,180.78843561085415L995.778576,180.48004968759219L996.0213600000001,180.5709832451981L997.1138880000001,180.468605537634L997.356672,180.92116625111112L997.478064,180.83037602080043L999.7845120000001,180.82409382981618L1000.148688,180.31254576848792L1001.241216,181.184743212023L1002.819312,181.23791184386192L1004.1546240000001,181.771067235388L1004.5188,181.03152634471266L1005.7327200000001,181.47434918570227L1007.674992,182.07174341140555L1009.0103040000001,181.50687031560395L1011.19536,180.96732944480775L1012.40928,180.91903455323174L1012.530672,180.77534330471568L1013.137632,180.9243132565414L1013.2590240000001,180.07744483238307L1014.108768,178.6489604584824L1014.594336,177.84304176659847L1014.715728,176.396796247986L1014.83712,175.53657247230754L1017.507744,175.96124423395054L1017.6291360000001,175.69648415693032L1018.1147040000001,175.69922593516281L1018.357488,174.21465625528904L1019.450016,174.61076328741947L1019.935584,174.60354977345676L1020.2997600000001,174.28299488410983L1023.455952,174.1050252270276L1023.577344,173.3607320231608L1024.669872,173.12562409504918L1025.0340480000002,173.10331973854903L1025.519616,171.49054033570133L1025.883792,171.76542000076734L1027.097712,172.23962371864712L1027.219104,172.47166686654936L1027.340496,172.42707498999957L1027.461888,171.81324769927144L1028.0688480000001,171.26543749387386L1028.7972000000002,169.85738575681455L1029.282768,169.6885627795542L1029.525552,170.1229745518021L1031.467824,170.2931489800329L1032.196176,170.88369849681004L1032.3175680000002,170.89464354415483L1033.288704,171.1156563939604L1034.0170560000001,171.27781582348385L1035.595152,171.94658926645053L1036.444896,172.7709813699527L1037.6588160000001,172.75538829867116L1040.815008,172.93173767762335L1043.6070240000001,173.07279484010678L1044.4567680000002,172.88250759899034L1045.18512,173.2961919862089L1045.549296,173.7030835211551L1049.312448,174.13797276112652L1049.4338400000001,174.24753260376917L1051.3761120000001,174.5593675681895L1051.497504,175.5239075518092L1052.711424,174.91432635072132L1053.0756000000001,175.71523234523616L1053.3183840000002,176.0467995226231L1054.653696,175.82973803024686L1055.382048,176.07421204063337L1055.7462240000002,175.90347388616547L1056.231792,175.8597470367796L1058.174064,173.81483363638247L1058.416848,174.29765439908653L1058.53824,173.61925543180436L1059.023808,173.45897421456286L1059.3879840000002,172.92629063948763L1059.630768,174.03398601114205L1061.330256,173.01424241155468L1061.815824,172.58069035927414L1063.1511360000002,172.84594033716442L1063.515312,171.75595954177064L1065.943152,171.55386694476894L1066.9142880000002,171.34083326525055L1068.128208,170.42099456840512L1068.2496,170.26714421407243L1069.584912,169.46996032372624L1072.376928,169.07312324488996L1072.983888,168.52361694582137L1075.0475520000002,169.36252844028087L1077.839568,169.733625162699L1078.0823520000001,169.7064387705023L1080.3888000000002,170.36582423339877L1080.510192,171.00099592420725L1080.99576,171.65168932052097L1081.481328,171.52512923685143L1083.666384,171.97604122612898L1084.394736,171.81518076428745L1084.516128,172.63234318483617L1089.614592,172.47060705794732L1090.585728,172.8397562421967L1091.5568640000001,172.4804875583207L1091.6782560000001,172.42077451661942L1093.7419200000002,172.20911691039464L1094.713056,172.79726490837356L1095.3200160000001,172.54025903952933L1095.805584,172.0870850592253L1097.140896,172.78664930076187L1098.5976,173.22073173789852L1098.961776,171.58344525322792L1099.2045600000001,170.8919092473963L1099.6901280000002,171.4683544674234L1100.661264,171.1138935257705L1105.395552,171.77317855822798L1107.944784,172.168100281827L1108.673136,172.22118251292326L1108.7945280000001,170.45882606965554L1109.037312,171.011440057689L1110.8581920000001,171.83614298238325L1111.707936,171.16489238034683L1114.4999520000001,170.99658983644125L1114.7427360000001,170.678336694194L1114.98552,170.8782874317788L1116.320832,170.60511623262624L1116.6850080000002,170.01023874311986L1118.748672,170.08871587221765L1119.477024,170.18921720763757L1121.05512,170.23402365361872L1123.48296,169.96830101409248L1124.5754880000002,170.27378510144482L1126.274976,171.0547151013366L1126.5177600000002,170.78815810999527L1126.7605440000002,171.31845196078305L1127.853072,171.36678642269644L1128.9456000000002,171.0670847672359L1129.9167360000001,170.53624585328268L1132.344576,170.90015839684355L1132.5873600000002,170.9214875631984L1132.951536,171.0804947154505L1133.19432,170.82622472586687L1133.9226720000001,171.26030236762688L1135.379376,170.8410884020745L1135.500768,171.36803353347605L1136.3505120000002,170.9271906359655L1136.714688,170.42146113299907L1137.321648,169.73034881934956L1138.171392,169.6876566242288L1138.414176,170.45591698761135L1144.605168,169.07610220117883L1145.94048,169.46683606785763L1146.304656,169.57232807029015L1146.911616,168.08165615750931L1147.882752,167.87789369272494L1148.853888,168.19317901873603L1149.339456,167.8258134372075L1149.460848,168.41342262630974L1149.7036320000002,167.51758108009923L1150.067808,168.06141260159953L1150.9175520000001,168.4190025465746L1151.4031200000002,167.40508983056495L1151.888688,166.32816408011342L1152.9812160000001,165.6501956233613L1153.102608,165.4895278121489L1153.709568,164.88424165048158L1154.195136,164.75752183775538L1154.316528,164.82077976273519L1156.137408,164.52097115496082L1159.779168,164.84438585670566L1159.90056,164.25272663718954L1161.357264,164.08412264756558L1162.207008,163.9537136384688L1162.813968,165.03340564467453L1164.5134560000001,164.50220726133182L1165.605984,164.94859496833968L1166.212944,165.21609632034495" style="fill: none;" fill="none"></path></g></g></g></g><g opacity="0.2"><g><g><g><path stroke="rgb(255, 112, 67)" stroke-width="2px" d="M122.120352,279.5454602349889L123.69844800000001,81.81819319725042L124.4268,-262.5000260092995L126.369072,-88.63639289682561L126.61185600000002,57.954559271985886L126.976032,119.31821839375937L127.947168,-228.40904783118856L128.31134400000002,238.63638802008202L130.132224,487.5000207261607L130.4964,245.45458365570423L132.92424,429.5454594221983L134.38094400000003,446.5908977118406L136.808784,13.63633843985474L138.38688000000002,678.4090921282769L140.329152,78.40904458002615L140.693328,204.54540984197104L141.78585600000002,726.136359978806L143.970912,446.5908977118406L144.577872,95.45458446849483L149.31216,-490.9090210090984L149.91912000000002,862.5000186941843L151.74,235.22723940285778L152.468352,-303.40909822420645L158.902128,415.9090681509539L159.144912,293.18185150623333L160.116048,-303.40909822420645L162.66528000000002,814.7727508436551L163.63641600000003,327.272728085518L165.578688,-320.4545365138488L166.06425600000003,-95.45458853244781L172.619424,204.54540984197104L172.74081600000002,824.9999934976752L175.532832,753.4090917218816L177.35371200000003,262.5000219453466L177.71788800000002,374.999995936047L177.83928,-64.77275897156102L181.11686400000002,552.272726866332L181.35964800000002,34.09092534672135L183.90888,409.09087251533174L189.85708800000003,-760.2271898226304L191.07100800000003,252.2726776925001L191.79936,44.31816800074148L192.042144,760.2272873575039L196.776432,-906.8182435902684L197.019216,68.18180192600602L198.47592000000003,477.27272727272737L199.32566400000002,-432.95461210337544L199.447056,357.9545576464047L199.68984000000003,439.7727020762185L200.05401600000002,490.9090677445586L200.29680000000002,64.77275490760809L201.753504,20.454534075476943L202.967424,235.22723940285778L204.424128,-705.6818279353056L211.707648,674.9999943104658L212.19321600000004,214.7727540948175L212.80017600000002,450.0000463290649L213.285744,293.18185150623333L214.378272,-225.00000081279063L214.86384,211.36360547759324L215.106624,-47.727320681918684L217.655856,450.0000463290649L217.89864,265.9090689637445L218.38420800000003,715.9090665253727L218.869776,139.77270370179963L219.59812800000003,-6.818146868185522L219.71952000000002,405.68182549693375L222.511536,194.3181671879509L222.997104,327.272728085518L227.00304000000003,296.59089852463126L227.852784,351.1363620107825L228.58113600000001,988.6363585564225L230.28062400000002,-207.9545625231483L230.766192,371.5909489176491L231.615936,749.9999939040706L231.85872,160.2272906086662L232.587072,272.7272645993667L232.829856,-245.45458771965718L234.65073600000002,504.545459015803L235.86465600000002,167.04548624428844L236.228832,112.50002275813716L237.32136000000003,-289.7727069529619L237.806928,463.63633600148296L238.29249600000003,3.4090957858346087L239.385024,487.5000207261607L239.50641600000003,30.681776729497074L240.234768,-98.86363555084569L243.14817600000003,640.909066931768L243.51235200000002,190.90912016955298L244.60488000000004,702.2727260535415L249.82473600000003,514.7727524692364L250.553088,146.5908993374218L250.91726400000002,-750.0000487674367L251.16004800000002,-269.3182216449218L251.64561600000002,228.40904376723557L252.37396800000002,-443.18175315856934L252.980928,317.0454854314978L254.194848,-330.68177916786885L254.9232,354.54540902918046L255.53016,-13.636342503807668L262.328112,-51.13636770031667L262.44950400000005,132.9545080661774L262.570896,490.9090677445586L264.755952,-634.0908245606856L266.21265600000004,95.45458446849483L266.33404800000005,10.227291421456812L267.0624,248.86363067410218L267.912144,548.863629048521L274.224528,-102.27268256924367L274.588704,187.4999715523287L277.016544,30.681776729497074L277.74489600000004,780.6818234649572L278.59464,327.272728085518L279.322992,129.54546104777947L281.265264,797.7272617545996L281.62944000000005,961.3636268133469L282.96475200000003,40.90912098234355L283.328928,74.99999756162822L283.693104,565.9090673381634L283.814496,395.4545828429136L289.641312,74.99999756162822L290.005488,-119.3182224577123L290.369664,276.136413216591L290.491056,685.2272877638992L293.16168,-279.54546429894185L294.618384,44.31816800074148L294.861168,872.7272613482044L295.346736,214.7727540948175L295.832304,-27.27273377505213L299.35267200000004,419.31821676817816L299.474064,132.9545080661774L300.809376,313.6363368142736L301.780512,44.31816800074148L302.26608000000004,74.99999756162822L302.508864,-790.9090193835173L304.57252800000003,-446.59100337461996L306.393408,20.454534075476943L306.878976,818.1817978620531L309.91377600000004,201.1363628235731L311.85604800000004,337.4999707395381L311.97744,-521.5908505699853L313.79832000000005,354.54540902918046L314.28388800000005,490.9090677445586L316.22616000000005,177.27272889830854L316.347552,419.31821676817816L317.925648,81.81819319725042L319.018176,518.1817994876342L319.625136,-477.272629737854L320.232096,30.681776729497074L320.596272,289.77270288900905L321.203232,-790.9090193835173L323.024112,467.04548461870723L323.99524800000006,20.454534075476943L324.84499200000005,-330.68177916786885L325.694736,-153.40909903699696L326.787264,61.363606290383814L327.27283200000005,538.6363863945008L328.97232,-228.40904783118856L330.064848,119.31821839375937L331.278768,-664.7726541215725L332.00712000000004,664.7727516564457L332.37129600000003,180.68177591670653L332.978256,-44.318172064694465L333.34243200000003,327.272728085518L333.46382400000005,-426.136314868927L333.585216,265.9090689637445L335.89166400000005,272.7272645993667L336.98419200000006,470.45453163710516L338.68368000000004,739.7727512500504L339.776208,150.0000479546461L340.62595200000004,357.9545576464047L343.175184,719.3181643431839L343.66075200000006,57.954559271985886L344.87467200000003,889.7727504372598L345.36024,-98.86363555084569L346.452768,218.18180111321544L348.030864,518.1817994876342L349.366176,-282.9545113173399L353.49350400000003,126.13641402938154L354.221856,-497.72731824354696L356.28552,787.5000191005795L356.52830400000005,334.09092372114014L357.49944,637.5000199133701L357.86361600000004,-115.90907384048802L358.1064,30.681776729497074L360.29145600000004,647.7272625673902L364.4187840000001,-2911.3634933124895L364.904352,27.272729711099146L365.875488,95.45458446849483L367.939152,-269.3182216449218L368.66750400000006,262.5000219453466L371.580912,-37.49997642907226L373.03761600000007,88.63638883287263L373.15900800000003,163.63633762706414L373.523184,74.99999756162822L373.64457600000003,238.63638802008202L373.88736,276.136413216591L374.130144,804.5454573902218L375.10128000000003,896.5908952734688L375.951024,259.0908733281223L377.771904,259.0908733281223L381.899232,-13.636342503807668L382.38480000000004,259.0908733281223L382.627584,446.5908977118406L383.23454399999997,330.6817751039159L384.327072,248.86363067410218L385.78377600000005,-10.227295485409797L386.99769599999996,-228.40904783118856L387.24048000000005,330.6817751039159L387.483264,504.545459015803L389.911104,415.9090681509539L391.610592,337.4999707395381L392.338944,132.9545080661774L392.945904,-20.45453813942993L393.067296,156.81814199144196L393.31008,300.0000471418555L393.674256,-156.8181460553949L394.159824,374.999995936047L394.281216,484.09092290834957L395.495136,-473.8635827194561L396.102096,207.9545584591953L398.408544,-163.63634169101715L401.07916800000004,637.5000199133701L401.564736,78.40904458002615L403.02144000000004,337.4999707395381L403.14283200000006,364.7727532820269L406.177632,-303.40909822420645L407.27016000000003,-248.8636347380551L409.33382400000005,248.86363067410218L411.5188800000001,484.09092290834957L411.64027200000004,187.4999715523287L411.883056,71.59095054323029L413.09697600000004,-197.7273198691281L413.58254400000004,432.9545064405962L415.88899200000003,323.86368106712L417.224304,272.7272645993667L418.19544,71.59095054323029L418.92379200000005,177.27272889830854L419.045184,231.81819238445982L419.28796800000003,-330.68177916786885L419.53075200000006,13.63633843985474L420.137712,-170.4545373266393L423.17251200000004,170.45453326268637L423.29390400000005,98.86363148689276L424.507824,831.8181891332974L430.698816,473.86368025432944L431.184384,51.13636363636368L431.427168,68.18180192600602L433.00526400000007,456.8181403658608L435.918672,402.27267687970954L437.132592,354.54540902918046L437.8609440000001,30.681776729497074L439.92460800000003,453.40909334746283L440.65296,-68.181805989959L440.774352,262.5000219453466L441.745488,415.9090681509539L443.809152,484.09092290834957L446.60116800000003,17.045487057079015L447.450912,265.9090689637445L448.05787200000003,-252.27268175645304L449.63596800000005,-190.90912423350596L450.48571200000004,30.681776729497074L452.306592,-180.68177998065948L453.763296,279.5454602349889L454.127472,129.54546104777947L455.82696000000004,596.59089689905L455.948352,-317.04548949545074L456.19113600000003,0.00004876743668091876L460.07568000000003,255.68182630972439L460.197072,-98.86363555084569L461.16820800000005,944.3181885237045L462.50352000000004,276.136413216591L464.3244,-385.22734425284636L470.151216,593.181799081239L471.243744,224.99999674883765L472.336272,484.09092290834957L473.06462400000004,218.18180111321544L473.55019200000004,450.0000463290649L475.613856,214.7727540948175L475.85664,-368.18180436437774L475.97803200000004,436.3636550578205L477.434736,44.31816800074148L479.619792,-340.90912342071533L481.68345600000004,603.4090925346723L482.65459200000004,252.2726776925001L485.446608,497.72726338018083L487.02470400000004,-78.40904864397913L487.51027200000004,54.54541065476161L487.63166400000006,371.5909489176491L488.96697600000005,177.27272889830854L489.33115200000003,565.9090673381634L490.30228800000003,702.2727260535415L490.666464,221.5909497304397L493.579872,-109.09087820486582L494.30822400000005,409.09087251533174L496.12910400000004,282.95450725338685L497.7072,790.9090661189775L500.49921600000005,-736.3636574961922L502.32009600000004,71.59095054323029L502.441488,-470.45453570105826L503.29123200000004,272.7272645993667L503.89819200000005,743.1817982684483L504.50515200000007,259.0908733281223L504.99072,248.86363067410218L505.23350400000004,446.5908977118406L507.17577600000004,-194.3181712519039L509.360832,6.8181428042325365L509.48222400000003,327.272728085518L510.331968,426.13641240380036L510.69614400000006,57.954559271985886L513.609552,-371.5909529816021L513.973728,593.181799081239L514.823472,262.5000219453466L515.1876480000001,47.727316617965755L515.30904,6.8181428042325365L515.551824,214.7727540948175L515.673216,201.1363628235731L518.708016,269.31821758096874L519.8005440000001,269.31821758096874L522.7139520000001,34.09092534672135L523.6850880000001,340.90911935676235L525.384576,173.86368187991062L525.505968,112.50002275813716L526.112928,221.5909497304397L527.5696320000001,-542.045539075678L531.09,310.22728979587566L531.3327840000001,777.2727256471462L531.5755680000001,95.45458446849483L532.546704,-136.36366074735463L534.610368,245.45458365570423L535.2173280000001,412.50002113255596L537.887952,487.5000207261607L538.2521280000001,262.5000219453466L538.859088,450.0000463290649L541.2869280000001,-51.13636770031667L542.0152800000001,320.45453244989574L542.8650240000001,-68.181805989959L547.842096,726.136359978806L548.6918400000001,3.4090957858346087L550.6341120000001,207.9545584591953L550.876896,262.5000219453466L551.6052480000001,381.8181915716692L552.090816,143.18185231902387L554.033088,-190.90912423350596L556.096752,248.86363067410218L558.5245920000001,296.59089852463126L560.709648,-156.8181460553949L560.952432,293.18185150623333L561.1952160000001,835.2272869511086L561.559392,74.99999756162822L561.923568,521.5908973054453L563.9872320000001,426.13641240380036L565.322544,272.7272645993667L565.443936,654.5454582030125L567.0220320000001,163.63633762706414L570.6637920000001,545.4545312307099L573.8199840000001,589.7727520628409L574.305552,242.04543503847998L574.5483360000001,300.0000471418555L575.276688,238.63638802008202L575.6408640000001,603.4090925346723L575.883648,242.04543503847998L576.976176,651.1363603852013L577.82592,548.863629048521L579.4040160000001,153.40909497304403L580.3751520000001,187.4999715523287L581.953248,569.3181651559744L582.560208,494.3181655623697L584.016912,371.5909489176491L584.50248,494.3181655623697L586.566144,-54.545414718714596L587.051712,252.2726776925001L590.57208,184.09092453393077L591.17904,132.9545080661774L592.0287840000001,300.0000471418555L595.184976,385.2272385900672L596.156112,44.31816800074148L597.370032,221.5909497304397L598.341168,412.50002113255596L599.190912,-412.4999235976826L599.6764800000001,109.09087414091289L601.011792,334.09092372114014L601.740144,109.09087414091289L602.4684960000001,548.863629048521L605.13912,756.8181895396929L606.474432,122.7272654121573L607.081392,238.63638802008202L608.1739200000001,17.045487057079015L608.2953120000001,596.59089689905L609.752016,726.136359978806L611.087328,115.90906977653509L611.4515040000001,13.63633843985474L612.665424,337.4999707395381L618.370848,218.18180111321544L618.9778080000001,238.63638802008202L619.0992,-204.54541390592397L629.174736,-610.2272922342474L630.510048,330.6817751039159L630.63144,156.81814199144196L630.8742240000001,262.5000219453466L631.117008,467.04548461870723L631.481184,330.6817751039159L631.602576,-132.95451213013035L635.244336,-657.9545600847764L635.608512,170.45453326268637L636.579648,848.8636274229398L639.371664,548.863629048521L639.4930560000001,361.36360466480266L641.313936,784.0909212827685L643.2562080000001,265.9090689637445L643.98456,-136.36366074735463L645.8054400000001,-197.7273198691281L646.8979680000001,296.59089852463126L647.383536,497.72726338018083L648.1118880000001,0.00004876743668091876L648.718848,371.5909489176491L651.8750400000001,620.4545308243146L652.9675680000001,115.90906977653509L654.788448,279.5454602349889L655.6381920000001,238.63638802008202L656.366544,27.272729711099146L656.852112,-170.4545373266393L659.644128,-139.77270776575256L660.3724800000001,180.68177591670653L664.0142400000001,-211.36360954154623L664.7425920000001,190.90912016955298L665.2281600000001,207.9545584591953L666.563472,511.36365465142524L668.9913120000001,470.45453163710516L671.2977600000002,74.99999756162822L671.419152,906.8181887269021L672.8758560000001,-6.818146868185522L673.8469920000001,276.136413216591L674.089776,173.86368187991062L674.211168,-347.7273190563376L677.245968,163.63633762706414L677.6101440000001,85.22724021564835L678.945456,327.272728085518L679.3096320000001,436.3636550578205L679.552416,-40.90912504629648L679.7952000000001,78.40904458002615L681.2519040000001,317.0454854314978L683.315568,-37.49997642907226L686.714544,-75.00000162558115L687.68568,364.7727532820269L688.171248,385.2272385900672L689.020992,371.5909489176491L689.142384,-51.13636770031667L698.004,453.40909334746283L698.1253919999999,54.54541065476161L699.096528,-225.00000081279063L699.4607040000001,317.0454854314978L699.5820960000001,-71.59095460718328L701.2815840000001,436.3636550578205L701.767152,334.09092372114014L702.616896,398.86362986131155L703.4666400000001,432.9545064405962L704.194992,224.99999674883765L704.4377760000001,95.45458446849483L704.801952,265.9090689637445L709.050672,47.727316617965755L710.5073760000001,286.36365587061107L712.8138240000001,405.68182549693375L715.6058400000001,623.8636286421257L715.7272320000001,0.00004876743668091876L718.0336800000001,197.72731580517515L720.947088,207.9545584591953L721.3112639999999,242.04543503847998L722.8893600000001,262.5000219453466L723.8604960000001,139.77270370179963L724.953024,224.99999674883765L725.3172000000001,313.6363368142736L725.5599840000001,617.0454330065035L727.380864,460.22728898308503L728.352,361.36360466480266L731.022624,531.8181907588787L732.115152,460.22728898308503L732.9648960000001,160.2272906086662L734.542992,-194.3181712519039L734.9071680000001,562.5000203197653L735.756912,160.2272906086662L737.9419680000001,569.3181651559744L740.733984,-27.27273377505213L741.340944,160.2272906086662L743.7687840000001,255.68182630972439L744.011568,170.45453326268637L744.7399200000001,-156.8181460553949L747.896112,286.36365587061107L748.5030720000001,-85.22724427960134L750.566736,-23.863686756654147L752.751792,6.8181428042325365L753.722928,173.86368187991062L756.514944,-450.0000503930178L758.0930400000001,-143.1818563829769L760.7636640000001,374.999995936047L763.55568,-681.8180924112148L765.133776,242.04543503847998L767.076048,228.40904376723557L768.4113600000001,163.63633762706414L770.3536320000001,64.77275490760809L772.05312,-630.6817775422877L772.174512,-139.77270776575256L772.538688,98.86363148689276L774.602352,378.409042954445L775.0879199999999,207.9545584591953L777.51576,889.7727504372598L777.7585440000001,-872.7273670109837L779.458032,242.04543503847998L781.76448,-272.7272686633196L781.8858720000001,-136.36366074735463L782.128656,347.72731499238455L782.735616,61.363606290383814L786.134592,44.31816800074148L787.22712,-596.590900963003L790.0191360000001,484.09092290834957L790.6260960000001,61.363606290383814L790.990272,559.0909225019543L791.2330560000001,252.2726776925001L793.053936,289.77270288900905L794.146464,-487.4999739907006L797.1812639999999,-47.727320681918684L797.788224,187.4999715523287L798.031008,361.36360466480266L799.487712,330.6817751039159L799.7304960000001,-201.13636688752604L801.915552,-429.54536188732493L802.5225120000001,330.6817751039159L803.736432,279.5454602349889L804.9503520000001,-27.27273377505213L808.592112,412.50002113255596L809.07768,269.31821758096874L810.8985600000001,535.2272885766897L816.725376,528.4090929410676L818.4248640000001,74.99999756162822L819.7601760000001,453.40909334746283L820.6099200000001,160.2272906086662L822.673584,323.86368106712L823.0377600000002,-238.63639208403492L823.64472,211.36360547759324L824.2516800000001,146.5908993374218L824.980032,68.18180192600602L826.436736,460.22728898308503L826.558128,272.7272645993667L828.621792,-3.4090998497875944L828.985968,146.5908993374218L829.8357120000001,463.63633600148296L833.1132960000001,276.136413216591L833.35608,323.86368106712L834.2058240000001,-119.3182224577123L836.39088,-13.636342503807668L836.6336640000001,163.63633762706414L837.483408,105.68182712251496L838.5759360000001,576.1363607915966L839.911248,-47.727320681918684L841.125168,364.7727532820269L841.6107360000001,-187.49997561628163L844.038576,-23.863686756654147L844.645536,224.99999674883765L844.88832,-184.0909285978837L845.3738880000001,207.9545584591953L846.4664160000001,361.36360466480266L848.6514720000001,146.5908993374218L851.079312,-504.54541228034293L851.686272,40.90912098234355L852.7788,480.6818250905385L853.507152,119.31821839375937L853.6285440000001,231.81819238445982L853.749936,-490.9090210090984L854.478288,490.9090677445586L857.148912,20.454534075476943L859.212576,-132.95451213013035L859.333968,702.2727260535415L859.8195360000001,276.136413216591L860.426496,443.1818506934427L861.27624,64.77275490760809L862.368768,197.72731580517515L862.6115520000001,13.63633843985474L863.8254720000001,177.27272889830854L864.5538240000001,473.86368025432944L865.52496,671.5908964926548L865.767744,354.54540902918046L866.0105280000001,507.9545568336141L867.4672320000001,330.6817751039159L867.710016,180.68177591670653L867.9528,68.18180192600602L870.7448160000001,344.31816637516033L871.837344,542.0454334128988L872.2015200000001,415.9090681509539L874.143792,47.727316617965755L875.357712,289.77270288900905L875.479104,272.7272645993667L875.7218880000001,368.1818003004248L876.45024,542.0454334128988L877.1785920000001,300.0000471418555L878.0283360000001,-276.13631568171763L881.7914880000001,-119.3182224577123L884.94768,300.0000471418555L887.37552,-289.7727069529619L887.739696,156.81814199144196L888.225264,-392.04543828964233L904.1276160000001,-61.3636103543368L905.0987520000001,242.04543503847998L905.58432,463.63633600148296L907.162416,98.86363148689276L908.497728,889.7727504372598L908.9832960000001,374.999995936047L909.9544320000001,-385.22734425284636L910.0758240000001,-149.99995041977274L910.5613920000001,361.36360466480266L911.6539200000001,13.63633843985474L911.7753120000001,545.4545312307099L912.989232,-27.27273377505213L913.110624,129.54546104777947L913.232016,337.4999707395381L914.203152,265.9090689637445L916.630992,698.8636282357304L919.5444,317.0454854314978L920.029968,282.95450725338685L920.2727520000001,34.09092534672135L920.394144,552.272726866332L920.75832,746.5908960862595L921.9722399999999,51.13636363636368L923.064768,-34.090929410674335L923.4289440000001,-180.68177998065948L924.6428640000001,81.81819319725042L925.249824,371.5909489176491L929.619936,-30.681780793450002L930.7124640000001,-252.27268175645304L930.9552480000001,102.27267850529068L931.440816,211.36360547759324L932.1691680000001,139.77270370179963L932.533344,-160.22729467261922L933.383088,402.27267687970954L934.3542240000002,327.272728085518L934.7184000000001,361.36360466480266L935.6895360000001,126.13641402938154L936.175104,-88.63639289682561L937.874592,-593.1818539446051L937.9959840000001,102.27267850529068L939.4526880000001,-13.636342503807668L939.938256,150.0000479546461L940.7880000000001,664.7727516564457L942.60888,378.409042954445L944.065584,334.09092372114014L946.0078560000001,23.863682692701218L949.0426560000001,651.1363603852013L953.0485920000001,-218.18180517716837L953.53416,37.49997236511928L954.505296,-596.590900963003L955.2336480000001,150.0000479546461L955.3550400000001,57.954559271985886L957.418704,-37.49997642907226L958.5112320000001,242.04543503847998L959.239584,201.1363628235731L960.2107200000002,688.6363855817102L963.24552,405.68182549693375L965.3091840000001,282.95450725338685L965.794752,392.04543422568935L966.765888,282.95450725338685L967.1300640000001,-293.18185557018626L967.858416,150.0000479546461L970.0434720000001,453.40909334746283L970.2862560000001,40.90912098234355L972.4713120000001,184.09092453393077L972.9568800000001,-340.90912342071533L975.9916800000001,569.3181651559744L976.8414240000001,37.49997236511928L978.4195200000001,-552.2726801308718L979.147872,351.1363620107825L980.8473600000001,71.59095054323029L982.304064,395.4545828429136L983.153808,112.50002275813716L984.124944,265.9090689637445L985.09608,456.8181403658608L985.217472,327.272728085518L985.8244320000001,-327.2727321494709L986.3100000000001,477.27272727272737L987.888096,119.31821839375937L988.3736640000001,289.77270288900905L990.073152,40.90912098234355L991.529856,313.6363368142736L991.651248,184.09092453393077L992.500992,-57.954563335938815L994.928832,-149.99995041977274L995.778576,6.8181428042325365L996.0213600000001,231.81819238445982L997.1138880000001,122.7272654121573L997.356672,436.3636550578205L997.478064,129.54546104777947L999.7845120000001,177.27272889830854L1000.148688,-109.09087820486582L1001.241216,674.9999943104658L1002.819312,211.36360547759324L1004.1546240000001,484.09092290834957L1011.19536,-126.13631649450815L1012.40928,153.40909497304403L1012.530672,98.86363148689276L1013.137632,265.9090689637445L1013.2590240000001,-303.40909822420645L1017.507744,419.31821676817816L1017.6291360000001,23.863682692701218L1018.1147040000001,177.27272889830854L1018.357488,-678.4090453928168L1019.450016,402.27267687970954L1019.935584,170.45453326268637L1020.2997600000001,-10.227295485409797L1023.455952,71.59095054323029L1023.577344,-255.68183037367726L1024.669872,37.49997236511928L1025.0340480000002,160.2272906086662L1025.519616,-760.2271898226304L1025.883792,330.6817751039159L1027.097712,446.5908977118406L1027.219104,306.8181411786514L1027.340496,146.5908993374218L1027.461888,-184.0909285978837L1028.7972000000002,-647.72721583193L1029.282768,71.59095054323029L1029.525552,422.7272637865761L1031.467824,269.31821758096874L1032.196176,514.7727524692364L1032.3175680000002,177.27272889830854L1033.288704,300.0000471418555L1034.0170560000001,265.9090689637445L1035.595152,562.5000203197653L1036.444896,654.5454582030125L1037.6588160000001,163.63633762706414L1040.815008,276.136413216591L1043.6070240000001,255.68182630972439L1044.4567680000002,61.363606290383814L1045.18512,415.9090681509539L1049.312448,429.5454594221983L1049.4338400000001,238.63638802008202L1051.3761120000001,357.9545576464047L1051.497504,743.1817982684483L1053.0756000000001,647.7272625673902L1053.3183840000002,371.5909489176491L1054.653696,47.727316617965755L1055.382048,320.45453244989574L1055.7462240000002,74.99999756162822L1056.231792,150.0000479546461L1058.174064,-1036.3636558706112L1058.53824,-228.40904783118856L1059.023808,78.40904458002615L1059.3879840000002,-143.1818563829769L1061.815824,-85.22724427960134L1063.1511360000002,330.6817751039159L1063.515312,-477.272629737854L1065.943152,51.13636363636368L1066.9142880000002,44.31816800074148L1068.128208,-378.4090470183979L1068.2496,78.40904458002615L1069.584912,-306.81814524260426L1077.839568,392.04543422568935L1078.0823520000001,153.40909497304403L1080.3888000000002,565.9090673381634L1080.99576,562.5000203197653L1081.481328,95.45458446849483L1083.666384,443.1818506934427L1084.394736,74.99999756162822L1084.516128,664.7727516564457L1089.614592,74.99999756162822L1090.585728,395.4545828429136L1091.5568640000001,-44.318172064694465L1091.6782560000001,136.3636566834017L1093.7419200000002,44.31816800074148L1094.713056,528.4090929410676L1095.3200160000001,17.045487057079015L1095.805584,-102.27268256924367L1107.944784,412.50002113255596L1108.673136,204.54540984197104L1108.7945280000001,-903.4089933742177L1111.707936,-238.63639208403492L1114.4999520000001,68.18180192600602L1114.7427360000001,-23.863686756654147L1114.98552,293.18185150623333L1116.320832,3.4090957858346087L1116.6850080000002,-194.3181712519039L1118.748672,218.18180111321544L1119.477024,231.81819238445982L1121.05512,197.72731580517515L1123.48296,6.8181428042325365L1124.5754880000002,357.9545576464047L1126.274976,651.1363603852013L1126.5177600000002,6.8181428042325365L1126.7605440000002,497.72726338018083L1127.853072,201.1363628235731L1128.9456000000002,-13.636342503807668L1132.344576,395.4545828429136L1132.5873600000002,184.09092453393077L1132.951536,269.31821758096874L1133.19432,13.63633843985474L1133.9226720000001,439.7727020762185L1137.321648,-259.0908773920753L1138.171392,143.18185231902387L1138.414176,647.7272625673902L1145.94048,412.50002113255596L1146.304656,235.22723940285778L1146.911616,-760.2271898226304L1147.882752,40.90912098234355L1148.853888,364.7727532820269L1149.339456,-61.3636103543368L1152.9812160000001,-259.0908773920753L1153.102608,64.77275490760809L1153.709568,-214.77275815877044L1154.195136,85.22724021564835L1154.316528,204.54540984197104L1156.137408,-23.863686756654147L1159.779168,368.1818003004248L1159.90056,-207.9545625231483L1161.357264,57.954559271985886L1162.207008,81.81819319725042L1162.813968,845.4545296051288L1165.605984,446.5908977118406L1166.212944,334.09092372114014" style="fill: none;" fill="none"></path></g></g></g></g></g><g><g opacity="0.967294"><span fill="rgb(0, 0, 0)" stroke="none" stroke-width="1px">Alt + Scroll to Zoom</span></g></g></g><g transform="translate(50, 375)" clip-path="url(#clip_1)"><clipPath id="clip_1"><rect width="1213" height="25"></rect></clipPath><g><g><line x1="0" y1="0" x2="0" y2="5" style="visibility: inherit;" fill="rgb(0, 0, 0)" stroke="rgb(204, 204, 204)" stroke-width="1px"></line><line x1="121.39200000000001" y1="0" x2="121.39200000000001" y2="5" style="visibility: inherit;" fill="rgb(0, 0, 0)" stroke="rgb(204, 204, 204)" stroke-width="1px"></line><line x1="242.78400000000002" y1="0" x2="242.78400000000002" y2="5" style="visibility: inherit;" fill="rgb(0, 0, 0)" stroke="rgb(204, 204, 204)" stroke-width="1px"></line><line x1="364.176" y1="0" x2="364.176" y2="5" style="visibility: inherit;" fill="rgb(0, 0, 0)" stroke="rgb(204, 204, 204)" stroke-width="1px"></line><line x1="485.56800000000004" y1="0" x2="485.56800000000004" y2="5" style="visibility: inherit;" fill="rgb(0, 0, 0)" stroke="rgb(204, 204, 204)" stroke-width="1px"></line><line x1="606.96" y1="0" x2="606.96" y2="5" style="visibility: inherit;" fill="rgb(0, 0, 0)" stroke="rgb(204, 204, 204)" stroke-width="1px"></line><line x1="728.352" y1="0" x2="728.352" y2="5" style="visibility: inherit;" fill="rgb(0, 0, 0)" stroke="rgb(204, 204, 204)" stroke-width="1px"></line><line x1="849.744" y1="0" x2="849.744" y2="5" style="visibility: inherit;" fill="rgb(0, 0, 0)" stroke="rgb(204, 204, 204)" stroke-width="1px"></line><line x1="971.1360000000001" y1="0" x2="971.1360000000001" y2="5" style="visibility: inherit;" fill="rgb(0, 0, 0)" stroke="rgb(204, 204, 204)" stroke-width="1px"></line><line x1="1092.528" y1="0" x2="1092.528" y2="5" style="visibility: inherit;" fill="rgb(0, 0, 0)" stroke="rgb(204, 204, 204)" stroke-width="1px"></line><line x1="1213.92" y1="0" x2="1213.92" y2="5" style="visibility: inherit;" fill="rgb(0, 0, 0)" stroke="rgb(204, 204, 204)" stroke-width="1px"></line></g><g transform="translate(0, 8)"><text x="0" y="0" dx="0em" dy="0.95em" style="text-anchor: middle; visibility: hidden; font-family: &quot;Helvetica Neue&quot;, sans-serif; font-size: 12px; font-weight: 200;" fill="rgb(50, 49, 63)" stroke="none" stroke-width="1px">-1k</text><text x="121.39200000000001" y="0" dx="0em" dy="0.95em" style="text-anchor: middle; visibility: inherit; font-family: &quot;Helvetica Neue&quot;, sans-serif; font-size: 12px; font-weight: 200;" fill="rgb(50, 49, 63)" stroke="none" stroke-width="1px">0</text><text x="242.78400000000002" y="0" dx="0em" dy="0.95em" style="text-anchor: middle; visibility: inherit; font-family: &quot;Helvetica Neue&quot;, sans-serif; font-size: 12px; font-weight: 200;" fill="rgb(50, 49, 63)" stroke="none" stroke-width="1px">1k</text><text x="364.176" y="0" dx="0em" dy="0.95em" style="text-anchor: middle; visibility: inherit; font-family: &quot;Helvetica Neue&quot;, sans-serif; font-size: 12px; font-weight: 200;" fill="rgb(50, 49, 63)" stroke="none" stroke-width="1px">2k</text><text x="485.56800000000004" y="0" dx="0em" dy="0.95em" style="text-anchor: middle; visibility: inherit; font-family: &quot;Helvetica Neue&quot;, sans-serif; font-size: 12px; font-weight: 200;" fill="rgb(50, 49, 63)" stroke="none" stroke-width="1px">3k</text><text x="606.96" y="0" dx="0em" dy="0.95em" style="text-anchor: middle; visibility: inherit; font-family: &quot;Helvetica Neue&quot;, sans-serif; font-size: 12px; font-weight: 200;" fill="rgb(50, 49, 63)" stroke="none" stroke-width="1px">4k</text><text x="728.352" y="0" dx="0em" dy="0.95em" style="text-anchor: middle; visibility: inherit; font-family: &quot;Helvetica Neue&quot;, sans-serif; font-size: 12px; font-weight: 200;" fill="rgb(50, 49, 63)" stroke="none" stroke-width="1px">5k</text><text x="849.744" y="0" dx="0em" dy="0.95em" style="text-anchor: middle; visibility: inherit; font-family: &quot;Helvetica Neue&quot;, sans-serif; font-size: 12px; font-weight: 200;" fill="rgb(50, 49, 63)" stroke="none" stroke-width="1px">6k</text><text x="971.1360000000001" y="0" dx="0em" dy="0.95em" style="text-anchor: middle; visibility: inherit; font-family: &quot;Helvetica Neue&quot;, sans-serif; font-size: 12px; font-weight: 200;" fill="rgb(50, 49, 63)" stroke="none" stroke-width="1px">7k</text><text x="1092.528" y="0" dx="0em" dy="0.95em" style="text-anchor: middle; visibility: inherit; font-family: &quot;Helvetica Neue&quot;, sans-serif; font-size: 12px; font-weight: 200;" fill="rgb(50, 49, 63)" stroke="none" stroke-width="1px">8k</text><text x="1213.92" y="0" dx="0em" dy="0.95em" style="text-anchor: middle; visibility: hidden; font-family: &quot;Helvetica Neue&quot;, sans-serif; font-size: 12px; font-weight: 200;" fill="rgb(50, 49, 63)" stroke="none" stroke-width="1px">9k</text></g><line x1="0" y1="0" x2="1213.92" y2="0" fill="rgb(0, 0, 0)" stroke="rgb(204, 204, 204)" stroke-width="1px"></line></g></g></g></g></svg>