<svg viewBox="0 0 1263.92041015625 400" xmlns="http://www.w3.org/2000/svg"><g><g><g><g><g><line x1="50" y1="340.90909090909105" x2="45" y2="340.90909090909105" style="visibility: inherit;" fill="rgb(0, 0, 0)" stroke="rgb(204, 204, 204)" stroke-width="1px"></line><line x1="50" y1="306.8181818181819" x2="45" y2="306.8181818181819" style="visibility: inherit;" fill="rgb(0, 0, 0)" stroke="rgb(204, 204, 204)" stroke-width="1px"></line><line x1="50" y1="272.7272727272728" x2="45" y2="272.7272727272728" style="visibility: inherit;" fill="rgb(0, 0, 0)" stroke="rgb(204, 204, 204)" stroke-width="1px"></line><line x1="50" y1="238.63636363636368" x2="45" y2="238.63636363636368" style="visibility: inherit;" fill="rgb(0, 0, 0)" stroke="rgb(204, 204, 204)" stroke-width="1px"></line><line x1="50" y1="204.54545454545456" x2="45" y2="204.54545454545456" style="visibility: inherit;" fill="rgb(0, 0, 0)" stroke="rgb(204, 204, 204)" stroke-width="1px"></line><line x1="50" y1="170.45454545454544" x2="45" y2="170.45454545454544" style="visibility: inherit;" fill="rgb(0, 0, 0)" stroke="rgb(204, 204, 204)" stroke-width="1px"></line><line x1="50" y1="136.3636363636365" x2="45" y2="136.3636363636365" style="visibility: inherit;" fill="rgb(0, 0, 0)" stroke="rgb(204, 204, 204)" stroke-width="1px"></line><line x1="50" y1="102.27272727272737" x2="45" y2="102.27272727272737" style="visibility: inherit;" fill="rgb(0, 0, 0)" stroke="rgb(204, 204, 204)" stroke-width="1px"></line><line x1="50" y1="68.18181818181824" x2="45" y2="68.18181818181824" style="visibility: inherit;" fill="rgb(0, 0, 0)" stroke="rgb(204, 204, 204)" stroke-width="1px"></line><line x1="50" y1="34.09090909090912" x2="45" y2="34.09090909090912" style="visibility: inherit;" fill="rgb(0, 0, 0)" stroke="rgb(204, 204, 204)" stroke-width="1px"></line><line x1="50" y1="0" x2="45" y2="0" style="visibility: inherit;" fill="rgb(0, 0, 0)" stroke="rgb(204, 204, 204)" stroke-width="1px"></line></g><g transform="translate(40, 0)"><text x="0" y="340.90909090909105" dx="0em" dy="0.3em" style="text-anchor: end; visibility: inherit; font-family: &quot;Helvetica Neue&quot;, sans-serif; font-size: 12px; font-weight: 200;" fill="rgb(50, 49, 63)" stroke="none" stroke-width="1px">0.29</text><text x="0" y="306.8181818181819" dx="0em" dy="0.3em" style="text-anchor: end; visibility: inherit; font-family: &quot;Helvetica Neue&quot;, sans-serif; font-size: 12px; font-weight: 200;" fill="rgb(50, 49, 63)" stroke="none" stroke-width="1px">0.3</text><text x="0" y="272.7272727272728" dx="0em" dy="0.3em" style="text-anchor: end; visibility: inherit; font-family: &quot;Helvetica Neue&quot;, sans-serif; font-size: 12px; font-weight: 200;" fill="rgb(50, 49, 63)" stroke="none" stroke-width="1px">0.31</text><text x="0" y="238.63636363636368" dx="0em" dy="0.3em" style="text-anchor: end; visibility: inherit; font-family: &quot;Helvetica Neue&quot;, sans-serif; font-size: 12px; font-weight: 200;" fill="rgb(50, 49, 63)" stroke="none" stroke-width="1px">0.32</text><text x="0" y="204.54545454545456" dx="0em" dy="0.3em" style="text-anchor: end; visibility: inherit; font-family: &quot;Helvetica Neue&quot;, sans-serif; font-size: 12px; font-weight: 200;" fill="rgb(50, 49, 63)" stroke="none" stroke-width="1px">0.33</text><text x="0" y="170.45454545454544" dx="0em" dy="0.3em" style="text-anchor: end; visibility: inherit; font-family: &quot;Helvetica Neue&quot;, sans-serif; font-size: 12px; font-weight: 200;" fill="rgb(50, 49, 63)" stroke="none" stroke-width="1px">0.34</text><text x="0" y="136.3636363636365" dx="0em" dy="0.3em" style="text-anchor: end; visibility: inherit; font-family: &quot;Helvetica Neue&quot;, sans-serif; font-size: 12px; font-weight: 200;" fill="rgb(50, 49, 63)" stroke="none" stroke-width="1px">0.35</text><text x="0" y="102.27272727272737" dx="0em" dy="0.3em" style="text-anchor: end; visibility: inherit; font-family: &quot;Helvetica Neue&quot;, sans-serif; font-size: 12px; font-weight: 200;" fill="rgb(50, 49, 63)" stroke="none" stroke-width="1px">0.36</text><text x="0" y="68.18181818181824" dx="0em" dy="0.3em" style="text-anchor: end; visibility: inherit; font-family: &quot;Helvetica Neue&quot;, sans-serif; font-size: 12px; font-weight: 200;" fill="rgb(50, 49, 63)" stroke="none" stroke-width="1px">0.37</text><text x="0" y="34.09090909090912" dx="0em" dy="0.3em" style="text-anchor: end; visibility: inherit; font-family: &quot;Helvetica Neue&quot;, sans-serif; font-size: 12px; font-weight: 200;" fill="rgb(50, 49, 63)" stroke="none" stroke-width="1px">0.38</text><text x="0" y="0" dx="0em" dy="0.3em" style="text-anchor: end; visibility: hidden; font-family: &quot;Helvetica Neue&quot;, sans-serif; font-size: 12px; font-weight: 200;" fill="rgb(50, 49, 63)" stroke="none" stroke-width="1px">0.39</text></g><line x1="50" y1="0" x2="50" y2="375" fill="rgb(0, 0, 0)" stroke="rgb(204, 204, 204)" stroke-width="1px"></line></g></g><g transform="translate(50, 0)" clip-path="url(#clip_0)"><clipPath id="clip_0"><rect width="1213" height="375"></rect></clipPath><g><g><g><line x1="0" y1="0" x2="0" y2="375" fill="rgb(0, 0, 0)" stroke="rgb(60, 60, 60)" stroke-width="1px" opacity="0.25"></line><line x1="121.39200000000001" y1="0" x2="121.39200000000001" y2="375" fill="rgb(0, 0, 0)" stroke="rgb(60, 60, 60)" stroke-width="1px" opacity="0.25"></line><line x1="242.78400000000002" y1="0" x2="242.78400000000002" y2="375" fill="rgb(0, 0, 0)" stroke="rgb(60, 60, 60)" stroke-width="1px" opacity="0.25"></line><line x1="364.176" y1="0" x2="364.176" y2="375" fill="rgb(0, 0, 0)" stroke="rgb(60, 60, 60)" stroke-width="1px" opacity="0.25"></line><line x1="485.56800000000004" y1="0" x2="485.56800000000004" y2="375" fill="rgb(0, 0, 0)" stroke="rgb(60, 60, 60)" stroke-width="1px" opacity="0.25"></line><line x1="606.96" y1="0" x2="606.96" y2="375" fill="rgb(0, 0, 0)" stroke="rgb(60, 60, 60)" stroke-width="1px" opacity="0.25"></line><line x1="728.352" y1="0" x2="728.352" y2="375" fill="rgb(0, 0, 0)" stroke="rgb(60, 60, 60)" stroke-width="1px" opacity="0.25"></line><line x1="849.744" y1="0" x2="849.744" y2="375" fill="rgb(0, 0, 0)" stroke="rgb(60, 60, 60)" stroke-width="1px" opacity="0.25"></line><line x1="971.1360000000001" y1="0" x2="971.1360000000001" y2="375" fill="rgb(0, 0, 0)" stroke="rgb(60, 60, 60)" stroke-width="1px" opacity="0.25"></line><line x1="1092.528" y1="0" x2="1092.528" y2="375" fill="rgb(0, 0, 0)" stroke="rgb(60, 60, 60)" stroke-width="1px" opacity="0.25"></line><line x1="1213.92" y1="0" x2="1213.92" y2="375" fill="rgb(0, 0, 0)" stroke="rgb(60, 60, 60)" stroke-width="1px" opacity="0.25"></line></g><g><line x1="0" y1="340.90909090909105" x2="1213.92" y2="340.90909090909105" fill="rgb(0, 0, 0)" stroke="rgb(60, 60, 60)" stroke-width="1px" opacity="0.25"></line><line x1="0" y1="306.8181818181819" x2="1213.92" y2="306.8181818181819" fill="rgb(0, 0, 0)" stroke="rgb(60, 60, 60)" stroke-width="1px" opacity="0.25"></line><line x1="0" y1="272.7272727272728" x2="1213.92" y2="272.7272727272728" fill="rgb(0, 0, 0)" stroke="rgb(60, 60, 60)" stroke-width="1px" opacity="0.25"></line><line x1="0" y1="238.63636363636368" x2="1213.92" y2="238.63636363636368" fill="rgb(0, 0, 0)" stroke="rgb(60, 60, 60)" stroke-width="1px" opacity="0.25"></line><line x1="0" y1="204.54545454545456" x2="1213.92" y2="204.54545454545456" fill="rgb(0, 0, 0)" stroke="rgb(60, 60, 60)" stroke-width="1px" opacity="0.25"></line><line x1="0" y1="170.45454545454544" x2="1213.92" y2="170.45454545454544" fill="rgb(0, 0, 0)" stroke="rgb(60, 60, 60)" stroke-width="1px" opacity="0.25"></line><line x1="0" y1="136.3636363636365" x2="1213.92" y2="136.3636363636365" fill="rgb(0, 0, 0)" stroke="rgb(60, 60, 60)" stroke-width="1px" opacity="0.25"></line><line x1="0" y1="102.27272727272737" x2="1213.92" y2="102.27272727272737" fill="rgb(0, 0, 0)" stroke="rgb(60, 60, 60)" stroke-width="1px" opacity="0.25"></line><line x1="0" y1="68.18181818181824" x2="1213.92" y2="68.18181818181824" fill="rgb(0, 0, 0)" stroke="rgb(60, 60, 60)" stroke-width="1px" opacity="0.25"></line><line x1="0" y1="34.09090909090912" x2="1213.92" y2="34.09090909090912" fill="rgb(0, 0, 0)" stroke="rgb(60, 60, 60)" stroke-width="1px" opacity="0.25"></line><line x1="0" y1="0" x2="1213.92" y2="0" fill="rgb(0, 0, 0)" stroke="rgb(60, 60, 60)" stroke-width="1px" opacity="0.25"></line></g></g></g><g><g><line x1="0" y1="1329.5454545454547" x2="1213.92" y2="1329.5454545454547" fill="rgb(0, 0, 0)" stroke="rgb(153, 153, 153)" stroke-width="1.5px"></line></g></g><g><g><line x1="121.39200000000001" y1="0" x2="121.39200000000001" y2="375" fill="rgb(0, 0, 0)" stroke="rgb(153, 153, 153)" stroke-width="1.5px"></line></g></g><g><g><g><g><g><path stroke="rgb(255, 112, 67)" stroke-width="2px" d="M122.120352,167.04548624428844L123.69844800000001,85.18636145264782L124.4268,130.70005606864015L126.369072,184.18475722566495L126.61185600000002,227.88966360311827L126.976032,264.4311011683461L127.947168,283.2049692362389L128.31134400000002,280.6077788160435L130.132224,215.07671816251593L130.4964,223.26488486261627L132.92424,158.32617628645133L133.895376,120.7787788196963L134.38094400000003,163.93138696558975L136.808784,180.82160996709405L138.38688000000002,181.95656740102012L140.329152,194.9712119372379L140.693328,199.17750977458348L141.78585600000002,214.7589828827975L143.121168,251.14996955079303L143.72812800000003,226.42718827548728L143.970912,250.46169280511828L144.577872,223.4544681585472L149.31216,227.41872203521132L149.91912000000002,259.3587081342101L151.74,263.4880786198917L152.468352,280.0452550462786L153.075312,260.7118359307936L153.925056,274.8447196146154L154.653408,276.0819749300705L156.959856,253.02529226625475L158.902128,236.25629544892573L159.144912,197.7064125666661L160.116048,216.07646281730857L161.572752,211.75636173946847L162.66528000000002,204.810162230734L163.63641600000003,197.67171348316188L165.578688,215.30887943532142L166.06425600000003,216.11695907994408L172.619424,216.5272551441679L172.74081600000002,232.0377319977595L174.80447999999998,243.73786755693698L175.16865600000003,247.50759712177108L175.532832,236.36755303860414L177.35371200000003,251.8559744413589L177.71788800000002,249.77464162377083L177.83928,258.24300597968903L179.0532,269.6906489203857L181.11686400000002,264.5206221321066L181.35964800000002,267.61369384797456L183.90888,272.32967975022984L185.97254400000003,278.09423727594253L186.57950400000001,281.4851631719646L189.85708800000003,278.08109940930876L191.07100800000003,280.5072689587799L191.79936,276.35058275225316L192.042144,274.7824857096557L192.64910400000002,279.23486956458L192.770496,280.63116732636684L194.591376,285.54853728984693L196.776432,288.19553816330705L197.019216,286.4947568040624L198.47592000000003,296.07149823179327L199.32566400000002,298.81458997620825L199.447056,305.5392047813995L199.68984000000003,310.86566322245665L200.05401600000002,306.5342934349674L200.29680000000002,308.90477656980033L201.753504,309.495042101732L202.967424,304.39536342826693L204.424128,305.79202063450015L205.031088,298.34957449819746L208.18728000000002,298.079021921939L208.67284800000002,280.73004374537226L209.15841600000002,284.9173216884833L209.279808,291.6337181234587L210.12955200000002,293.79663009836577L211.22208,297.880397492436L211.707648,291.68730381107594L212.19321600000004,290.8995170890074L212.80017600000002,295.93730363960896L213.285744,299.23025456495117L214.378272,293.4403282098064L214.86384,289.9290435985993L215.106624,288.1931108959349L215.349408,283.78003244288163L216.19915200000003,290.1792320986794L216.806112,294.5500809883685L217.04889599999998,294.29114695087486L217.655856,291.43705554621016L217.89864,287.8546300347856L218.38420800000003,286.7406193267186L218.869776,295.14887901406337L219.59812800000003,293.6303279433469L219.71952000000002,294.7267523307306L222.511536,300.4999229467667L222.997104,302.6163135402403L227.00304000000003,301.00305391470977L227.852784,300.7733042794887L228.58113600000001,304.416326650711L230.28062400000002,307.4135208606575L230.766192,310.17396660659335L231.615936,307.99588076990557L231.85872,301.856371897901L232.587072,307.46066763559145L232.829856,311.35139233493106L234.52934400000004,310.08666754959904L234.65073600000002,302.80126237040304L235.86465600000002,299.8448228700561L236.228832,297.8995640884194L237.32136000000003,301.4526192233311L237.806928,301.66583260816356L238.29249600000003,304.0620778502637L239.385024,298.79403459719913L239.50641600000003,299.62750621905644L240.234768,302.8303336596023L240.35616000000002,303.42673427609327L240.96312000000003,297.4395887044978L243.14817600000003,299.3300497994996L243.51235200000002,296.11660175751604L244.60488000000004,293.46904358923314L248.24664,291.6725760366829L249.82473600000003,291.1516758156415L250.553088,291.9052538339815L250.91726400000002,295.1886895339721L251.16004800000002,295.6646038499223L251.64561600000002,291.26861098886246L252.37396800000002,291.9131945751936L252.980928,292.4058876325906L254.194848,292.04628024155113L254.9232,287.2198693920999L255.53016,288.23973619024235L256.74408,274.7498905856892L257.35104,277.96234697873L261.84254400000003,278.1108188353641L262.328112,276.15242902865106L262.44950400000005,278.75166017958753L262.570896,278.3054043048155L264.755952,281.43434538843087L266.21265600000004,284.09807292979707L266.33404800000005,281.4810440099633L267.0624,277.9943300269324L267.912144,273.24403650373097L271.068336,271.70577681916217L272.52504000000005,270.5446280908322L273.86035200000003,273.4134714455936L274.224528,275.2395754056864L274.588704,275.96898079077584L277.016544,278.1003717180813L277.74489600000004,275.8954339398698L278.59464,272.71696324521594L279.322992,273.3248598335242L281.265264,272.32986909409806L281.62944000000005,267.88924388252826L282.96475200000003,263.24378547507814L283.328928,262.81143679358695L283.693104,258.30338396484944L283.814496,260.60712175506484L289.641312,261.3428375259861L290.005488,264.317722532761L290.369664,269.4216833162033L290.491056,267.67951038975764L293.16168,268.78408507172526L294.618384,269.218080716996L294.861168,268.97093555808135L295.346736,266.419360962185L295.832304,268.84434254005225L296.317872,272.4587684149119L299.35267200000004,270.9401346330955L299.474064,270.77630626433165L300.809376,268.3257990565976L301.780512,268.3104303958348L302.26608000000004,266.9151584989959L302.508864,268.4317477447557L304.57252800000003,271.70180387684576L306.393408,271.2836874103598L306.878976,270.4269258257269L309.91377600000004,268.8656801468949L311.85604800000004,265.4412262825732L311.97744,268.08454580260485L313.79832000000005,268.4643718129002L314.28388800000005,265.896864010497L316.22616000000005,269.5830042623957L316.347552,271.0688785879022L317.925648,269.8419536178561L319.018176,270.22218659352615L319.625136,270.3774760061883L320.232096,269.2924027934335L320.596272,267.1651421001741L321.203232,261.9143676181441L321.56740800000006,263.92634760387034L323.024112,261.3115445041383L323.99524800000006,259.05566180164914L324.84499200000005,257.52213913611854L325.694736,259.61796904140607L326.787264,258.5763750452637L327.27283200000005,255.2097721461789L327.515616,256.56544926165725L327.75840000000005,259.5387919450328L328.122576,258.42217790888196L328.97232,261.58397724867064L330.064848,260.7281705586182L331.278768,254.72030904114752L331.764336,257.3778123069841L332.00712000000004,257.49788350729L332.37129600000003,256.16443004136676L332.978256,257.66274767729556L333.34243200000003,255.37414042089358L333.46382400000005,253.14390787009518L333.585216,249.61618930085336L335.89166400000005,246.7158543282204L336.98419200000006,248.73342099065025L337.71254400000004,249.67948101944688L338.562288,248.6095006626711L338.68368000000004,247.07198995944762L339.776208,247.90910080114273L340.62595200000004,249.19449254948842L343.175184,248.63380779898637L343.66075200000006,249.4874173608507L344.87467200000003,244.5811067156704L345.36024,241.6521529174512L346.452768,242.42747634082986L348.030864,242.35709335251317L348.39504,244.11144127935344L349.123392,242.09754584208724L349.366176,240.89650853375002L353.49350400000003,238.5943309131185L354.221856,239.48385265291728L356.28552,235.1006371232311L356.52830400000005,230.03996165904724L357.49944,227.67701686202057L357.86361600000004,229.0517855635091L358.1064,230.94128816974774L360.29145600000004,230.256928536736L361.99094400000007,229.4967821886559L362.23372800000004,229.18244568243688L364.4187840000001,228.96804328281647L364.904352,232.30823899123757L365.875488,230.9222828873991L367.939152,232.28898220534782L368.66750400000006,233.78796966885605L371.580912,231.61481039224975L373.03761600000007,233.1693863349347L373.15900800000003,236.81193493984983L373.523184,238.37847177828365L373.64457600000003,237.5171584643751L373.88736,235.53784236614592L374.130144,235.1627496123269L374.61571200000003,236.6679421765763L375.10128000000003,232.48733620575226L375.951024,234.44075693110508L377.771904,236.5934465800418L381.899232,234.87399962009042L382.38480000000004,235.45486319351585L382.627584,233.67643554448117L383.23454399999997,233.910411329736L384.327072,233.82571538363482L385.78377600000005,235.5459809317543L386.99769599999996,233.9711845569586L387.24048000000005,236.73947883849434L387.483264,236.1077614968185L387.604656,232.66249715395233L388.090224,230.88472921327963L388.4544,231.96442277469302L389.42553599999997,231.86098899978566L389.911104,232.34385384254279L391.610592,234.16532724117184L392.338944,231.6395332247709L392.945904,230.7995970258528L393.067296,231.85860138839314L393.31008,229.9718806944713L393.674256,229.62078351254164L394.159824,230.4599237784357L394.281216,228.8538522594527L395.13096,227.23114026918245L395.495136,227.4202878768705L396.102096,228.2297100661684L398.408544,230.28674582647383L399.62246400000004,229.50679940598408L400.350816,231.11190117526476L401.07916800000004,229.3148209799409L401.564736,231.25855878397294L403.02144000000004,231.82940380235274L403.14283200000006,231.46990558113876L406.177632,230.7545976170379L407.27016000000003,230.37413161536352L409.33382400000005,231.9416961214886L411.5188800000001,230.4524320560311L411.64027200000004,232.6094513568225L411.883056,233.39375670818305L413.09697600000004,234.2267615247416L413.58254400000004,234.85155547740797L415.88899200000003,233.07677326742902L417.224304,234.8696994078511L418.19544,233.7339949764814L418.92379200000005,231.3788818525441L419.045184,229.82449613296043L419.28796800000003,231.27775724970508L419.53075200000006,230.6848046461461L420.137712,231.33527007612815L423.17251200000004,231.73156178623339L423.29390400000005,231.2861483525118L424.507824,230.73912312840326L424.750608,230.10448373276182L425.357568,229.46105187083595L427.05705600000005,230.55889487631572L427.785408,227.74566340492746L428.87793600000003,227.47746828683293L430.698816,228.30369431714664L431.184384,229.56038930448184L431.427168,230.47652620438316L433.00526400000007,226.6950829753769L434.461968,225.93862403178503L435.918672,227.53276041664625L437.132592,226.75200890878548L437.8609440000001,227.59046681206692L439.92460800000003,226.91432450945163L440.65296,226.4933505570038L440.774352,227.0633228483216L441.745488,226.61909325745577L442.47384,229.61204928200755L443.202192,231.68022976003365L443.809152,231.0123266354069L446.60116800000003,231.44733304958652L447.450912,231.8303784845347L448.05787200000003,230.9215388207809L449.63596800000005,231.74545337992674L450.48571200000004,229.83978963394557L452.306592,230.44397446019457L453.763296,232.19914881219213L454.127472,231.7613448223762L455.82696000000004,231.70108316461065L455.948352,228.93931120801983L456.19113600000003,230.21276960580138L460.07568000000003,229.58236509120158L460.197072,230.95489719146352L460.318464,227.81746497379547L461.16820800000005,226.0924242369007L462.50352000000004,226.44506061822977L464.3244,225.77632464987778L464.93136000000004,226.02190949476991L468.57312,225.16923391521468L470.151216,224.96865042268732L471.243744,224.4523779983327L472.336272,226.98303996466163L473.06462400000004,224.93244001076783L473.55019200000004,224.6996581446873L475.613856,225.88618044482234L475.85664,225.59330142723618L475.97803200000004,224.30737071418693L477.434736,224.30971513961498L479.619792,225.24449858835538L481.68345600000004,224.4742158515437L482.65459200000004,223.90311659038457L485.446608,221.4835623892869L486.53913600000004,221.6663777500406L486.78192000000007,220.52844292735267L487.02470400000004,221.235698818181L487.51027200000004,221.44070918684807L487.63166400000006,222.67265536865654L488.96697600000005,223.93149908807834L489.33115200000003,223.13658082549352L490.30228800000003,222.3909815029809L490.666464,222.80254116510548L493.579872,221.25728705702755L494.06544,221.7041122134888L494.30822400000005,220.24726654372043L496.12910400000004,219.0203095997744L497.7072,219.54885657726373L500.49921600000005,219.99720351885148L502.32009600000004,220.11254084652128L502.441488,220.9198765417388L503.29123200000004,220.36258239384114L503.89819200000005,219.69885649331303L504.50515200000007,219.37728015220992L504.99072,216.69273589803038L505.23350400000004,216.39303117153648L507.17577600000004,216.78931003697699L509.360832,215.64617819906144L509.48222400000003,216.48600370742545L510.331968,218.49627827777132L510.69614400000006,219.31273054630086L513.609552,218.76180147874044L513.973728,220.47353322029244L514.823472,220.3167335646216L515.1876480000001,219.45693069111985L515.30904,220.9108240426326L515.551824,221.26336567063376L515.673216,222.88564435150508L518.708016,223.37861494181368L519.8005440000001,225.31465014544636L522.7139520000001,224.35545375731851L523.6850880000001,224.16829654099314L525.384576,223.4787686737151L525.505968,221.06615425153618L526.112928,221.38104643831684L527.5696320000001,221.46505850364122L531.09,221.26784369749825L531.3327840000001,219.86771022096102L531.5755680000001,217.7185921343683L532.546704,218.41253550957833L534.610368,219.51558955205434L535.2173280000001,220.35571784745167L537.887952,221.30463311435057L538.2521280000001,220.97739216789697L538.859088,219.9150387035925L540.1944000000001,217.8367693467562L540.437184,217.26705643022936L541.165536,216.5476000304731L541.2869280000001,215.00943988547425L542.0152800000001,215.22149697699882L542.8650240000001,215.60440340831397L543.593376,215.62212492819526L543.9575520000001,212.85990637261503L546.021216,212.0312071154443L547.47792,211.999144295123L547.842096,211.66683946346146L548.6918400000001,211.80586535365305L550.6341120000001,211.45545858609808L550.876896,211.17643699203498L551.6052480000001,211.47507446394758L552.090816,210.51276150181423L554.033088,210.66370980769477L556.096752,210.89297136947044L558.5245920000001,209.69129234241737L560.709648,207.85559917860257L560.952432,207.18786422634503L561.1952160000001,206.04284073668455L561.559392,204.45304629065905L561.923568,205.04920389417381L563.9872320000001,204.16046355185964L565.322544,203.64574345095792L565.443936,202.55057773726563L567.0220320000001,202.5950376706401L570.6637920000001,201.1681369473107L570.906576,202.5881947496239L573.8199840000001,204.10771137869736L574.305552,203.6084170130437L574.5483360000001,203.38046439055037L575.276688,203.1056137306819L575.6408640000001,201.86513247714828L575.883648,200.08567600605156L576.976176,200.0409219838969L577.82592,201.0342349409672L579.4040160000001,198.8769695846474L580.3751520000001,199.4714926024123L581.953248,198.7563389122823L582.1960320000001,198.07279962077058L582.560208,198.11902933883619L584.016912,197.92011489747543L584.50248,197.65627110517133L585.1094400000001,197.9380911924969L585.3522240000001,198.00310913238857L586.566144,198.23621931930535L587.051712,199.2620493042666L590.57208,200.5256700094238L591.17904,200.69484595639102L592.0287840000001,200.30587013673565L595.184976,200.40086907805633L596.156112,201.2175749593513L597.370032,201.9290036897554L598.341168,201.54857568283097L599.190912,201.83299326061774L599.6764800000001,203.61495255482L601.011792,202.13956458709305L601.740144,203.5297884691775L602.4684960000001,203.8801574141232L605.13912,203.13302297082063L606.474432,203.44680653461108L607.081392,203.11294445341133L608.1739200000001,204.0527655185763L608.2953120000001,204.60748651538233L609.752016,204.6254361187865L611.087328,202.8891090386193L611.4515040000001,203.33583522733537L612.665424,203.3931080175134L618.370848,202.7123238990978L618.9778080000001,202.94172864231555L619.0992,203.30468030967018L620.31312,203.1199109812894L629.174736,203.12364886526538L630.510048,204.03769037311537L630.63144,204.67164760135074L630.8742240000001,204.02191556962993L631.117008,204.76933668634592L631.481184,205.92151616643199L631.602576,205.67005224932595L634.6373760000001,206.12677004455463L635.244336,206.95223137201577L635.608512,207.4746740066567L636.579648,207.4759123421501L637.91496,207.71429289299095L639.007488,208.53923527276748L639.371664,208.0386619967067L639.4930560000001,207.15551121372098L641.313936,206.59894717432252L643.2562080000001,206.05338776130526L643.98456,206.16265379374676L644.470128,206.67979158656237L645.5626560000001,207.47238918625845L645.8054400000001,206.81538988830337L646.8979680000001,205.79787175927538L647.383536,204.46502437103584L648.1118880000001,204.44798579051775L648.718848,203.4927568538673L651.8750400000001,203.30632580581783L652.9675680000001,204.26201616767014L654.788448,202.70322134199296L655.6381920000001,202.8875160947366L656.366544,201.94341162425883L656.852112,203.16971630099778L656.973504,202.32142994484792L659.2799520000001,203.13490477929275L659.644128,203.51205739647745L660.3724800000001,204.7356262703755L664.0142400000001,204.52348992773145L664.7425920000001,204.67571676916594L665.2281600000001,202.89423098755736L666.563472,203.19333190579806L666.8062560000001,202.09408317508775L668.8699200000001,200.9487305104682L668.9913120000001,199.40505476637017L671.2977600000002,198.4959117829194L671.419152,195.82475932072103L671.7833280000001,195.3949387757919L672.8758560000001,196.26835479695617L673.8469920000001,195.26383439198582L674.089776,195.61925559173451L674.211168,194.8019688052232L677.245968,193.73068606749598L677.6101440000001,194.1131554090528L678.945456,194.46106382452763L679.3096320000001,195.7575233995366L679.552416,195.2426541560938L679.7952000000001,195.75931884569673L681.2519040000001,196.751046970773L683.315568,195.43106843836838L685.8648,195.0593157358654L686.714544,194.27946989513794L687.68568,195.35097118757906L688.171248,195.50367483236832L689.020992,195.89232096545717L689.142384,195.42432157059673L689.263776,195.21835144853304L690.477696,195.4436224323232L693.6338880000001,195.73293279420054L694.240848,196.5395319611227L696.18312,196.83353509897506L697.5184320000001,198.09572525073736L698.004,197.30435183570458L698.1253919999999,198.01422085505007L699.096528,197.1206183156116L699.4607040000001,198.53593525756563L699.5820960000001,198.67041592950486L699.82488,198.62012908726533L700.189056,198.85806145224558L701.2815840000001,199.46266335914018L701.767152,199.45062196824537L702.616896,198.38674901246983L702.738288,197.5018591611404L703.4666400000001,197.34343452846073L704.194992,196.7252467858945L704.4377760000001,196.79891419002723L704.801952,197.7588967197268L709.050672,196.58090782440695L710.5073760000001,196.82041458612142L712.8138240000001,196.41250836867354L713.0566080000001,196.11631999754826L715.3630560000001,194.2955772188198L715.6058400000001,194.1542611070632L715.7272320000001,193.00163543144507L718.0336800000001,192.44065809112874L720.947088,193.00041494723519L721.3112639999999,192.15180732626982L722.8893600000001,192.15676587552906L723.8604960000001,191.1719989970263L724.953024,190.55654460474864L725.3172000000001,189.9510550071242L725.5599840000001,189.84455391394206L725.681376,189.6996651479819L727.380864,189.09069266836462L728.352,189.179885558817L731.022624,188.8671333194439L731.750976,189.149453875981L732.115152,188.0209180270017L732.9648960000001,188.57374416638166L734.542992,186.10449907245436L734.7857759999999,186.8674842145875L734.9071680000001,187.0528807763195L735.756912,186.8395159232947L737.9419680000001,186.51219760897027L740.733984,187.10246074038733L741.340944,187.37031455130557L743.7687840000001,187.14967867814212L744.011568,186.5113268600322L744.7399200000001,186.25515217406817L747.896112,186.576705454449L748.5030720000001,187.00328026722028L750.081168,185.67937429966153L750.566736,183.4071764112033L752.751792,182.97061461029176L753.722928,182.72414584429532L756.514944,182.07164439976276L756.8791200000001,181.94064060022654L757.0005120000001,181.9528981235672L757.48608,181.6122610687743L757.607472,181.33277013682698L758.0930400000001,181.53355679068488L760.7636640000001,182.4218740376299L763.55568,182.61979446017546L765.133776,182.30957983795685L767.076048,182.96196192122218L768.4113600000001,182.06357729059815L770.3536320000001,181.58464399098358L772.05312,181.8723480755556L772.174512,181.35786564713484L772.538688,182.44566700694966L774.602352,181.17621188613975L775.0879199999999,181.30081509389967L777.51576,182.2593987199603L777.7585440000001,181.17917223849014L779.458032,180.84658865314995L781.76448,180.2796423027881L781.8858720000001,179.89831946586438L782.128656,181.33156404523484L782.735616,181.8434668611791L786.134592,180.10508076647614L787.22712,181.04277014716823L788.076864,181.4512251442532L788.562432,180.47147071318005L789.290784,179.77198584115345L790.0191360000001,179.7447987674708L790.6260960000001,180.16871496942136L790.990272,181.28153567484964L791.2330560000001,180.77945845970083L793.053936,181.38823350618614L794.146464,181.35052470100925L795.1176,181.44314134920694L797.1812639999999,181.23199127294413L797.788224,181.5195192825676L798.031008,181.77728130272143L799.487712,182.69672557072522L799.7304960000001,182.62773506649282L800.458848,182.0200718610387L801.915552,182.40482914814314L802.5225120000001,181.56955690500098L803.736432,181.42446236437607L804.9503520000001,181.30844632410614L808.3493280000001,180.77834631052392L808.592112,180.3284540010311L809.07768,179.90851481541816L810.8985600000001,180.65085651536043L815.8756320000001,180.05329331533093L816.239808,180.35309313678837L816.725376,179.45927958879872L818.4248640000001,178.95832516204985L819.7601760000001,178.86981628407406L820.6099200000001,177.9678192604958L822.673584,177.69777008820927L823.0377600000002,178.77016961821258L823.64472,179.11974626693495L824.2516800000001,179.51050275645963L824.980032,179.27361365367022L826.436736,179.38901340844438L826.558128,180.23449788583795L828.621792,179.85655073159475L828.985968,180.4609916937103L829.8357120000001,181.36460789345367L833.1132960000001,181.08345141798483L833.35608,181.32715749647144L834.2058240000001,181.15833501085342L836.39088,181.1852481383433L836.6336640000001,181.9085423843218L837.483408,181.26595948606672L838.5759360000001,180.6948561997079L839.789856,181.5418682313295L839.911248,180.99913004014832L841.125168,181.53198604603082L841.6107360000001,182.2085608128066L841.7321280000001,181.47946139773453L844.038576,181.05650539466822L844.645536,180.483036255717L844.88832,181.35885836675294L845.3738880000001,181.3506047795786L846.4664160000001,181.80327051986873L848.6514720000001,182.26830758003064L851.079312,181.5580125989942L851.686272,181.79628348182646L852.7788,182.5956302902578L853.507152,183.10510728881667L853.6285440000001,182.34813676364203L853.749936,182.91855997440666L854.1141120000001,183.03690855376783L854.478288,182.9640310766296L857.148912,182.74155174196434L859.212576,182.07752834860625L859.333968,181.87085190528157L859.8195360000001,182.16044148447372L860.426496,182.6662236381359L861.27624,182.32346517149324L862.368768,182.9497776150648L862.6115520000001,183.20903262110997L863.8254720000001,182.8324286422449L864.5538240000001,183.48963687543517L864.7966080000001,183.15367375152877L865.52496,184.00431967642658L865.767744,184.36117487549322L866.0105280000001,185.81288365901375L867.4672320000001,184.9228718152814L867.710016,185.3708244156922L867.9528,185.91131610087606L870.7448160000001,185.85416104603374L871.837344,185.95106356082294L872.2015200000001,185.9340473303369L874.143792,186.24430429661865L875.357712,186.013254467618L875.479104,185.66290263058565L875.7218880000001,183.10281597681805L876.45024,182.16673406731053L877.1785920000001,181.53244715261687L878.0283360000001,181.23863356666277L878.635296,180.1761678110637L879.4850400000001,179.54092328286526L880.213392,179.26505204388786L881.7914880000001,179.7506878612219L884.94768,179.94414441384797L887.37552,179.68807661259396L887.739696,179.03696608975187L888.225264,179.8705028950067L888.346656,179.77989382934504L889.1964000000002,179.3409169736599L891.260064,179.96781883659457L892.595376,179.35858690837037L893.9306880000001,180.40410824733527L894.780432,179.7755026210259L895.5087840000001,180.37306549294874L898.422192,180.99509808538411L904.1276160000001,181.18402615059253L905.0987520000001,180.6476467299756L905.58432,180.8629880485645L907.162416,180.8691592713927L908.497728,181.25298700348654L908.9832960000001,180.75746399195697L909.9544320000001,180.95231353596736L910.0758240000001,180.73100547699445L910.5613920000001,180.51031867816414L911.6539200000001,181.06811251375663L911.7753120000001,181.87692167744942L912.989232,180.88466337297297L913.110624,180.92306701381952L913.232016,180.92260985917903L914.203152,180.01225936929026L916.630992,179.001284341158L919.5444,178.47624397354272L920.029968,178.53189529304123L920.2727520000001,179.04393810726862L920.394144,178.28893026937521L920.75832,177.11878613300476L921.9722399999999,176.99081188036075L923.064768,177.12590013979164L923.4289440000001,176.55000377032783L924.6428640000001,176.4810004704695L925.249824,176.1118242415156L929.619936,176.26085617422638L930.7124640000001,175.5609998732419L930.9552480000001,176.0677454381297L931.440816,177.06347477904018L932.1691680000001,177.1465834699113L932.533344,177.35025614567832L933.383088,177.93448878184068L934.3542240000002,178.65675173456523L934.7184000000001,179.0409773407467L935.6895360000001,179.39881673336535L936.175104,179.86329641298153L936.660672,179.29559371189598L937.874592,179.1401814383792L937.9959840000001,178.56215910148273L939.4526880000001,178.63547512311735L939.938256,177.29038433070323L940.7880000000001,176.35197888003853L941.2735680000001,177.05214287832032L942.60888,177.41720467740376L944.065584,177.93833218097885L946.0078560000001,178.03125507251366L949.0426560000001,177.99223190193845L950.8635360000001,177.5209574857867L952.563024,177.32641750278648L953.0485920000001,177.77671838249842L953.53416,178.0508088127596L954.505296,177.6684309602585L955.2336480000001,178.24178044446452L955.3550400000001,178.78243199358468L957.418704,178.68622945003116L958.5112320000001,177.39518896459356L959.239584,177.69971152866597L960.2107200000002,177.51250769644614L960.5748960000001,177.71697039643328L963.24552,176.8351969762606L965.3091840000001,176.0983238828424L965.794752,176.5835762792138L966.765888,175.94738363044357L967.1300640000001,176.89589849366573L967.858416,176.46407235865965L970.0434720000001,176.70631059809972L970.2862560000001,176.36188924709768L972.4713120000001,176.78883103050072L972.9568800000001,176.9991017010162L973.321056,177.01190316080485L975.506112,176.00396980253555L975.9916800000001,176.09841427961106L976.8414240000001,176.84334100679916L978.4195200000001,177.43911459101196L979.147872,177.35300761850706L980.8473600000001,177.15688752925837L982.304064,177.68948084364976L983.153808,176.7899002791865L984.124944,176.5036115496978L985.09608,176.29131997353358L985.217472,176.14667606135177L985.8244320000001,175.8073587049899L986.3100000000001,176.4677389265525L987.888096,175.52590703934194L988.3736640000001,176.45939007013837L990.073152,176.1023514932707L991.529856,174.78695936275486L991.651248,175.39804107522966L992.500992,175.62566325510028L993.4721280000001,176.37361835096445L994.20048,175.3584043967866L994.928832,175.83352521779662L995.778576,174.77249508546345L996.0213600000001,174.66219391070027L997.1138880000001,175.1434810471246L997.356672,175.1713632156272L997.478064,175.69318236656102L999.7845120000001,175.13612403485757L1000.148688,175.68126741704515L1001.241216,174.63821756408856L1002.819312,174.84706582266284L1004.1546240000001,175.41547792971042L1004.5188,174.96297686902412L1005.7327200000001,173.63672401737296L1007.674992,173.36168094383504L1009.0103040000001,173.18306190183156L1011.19536,173.00489089535898L1012.40928,173.52018728008494L1012.530672,173.3237843797342L1013.137632,173.33069438009116L1013.2590240000001,173.06338679837245L1014.108768,171.93902210564573L1014.594336,172.12094150243638L1014.715728,172.74847289181733L1014.83712,173.6834850293891L1017.507744,173.3037224429699L1017.6291360000001,173.16227408575418L1018.1147040000001,172.71282182847213L1018.357488,173.6155006498849L1019.450016,174.45673440804202L1019.935584,174.84621291717718L1020.2997600000001,174.82677146340777L1023.455952,175.51044173706885L1023.577344,175.5075899230729L1024.669872,175.05048704303474L1025.0340480000002,175.1368618970174L1025.519616,175.27015128771234L1025.883792,175.57971056008253L1027.097712,174.82969855036393L1027.219104,174.83391087535483L1027.340496,175.30214096145602L1027.461888,175.37009865021017L1028.0688480000001,174.66367125740376L1028.7972000000002,174.92018312247208L1029.282768,175.2404952763318L1029.525552,174.44216992730333L1031.467824,173.93236080849988L1032.196176,174.56342573932292L1032.3175680000002,174.94183435856053L1033.288704,173.88368147105763L1034.0170560000001,174.4026773934233L1035.595152,174.11620059098908L1036.444896,174.30212195621894L1037.6588160000001,175.03461856669742L1040.815008,175.05588221018678L1043.6070240000001,175.25143039003257L1044.4567680000002,175.1213101761364L1045.18512,175.1771995495676L1045.549296,174.44429785373572L1049.312448,173.9391559021649L1049.4338400000001,174.11275265465775L1051.3761120000001,173.82299036193254L1051.497504,174.4996416859L1052.711424,175.0013132498871L1053.0756000000001,174.87234231643416L1053.3183840000002,174.40897775486945L1054.653696,175.4056976411138L1055.382048,175.91021154714272L1055.7462240000002,176.18317470997886L1056.231792,176.31161927347245L1058.174064,176.88257319593083L1058.416848,177.02690309895817L1058.53824,177.36615108005802L1059.023808,177.124955021614L1059.3879840000002,177.03917720751366L1059.630768,177.1255376007143L1061.330256,177.64696814096735L1061.815824,177.28576591681932L1063.1511360000002,177.33150007455842L1063.515312,176.76555315267862L1065.943152,176.79496175190283L1066.9142880000002,177.13252888060757L1068.128208,177.54345673891206L1068.2496,177.65700884753048L1069.584912,177.86143749242822L1072.376928,178.43540585318596L1072.983888,178.55861871224715L1075.0475520000002,178.255170611111L1077.839568,178.87846357903578L1078.0823520000001,178.81333799729964L1080.3888000000002,179.0944553167713L1080.510192,179.48831554031005L1080.99576,179.07667386944516L1081.481328,179.40775628207044L1083.666384,179.4155296833738L1084.394736,179.1461959483696L1084.516128,178.93399751466524L1089.614592,178.38909098392932L1090.585728,178.9572603619777L1091.5568640000001,179.0334340178635L1091.6782560000001,178.60216017796515L1093.7419200000002,178.8421686104569L1094.713056,179.03659220513353L1095.3200160000001,179.35995124175116L1095.805584,179.45769969069926L1097.140896,179.57207771537747L1098.5976,180.14657404254254L1098.961776,180.29894572410896L1099.2045600000001,181.19671917349268L1099.6901280000002,181.54329198402118L1100.661264,181.66507537389336L1105.395552,181.66905762688552L1107.944784,181.6171033880038L1108.673136,181.87267157761426L1108.7945280000001,182.1444146041864L1109.037312,182.28157047160158L1110.8581920000001,181.43102464675476L1111.707936,180.83885728512615L1114.4999520000001,180.9945995630132L1114.7427360000001,180.8159174032493L1114.98552,180.7878768229204L1116.320832,181.41607605406358L1116.6850080000002,181.92615150238893L1118.748672,181.7797252671061L1119.477024,181.26175821220667L1121.05512,180.79488057385245L1123.48296,180.62285264476583L1124.5754880000002,179.8529038119885L1126.274976,178.5476527346377L1126.5177600000002,178.1859400971879L1126.7605440000002,177.74209631307207L1127.853072,177.55897441849427L1128.9456000000002,178.2157077815968L1129.9167360000001,177.67329540558893L1132.344576,176.9776529949391L1132.5873600000002,177.08837862151418L1132.951536,176.9509509229863L1133.19432,177.42495487572893L1133.9226720000001,176.4563135902783L1135.379376,176.46862823524094L1135.500768,175.69505856181397L1136.3505120000002,175.95573083066245L1136.714688,175.45288275236422L1137.321648,175.31318956408086L1138.171392,175.5739994260579L1138.414176,174.80970163491884L1144.605168,174.67129600576578L1145.94048,174.10089814993503L1146.304656,174.19348749907215L1146.911616,174.64659660891866L1147.882752,175.47013784076418L1148.853888,175.78964255759476L1149.339456,175.76473772908034L1149.460848,175.12922080418866L1149.7036320000002,175.56312713583353L1150.067808,175.435157632675L1150.9175520000001,174.53461877873343L1151.4031200000002,175.2243470266376L1151.888688,174.89057368849657L1152.9812160000001,175.00302792367643L1153.102608,175.9188273662706L1153.709568,176.12176122819892L1154.195136,175.83073708121194L1154.316528,175.03086347368912L1156.137408,175.5165250173103L1159.779168,175.42728174627246L1159.90056,176.1930878509659L1161.357264,175.14037639896387L1162.207008,174.8087002428083L1162.813968,174.7315894351364L1164.5134560000001,174.31458295436724L1165.605984,174.2922906954396L1166.212944,173.6769779741719" style="fill: none;" fill="none"></path></g></g></g></g><g opacity="0.2"><g><g><g><path stroke="rgb(255, 112, 67)" stroke-width="2px" d="M122.120352,167.04548624428844L123.69844800000001,3.4090957858346087L124.4268,221.5909497304397L126.369072,344.31816637516033L126.61185600000002,402.27267687970954L127.947168,395.4545828429136L128.31134400000002,262.5000219453466L130.132224,-306.81814524260426L130.4964,296.59089852463126L132.92424,-487.4999739907006L136.808784,398.86362986131155L138.38688000000002,197.72731580517515L140.329152,388.6363872072914L140.693328,265.9090689637445L141.78585600000002,477.27272727272737L144.577872,-337.4999748034911L149.31216,313.6363368142736L149.91912000000002,985.2272607386113L151.74,361.36360466480266L152.468352,688.6363855817102L153.925056,651.1363603852013L154.653408,310.22728979587566L156.959856,-405.68182956088674L160.116048,794.3181639367886L161.572752,71.59095054323029L162.66528000000002,-27.27273377505213L165.578688,838.6363847689197L166.06425600000003,245.45458365570423L172.619424,231.81819238445982L172.74081600000002,824.9999934976752L177.35371200000003,903.409090909091L177.71788800000002,160.2272906086662L177.83928,630.6818242777479L179.0532,784.0909212827685L181.11686400000002,27.272729711099146L181.35964800000002,412.50002113255596L186.57950400000001,450.0000463290649L189.85708800000003,105.68182712251496L191.07100800000003,405.68182549693375L191.79936,57.954559271985886L192.042144,190.90912016955298L192.64910400000002,521.5908973054453L192.770496,357.9545576464047L194.591376,562.5000203197653L196.776432,439.7727020762185L197.019216,187.4999715523287L198.47592000000003,862.5000186941843L199.68984000000003,640.909066931768L200.05401600000002,34.09092534672135L200.29680000000002,460.22728898308503L201.753504,347.72731499238455L202.967424,-30.681780793450002L205.031088,-204.54541390592397L208.18728000000002,279.5454602349889L208.67284800000002,-923.8636818799107L211.707648,-167.04549030824137L212.19321600000004,231.81819238445982L212.80017600000002,678.4090921282769L214.378272,-156.8181460553949L214.86384,13.63633843985474L215.106624,150.0000479546461L215.349408,-71.59095460718328L216.806112,654.5454582030125L217.04889599999998,272.7272645993667L217.655856,51.13636363636368L217.89864,-17.045491121032L218.38420800000003,190.90912016955298L218.869776,1026.1363583532248L219.59812800000003,160.2272906086662L219.71952000000002,392.04543422568935L222.997104,494.3181655623697L227.00304000000003,153.40909497304403L227.852784,279.5454602349889L228.58113600000001,644.3181647495792L230.766192,572.7272629737855L231.615936,98.86363148689276L231.85872,-293.18185557018626L232.829856,695.4545304179193L234.52934400000004,184.09092453393077L234.65073600000002,-429.54536188732493L235.86465600000002,0.00004876743668091876L236.228832,98.86363148689276L237.32136000000003,668.1817986748437L237.806928,323.86368106712L238.29249600000003,555.6818246841432L240.234768,647.7272625673902L240.35616000000002,368.1818003004248L240.96312000000003,-357.95456171035767L244.60488000000004,-3.4090998497875944L248.24664,88.63638883287263L249.82473600000003,231.81819238445982L250.553088,378.409042954445L250.91726400000002,674.9999943104658L251.16004800000002,351.1363620107825L251.64561600000002,-225.00000081279063L252.37396800000002,368.1818003004248L252.980928,351.1363620107825L254.194848,248.86363067410218L254.9232,-296.5909025885842L257.35104,674.9999943104658L261.84254400000003,296.59089852463126L262.328112,30.681776729497074L262.44950400000005,606.8181903524833L262.570896,221.5909497304397L264.755952,681.8181899460881L267.912144,-351.1363660747354L271.068336,68.18180192600602L272.52504000000005,115.90906977653509L273.86035200000003,657.9545560208235L274.224528,521.5908973054453L274.588704,374.999995936047L277.016544,569.3181651559744L278.59464,-167.04549030824137L279.322992,357.9545576464047L281.265264,132.9545080661774L281.62944000000005,-357.95456171035767L282.96475200000003,-395.45448530804026L283.328928,201.1363628235731L283.693104,-388.6363912712444L283.814496,593.181799081239L289.641312,368.1818003004248L290.005488,698.8636282357304L290.369664,1019.3181881173092L290.491056,10.227291421456812L293.16168,432.9545064405962L294.618384,334.09092372114014L294.861168,231.81819238445982L295.346736,-119.3182224577123L296.317872,824.9999934976752L299.35267200000004,37.49997236511928L299.474064,245.45458365570423L300.809376,-112.50002682209015L301.780512,265.9090689637445L302.26608000000004,47.727316617965755L302.508864,507.9545568336141L304.57252800000003,790.9090661189775L306.393408,204.54540984197104L306.878976,132.9545080661774L309.91377600000004,17.045487057079015L311.85604800000004,-289.7727069529619L311.97744,698.8636282357304L313.79832000000005,330.6817751039159L314.28388800000005,-156.8181460553949L316.347552,518.1817994876342L317.925648,64.77275490760809L319.018176,334.09092372114014L319.625136,296.59089852463126L320.232096,85.22724021564835L320.596272,-95.45458853244781L325.694736,627.2727264599367L326.787264,74.99999756162822L327.27283200000005,-340.90912342071533L327.75840000000005,790.9090661189775L328.122576,57.954559271985886L328.97232,831.8181891332974L330.064848,105.68182712251496L331.278768,-838.6362872340462L331.764336,743.1817982684483L332.00712000000004,279.5454602349889L332.37129600000003,10.227291421456812L332.978256,535.2272885766897L337.71254400000004,429.5454594221983L338.562288,44.31816800074148L338.68368000000004,-47.727320681918684L340.62595200000004,497.72726338018083L343.175184,139.77270370179963L343.66075200000006,415.9090681509539L346.452768,395.4545828429136L348.030864,228.40904376723557L348.39504,593.181799081239L349.123392,-160.22729467261922L349.366176,0.00004876743668091876L353.49350400000003,-225.00000081279063L358.1064,620.4545308243146L360.29145600000004,88.63638883287263L361.99094400000007,71.59095054323029L362.23372800000004,163.63633762706414L364.4187840000001,184.09092453393077L364.904352,934.0909204699778L373.523184,576.1363607915966L373.64457600000003,51.13636363636368L373.88736,-194.3181712519039L374.130144,153.40909497304403L374.61571200000003,565.9090673381634L381.899232,-146.59090340137482L382.38480000000004,364.7727532820269L382.627584,-163.63634169101715L383.23454399999997,286.36365587061107L384.327072,214.7727540948175L385.78377600000005,623.8636286421257L387.24048000000005,865.9090657125821L387.483264,92.04543585127055L387.604656,-555.6817271492699L388.4544,480.6818250905385L389.42553599999997,207.9545584591953L389.911104,344.31816637516033L391.610592,657.9545560208235L392.338944,-357.95456171035767L392.945904,34.09092534672135L393.067296,480.6818250905385L393.31008,-214.77275815877044L393.674256,146.5908993374218L394.159824,429.5454594221983L395.13096,-160.22729467261922L395.495136,272.7272645993667L396.102096,422.7272637865761L398.408544,726.136359978806L399.62246400000004,40.90912098234355L400.350816,620.4545308243146L401.564736,705.6818238713525L403.02144000000004,371.5909489176491L403.14283200000006,143.18185231902387L406.177632,54.54541065476161L407.27016000000003,136.3636566834017L409.33382400000005,620.4545308243146L419.28796800000003,603.4090925346723L419.53075200000006,78.40904458002615L420.137712,398.86362986131155L423.17251200000004,334.09092372114014L423.29390400000005,115.90906977653509L424.507824,88.63638883287263L424.750608,64.77275490760809L425.357568,61.363606290383814L427.05705600000005,518.1817994876342L427.785408,-511.36370951479137L428.87793600000003,156.81814199144196L430.698816,446.5908977118406L433.00526400000007,-780.6818783283234L434.461968,23.863682692701218L435.918672,654.5454582030125L437.132592,17.045487057079015L437.8609440000001,453.40909334746283L439.92460800000003,44.31816800074148L440.65296,112.50002275813716L440.774352,381.8181915716692L441.745488,105.68182712251496L442.47384,1046.590919860385L443.202192,797.7272617545996L443.809152,47.727316617965755L446.60116800000003,351.1363620107825L447.450912,337.4999707395381L448.05787200000003,-20.45453813942993L453.763296,722.7272621609949L454.127472,109.09087414091289L455.82696000000004,214.7727540948175L455.948352,-548.863633112474L456.19113600000003,589.7727520628409L460.07568000000003,51.13636363636368L460.197072,620.4545308243146L461.16820800000005,-265.90907302769745L462.50352000000004,327.272728085518L464.3244,34.09092534672135L464.93136000000004,296.59089852463126L468.57312,-20.45453813942993L470.151216,167.04548624428844L471.243744,74.99999756162822L472.336272,961.3636268133469L473.06462400000004,-371.5909529816021L473.55019200000004,156.81814199144196L475.613856,572.7272629737855L475.85664,139.77270370179963L475.97803200000004,-153.40909903699696L477.434736,224.99999674883765L479.619792,501.1363611979919L481.68345600000004,-3.4090998497875944L482.65459200000004,54.54541065476161L485.446608,-497.72731824354696L486.53913600000004,276.136413216591L486.78192000000007,-119.3182224577123L487.02470400000004,432.9545064405962L487.51027200000004,282.95450725338685L487.63166400000006,593.181799081239L490.30228800000003,-3.4090998497875944L490.666464,347.72731499238455L493.579872,-248.8636347380551L494.06544,357.9545576464047L494.30822400000005,-225.00000081279063L497.7072,381.8181915716692L500.49921600000005,357.9545576464047L502.32009600000004,255.68182630972439L502.441488,470.45453163710516L503.29123200000004,47.727316617965755L503.89819200000005,13.63633843985474L504.50515200000007,119.31821839375937L504.99072,-620.4546364870939L505.23350400000004,122.7272654121573L507.17577600000004,340.90911935676235L509.360832,-143.1818563829769L510.69614400000006,477.27272727272737L513.609552,44.31816800074148L513.973728,763.6363851753149L514.823472,170.45453326268637L515.1876480000001,-54.545414718714596L515.30904,685.2272877638992L515.551824,334.09092372114014L515.673216,743.1817982684483L522.7139520000001,-85.22724427960134L523.6850880000001,163.63633762706414L525.384576,0.00004876743668091876L525.505968,-562.5000243837184L526.112928,323.86368106712L527.5696320000001,248.86363067410218L531.09,156.81814199144196L531.3327840000001,-238.63639208403492L537.887952,535.2272885766897L538.2521280000001,112.50002275813716L538.859088,-132.95451213013035L540.1944000000001,-473.8635827194561L540.437184,27.272729711099146L541.165536,-23.863686756654147L541.2869280000001,-299.9999496069822L542.0152800000001,286.36365587061107L542.8650240000001,344.31816637516033L543.593376,221.5909497304397L543.9575520000001,-719.3182192065499L546.021216,-68.181805989959L547.47792,201.1363628235731L547.842096,98.86363148689276L548.6918400000001,259.0908733281223L550.6341120000001,92.04543585127055L550.876896,115.90906977653509L551.6052480000001,313.6363368142736L552.090816,-119.3182224577123L554.033088,262.5000219453466L556.096752,289.77270288900905L558.5245920000001,-204.54541390592397L563.9872320000001,-105.68183118646795L565.322544,23.863682692701218L565.443936,-180.68177998065948L567.0220320000001,218.18180111321544L570.6637920000001,-299.9999496069822L573.8199840000001,739.7727512500504L574.305552,27.272729711099146L574.5483360000001,122.7272654121573L575.276688,105.68182712251496L575.6408640000001,-238.63639208403492L575.883648,-432.95461210337544L576.976176,184.09092453393077L577.82592,555.6818246841432L582.1960320000001,-47.727320681918684L582.560208,214.7727540948175L584.016912,126.13641402938154L584.50248,102.27267850529068L585.1094400000001,300.0000471418555L585.3522240000001,221.5909497304397L586.566144,282.95450725338685L587.051712,572.7272629737855L590.57208,661.3636538386346L591.17904,262.5000219453466L592.0287840000001,57.954559271985886L595.184976,235.22723940285778L596.156112,501.1363611979919L597.370032,463.63633600148296L598.341168,61.363606290383814L599.190912,306.8181411786514L599.6764800000001,862.5000186941843L601.740144,719.3181643431839L602.4684960000001,334.09092372114014L605.13912,-75.00000162558115L606.474432,320.45453244989574L607.081392,78.40904458002615L608.1739200000001,555.6818246841432L608.2953120000001,412.50002113255596L609.752016,211.36360547759324L611.087328,-450.0000503930178L611.4515040000001,371.5909489176491L612.665424,224.99999674883765L618.370848,-54.545414718714596L618.9778080000001,289.77270288900905L619.0992,340.90911935676235L620.31312,132.9545080661774L629.174736,204.54540984197104L630.510048,552.272726866332L631.481184,647.7272625673902L631.602576,109.09087414091289L634.6373760000001,381.8181915716692L635.608512,409.09087251533174L636.579648,207.9545584591953L637.91496,300.0000471418555L639.007488,528.4090929410676L639.371664,13.63633843985474L639.4930560000001,-136.36366074735463L643.2562080000001,-6.818146868185522L643.98456,248.86363067410218L644.470128,409.09087251533174L647.383536,-320.4545365138488L648.1118880000001,197.72731580517515L648.718848,-173.86368594386363L651.8750400000001,129.54546104777947L652.9675680000001,582.9545564272188L654.788448,-415.9091738137331L655.6381920000001,276.136413216591L656.366544,-173.86368594386363L659.2799520000001,528.4090929410676L659.644128,354.54540902918046L660.3724800000001,695.4545304179193L664.0142400000001,119.31821839375937L664.7425920000001,265.9090689637445L665.2281600000001,-514.7727565331893L666.563472,323.86368106712L666.8062560000001,-242.04543910243297L671.419152,-889.772805300626L671.7833280000001,20.454534075476943L672.8758560000001,552.272726866332L673.8469920000001,-214.77275815877044L674.089776,340.90911935676235L674.211168,-139.77270776575256L677.245968,-245.45458771965718L677.6101440000001,351.1363620107825L678.945456,337.4999707395381L679.3096320000001,729.5454577966171L683.315568,-351.1363660747354L685.8648,40.90912098234355L686.714544,-129.54546511173248L687.68568,640.909066931768L688.171248,259.0908733281223L689.020992,357.9545576464047L689.142384,0.00004876743668091876L689.263776,109.09087414091289L690.477696,289.77270288900905L693.6338880000001,317.0454854314978L694.240848,535.2272885766897L696.18312,320.45453244989574L697.5184320000001,729.5454577966171L699.4607040000001,797.7272617545996L699.5820960000001,255.68182630972439L699.82488,177.27272889830854L700.189056,300.0000471418555L701.2815840000001,456.8181403658608L701.767152,194.3181671879509L702.616896,-255.68183037367726L702.738288,-180.68177998065948L703.4666400000001,129.54546104777947L704.194992,-68.181805989959L704.4377760000001,228.40904376723557L704.801952,610.2272881702944L709.050672,-310.2272938598286L710.5073760000001,300.0000471418555L712.8138240000001,20.454534075476943L713.0566080000001,68.18180192600602L715.3630560000001,-593.1818539446051L715.6058400000001,132.9545080661774L715.7272320000001,-306.81814524260426L721.3112639999999,-177.27273296226156L722.8893600000001,194.3181671879509L723.8604960000001,-238.63639208403492L725.3172000000001,-75.00000162558115L725.5599840000001,143.18185231902387L725.681376,126.13641402938154L727.380864,-78.40904864397913L728.352,228.40904376723557L731.022624,51.13636363636368L731.750976,313.6363368142736L732.115152,-310.2272938598286L734.7857759999999,524.9999951232564L734.9071680000001,269.31821758096874L735.756912,92.04543585127055L737.9419680000001,40.90912098234355L740.733984,450.0000463290649L741.340944,306.8181411786514L743.7687840000001,88.63638883287263L744.011568,-98.86363555084569L744.7399200000001,71.59095054323029L747.896112,330.6817751039159L748.5030720000001,378.409042954445L752.751792,-13.636342503807668L753.722928,71.59095054323029L756.514944,-112.50002682209015L756.8791200000001,122.7272654121573L757.0005120000001,187.4999715523287L757.48608,27.272729711099146L757.607472,54.54541065476161L758.0930400000001,272.7272645993667L760.7636640000001,586.3636542450299L763.55568,272.7272645993667L765.133776,40.90912098234355L767.076048,480.6818250905385L770.3536320000001,-37.49997642907226L772.05312,313.6363368142736L772.174512,-54.545414718714596L774.602352,-402.2727825424887L775.0879199999999,238.63638802008202L777.51576,623.8636286421257L777.7585440000001,-317.04548949545074L779.458032,27.272729711099146L781.76448,-81.81819726120335L781.8858720000001,3.4090957858346087L782.128656,845.4545296051288L787.22712,617.0454330065035L788.076864,371.5909489176491L788.562432,-276.13631568171763L789.290784,-146.59090340137482L790.0191360000001,167.04548624428844L790.6260960000001,378.409042954445L793.053936,467.04548461870723L794.146464,163.63633762706414L795.1176,224.99999674883765L797.1812639999999,81.81819319725042L797.788224,317.0454854314978L798.031008,303.4090941602534L799.487712,617.0454330065035L799.7304960000001,150.0000479546461L800.458848,-105.68183118646795L801.915552,364.7727532820269L802.5225120000001,-214.77275815877044L803.736432,112.50002275813716L804.9503520000001,126.13641402938154L808.3493280000001,-71.59095460718328L815.8756320000001,-105.68183118646795L816.239808,323.86368106712L816.725376,-248.8636347380551L818.4248640000001,-61.3636103543368L819.7601760000001,136.3636566834017L820.6099200000001,-255.68183037367726L822.673584,47.727316617965755L823.0377600000002,695.4545304179193L823.64472,347.72731499238455L824.2516800000001,368.1818003004248L824.980032,64.77275490760809L826.436736,235.22723940285778L826.558128,589.7727520628409L829.8357120000001,620.4545308243146L833.1132960000001,44.31816800074148L833.35608,300.0000471418555L834.2058240000001,98.86363148689276L836.39088,194.3181671879509L836.6336640000001,535.2272885766897L844.88832,613.6363859881055L845.3738880000001,177.27272889830854L846.4664160000001,405.68182549693375L851.079312,-170.4545373266393L851.686272,300.0000471418555L852.7788,579.5454586094077L853.749936,467.04548461870723L854.1141120000001,242.04543503847998L854.478288,146.5908993374218L857.148912,71.59095054323029L859.212576,-149.99995041977274L859.333968,78.40904458002615L859.8195360000001,327.272728085518L860.426496,436.3636550578205L861.27624,10.227291421456812L862.368768,497.72726338018083L862.6115520000001,313.6363368142736L863.8254720000001,-6.818146868185522L864.5538240000001,514.7727524692364L864.7966080000001,13.63633843985474L865.52496,613.6363859881055L865.767744,364.7727532820269L866.0105280000001,920.4545545984399L867.9528,460.22728898308503L870.7448160000001,156.81814199144196L871.837344,235.22723940285778L872.2015200000001,177.27272889830854L874.143792,344.31816637516033L875.357712,68.18180192600602L875.479104,6.8181428042325365L875.7218880000001,-1125.0000975348735L877.1785920000001,-143.1818563829769L878.0283360000001,30.681776729497074L878.635296,-364.7727573459799L879.4850400000001,-146.59090340137482L880.213392,37.49997236511928L881.7914880000001,429.5454594221983L884.94768,279.5454602349889L887.37552,47.727316617965755L887.739696,-156.8181460553949L888.225264,610.2272881702944L888.346656,132.9545080661774L889.1964000000002,-47.727320681918684L898.422192,504.545459015803L904.1276160000001,279.5454602349889L905.0987520000001,-98.86363555084569L905.58432,293.18185150623333L907.162416,184.09092453393077L908.497728,381.8181915716692L908.9832960000001,-78.40904864397913L909.9544320000001,282.95450725338685L910.0758240000001,64.77275490760809L910.5613920000001,64.77275490760809L911.6539200000001,473.86368025432944L912.989232,-340.90912342071533L913.110624,201.1363628235731L913.232016,180.68177591670653L914.203152,-299.9999496069822L919.5444,-98.86363555084569L920.029968,207.9545584591953L920.2727520000001,450.0000463290649L920.75832,-443.18175315856934L921.9722399999999,109.09087414091289L923.064768,248.86363067410218L923.4289440000001,-129.54546511173248L924.6428640000001,139.77270370179963L925.249824,-20.45453813942993L929.619936,255.68182630972439L930.7124640000001,-197.7273198691281L931.440816,709.0909216891637L932.1691680000001,221.5909497304397L932.533344,286.36365587061107L933.383088,490.9090677445586L934.7184000000001,385.2272385900672L935.6895360000001,371.5909489176491L936.175104,429.5454594221983L936.660672,-126.13631649450815L937.874592,95.45458446849483L937.9959840000001,-132.95451213013035L939.4526880000001,218.18180111321544L939.938256,-548.863633112474L941.2735680000001,555.6818246841432L942.60888,374.999995936047L944.065584,460.22728898308503L946.0078560000001,228.40904376723557L949.0426560000001,156.81814199144196L950.8635360000001,-78.40904864397913L952.563024,71.59095054323029L953.0485920000001,422.7272637865761L953.53416,327.272728085518L954.505296,-30.681780793450002L955.3550400000001,473.86368025432944L957.418704,126.13641402938154L958.5112320000001,-528.4091478044337L959.239584,344.31816637516033L960.2107200000002,74.99999756162822L960.5748960000001,289.77270288900905L963.24552,-306.81814524260426L967.858416,-61.3636103543368L970.0434720000001,310.22728979587566L970.2862560000001,-13.636342503807668L972.4713120000001,412.50002113255596L972.9568800000001,293.18185150623333L973.321056,184.09092453393077L975.506112,-381.81809403679597L975.9916800000001,228.40904376723557L976.8414240000001,589.7727520628409L978.4195200000001,507.9545568336141L979.147872,129.54546104777947L980.8473600000001,68.18180192600602L982.304064,473.86368025432944L983.153808,-323.863685131073L984.124944,17.045487057079015L985.09608,57.954559271985886L985.217472,95.45458446849483L985.8244320000001,-13.636342503807668L991.651248,518.1817994876342L992.500992,303.4090941602534L993.4721280000001,596.59089689905L995.778576,-422.7272678505291L996.0213600000001,112.50002275813716L997.1138880000001,446.5908977118406L997.356672,190.90912016955298L997.478064,470.45453163710516L1001.241216,-415.9091738137331L1002.819312,293.18185150623333L1004.1546240000001,497.72726338018083L1005.7327200000001,-579.5454626733607L1007.674992,17.045487057079015L1009.0103040000001,71.59095054323029L1011.19536,71.59095054323029L1012.40928,467.04548461870723L1012.530672,61.363606290383814L1013.137632,177.27272889830854L1013.2590240000001,20.454534075476943L1014.108768,-470.45453570105826L1014.594336,276.136413216591L1014.715728,531.8181907588787L1017.507744,-44.318172064694465L1017.6291360000001,92.04543585127055L1018.1147040000001,-85.22724427960134L1019.935584,398.86362986131155L1020.2997600000001,163.63633762706414L1023.455952,569.3181651559744L1023.577344,173.86368187991062L1024.669872,-88.63639289682561L1025.0340480000002,224.99999674883765L1025.519616,252.2726776925001L1025.883792,354.54540902918046L1027.097712,-259.0908773920753L1027.219104,177.27272889830854L1027.340496,446.5908977118406L1027.461888,214.7727540948175L1028.0688480000001,-235.2272434668107L1028.7972000000002,323.86368106712L1029.282768,361.36360466480266L1029.525552,-289.7727069529619L1034.0170560000001,477.27272727272737L1035.595152,6.8181428042325365L1036.444896,282.95450725338685L1037.6588160000001,603.4090925346723L1040.815008,187.4999715523287L1043.6070240000001,289.77270288900905L1044.4567680000002,98.86363148689276L1045.18512,207.9545584591953L1045.549296,-255.68183037367726L1049.312448,-122.72726947611028L1049.4338400000001,276.136413216591L1051.3761120000001,3.4090957858346087L1051.497504,572.7272629737855L1052.711424,470.45453163710516L1053.0756000000001,98.86363148689276L1053.3183840000002,-98.86363555084569L1055.382048,473.86368025432944L1055.7462240000002,337.4999707395381L1056.231792,252.2726776925001L1058.174064,514.7727524692364L1058.416848,262.5000219453466L1058.53824,378.409042954445L1059.023808,34.09092534672135L1059.3879840000002,126.13641402938154L1059.630768,228.40904376723557L1061.330256,487.5000207261607L1061.815824,-37.49997642907226L1063.1511360000002,204.54540984197104L1063.515312,-160.22729467261922L1065.943152,194.3181671879509L1066.9142880000002,378.409042954445L1068.128208,422.7272637865761L1068.2496,245.45458365570423L1069.584912,300.0000471418555L1072.376928,521.5908973054453L1072.983888,252.2726776925001L1075.0475520000002,-3.4090998497875944L1077.839568,552.272726866332L1078.0823520000001,139.77270370179963L1080.3888000000002,347.72731499238455L1080.510192,415.9090681509539L1081.481328,378.409042954445L1083.666384,184.09092453393077L1084.394736,17.045487057079015L1084.516128,51.13636363636368L1089.614592,-149.99995041977274L1090.585728,521.5908973054453L1091.5568640000001,224.99999674883765L1091.6782560000001,-81.81819726120335L1093.7419200000002,323.86368106712L1094.713056,296.59089852463126L1095.3200160000001,374.999995936047L1095.805584,238.63638802008202L1097.140896,248.86363067410218L1098.5976,528.4090929410676L1098.961776,272.7272645993667L1099.2045600000001,726.136359978806L1099.6901280000002,392.04543422568935L1100.661264,255.68182630972439L1105.395552,184.09092453393077L1107.944784,150.0000479546461L1108.673136,337.4999707395381L1108.7945280000001,347.72731499238455L1109.037312,265.9090689637445L1110.8581920000001,-337.4999748034911L1111.707936,-180.68177998065948L1114.4999520000001,276.136413216591L1114.7427360000001,71.59095054323029L1114.98552,163.63633762706414L1116.320832,565.9090673381634L1116.6850080000002,494.3181655623697L1118.748672,92.04543585127055L1119.477024,-136.36366074735463L1121.05512,-105.68183118646795L1123.48296,74.99999756162822L1124.5754880000002,-293.18185557018626L1126.7605440000002,-95.45458853244781L1127.853072,64.77275490760809L1128.9456000000002,582.9545564272188L1132.344576,-252.27268175645304L1132.5873600000002,245.45458365570423L1132.951536,92.04543585127055L1133.19432,470.45453163710516L1133.9226720000001,-422.7272678505291L1135.379376,184.09092453393077L1135.500768,-303.40909822420645L1136.3505120000002,337.4999707395381L1136.714688,-136.36366074735463L1137.321648,88.63638883287263L1138.171392,337.4999707395381L1138.414176,-299.9999496069822L1144.605168,88.63638883287263L1145.94048,-180.68177998065948L1146.304656,231.81819238445982L1146.911616,456.8181403658608L1147.882752,688.6363855817102L1148.853888,374.999995936047L1149.339456,160.2272906086662L1149.460848,-221.5909537943926L1149.7036320000002,446.5908977118406L1150.067808,95.45458446849483L1150.9175520000001,-388.6363912712444L1151.888688,-34.090929410674335L1152.9812160000001,245.45458365570423L1153.102608,749.9999939040706L1153.709568,303.4090941602534L1154.195136,-6.818146868185522L1156.137408,480.6818250905385L1159.779168,119.31821839375937L1159.90056,657.9545560208235L1162.207008,-34.090929410674335L1162.813968,126.13641402938154L1164.5134560000001,-88.63639289682561L1165.605984,160.2272906086662L1166.212944,-214.77275815877044" style="fill: none;" fill="none"></path></g></g></g></g></g><g><g opacity="0.938359"><span fill="rgb(0, 0, 0)" stroke="none" stroke-width="1px">Alt + Scroll to Zoom</span></g></g></g><g transform="translate(50, 375)" clip-path="url(#clip_1)"><clipPath id="clip_1"><rect width="1213" height="25"></rect></clipPath><g><g><line x1="0" y1="0" x2="0" y2="5" style="visibility: inherit;" fill="rgb(0, 0, 0)" stroke="rgb(204, 204, 204)" stroke-width="1px"></line><line x1="121.39200000000001" y1="0" x2="121.39200000000001" y2="5" style="visibility: inherit;" fill="rgb(0, 0, 0)" stroke="rgb(204, 204, 204)" stroke-width="1px"></line><line x1="242.78400000000002" y1="0" x2="242.78400000000002" y2="5" style="visibility: inherit;" fill="rgb(0, 0, 0)" stroke="rgb(204, 204, 204)" stroke-width="1px"></line><line x1="364.176" y1="0" x2="364.176" y2="5" style="visibility: inherit;" fill="rgb(0, 0, 0)" stroke="rgb(204, 204, 204)" stroke-width="1px"></line><line x1="485.56800000000004" y1="0" x2="485.56800000000004" y2="5" style="visibility: inherit;" fill="rgb(0, 0, 0)" stroke="rgb(204, 204, 204)" stroke-width="1px"></line><line x1="606.96" y1="0" x2="606.96" y2="5" style="visibility: inherit;" fill="rgb(0, 0, 0)" stroke="rgb(204, 204, 204)" stroke-width="1px"></line><line x1="728.352" y1="0" x2="728.352" y2="5" style="visibility: inherit;" fill="rgb(0, 0, 0)" stroke="rgb(204, 204, 204)" stroke-width="1px"></line><line x1="849.744" y1="0" x2="849.744" y2="5" style="visibility: inherit;" fill="rgb(0, 0, 0)" stroke="rgb(204, 204, 204)" stroke-width="1px"></line><line x1="971.1360000000001" y1="0" x2="971.1360000000001" y2="5" style="visibility: inherit;" fill="rgb(0, 0, 0)" stroke="rgb(204, 204, 204)" stroke-width="1px"></line><line x1="1092.528" y1="0" x2="1092.528" y2="5" style="visibility: inherit;" fill="rgb(0, 0, 0)" stroke="rgb(204, 204, 204)" stroke-width="1px"></line><line x1="1213.92" y1="0" x2="1213.92" y2="5" style="visibility: inherit;" fill="rgb(0, 0, 0)" stroke="rgb(204, 204, 204)" stroke-width="1px"></line></g><g transform="translate(0, 8)"><text x="0" y="0" dx="0em" dy="0.95em" style="text-anchor: middle; visibility: hidden; font-family: &quot;Helvetica Neue&quot;, sans-serif; font-size: 12px; font-weight: 200;" fill="rgb(50, 49, 63)" stroke="none" stroke-width="1px">-1k</text><text x="121.39200000000001" y="0" dx="0em" dy="0.95em" style="text-anchor: middle; visibility: inherit; font-family: &quot;Helvetica Neue&quot;, sans-serif; font-size: 12px; font-weight: 200;" fill="rgb(50, 49, 63)" stroke="none" stroke-width="1px">0</text><text x="242.78400000000002" y="0" dx="0em" dy="0.95em" style="text-anchor: middle; visibility: inherit; font-family: &quot;Helvetica Neue&quot;, sans-serif; font-size: 12px; font-weight: 200;" fill="rgb(50, 49, 63)" stroke="none" stroke-width="1px">1k</text><text x="364.176" y="0" dx="0em" dy="0.95em" style="text-anchor: middle; visibility: inherit; font-family: &quot;Helvetica Neue&quot;, sans-serif; font-size: 12px; font-weight: 200;" fill="rgb(50, 49, 63)" stroke="none" stroke-width="1px">2k</text><text x="485.56800000000004" y="0" dx="0em" dy="0.95em" style="text-anchor: middle; visibility: inherit; font-family: &quot;Helvetica Neue&quot;, sans-serif; font-size: 12px; font-weight: 200;" fill="rgb(50, 49, 63)" stroke="none" stroke-width="1px">3k</text><text x="606.96" y="0" dx="0em" dy="0.95em" style="text-anchor: middle; visibility: inherit; font-family: &quot;Helvetica Neue&quot;, sans-serif; font-size: 12px; font-weight: 200;" fill="rgb(50, 49, 63)" stroke="none" stroke-width="1px">4k</text><text x="728.352" y="0" dx="0em" dy="0.95em" style="text-anchor: middle; visibility: inherit; font-family: &quot;Helvetica Neue&quot;, sans-serif; font-size: 12px; font-weight: 200;" fill="rgb(50, 49, 63)" stroke="none" stroke-width="1px">5k</text><text x="849.744" y="0" dx="0em" dy="0.95em" style="text-anchor: middle; visibility: inherit; font-family: &quot;Helvetica Neue&quot;, sans-serif; font-size: 12px; font-weight: 200;" fill="rgb(50, 49, 63)" stroke="none" stroke-width="1px">6k</text><text x="971.1360000000001" y="0" dx="0em" dy="0.95em" style="text-anchor: middle; visibility: inherit; font-family: &quot;Helvetica Neue&quot;, sans-serif; font-size: 12px; font-weight: 200;" fill="rgb(50, 49, 63)" stroke="none" stroke-width="1px">7k</text><text x="1092.528" y="0" dx="0em" dy="0.95em" style="text-anchor: middle; visibility: inherit; font-family: &quot;Helvetica Neue&quot;, sans-serif; font-size: 12px; font-weight: 200;" fill="rgb(50, 49, 63)" stroke="none" stroke-width="1px">8k</text><text x="1213.92" y="0" dx="0em" dy="0.95em" style="text-anchor: middle; visibility: hidden; font-family: &quot;Helvetica Neue&quot;, sans-serif; font-size: 12px; font-weight: 200;" fill="rgb(50, 49, 63)" stroke="none" stroke-width="1px">9k</text></g><line x1="0" y1="0" x2="1213.92" y2="0" fill="rgb(0, 0, 0)" stroke="rgb(204, 204, 204)" stroke-width="1px"></line></g></g></g></g></svg>