<svg viewBox="0 0 1263.92041015625 400" xmlns="http://www.w3.org/2000/svg"><g><g><g><g><g><line x1="50" y1="375" x2="45" y2="375" style="visibility: inherit;" fill="rgb(0, 0, 0)" stroke="rgb(204, 204, 204)" stroke-width="1px"></line><line x1="50" y1="321.42857142857144" x2="45" y2="321.42857142857144" style="visibility: inherit;" fill="rgb(0, 0, 0)" stroke="rgb(204, 204, 204)" stroke-width="1px"></line><line x1="50" y1="267.8571428571429" x2="45" y2="267.8571428571429" style="visibility: inherit;" fill="rgb(0, 0, 0)" stroke="rgb(204, 204, 204)" stroke-width="1px"></line><line x1="50" y1="214.28571428571433" x2="45" y2="214.28571428571433" style="visibility: inherit;" fill="rgb(0, 0, 0)" stroke="rgb(204, 204, 204)" stroke-width="1px"></line><line x1="50" y1="160.71428571428572" x2="45" y2="160.71428571428572" style="visibility: inherit;" fill="rgb(0, 0, 0)" stroke="rgb(204, 204, 204)" stroke-width="1px"></line><line x1="50" y1="107.14285714285717" x2="45" y2="107.14285714285717" style="visibility: inherit;" fill="rgb(0, 0, 0)" stroke="rgb(204, 204, 204)" stroke-width="1px"></line><line x1="50" y1="53.57142857142861" x2="45" y2="53.57142857142861" style="visibility: inherit;" fill="rgb(0, 0, 0)" stroke="rgb(204, 204, 204)" stroke-width="1px"></line><line x1="50" y1="0" x2="45" y2="0" style="visibility: inherit;" fill="rgb(0, 0, 0)" stroke="rgb(204, 204, 204)" stroke-width="1px"></line></g><g transform="translate(40, 0)"><text x="0" y="375" dx="0em" dy="0.3em" style="text-anchor: end; visibility: hidden; font-family: &quot;Helvetica Neue&quot;, sans-serif; font-size: 12px; font-weight: 200;" fill="rgb(50, 49, 63)" stroke="none" stroke-width="1px">0.2</text><text x="0" y="321.42857142857144" dx="0em" dy="0.3em" style="text-anchor: end; visibility: inherit; font-family: &quot;Helvetica Neue&quot;, sans-serif; font-size: 12px; font-weight: 200;" fill="rgb(50, 49, 63)" stroke="none" stroke-width="1px">0.25</text><text x="0" y="267.8571428571429" dx="0em" dy="0.3em" style="text-anchor: end; visibility: inherit; font-family: &quot;Helvetica Neue&quot;, sans-serif; font-size: 12px; font-weight: 200;" fill="rgb(50, 49, 63)" stroke="none" stroke-width="1px">0.3</text><text x="0" y="214.28571428571433" dx="0em" dy="0.3em" style="text-anchor: end; visibility: inherit; font-family: &quot;Helvetica Neue&quot;, sans-serif; font-size: 12px; font-weight: 200;" fill="rgb(50, 49, 63)" stroke="none" stroke-width="1px">0.35</text><text x="0" y="160.71428571428572" dx="0em" dy="0.3em" style="text-anchor: end; visibility: inherit; font-family: &quot;Helvetica Neue&quot;, sans-serif; font-size: 12px; font-weight: 200;" fill="rgb(50, 49, 63)" stroke="none" stroke-width="1px">0.4</text><text x="0" y="107.14285714285717" dx="0em" dy="0.3em" style="text-anchor: end; visibility: inherit; font-family: &quot;Helvetica Neue&quot;, sans-serif; font-size: 12px; font-weight: 200;" fill="rgb(50, 49, 63)" stroke="none" stroke-width="1px">0.45</text><text x="0" y="53.57142857142861" dx="0em" dy="0.3em" style="text-anchor: end; visibility: inherit; font-family: &quot;Helvetica Neue&quot;, sans-serif; font-size: 12px; font-weight: 200;" fill="rgb(50, 49, 63)" stroke="none" stroke-width="1px">0.5</text><text x="0" y="0" dx="0em" dy="0.3em" style="text-anchor: end; visibility: hidden; font-family: &quot;Helvetica Neue&quot;, sans-serif; font-size: 12px; font-weight: 200;" fill="rgb(50, 49, 63)" stroke="none" stroke-width="1px">0.55</text></g><line x1="50" y1="0" x2="50" y2="375" fill="rgb(0, 0, 0)" stroke="rgb(204, 204, 204)" stroke-width="1px"></line></g></g><g transform="translate(50, 0)" clip-path="url(#clip_0)"><clipPath id="clip_0"><rect width="1213" height="375"></rect></clipPath><g><g><g><line x1="0" y1="0" x2="0" y2="375" fill="rgb(0, 0, 0)" stroke="rgb(60, 60, 60)" stroke-width="1px" opacity="0.25"></line><line x1="121.39200000000001" y1="0" x2="121.39200000000001" y2="375" fill="rgb(0, 0, 0)" stroke="rgb(60, 60, 60)" stroke-width="1px" opacity="0.25"></line><line x1="242.78400000000002" y1="0" x2="242.78400000000002" y2="375" fill="rgb(0, 0, 0)" stroke="rgb(60, 60, 60)" stroke-width="1px" opacity="0.25"></line><line x1="364.176" y1="0" x2="364.176" y2="375" fill="rgb(0, 0, 0)" stroke="rgb(60, 60, 60)" stroke-width="1px" opacity="0.25"></line><line x1="485.56800000000004" y1="0" x2="485.56800000000004" y2="375" fill="rgb(0, 0, 0)" stroke="rgb(60, 60, 60)" stroke-width="1px" opacity="0.25"></line><line x1="606.96" y1="0" x2="606.96" y2="375" fill="rgb(0, 0, 0)" stroke="rgb(60, 60, 60)" stroke-width="1px" opacity="0.25"></line><line x1="728.352" y1="0" x2="728.352" y2="375" fill="rgb(0, 0, 0)" stroke="rgb(60, 60, 60)" stroke-width="1px" opacity="0.25"></line><line x1="849.744" y1="0" x2="849.744" y2="375" fill="rgb(0, 0, 0)" stroke="rgb(60, 60, 60)" stroke-width="1px" opacity="0.25"></line><line x1="971.1360000000001" y1="0" x2="971.1360000000001" y2="375" fill="rgb(0, 0, 0)" stroke="rgb(60, 60, 60)" stroke-width="1px" opacity="0.25"></line><line x1="1092.528" y1="0" x2="1092.528" y2="375" fill="rgb(0, 0, 0)" stroke="rgb(60, 60, 60)" stroke-width="1px" opacity="0.25"></line><line x1="1213.92" y1="0" x2="1213.92" y2="375" fill="rgb(0, 0, 0)" stroke="rgb(60, 60, 60)" stroke-width="1px" opacity="0.25"></line></g><g><line x1="0" y1="375" x2="1213.92" y2="375" fill="rgb(0, 0, 0)" stroke="rgb(60, 60, 60)" stroke-width="1px" opacity="0.25"></line><line x1="0" y1="321.42857142857144" x2="1213.92" y2="321.42857142857144" fill="rgb(0, 0, 0)" stroke="rgb(60, 60, 60)" stroke-width="1px" opacity="0.25"></line><line x1="0" y1="267.8571428571429" x2="1213.92" y2="267.8571428571429" fill="rgb(0, 0, 0)" stroke="rgb(60, 60, 60)" stroke-width="1px" opacity="0.25"></line><line x1="0" y1="214.28571428571433" x2="1213.92" y2="214.28571428571433" fill="rgb(0, 0, 0)" stroke="rgb(60, 60, 60)" stroke-width="1px" opacity="0.25"></line><line x1="0" y1="160.71428571428572" x2="1213.92" y2="160.71428571428572" fill="rgb(0, 0, 0)" stroke="rgb(60, 60, 60)" stroke-width="1px" opacity="0.25"></line><line x1="0" y1="107.14285714285717" x2="1213.92" y2="107.14285714285717" fill="rgb(0, 0, 0)" stroke="rgb(60, 60, 60)" stroke-width="1px" opacity="0.25"></line><line x1="0" y1="53.57142857142861" x2="1213.92" y2="53.57142857142861" fill="rgb(0, 0, 0)" stroke="rgb(60, 60, 60)" stroke-width="1px" opacity="0.25"></line><line x1="0" y1="0" x2="1213.92" y2="0" fill="rgb(0, 0, 0)" stroke="rgb(60, 60, 60)" stroke-width="1px" opacity="0.25"></line></g></g></g><g><g><line x1="0" y1="589.2857142857142" x2="1213.92" y2="589.2857142857142" fill="rgb(0, 0, 0)" stroke="rgb(153, 153, 153)" stroke-width="1.5px"></line></g></g><g><g><line x1="121.39200000000001" y1="0" x2="121.39200000000001" y2="375" fill="rgb(0, 0, 0)" stroke="rgb(153, 153, 153)" stroke-width="1.5px"></line></g></g><g><g><g><g><g><path stroke="rgb(255, 112, 67)" stroke-width="2px" d="M143.121168,-10.768604965539225L143.72812800000003,0.5913864585223223L143.970912,-17.78262265473427L153.075312,-0.9705987547019959L153.925056,3.9513685195611856L154.653408,9.283180487172274L156.959856,12.846357192990013L158.902128,18.740723325247302L159.144912,15.289614487901304L160.116048,18.315773035181735L161.572752,23.854896497099617L162.66528000000002,29.793591925208602L163.63641600000003,35.7657592335122L165.578688,39.085988682120785L166.06425600000003,45.821511969500875L172.619424,47.00395800772088L172.74081600000002,46.870941241438345L174.80447999999998,45.27818456245939L175.16865600000003,45.844236413030785L175.532832,44.373877556536684L177.35371200000003,46.67720237602316L177.71788800000002,48.34271968942568L177.83928,41.33675407808096L179.0532,45.89487625341178L181.11686400000002,49.30333126410352L181.35964800000002,51.94557826559878L183.90888,58.03931649042448L185.97254400000003,60.21100905415693L186.57950400000001,64.4548711705728L189.85708800000003,67.93691924495005L191.07100800000003,71.20848522188942L191.79936,73.1803841705181L192.042144,75.71108246645758L192.64910400000002,77.16721264953122L192.770496,81.97493533744381L194.591376,86.04019610491719L196.776432,86.60467008717131L197.019216,88.45359952655957L198.47592000000003,90.11817187060086L199.32566400000002,93.01027791359951L199.447056,94.29185271826282L199.68984000000003,97.25267754080437L200.05401600000002,100.37525789168717L200.29680000000002,102.19825616122813L201.753504,104.04906803735742L202.967424,106.3441365598676L204.424128,108.85873396933533L205.031088,109.94308931288498L208.18728000000002,110.31902231989301L208.67284800000002,112.64699936511767L209.15841600000002,114.23640756462822L209.279808,115.51663464322269L210.12955200000002,117.50944897560726L211.22208,119.8984361193773L211.707648,121.35554080867755L212.19321600000004,123.55114903512464L212.80017600000002,123.6024858289693L213.285744,123.58373520699033L214.378272,119.97432767950613L214.86384,121.6015493147597L215.106624,123.668515622878L215.349408,125.6211085947401L216.19915200000003,126.60557540210092L216.806112,127.72162808768235L217.04889599999998,129.65134539941434L217.655856,130.98431925720428L217.89864,132.27520972273018L218.38420800000003,133.3530317719917L218.869776,133.88349172493696L219.59812800000003,136.17520850118282L219.71952000000002,137.3677107790156L222.511536,139.0668436063196L222.997104,141.1634300762455L227.00304000000003,141.82661387059633L227.852784,141.09961939759012L228.58113600000001,143.23909880716204L230.28062400000002,144.03033968227908L230.766192,144.28196046402996L231.615936,144.62803734381814L231.85872,146.4336072809157L232.587072,147.1527455288867L232.829856,148.84662828120182L234.52934400000004,149.91223709977498L234.65073600000002,150.64130106210118L235.86465600000002,152.32972716358233L236.228832,153.83159064620403L237.32136000000003,153.23965454978784L237.806928,153.84081861925878L238.29249600000003,154.1886622597941L239.385024,153.86884272668473L239.50641600000003,155.48294013211324L240.234768,154.20022994169003L240.35616000000002,155.65791844796985L240.96312000000003,156.5184148340789L243.14817600000003,157.354688536432L243.51235200000002,156.3059845105547L244.60488000000004,156.90371204368702L248.24664,157.18145096423322L249.82473600000003,157.95815011193767L250.553088,158.49087579199153L250.91726400000002,159.9149344149348L251.16004800000002,160.45946128555215L251.64561600000002,161.6376077468079L252.37396800000002,161.31559477890536L252.980928,161.67604565770006L254.194848,163.18123530688442L254.9232,164.02193431954683L255.53016,164.0124520974475L256.74408,163.0504777139291L257.35104,164.6742157517201L261.84254400000003,165.63322703421525L262.328112,166.92570237875418L262.44950400000005,168.29178490349324L262.570896,169.38695354691504L264.755952,170.49114983857282L266.21265600000004,171.4061331573699L266.33404800000005,172.52935562347392L267.0624,173.57147355120873L267.912144,172.43888817268405L271.068336,173.403816023212L272.52504000000005,174.38726078502637L273.86035200000003,175.7458897121993L274.224528,176.32904602286655L274.588704,177.25677652599805L277.016544,178.39770364828456L277.74489600000004,179.20610346957392L278.59464,179.95757457878253L279.322992,179.88910629974438L281.265264,180.95314118058712L281.62944000000005,181.95039976546417L282.96475200000003,182.18435027154112L283.328928,182.90753991528277L283.693104,183.83645522717848L283.814496,184.70191842521817L289.641312,185.71028423759523L290.005488,186.1522732518863L290.369664,185.54572223376218L290.491056,185.8613249861847L293.16168,186.3233962260666L294.618384,187.59148418258607L294.861168,188.72371030935707L295.346736,189.7224899591701L295.832304,189.55392872010984L296.317872,189.8191065716427L299.35267200000004,189.96339401875142L299.474064,190.32636828486415L300.809376,191.17828102531303L301.780512,191.51600602787656L302.26608000000004,192.55462248891573L302.508864,193.4666003781871L304.57252800000003,193.8718402019673L306.393408,194.08565657225483L306.878976,194.08468372360858L309.91377600000004,194.8099152980633L311.85604800000004,193.66170544514816L311.97744,194.6565522629536L313.79832000000005,195.52979561522054L314.28388800000005,196.62622666011626L316.22616000000005,196.93182149602487L316.347552,197.75278530596466L317.925648,197.99767410754023L319.018176,198.39842908191042L319.625136,198.56770945638985L320.232096,199.65192399748668L320.596272,199.94972747337718L321.203232,200.87245780646631L321.56740800000006,200.73332422149903L323.024112,201.34095551049046L323.99524800000006,202.27941130313783L324.84499200000005,202.7809995800752L325.694736,202.91908809825367L326.787264,203.33986522987462L327.27283200000005,203.56980978344544L327.515616,203.3721717312827L327.75840000000005,203.7965781672146L328.122576,204.56092663220568L328.97232,204.60864260396664L330.064848,204.68528977356198L331.278768,205.4052469972305L331.764336,205.7217035628695L332.00712000000004,206.2903965802795L332.37129600000003,206.46062618151058L332.978256,206.83053870317545L333.34243200000003,207.46033374118704L333.46382400000005,207.21722527207456L333.585216,207.77140780993614L335.89166400000005,208.21852216957254L336.98419200000006,208.06461686700064L337.71254400000004,207.62626189387893L338.562288,207.92333164122667L338.68368000000004,208.39550223792244L339.776208,209.25076997092964L340.62595200000004,209.15539397500564L343.175184,209.70872909785047L343.66075200000006,210.16948750420642L344.87467200000003,210.02705139938396L345.36024,210.0160683538231L346.452768,210.15101509494735L348.030864,210.39770794500686L348.39504,210.942217603089L349.123392,210.37185788477456L349.366176,211.02379744755498L353.49350400000003,211.65935475769703L354.221856,212.42640134411133L356.28552,211.36916595656757L356.52830400000005,211.45143248146871L357.49944,211.80923232544635L357.86361600000004,212.29372653510796L358.1064,212.33954927505823L360.29145600000004,212.93115415342348L361.99094400000007,213.04543801002444L362.23372800000004,213.291700414177L364.4187840000001,213.72945577405912L364.904352,213.48339621655128L365.875488,214.28105383575482L367.939152,213.454881999515L368.66750400000006,213.24796832556765L371.580912,213.79789479140908L373.03761600000007,213.8699181619439L373.15900800000003,214.4129606626701L373.523184,214.931744566132L373.64457600000003,214.7612014577629L373.88736,214.33177459848594L374.130144,214.5811253500179L374.61571200000003,215.33067906397946L375.10128000000003,215.18017912389914L375.951024,215.04057258781486L377.771904,215.45691516607422L381.899232,216.17282610221173L382.38480000000004,216.82076396103352L382.627584,216.76649686386253L383.23454399999997,216.85064099711528L384.327072,217.45571487952998L385.78377600000005,217.7677962158206L386.99769599999996,217.94086997757057L387.24048000000005,218.1454546981076L387.483264,218.67589823023278L387.604656,218.605513043935L388.090224,219.1675880140986L388.4544,219.4845513526921L389.42553599999997,219.57293126666337L389.911104,220.08848349406688L391.610592,220.62306357652457L392.338944,220.66915645537168L392.945904,221.38456097869303L393.067296,221.3635574714286L393.31008,221.6278530952232L393.674256,222.4090119805497L394.159824,221.97917249542988L394.281216,222.25629396832295L395.13096,222.51797446538163L395.495136,222.9870970196301L396.102096,223.07092568620948L398.408544,223.41530682948158L399.62246400000004,223.75278203915798L400.350816,224.3209658163069L401.07916800000004,224.77543210914865L401.564736,225.4277450454561L403.02144000000004,225.80518278351812L403.14283200000006,226.37111695925495L406.177632,226.97635720277378L407.27016000000003,227.49958591037077L409.33382400000005,227.8813515179219L411.5188800000001,228.1788782749303L411.64027200000004,228.60271825891286L411.883056,228.46036008705045L413.09697600000004,229.03797015982985L413.58254400000004,228.9583583919581L415.88899200000003,228.99771340713738L417.224304,229.48799276154045L418.19544,229.69321616075578L418.92379200000005,229.95992077495208L419.045184,230.1955503263551L419.28796800000003,230.37539890471413L419.53075200000006,230.40857528741935L420.137712,230.61557465104588L423.17251200000004,230.680691801575L423.29390400000005,231.0873617382464L424.507824,231.30642888103694L424.750608,231.5732035410489L425.357568,231.5031984514702L427.05705600000005,231.902170766721L427.785408,232.34726713668707L428.87793600000003,232.8623655676875L430.698816,233.25288975464073L431.184384,233.644895325914L431.427168,233.45176279488808L433.00526400000007,233.75672982949933L434.461968,234.16361939239582L435.918672,234.78307866734866L437.132592,234.7587132732227L437.8609440000001,234.8970060053277L439.92460800000003,235.30715926872372L440.65296,235.6949924064323L440.774352,235.4395052061789L441.745488,234.96212532270334L442.47384,235.50847073930544L443.202192,235.91096683549776L443.809152,236.52490160544318L446.60116800000003,236.9099636364466L447.450912,237.15718412975588L448.05787200000003,237.42988825804795L449.63596800000005,237.84334470030012L450.48571200000004,237.68596343091792L452.306592,237.7555131369683L453.763296,238.35180236758848L454.127472,238.10999624586736L455.82696000000004,238.4473486909952L455.948352,238.95324077926094L456.19113600000003,239.21784476161778L460.07568000000003,239.52988258444495L460.197072,240.12973574665548L460.318464,240.35445254241947L461.16820800000005,240.27085747935715L462.50352000000004,240.34086271245852L464.3244,240.95056374824367L464.93136000000004,241.07360144607512L468.57312,241.53691454506748L470.151216,241.6018626061964L471.243744,241.7512622042721L472.336272,242.05800084785426L473.06462400000004,242.13170177020422L473.55019200000004,242.57113512939202L475.613856,242.41260472751696L475.85664,242.9546457930693L475.97803200000004,242.8828209921508L477.434736,243.14143222916377L479.619792,242.21547497924823L481.68345600000004,242.28741843677548L482.65459200000004,242.52459026732836L485.446608,242.71370714565325L486.53913600000004,243.01285024838137L486.78192000000007,243.3138707737124L487.02470400000004,243.4669304110047L487.51027200000004,243.9679027414782L487.63166400000006,244.09678123931764L488.96697600000005,243.76441031793405L489.33115200000003,243.8509544425365L490.30228800000003,244.17680017684225L490.666464,243.89570273886346L493.579872,243.7741244829166L494.06544,244.12951896687633L494.30822400000005,244.22786801193314L496.12910400000004,243.94565873849098L497.7072,244.2841820063794L500.49921600000005,244.6173790780802L502.32009600000004,245.00416267617666L502.441488,245.37847162418862L503.29123200000004,245.50251706336192L503.89819200000005,245.57428993251835L504.50515200000007,245.84132115606735L504.99072,246.05553899491193L505.23350400000004,246.49414863870058L507.17577600000004,246.87243621981324L509.360832,247.3507721911606L509.48222400000003,247.44970194431698L510.331968,247.93091681874478L510.69614400000006,247.99040462398597L513.609552,247.79659176907973L513.973728,247.93702816811373L514.823472,248.32862795628705L515.1876480000001,248.5103717867038L515.30904,248.76139567199473L515.551824,248.6006104951042L515.673216,248.7104203820474L518.708016,248.74654568070696L519.8005440000001,249.12075052018156L522.7139520000001,249.12567255576977L523.6850880000001,248.86306571518406L525.384576,249.01376846160719L525.505968,249.42351335633452L526.112928,249.36839078778283L527.5696320000001,249.45766216954289L531.09,249.32094810786236L531.3327840000001,249.40021271574773L531.5755680000001,249.83063691189182L532.546704,250.1061971672301L534.610368,250.26365292530411L535.2173280000001,250.42678576347504L537.887952,250.82803819244754L538.2521280000001,251.29817092398923L538.859088,251.79167836559324L540.1944000000001,252.06126267905046L540.437184,252.14692419692977L541.165536,252.21617596629602L541.2869280000001,252.62965505781753L542.0152800000001,252.9519324016567L542.8650240000001,252.9770745061121L543.593376,253.19239294451842L543.9575520000001,253.0837767306958L546.021216,253.34217020196047L547.47792,253.62452580934604L547.842096,253.41456784313567L548.6918400000001,253.72388732838473L550.6341120000001,254.1382917656652L550.876896,254.50688536307257L551.6052480000001,254.78625784992832L552.090816,254.3442798712013L554.033088,254.26218789692962L556.096752,254.1835948095486L558.5245920000001,254.28822879969636L560.709648,253.84175333450213L560.952432,253.66601673488066L561.1952160000001,253.9502872384818L561.559392,254.1070966926056L561.923568,254.3552691957512L563.9872320000001,254.60226978337988L565.322544,254.24552954772187L565.443936,254.41865323694174L567.0220320000001,254.77686046512028L570.6637920000001,255.19118656143655L570.906576,255.11777422011062L573.8199840000001,255.4932498104198L574.305552,255.9516850031202L574.5483360000001,256.32042309071244L575.276688,256.6482699589103L575.6408640000001,256.9715940873624L575.883648,257.2393687429792L576.976176,257.51490593247627L577.82592,257.7682313368238L579.4040160000001,257.70973160241414L580.3751520000001,258.0540469458658L581.953248,258.29261441023516L582.1960320000001,258.35479338965547L582.560208,258.4493159694237L584.016912,258.60262555968745L584.50248,258.920752575334L585.1094400000001,259.2315444608862L585.3522240000001,259.5733349883189L586.566144,259.89007057251007L587.051712,260.19364741118574L590.57208,260.487077523804L591.17904,260.7177786642377L592.0287840000001,260.8948980140716L595.184976,260.6194553213105L596.156112,261.02609722764225L597.370032,261.2392307132843L598.341168,261.39052898634304L599.190912,261.5411607438252L599.6764800000001,261.8992010105375L601.011792,262.2470156224699L601.740144,262.16705288242036L602.4684960000001,262.40371647212254L605.13912,262.1456372343273L606.474432,262.3242522806596L607.081392,262.66229719218234L608.1739200000001,262.86464347782936L608.2953120000001,263.1060328825712L609.752016,263.31506841996L611.087328,263.4720503971787L611.4515040000001,263.46096489166024L612.665424,263.7728317330866L618.370848,263.8429963845697L618.9778080000001,263.80557890782086L619.0992,263.78241399882756L620.31312,264.20959166280824L629.174736,264.15734810678947L630.510048,263.8669089346397L630.63144,264.13497261054937L630.8742240000001,264.39910903998043L631.117008,264.29367201800125L631.481184,264.4144168725387L631.602576,264.4150101108869L634.6373760000001,264.5795031890555L635.244336,264.84870519728094L635.608512,264.62386890357766L636.579648,264.85063209724103L637.91496,265.02676524703736L639.007488,265.3868267391536L639.371664,265.368405388744L639.4930560000001,265.5258977642224L641.313936,265.17251081078484L643.2562080000001,265.24510715558483L643.98456,265.4924225704556L644.470128,265.68684669391246L645.5626560000001,266.0086061930586L645.8054400000001,266.2147289451459L646.8979680000001,266.40098724893346L647.383536,266.45352048049733L648.1118880000001,266.65486136059786L648.718848,266.24668629012876L651.8750400000001,266.3750023394329L652.9675680000001,266.34636797262567L654.788448,266.6814075216472L655.6381920000001,267.09576861148594L656.366544,267.253400935075L656.852112,267.5364025370625L656.973504,267.50240490267447L659.2799520000001,267.8373948696756L659.644128,268.0723029633971L660.3724800000001,268.30361219620215L664.0142400000001,268.6431011968L664.7425920000001,268.78462898205845L665.2281600000001,268.9945765819451L666.563472,269.25667844739064L666.8062560000001,269.45426188722183L668.8699200000001,269.35259393474706L668.9913120000001,269.3093501000069L671.2977600000002,269.67449187235246L671.419152,269.93827267121674L671.7833280000001,270.00407392733183L672.8758560000001,270.00406393624746L673.8469920000001,269.7448319294187L674.089776,269.90494699910585L674.211168,270.0618307391939L677.245968,270.3197854463149L677.6101440000001,270.46219494556993L678.945456,270.8042305150154L679.3096320000001,271.069667021315L679.552416,271.4455523181033L679.7952000000001,271.41876230844395L681.2519040000001,271.48513298084896L683.315568,271.58480707957517L685.8648,271.7975185217642L686.714544,271.96823550520094L687.68568,272.30024193513265L688.171248,272.6746256100101L689.020992,272.8502195123155L689.142384,272.9099626428091L689.263776,273.28133214996L690.477696,273.52111911961504L693.6338880000001,273.6147058722696L694.240848,273.7792178514251L696.18312,273.8185509226471L697.5184320000001,273.885661587559L698.004,274.06153257407124L698.1253919999999,274.2443430712565L699.096528,274.4517557125591L699.4607040000001,274.77201391405833L699.5820960000001,275.0709135879698L699.82488,275.2050387439591L700.189056,275.2556872430093L701.2815840000001,275.6175369337298L701.767152,275.95548364890146L702.616896,276.03923687144777L702.738288,276.0351434846443L703.4666400000001,276.17843459023084L704.194992,276.4534083551384L704.4377760000001,276.72488689276827L704.801952,276.6644901245526L709.050672,277.00433013105845L710.5073760000001,276.7821605997095L712.8138240000001,277.14313720359894L713.0566080000001,277.24542807441713L715.3630560000001,277.4635123934947L715.6058400000001,277.5894813945627L715.7272320000001,277.61146156664233L718.0336800000001,277.56196716609946L720.947088,277.75852294748034L721.3112639999999,277.37240982332884L722.8893600000001,277.4757017064419L723.8604960000001,277.6692456647701L724.953024,277.6077073695873L725.3172000000001,277.6416629316109L725.5599840000001,277.7242941351086L725.681376,277.9674545654084L727.380864,278.12214348461646L728.352,278.04538623151956L731.022624,278.01016649295536L731.750976,278.316906686149L732.115152,278.2109442898243L732.9648960000001,278.4197285064364L734.542992,278.0674474285498L734.7857759999999,278.3749316163323L734.9071680000001,278.3560999452741L735.756912,278.5779522663439L737.9419680000001,278.88794890722534L740.733984,278.98804845003394L741.340944,279.28437304580257L743.7687840000001,279.39531050533225L744.011568,279.58238570656624L744.7399200000001,279.82852305280943L747.896112,279.6468160482751L748.5030720000001,279.6873100551471L750.081168,279.87282079482264L750.566736,280.00302954202715L752.751792,280.24910827355006L753.722928,280.57495543519815L756.514944,280.8333819597197L756.8791200000001,281.07673445360865L757.0005120000001,281.297995774343L757.48608,281.59164815655106L757.607472,281.8136019399293L758.0930400000001,281.7358637744513L760.7636640000001,281.8629288955386L763.55568,281.9966086198632L765.133776,281.94454747795555L767.076048,282.20423399759306L768.4113600000001,282.3647710897601L770.3536320000001,282.37753064519444L772.05312,282.29687344524064L772.174512,281.97866374126846L772.538688,282.1738685033004L774.602352,282.3916819081131L775.0879199999999,282.61341503419163L777.51576,282.75550543285567L777.7585440000001,282.9944786620763L779.458032,283.17014468679133L781.76448,283.41460626210545L781.8858720000001,283.221679489548L782.128656,283.42624168976096L782.735616,283.69696199672035L786.134592,283.8470872861179L787.22712,283.9139425057459L788.076864,283.89789703439516L788.562432,284.0631356024056L789.290784,284.3286563666383L790.0191360000001,284.618485205757L790.6260960000001,284.7519017456893L790.990272,284.971661893833L791.2330560000001,284.99681408907014L793.053936,285.2975837227989L794.146464,285.5905481494318L795.1176,285.76434586806266L797.1812639999999,285.99435146885463L797.788224,286.2281495126544L798.031008,286.22555230228835L799.487712,286.2840711319959L799.7304960000001,286.2338863515092L800.458848,285.98513923531726L801.915552,286.03269115961035L802.5225120000001,286.2580961554155L803.736432,286.40850443668853L804.9503520000001,286.58091452119197L808.3493280000001,286.6943829773869L808.592112,286.9869577948073L809.07768,287.24274659780224L810.8985600000001,287.32312237429255L815.8756320000001,287.4077150117201L816.239808,287.67966140542234L816.725376,287.9262038976831L818.4248640000001,287.9713783809429L819.7601760000001,288.2390459762628L820.6099200000001,288.31905712279297L822.673584,288.3699360240541L823.0377600000002,288.61372428637446L823.64472,288.75034025568675L824.2516800000001,288.9153157623791L824.980032,289.14171324602376L826.436736,289.2613358474032L826.558128,289.5549687045988L828.621792,289.70876810534105L828.985968,289.85327786229834L829.8357120000001,289.88951896926517L833.1132960000001,289.8970725752571L833.35608,290.10222216424006L834.2058240000001,290.34402570039725L836.39088,290.59384644861615L836.6336640000001,290.80787383876043L837.483408,290.9468967955622L838.5759360000001,291.11607243735966L839.789856,291.3589182818014L839.911248,291.4724099678404L841.125168,291.5703108313054L841.6107360000001,291.7418724440985L841.7321280000001,291.9672362779829L844.038576,292.23749960616465L844.645536,292.3356184942684L844.88832,292.40744186560113L845.3738880000001,292.65650978880865L846.4664160000001,292.7751027216955L848.6514720000001,292.83718177056977L851.079312,293.07383738560225L851.686272,293.22356114678354L852.7788,292.8280670416283L853.507152,293.0984409629715L853.6285440000001,293.20253615936963L853.749936,293.1925416626999L854.1141120000001,293.45493826040445L854.478288,293.4594560773702L857.148912,293.54957194920394L859.212576,293.78908916232825L859.333968,293.8271038065561L859.8195360000001,294.0506551557247L860.426496,294.34388953588973L861.27624,294.4935619967526L862.368768,294.7342757985339L862.6115520000001,294.86162394826107L863.8254720000001,295.09688809859836L864.5538240000001,295.1299302776733L864.7966080000001,295.3811568297661L865.52496,295.4495646385478L865.767744,295.4373965710563L866.0105280000001,295.5604995464805L867.4672320000001,295.66213045518475L867.710016,295.8562566789507L867.9528,296.09616541363937L870.7448160000001,296.17329564009066L871.837344,296.39950245348615L872.2015200000001,296.5746283319373L874.143792,296.7387490235726L875.357712,296.76400251290954L875.479104,296.6823479561373L875.7218880000001,296.84788071318184L876.45024,296.82057893812924L877.1785920000001,296.678471544438L878.0283360000001,296.5138205598713L878.635296,296.683223116148L879.4850400000001,296.7979812003701L880.213392,296.8437377155085L881.7914880000001,296.91015200073025L884.94768,297.11968890992546L887.37552,297.1916693155477L887.739696,297.3484410978624L888.225264,297.55447185289455L888.346656,297.5757489608553L889.1964000000002,297.54528197099734L891.260064,297.6945926316628L892.595376,297.7815724822615L893.9306880000001,297.74873253502335L894.780432,297.7818958409264L895.5087840000001,297.8664095260576L898.422192,298.06786918973467L904.1276160000001,298.24410962490697L905.0987520000001,298.39112130872354L905.58432,298.50491329067455L907.162416,298.44836875710104L908.497728,298.64984387445367L908.9832960000001,298.8425727090089L909.9544320000001,299.006160087264L910.0758240000001,298.9019242384235L910.5613920000001,299.0447117445319L911.6539200000001,299.0261555933179L911.7753120000001,299.0666786842686L912.989232,299.2799438028474L913.110624,299.34632582746855L913.232016,299.49169064507265L914.203152,299.6995225370268L916.630992,299.8277492760452L919.5444,299.8645161152188L920.029968,299.83038562903744L920.2727520000001,300.00652620293636L920.394144,300.220542479268L920.75832,300.20802312286014L921.9722399999999,300.3467063649467L923.064768,300.3118201280577L923.4289440000001,300.39372776680034L924.6428640000001,300.60004630590146L925.249824,300.74554230751767L929.619936,300.5555114832199L930.7124640000001,300.4241469642162L930.9552480000001,300.38328887555537L931.440816,300.5226787721298L932.1691680000001,300.7736751442185L932.533344,300.9180897187674L933.383088,300.99423554937704L934.3542240000002,301.008341447937L934.7184000000001,301.02440182052374L935.6895360000001,301.2654205450138L936.175104,301.4083014783692L936.660672,301.51103988040245L937.874592,301.7624544148656L937.9959840000001,301.9556423026487L939.4526880000001,302.16218695145193L939.938256,302.2909155958047L940.7880000000001,302.38564896417734L941.2735680000001,302.58494189332646L942.60888,302.7540594153164L944.065584,302.87533953597153L946.0078560000001,303.09295330629266L949.0426560000001,303.28239020935405L950.8635360000001,303.0991179871836L952.563024,303.1426183057463L953.0485920000001,303.1289876298132L953.53416,303.28433076210194L954.505296,303.4490737176641L955.2336480000001,303.415304878727L955.3550400000001,303.24250173853665L957.418704,303.46760544431703L958.5112320000001,303.4554054004179L959.239584,303.48428509693514L960.2107200000002,303.6712837251488L960.5748960000001,303.80509960247343L963.24552,304.0711500448035L965.3091840000001,304.065695533911L965.794752,303.9317776671482L966.765888,303.9615958637486L967.1300640000001,303.9835618311072L967.858416,304.0384820267501L970.0434720000001,304.2678853242918L970.2862560000001,304.40168991224294L972.4713120000001,304.5893848624257L972.9568800000001,304.786267169377L973.321056,304.6789915510835L975.506112,304.6763497551725L975.9916800000001,304.7393664389781L976.8414240000001,304.7732784039326L978.4195200000001,304.78204029879555L979.147872,304.85819991044247L980.8473600000001,304.5723065797841L982.304064,304.5006325901502L983.153808,304.640531440682L984.124944,304.7493457600856L985.09608,304.89241497246815L985.217472,305.0887951557116L985.8244320000001,305.29807875755864L986.3100000000001,305.3804915695881L987.888096,305.581274882974L988.3736640000001,305.7930092491572L990.073152,305.72921486113L991.529856,305.7800717065947L991.651248,305.9814229634082L992.500992,305.9936490144169L993.4721280000001,306.0857980968558L994.20048,306.24809331671736L994.928832,306.40807415391055L995.778576,306.586640206566L996.0213600000001,306.5028576409437L997.1138880000001,306.396532059674L997.356672,306.5538624978513L997.478064,306.4343563039925L999.7845120000001,306.6027303559682L1000.148688,306.72341570314967L1001.241216,306.5736596473761L1002.819312,306.79614385136205L1004.1546240000001,307.04258747502985L1004.5188,307.1828640215431L1005.7327200000001,307.2229713178109L1007.674992,307.38906508430233L1009.0103040000001,307.58106847170455L1011.19536,307.69366980784207L1012.40928,307.6670433868024L1012.530672,307.7361714314949L1013.137632,307.9438635271112L1013.2590240000001,307.98242920580464L1014.108768,308.10513942215704L1014.594336,308.2967566857529L1014.715728,308.2748052025736L1014.83712,308.4471630440948L1017.507744,308.60602748891745L1017.6291360000001,308.8129892505767L1018.1147040000001,308.81816011191194L1018.357488,308.7339274951451L1019.450016,308.72806248734435L1019.935584,308.85981949567173L1020.2997600000001,308.8500283813531L1023.455952,308.94981442426285L1023.577344,309.06048738692164L1024.669872,309.1949914057069L1025.0340480000002,309.0846002170034L1025.519616,309.2855172179044L1025.883792,308.85506942348115L1027.097712,308.90819290346394L1027.219104,308.8725120492479L1027.340496,308.9735256530355L1027.461888,308.98390158464895L1028.0688480000001,309.09563803615254L1028.7972000000002,309.3157829929391L1029.282768,309.38997402183924L1029.525552,309.54675777222064L1031.467824,309.5561130611717L1032.196176,309.71238767037573L1032.3175680000002,309.8737894182991L1033.288704,309.9192479935853L1034.0170560000001,309.8362968766073L1035.595152,310.05208907319843L1036.444896,310.0257664785825L1037.6588160000001,310.1019290031926L1040.815008,310.20715042403185L1043.6070240000001,310.14409180219184L1044.4567680000002,310.3330472147485L1045.18512,310.38293893354967L1045.549296,310.55846505749383L1049.312448,310.66071989628125L1049.4338400000001,310.877387983948L1051.3761120000001,310.95349674548106L1051.497504,310.9149248127217L1052.711424,311.1016505083634L1053.0756000000001,311.23348286150167L1053.3183840000002,311.2507405226275L1054.653696,311.1519635979759L1055.382048,311.2454032666511L1055.7462240000002,311.2807039979763L1056.231792,311.51306352106786L1058.174064,311.68703433450594L1058.416848,311.8569801195885L1058.53824,311.98861969868574L1059.023808,312.1163402471316L1059.3879840000002,312.30864725521747L1059.630768,312.376214901029L1061.330256,312.5426233209067L1061.815824,312.5953160210319L1063.1511360000002,312.5058772279322L1063.515312,312.63580291274485L1065.943152,312.7959402744521L1066.9142880000002,312.85703593635185L1068.128208,312.9305371900362L1068.2496,312.99670007145846L1069.584912,313.15043263289647L1072.376928,312.8261159164571L1072.983888,312.9960183403121L1075.0475520000002,313.12442963636596L1077.839568,313.1971903292628L1078.0823520000001,313.3554290042787L1080.3888000000002,313.3920456412845L1080.510192,313.5711335071488L1080.99576,313.6678894247724L1081.481328,313.68789795401887L1083.666384,313.7647695337115L1084.394736,313.79703172250584L1084.516128,313.99972266824903L1089.614592,314.04752738522626L1090.585728,314.24244253795626L1091.5568640000001,314.2702846204222L1091.6782560000001,314.40789080061273L1093.7419200000002,314.46905823667703L1094.713056,314.62915523664225L1095.3200160000001,314.6173914037521L1095.805584,314.2911615868937L1097.140896,314.2287656549578L1098.5976,314.27944250480056L1098.961776,314.41640902960523L1099.2045600000001,314.2235217792287L1099.6901280000002,314.353359192161L1100.661264,314.4019408016454L1105.395552,314.38181638423725L1107.944784,314.49532462412327L1108.673136,314.5119613990533L1108.7945280000001,314.5180274540184L1109.037312,314.6223234255718L1110.8581920000001,314.7930052238325L1111.707936,314.87569334638465L1114.4999520000001,315.0404911928903L1114.7427360000001,315.05442424818796L1114.98552,315.1557652440089L1116.320832,315.2568769074354L1116.6850080000002,315.3507736202388L1118.748672,315.4880953159625L1119.477024,315.4611348729524L1121.05512,315.5719551644994L1123.48296,315.7469871363638L1124.5754880000002,315.8920263203695L1126.274976,315.9601784608126L1126.5177600000002,316.06295621324887L1126.7605440000002,315.9447959527056L1127.853072,315.97105281734895L1128.9456000000002,316.10833529274214L1129.9167360000001,316.2140872958685L1132.344576,316.38027690880165L1132.5873600000002,316.5166430687566L1132.951536,316.7150354370168L1133.19432,316.6309396319387L1133.9226720000001,316.7095833556188L1135.379376,316.8364420593672L1135.500768,316.96992716828703L1136.3505120000002,317.0979372688614L1136.714688,317.2774145257431L1137.321648,317.23582211957176L1138.171392,317.39073779626403L1138.414176,317.46954679008996L1144.605168,317.38125848456923L1145.94048,317.54941740401904L1146.304656,317.6879857560868L1146.911616,317.9052640385871L1147.882752,317.93837644913725L1148.853888,318.03146419153165L1149.339456,318.08833970450075L1149.460848,318.2153479536281L1149.7036320000002,318.24103493542776L1150.067808,318.43782104324407L1150.9175520000001,318.6136490692198L1151.4031200000002,318.65404018423595L1151.888688,318.80710357984924L1152.9812160000001,318.94446475795655L1153.102608,319.0337445768808L1153.709568,319.19445857545963L1154.195136,319.3173240005876L1154.316528,319.4688800533707L1156.137408,319.55371087584734L1159.779168,319.66898290466327L1159.90056,319.8078103430217L1161.357264,319.9582321912127L1162.207008,320.1388994454289L1162.813968,320.3106875420415L1164.5134560000001,320.4142450251006L1165.605984,320.61421996800675L1166.212944,320.69345404569043" style="fill: none;" fill="none"></path></g></g></g></g><g opacity="0.2"><g><g><g><path stroke="rgb(255, 112, 67)" stroke-width="2px" d="M123.69844800000001,-229.2857127530234L124.4268,5.357124975749457L126.369072,-175.71427140917103L127.947168,-110.35713979176109L128.31134400000002,46.07139740671437L130.132224,-1.0714275496346204L130.4964,62.14284258229395L132.92424,-54.642868893487105L133.895376,-39.64287042617792L134.38094400000003,222.8571346827916L136.808784,190.71427626269207L138.38688000000002,106.07142320701058L140.329152,-78.21431330272128L140.693328,41.785738297871205L141.78585600000002,96.42856248787473L143.121168,161.78572603634427L143.72812800000003,214.28572067192624L143.970912,-381.4285908426557L144.577872,230.35713391644617L149.31216,-100.71427907262517L149.91912000000002,83.57142550604686L151.74,155.35714157990049L152.468352,-94.28572654724115L153.075312,68.57142703873774L153.925056,135.00000536441806L154.653408,156.42855635711126L156.959856,114.64286914893563L158.902128,192.85713774817333L159.144912,-90.00000357627863L160.116048,113.57142244066517L161.572752,203.57141324451993L162.66528000000002,228.2142724309649L163.63641600000003,241.07144134385248L165.578688,156.42855635711126L166.06425600000003,290.3571277856827L172.619424,91.07142473970146L172.74081600000002,41.785738297871205L174.80447999999998,-17.14284079415455L175.16865600000003,68.57142703873774L175.532832,-16.071426016943747L177.35371200000003,143.5714193752834L177.71788800000002,120.00000689710896L177.83928,-266.78574085235596L179.0532,250.71427013192863L181.11686400000002,205.7142747300012L181.35964800000002,175.71427779538297L183.90888,349.28570687770844L185.97254400000003,166.0714170762471L186.57950400000001,275.35712931837355L189.85708800000003,244.28571760654452L191.07100800000003,239.999994635582L191.79936,176.7857245036534L192.042144,211.0714444092342L192.64910400000002,156.42855635711126L192.770496,348.2142921004977L194.591376,314.99998697212766L196.776432,118.92856018883845L197.019216,196.07141401086537L198.47592000000003,188.5714147772108L199.32566400000002,266.7857153075082L199.447056,172.50000153269087L199.68984000000003,280.71429899760653L200.05401600000002,296.78571224212646L200.29680000000002,218.57144364288877L201.753504,223.92858139106207L202.967424,257.1428545883724L204.424128,276.428576026644L205.031088,183.2142770290375L208.18728000000002,136.07142014162883L208.67284800000002,274.28571454116275L209.15841600000002,226.07144287654333L209.279808,206.78572143827168L210.12955200000002,261.42857755933494L211.22208,294.6428507566452L211.707648,229.2857191392354L212.19321600000004,288.2142982312611L212.80017600000002,127.50000613076352L213.285744,122.14286838259022L214.378272,-160.71427294186174L214.86384,249.64285535471782L215.106624,288.2142982312611L215.349408,282.85712855202814L216.19915200000003,206.78572143827168L216.806112,219.64285842009954L217.04889599999998,290.3571277856827L217.655856,243.21427089827404L217.89864,242.14285612106326L218.38420800000003,226.07144287654333L218.869776,180.0000007663455L219.59812800000003,337.5000006386212L219.71952000000002,243.21427089827404L222.511536,291.4285744939532L222.997104,331.0714321477073L227.00304000000003,202.49999846730915L227.852784,73.92856478691107L228.58113600000001,342.85713838679453L230.28062400000002,218.57144364288877L230.766192,168.21427856172835L231.615936,177.85713928086423L231.85872,321.42857142857144L232.587072,217.49999693461828L232.829856,316.0714336803982L234.52934400000004,256.0714398111616L234.65073600000002,223.92858139106207L235.86465600000002,323.5714329140527L236.228832,307.4999877384731L237.32136000000003,92.14287144797191L237.806928,216.4285821574075L238.29249600000003,190.71427626269207L239.385024,120.00000689710896L239.50641600000003,327.8571399194854L240.234768,16.07140047209606L240.35616000000002,313.9285721949169L240.96312000000003,250.71427013192863L243.14817600000003,249.64285535471782L243.51235200000002,39.642844881330234L244.60488000000004,223.92858139106207L248.24664,188.5714147772108L249.82473600000003,246.42857909202579L250.553088,219.64285842009954L250.91726400000002,324.64286365679334L251.16004800000002,223.92858139106207L251.64561600000002,299.99998850481853L252.37396800000002,123.214283159801L252.980928,204.64285995279042L254.194848,343.92856912953516L254.9232,265.71430053029746L255.53016,162.85714081355505L256.74408,44.99998262950356L257.35104,365.3571360877582L261.84254400000003,284.9999900375094L262.328112,328.92857066222604L262.44950400000005,340.7142928668431L262.570896,308.5714344467436L264.755952,311.78571070943565L266.21265600000004,289.28571300847193L266.33404800000005,318.21429516587943L267.0624,309.6428492239544L267.912144,23.57143163681036L271.068336,301.071435213089L272.52504000000005,305.3571581840515L273.86035200000003,357.85713685410366L274.224528,254.99999310289115L274.588704,303.21429669857025L277.016544,334.2857084103993L277.74489600000004,290.3571277856827L278.59464,283.9285752602986L279.322992,170.3571400472096L281.265264,330.00000140496667L281.62944000000005,322.5000021713121L282.96475200000003,215.35713544913702L283.328928,286.07143674577986L283.693104,317.1428484576089L283.814496,309.6428492239544L289.641312,332.14286289044793L290.005488,250.71427013192863L290.369664,96.42856248787473L290.491056,232.49999540192744L293.16168,254.99999310289115L294.618384,377.1428582923753L294.861168,358.9285675968443L295.346736,340.7142928668431L295.832304,163.92855559076582L296.317872,230.35713391644617L299.35267200000004,212.14285918644498L299.474064,246.42857909202579L300.809376,323.5714329140527L301.780512,244.28571760654452L302.26608000000004,355.7142913341522L302.508864,337.5000006386212L304.57252800000003,258.2143012966429L306.393408,228.2142724309649L306.878976,193.92858445644382L309.91377600000004,311.78571070943565L311.85604800000004,7.500018392290428L311.97744,356.78572207689285L313.79832000000005,338.57143138136183L314.28388800000005,377.1428582923753L316.22616000000005,247.49999386923656L316.347552,334.2857084103993L317.925648,238.92857985837122L319.018176,265.71430053029746L319.625136,227.14285765375413L320.232096,383.5714267832892L320.596272,250.71427013192863L321.203232,358.9285675968443L321.56740800000006,176.7857245036534L323.024112,306.4285729612623L323.99524800000006,365.3571360877582L324.84499200000005,290.3571277856827L325.694736,227.14285765375413L326.787264,277.4999908038548L327.27283200000005,244.28571760654452L327.515616,168.21427856172835L327.75840000000005,279.6428522893361L328.122576,341.7857076440539L328.97232,213.21427396365576L330.064848,218.57144364288877L331.278768,336.42856989588057L331.764336,263.5714390448162L332.00712000000004,310.71429593222484L332.37129600000003,237.85713315010074L332.978256,275.35712931837355L333.34243200000003,324.64286365679334L333.46382400000005,161.78572603634427L333.585216,311.78571070943565L335.89166400000005,292.49998927116394L336.98419200000006,178.92858598913466L337.71254400000004,124.28572986807148L338.562288,264.64285382202695L338.68368000000004,298.9285737276077L339.776208,373.9285660641534L340.62595200000004,190.71427626269207L343.175184,317.1428484576089L343.66075200000006,299.99998850481853L344.87467200000003,182.14286225182676L345.36024,207.85713621548246L346.452768,236.78571837288996L348.030864,259.2857160738537L348.39504,319.2857099430902L349.123392,96.42856248787473L349.366176,341.7857076440539L353.49350400000003,339.64286212410246L354.221856,367.49999757323945L356.28552,-3.2142571040561734L356.52830400000005,228.2142724309649L357.49944,284.9999900375094L357.86361600000004,311.78571070943565L358.1064,221.7857199055808L360.29145600000004,335.35713915313994L361.99094400000007,236.78571837288996L362.23372800000004,264.64285382202695L364.4187840000001,305.3571581840515L364.904352,161.78572603634427L365.875488,382.4999960405486L367.939152,38.571430104119486L368.66750400000006,169.28572526999884L371.580912,331.0714321477073L373.03761600000007,229.2857191392354L373.15900800000003,331.0714321477073L373.523184,326.7857091767448L373.64457600000003,177.85713928086423L373.88736,121.07142167431974L374.130144,268.9285767929895L374.61571200000003,379.28571977785657L375.10128000000003,182.14286225182676L375.951024,184.28572373730802L377.771904,307.4999877384731L381.899232,374.99999680689405L382.38480000000004,361.07142908232555L382.627584,204.64285995279042L383.23454399999997,235.71427166461947L384.327072,353.57142984867096L385.78377600000005,288.2142982312611L386.99769599999996,257.1428545883724L387.24048000000005,264.64285382202695L387.483264,339.64286212410246L387.604656,202.49999846730915L388.090224,348.2142921004977L388.4544,292.49998927116394L389.42553599999997,239.999994635582L389.911104,339.64286212410246L391.610592,344.9999998722758L392.338944,231.42858062471666L392.945904,388.92856453146254L393.067296,216.4285821574075L393.31008,283.9285752602986L393.674256,407.14285522699356L394.159824,120.00000689710896L394.281216,288.2142982312611L395.13096,284.9999900375094L395.495136,335.35713915313994L396.102096,243.21427089827404L398.408544,306.4285729612623L399.62246400000004,305.3571581840515L400.350816,362.1428598250662L401.07916800000004,335.35713915313994L401.564736,384.64285752602984L403.02144000000004,318.21429516587943L403.14283200000006,365.3571360877582L406.177632,376.0714275496347L407.27016000000003,356.78572207689285L409.33382400000005,322.5000021713121L411.5188800000001,302.1428499902998L411.64027200000004,334.2857084103993L411.883056,192.85713774817333L413.09697600000004,373.9285660641534L413.58254400000004,208.92858292375294L415.88899200000003,238.92857985837122L417.224304,353.57142984867096L418.19544,281.78571377481734L418.92379200000005,297.85712701933727L419.045184,290.3571277856827L419.28796800000003,276.428576026644L419.53075200000006,238.92857985837122L420.137712,283.9285752602986L423.17251200000004,247.49999386923656L423.29390400000005,336.42856989588057L424.507824,288.2142982312611L424.750608,301.071435213089L425.357568,213.21427396365576L427.05705600000005,336.42856989588057L427.785408,349.28570687770844L428.87793600000003,368.5714283159801L430.698816,336.42856989588057L431.184384,337.5000006386212L431.427168,182.14286225182676L433.00526400000007,314.99998697212766L434.461968,342.85713838679453L435.918672,400.71428673607966L437.132592,228.2142724309649L437.8609440000001,272.1428530556815L439.92460800000003,346.0714306150164L440.65296,340.7142928668431L440.774352,166.0714170762471L441.745488,105.00000842979978L442.47384,384.64285752602984L443.202192,346.0714306150164L443.809152,404.9999937415123L446.60116800000003,342.85713838679453L447.450912,305.3571581840515L448.05787200000003,312.8571574177061L449.63596800000005,352.4999991059303L450.48571200000004,193.92858445644382L452.306592,257.1428545883724L453.763296,404.9999937415123L454.127472,170.3571400472096L455.82696000000004,333.21429363318856L455.948352,381.42856529780795L456.19113600000003,313.9285721949169L460.07568000000003,327.8571399194854L460.197072,410.35714745521545L460.318464,304.28571147578106L461.16820800000005,216.4285821574075L462.50352000000004,260.3571308510644L464.3244,415.7142852033888L464.93136000000004,276.428576026644L468.57312,374.99999680689405L470.151216,260.3571308510644L471.243744,284.9999900375094L472.336272,331.0714321477073L473.06462400000004,263.5714390448162L473.55019200000004,370.71428980146135L475.613856,196.07141401086537L475.85664,401.7857174788203L475.97803200000004,221.7857199055808L477.434736,319.2857099430902L479.619792,-31.071424484252873L481.68345600000004,263.5714390448162L482.65459200000004,312.8571574177061L485.446608,298.9285737276077L486.53913600000004,332.14286289044793L486.78192000000007,333.21429363318856L487.02470400000004,289.28571300847193L487.51027200000004,394.2857182451657L487.63166400000006,282.85712855202814L488.96697600000005,143.5714193752834L489.33115200000003,269.9999915702002L490.30228800000003,342.85713838679453L490.666464,158.57141784259252L493.579872,206.78572143827168L494.06544,352.4999991059303L494.30822400000005,274.28571454116275L496.12910400000004,157.50000306538175L497.7072,348.2142921004977L500.49921600000005,347.14286135775706L502.32009600000004,364.28572131054744L502.441488,361.07142908232555L503.29123200000004,283.9285752602986L503.89819200000005,267.85713008471896L504.50515200000007,328.92857066222604L504.99072,312.8571574177061L505.23350400000004,383.5714267832892L507.17577600000004,365.3571360877582L509.360832,397.49999450785776L509.48222400000003,278.57143751212527L510.331968,399.642855993339L510.69614400000006,266.7857153075082L513.609552,186.42858522278928L513.973728,292.49998927116394L514.823472,372.8571353214128L515.1876480000001,306.4285729612623L515.30904,328.92857066222604L515.551824,197.14286071913585L515.673216,283.9285752602986L518.708016,260.3571308510644L519.8005440000001,369.6428590587207L522.7139520000001,250.71427013192863L523.6850880000001,163.92855559076582L525.384576,297.85712701933727L525.505968,382.4999960405486L526.112928,231.42858062471666L527.5696320000001,278.57143751212527L531.09,204.64285995279042L531.3327840000001,275.35712931837355L531.5755680000001,391.0714260169438L532.546704,340.7142928668431L534.610368,302.1428499902998L535.2173280000001,304.28571147578106L537.887952,383.5714267832892L538.859088,415.7142852033888L540.1944000000001,341.7857076440539L540.437184,280.71429899760653L541.165536,275.35712931837355L541.2869280000001,391.0714260169438L542.0152800000001,361.07142908232555L542.8650240000001,261.42857755933494L543.593376,325.71427843400414L543.9575520000001,216.4285821574075L546.021216,340.7142928668431L547.47792,349.28570687770844L547.842096,182.14286225182676L548.6918400000001,358.9285675968443L550.6341120000001,395.3571489879063L550.876896,380.3571505205972L551.6052480000001,350.35713762044907L552.090816,102.85714694431852L554.033088,226.07144287654333L556.096752,227.14285765375413L558.5245920000001,290.3571277856827L560.709648,99.6428706816265L560.952432,192.85713774817333L561.1952160000001,352.4999991059303L561.559392,308.5714344467436L561.923568,340.7142928668431L563.9872320000001,340.7142928668431L565.322544,129.64286761624479L565.443936,314.99998697212766L567.0220320000001,380.3571505205972L570.6637920000001,400.71428673607966L570.906576,229.2857191392354L573.8199840000001,387.85714975425174L574.5483360000001,386.7857190115111L575.276688,372.8571353214128L575.6408640000001,371.785720544202L575.883648,352.4999991059303L576.976176,355.7142913341522L577.82592,348.2142921004977L579.4040160000001,236.78571837288996L580.3751520000001,381.42856529780795L581.953248,343.92856912953516L582.1960320000001,280.71429899760653L582.560208,292.49998927116394L584.016912,313.9285721949169L584.50248,373.9285660641534L585.1094400000001,371.785720544202L585.3522240000001,383.5714267832892L586.566144,374.99999680689405L587.051712,370.71428980146135L590.57208,367.49999757323945L591.17904,344.9999998722758L592.0287840000001,325.71427843400414L595.184976,159.642864550863L596.156112,410.35714745521545L597.370032,339.64286212410246L598.341168,317.1428484576089L599.190912,317.1428484576089L599.6764800000001,394.2857182451657L601.011792,391.0714260169438L601.740144,232.49999540192744L602.4684960000001,350.35713762044907L605.13912,166.0714170762471L606.474432,328.92857066222604L607.081392,388.92856453146254L608.1739200000001,338.57143138136183L608.2953120000001,353.57142984867096L609.752016,341.7857076440539L611.087328,322.5000021713121L611.4515040000001,259.2857160738537L612.665424,381.42856529780795L618.370848,290.3571277856827L618.9778080000001,249.64285535471782L619.0992,254.99999310289115L620.31312,426.4285766652652L629.174736,244.28571760654452L630.510048,153.21428009441922L630.63144,366.4285668304988L630.8742240000001,365.3571360877582L631.117008,223.92858139106207L631.481184,310.71429593222484L631.602576,264.64285382202695L634.6373760000001,327.8571399194854L635.244336,368.5714283159801L635.608512,177.85713928086423L636.579648,352.4999991059303L637.91496,333.21429363318856L639.007488,404.9999937415123L639.371664,258.2143012966429L639.4930560000001,326.7857091767448L641.313936,127.50000613076352L643.2562080000001,293.57143597943445L643.98456,362.1428598250662L644.470128,341.7857076440539L645.5626560000001,392.14285675968443L645.8054400000001,347.14286135775706L646.8979680000001,339.64286212410246L647.383536,287.14285152299067L648.1118880000001,346.0714306150164L648.718848,105.00000842979978L651.8750400000001,317.1428484576089L652.9675680000001,254.99999310289115L654.788448,399.642855993339L655.6381920000001,431.78571441343854L656.366544,330.00000140496667L656.852112,380.3571505205972L656.973504,253.92857832568035L659.2799520000001,401.7857174788203L659.644128,362.1428598250662L660.3724800000001,361.07142908232555L664.0142400000001,404.9999937415123L664.7425920000001,325.71427843400414L665.2281600000001,353.57142984867096L666.563472,374.99999680689405L666.8062560000001,349.28570687770844L668.8699200000001,228.2142724309649L668.9913120000001,251.7857168401991L671.2977600000002,417.85714668887005L671.419152,377.1428582923753L671.7833280000001,296.78571224212646L672.8758560000001,269.9999915702002L673.8469920000001,163.92855559076582L674.089776,335.35713915313994L674.211168,334.2857084103993L677.245968,376.0714275496347L677.6101440000001,328.92857066222604L678.945456,411.4285781979561L679.552416,426.4285766652652L679.7952000000001,260.3571308510644L681.2519040000001,298.9285737276077L683.315568,312.8571574177061L685.8648,359.9999983395849L686.714544,342.85713838679453L687.68568,410.35714745521545L688.171248,428.57142218521665L689.020992,346.0714306150164L689.142384,297.85712701933727L689.263776,428.57142218521665L690.477696,373.9285660641534L693.6338880000001,312.8571574177061L694.240848,342.85713838679453L696.18312,290.3571277856827L697.5184320000001,302.1428499902998L698.004,348.2142921004977L698.1253919999999,351.4285683631897L699.096528,362.1428598250662L699.4607040000001,410.35714745521545L699.5820960000001,401.7857174788203L699.82488,332.14286289044793L700.189056,296.78571224212646L701.2815840000001,429.6428529279573L701.767152,419.9999922088214L702.616896,311.78571070943565L702.738288,274.28571454116275L703.4666400000001,337.5000006386212L704.194992,394.2857182451657L704.4377760000001,393.21428750242507L704.801952,250.71427013192863L709.050672,423.2142844370433L710.5073760000001,181.07141554355624L712.8138240000001,432.8571451561792L713.0566080000001,321.42857142857144L715.3630560000001,371.785720544202L715.6058400000001,332.14286289044793L715.7272320000001,287.14285152299067L718.0336800000001,256.0714398111616L720.947088,363.2142905678068L721.3112639999999,109.28569946970265L722.8893600000001,322.5000021713121L723.8604960000001,362.1428598250662L724.953024,250.71427013192863L725.3172000000001,292.49998927116394L725.5599840000001,313.9285721949169L725.681376,384.64285752602984L727.380864,346.0714306150164L728.352,244.28571760654452L731.022624,262.4999923365457L731.750976,413.5714237179075L732.115152,231.42858062471666L732.9648960000001,370.71428980146135L734.542992,122.14286838259022L734.7857759999999,414.64285446064815L734.9071680000001,269.9999915702002L735.756912,377.1428582923753L737.9419680000001,416.7857159461294L740.733984,323.5714329140527L741.340944,411.4285781979561L743.7687840000001,328.92857066222604L744.011568,363.2142905678068L744.7399200000001,389.9999952742032L747.896112,198.21427549634663L748.5030720000001,297.85712701933727L750.081168,363.2142905678068L750.566736,338.57143138136183L752.751792,391.0714260169438L757.607472,382.4999960405486L758.0930400000001,246.42857909202579L760.7636640000001,339.64286212410246L763.55568,342.85713838679453L765.133776,258.2143012966429L767.076048,400.71428673607966L768.4113600000001,355.7142913341522L770.3536320000001,288.2142982312611L772.05312,245.3571323837553L772.174512,136.07142014162883L772.538688,371.785720544202L774.602352,382.4999960405486L775.0879199999999,384.64285752602984L777.51576,348.2142921004977L777.7585440000001,393.21428750242507L779.458032,364.28572131054744L781.76448,396.42856376511713L781.8858720000001,193.92858445644382L782.128656,378.21428903511594L782.735616,409.2857167124748L786.134592,353.57142984867096L787.22712,314.99998697212766L788.076864,276.428576026644L788.562432,361.07142908232555L789.290784,408.2142859697342L790.0191360000001,419.9999922088214L790.6260960000001,347.14286135775706L790.990272,387.85714975425174L791.2330560000001,296.78571224212646L793.053936,426.4285766652652L794.146464,423.2142844370433L795.1176,367.49999757323945L797.1812639999999,394.2857182451657L797.788224,396.42856376511713L798.031008,284.9999900375094L799.487712,313.9285721949169L799.7304960000001,262.4999923365457L800.458848,168.21427856172835L801.915552,308.5714344467436L802.5225120000001,393.21428750242507L803.736432,357.85713685410366L804.9503520000001,368.5714283159801L808.3493280000001,340.7142928668431L808.592112,426.4285766652652L809.07768,409.2857167124748L810.8985600000001,325.71427843400414L815.8756320000001,327.8571399194854L816.239808,417.85714668887005L816.725376,406.07142448425293L818.4248640000001,309.6428492239544L819.7601760000001,416.7857159461294L820.6099200000001,326.7857091767448L822.673584,312.8571574177061L823.0377600000002,406.07142448425293L823.64472,354.6428605914116L824.2516800000001,368.5714283159801L824.980032,398.5714252505984L826.436736,347.14286135775706L826.558128,431.78571441343854L828.621792,364.28572131054744L828.985968,359.9999983395849L829.8357120000001,307.4999877384731L833.1132960000001,293.57143597943445L833.35608,389.9999952742032L836.6336640000001,395.3571489879063L837.483408,358.9285675968443L838.5759360000001,373.9285660641534L839.789856,410.35714745521545L839.911248,347.14286135775706L841.125168,339.64286212410246L841.6107360000001,376.0714275496347L844.038576,425.3571459225246L844.645536,340.7142928668431L844.88832,327.8571399194854L845.3738880000001,415.7142852033888L846.4664160000001,351.4285683631897L848.6514720000001,323.5714329140527L851.079312,410.35714745521545L851.686272,367.49999757323945L852.7788,96.42856248787473L853.507152,427.50000740800584L853.6285440000001,344.9999998722758L853.749936,288.2142982312611L854.1141120000001,424.28571517978395L854.478288,295.7142974649157L857.148912,338.57143138136183L859.212576,413.5714237179075L859.333968,312.8571574177061L859.8195360000001,406.07142448425293L860.426496,441.42857513257434L861.27624,369.6428590587207L862.368768,415.7142852033888L862.6115520000001,358.9285675968443L863.8254720000001,413.5714237179075L864.5538240000001,311.78571070943565L864.7966080000001,422.1428536943027L865.52496,330.00000140496667L865.767744,289.28571300847193L866.0105280000001,357.85713685410366L867.4672320000001,347.14286135775706L867.710016,394.2857182451657L867.9528,417.85714668887005L870.7448160000001,335.35713915313994L871.837344,411.4285781979561L874.143792,380.3571505205972L875.357712,309.6428492239544L875.479104,254.99999310289115L875.7218880000001,381.42856529780795L876.45024,282.85712855202814L877.1785920000001,223.92858139106207L878.0283360000001,212.14285918644498L878.635296,383.5714267832892L879.4850400000001,355.7142913341522L880.213392,320.3571566513607L881.7914880000001,331.0714321477073L884.94768,404.9999937415123L887.37552,334.2857084103993L887.739696,378.21428903511594L888.225264,403.92857896430155L888.346656,308.5714344467436L889.1964000000002,281.78571377481734L891.260064,374.99999680689405L892.595376,342.85713838679453L893.9306880000001,280.71429899760653L894.780432,314.99998697212766L895.5087840000001,341.7857076440539L898.422192,402.8571482215609L904.1276160000001,389.9999952742032L905.0987520000001,374.99999680689405L905.58432,357.85713685410366L907.162416,268.9285767929895L908.497728,403.92857896430155L909.9544320000001,384.64285752602984L910.0758240000001,244.28571760654452L910.5613920000001,373.9285660641534L911.6539200000001,289.28571300847193L911.7753120000001,320.3571566513607L912.989232,411.4285781979561L913.110624,334.2857084103993L913.232016,376.0714275496347L914.203152,409.2857167124748L916.630992,367.49999757323945L919.5444,319.2857099430902L920.029968,281.78571377481734L920.2727520000001,393.21428750242507L920.394144,413.5714237179075L920.75832,293.57143597943445L921.9722399999999,373.9285660641534L923.064768,281.78571377481734L923.4289440000001,343.92856912953516L924.6428640000001,410.35714745521545L925.249824,378.21428903511594L929.619936,199.28572220461712L930.7124640000001,230.35713391644617L930.9552480000001,278.57143751212527L931.440816,374.99999680689405L932.1691680000001,435.00000664166043L932.533344,378.21428903511594L933.383088,341.7857076440539L934.3542240000002,308.5714344467436L934.7184000000001,309.6428492239544L935.6895360000001,430.7142836706979L936.175104,378.21428903511594L936.660672,356.78572207689285L937.874592,437.1428521616118L939.4526880000001,413.5714237179075L939.938256,371.785720544202L940.7880000000001,353.57142984867096L941.2735680000001,410.35714745521545L942.60888,394.2857182451657L944.065584,368.5714283159801L946.0078560000001,421.07142295156206L949.0426560000001,406.07142448425293L950.8635360000001,203.57141324451993L952.563024,326.7857091767448L953.0485920000001,295.7142974649157L953.53416,387.85714975425174L954.505296,393.21428750242507L955.2336480000001,284.9999900375094L955.3550400000001,208.92858292375294L957.418704,426.4285766652652L958.5112320000001,296.78571224212646L959.239584,319.2857099430902L960.2107200000002,406.07142448425293L963.24552,450.00000510896956L965.3091840000001,301.071435213089L965.794752,230.35713391644617L966.765888,320.3571566513607L967.1300640000001,316.0714336803982L967.858416,334.2857084103993L970.0434720000001,430.7142836706979L972.9568800000001,413.5714237179075L973.321056,245.3571323837553L975.506112,303.21429669857025L975.9916800000001,339.64286212410246L976.8414240000001,323.5714329140527L978.4195200000001,309.6428492239544L979.147872,347.14286135775706L980.8473600000001,145.71428086076466L982.304064,264.64285382202695L983.153808,382.4999960405486L984.124944,365.3571360877582L985.09608,384.64285752602984L985.8244320000001,422.1428536943027L986.3100000000001,351.4285683631897L987.888096,417.85714668887005L988.3736640000001,424.28571517978395L990.073152,269.9999915702002L991.529856,334.2857084103993L991.651248,418.9285774316107L992.500992,312.8571574177061L993.4721280000001,357.85713685410366L994.20048,397.49999450785776L995.778576,407.14285522699356L996.0213600000001,259.2857160738537L997.1138880000001,246.42857909202579L997.356672,395.3571489879063L997.478064,238.92857985837122L999.7845120000001,401.7857174788203L1000.148688,374.99999680689405L1001.241216,221.7857199055808L1002.819312,432.8571451561792L1004.5188,386.7857190115111L1005.7327200000001,330.00000140496667L1007.674992,401.7857174788203L1009.0103040000001,416.7857159461294L1011.19536,371.785720544202L1012.40928,292.49998927116394L1012.530672,347.14286135775706L1013.137632,426.4285766652652L1013.2590240000001,330.00000140496667L1014.108768,378.21428903511594L1014.594336,417.85714668887005L1014.715728,295.7142974649157L1014.83712,407.14285522699356L1017.6291360000001,427.50000740800584L1018.1147040000001,311.78571070943565L1018.357488,260.3571308510644L1019.450016,305.3571581840515L1019.935584,384.64285752602984L1020.2997600000001,303.21429669857025L1023.455952,366.4285668304988L1023.577344,372.8571353214128L1024.669872,386.7857190115111L1025.0340480000002,245.3571323837553L1025.519616,425.3571459225246L1025.883792,60.0000130278724L1027.097712,339.64286212410246L1027.219104,288.2142982312611L1027.340496,367.49999757323945L1027.461888,314.99998697212766L1028.0688480000001,373.9285660641534L1028.7972000000002,437.1428521616118L1029.282768,352.4999991059303L1029.525552,400.71428673607966L1031.467824,314.99998697212766L1032.196176,400.71428673607966L1032.3175680000002,403.92857896430155L1033.288704,336.42856989588057L1034.0170560000001,261.42857755933494L1035.595152,436.0714214188712L1036.444896,294.6428507566452L1037.6588160000001,354.6428605914116L1040.815008,371.785720544202L1043.6070240000001,273.214299763952L1044.4567680000002,421.07142295156206L1045.18512,339.64286212410246L1045.549296,413.5714237179075L1049.312448,370.71428980146135L1049.4338400000001,438.21428290435244L1051.3761120000001,355.7142913341522L1051.497504,288.2142982312611L1052.711424,421.07142295156206L1053.0756000000001,388.92856453146254L1053.3183840000002,321.42857142857144L1054.653696,252.8571316174099L1055.382048,366.4285668304988L1055.7462240000002,332.14286289044793L1056.231792,448.92857436622893L1059.3879840000002,426.4285766652652L1059.630768,352.4999991059303L1061.330256,411.4285781979561L1061.815824,343.92856912953516L1063.1511360000002,259.2857160738537L1063.515312,389.9999952742032L1065.943152,408.2142859697342L1066.9142880000002,349.28570687770844L1068.128208,356.78572207689285L1068.2496,352.4999991059303L1069.584912,404.9999937415123L1072.376928,118.92856018883845L1072.983888,414.64285446064815L1075.0475520000002,389.9999952742032L1077.839568,356.78572207689285L1078.0823520000001,408.2142859697342L1080.3888000000002,335.35713915313994L1080.510192,421.07142295156206L1080.99576,371.785720544202L1081.481328,325.71427843400414L1083.666384,359.9999983395849L1084.394736,333.21429363318856L1084.516128,436.0714214188712L1089.614592,342.85713838679453L1090.585728,431.78571441343854L1091.5568640000001,331.0714321477073L1091.6782560000001,397.49999450785776L1093.7419200000002,351.4285683631897L1094.713056,411.4285781979561L1095.3200160000001,307.4999877384731L1095.805584,116.78569870335718L1097.140896,276.428576026644L1098.5976,344.9999998722758L1098.961776,397.49999450785776L1099.2045600000001,197.14286071913585L1099.6901280000002,393.21428750242507L1100.661264,343.92856912953516L1105.395552,302.1428499902998L1107.944784,383.5714267832892L1108.673136,324.64286365679334L1108.7945280000001,318.21429516587943L1109.037312,378.21428903511594L1110.8581920000001,418.9285774316107L1111.707936,365.3571360877582L1114.4999520000001,415.7142852033888L1114.7427360000001,323.5714329140527L1114.98552,377.1428582923753L1116.320832,377.1428582923753L1116.6850080000002,372.8571353214128L1118.748672,399.642855993339L1119.477024,298.9285737276077L1121.05512,383.5714267832892L1124.5754880000002,404.9999937415123L1126.274976,357.85713685410366L1126.5177600000002,379.28571977785657L1126.7605440000002,243.21427089827404L1127.853072,332.14286289044793L1128.9456000000002,400.71428673607966L1132.951536,439.2857136470931L1133.19432,264.64285382202695L1133.9226720000001,365.3571360877582L1135.379376,395.3571489879063L1136.714688,428.57142218521665L1137.321648,291.4285744939532L1138.171392,413.5714237179075L1138.414176,366.4285668304988L1144.605168,262.4999923365457L1145.94048,422.1428536943027L1146.911616,453.2142813716616L1147.882752,338.57143138136183L1148.853888,376.0714275496347L1149.339456,353.57142984867096L1149.460848,397.49999450785776L1149.7036320000002,334.2857084103993L1150.067808,441.42857513257434L1150.9175520000001,428.57142218521665L1151.4031200000002,343.92856912953516L1151.888688,414.64285446064815L1152.9812160000001,404.9999937415123L1153.102608,374.99999680689405L1153.709568,419.9999922088214L1154.316528,414.64285446064815L1156.137408,372.8571353214128L1159.779168,392.14285675968443L1165.605984,446.78571288074767L1166.212944,370.71428980146135" style="fill: none;" fill="none"></path></g></g></g></g></g><g><g opacity="0.984308"><span fill="rgb(0, 0, 0)" stroke="none" stroke-width="1px">Alt + Scroll to Zoom</span></g></g></g><g transform="translate(50, 375)" clip-path="url(#clip_1)"><clipPath id="clip_1"><rect width="1213" height="25"></rect></clipPath><g><g><line x1="0" y1="0" x2="0" y2="5" style="visibility: inherit;" fill="rgb(0, 0, 0)" stroke="rgb(204, 204, 204)" stroke-width="1px"></line><line x1="121.39200000000001" y1="0" x2="121.39200000000001" y2="5" style="visibility: inherit;" fill="rgb(0, 0, 0)" stroke="rgb(204, 204, 204)" stroke-width="1px"></line><line x1="242.78400000000002" y1="0" x2="242.78400000000002" y2="5" style="visibility: inherit;" fill="rgb(0, 0, 0)" stroke="rgb(204, 204, 204)" stroke-width="1px"></line><line x1="364.176" y1="0" x2="364.176" y2="5" style="visibility: inherit;" fill="rgb(0, 0, 0)" stroke="rgb(204, 204, 204)" stroke-width="1px"></line><line x1="485.56800000000004" y1="0" x2="485.56800000000004" y2="5" style="visibility: inherit;" fill="rgb(0, 0, 0)" stroke="rgb(204, 204, 204)" stroke-width="1px"></line><line x1="606.96" y1="0" x2="606.96" y2="5" style="visibility: inherit;" fill="rgb(0, 0, 0)" stroke="rgb(204, 204, 204)" stroke-width="1px"></line><line x1="728.352" y1="0" x2="728.352" y2="5" style="visibility: inherit;" fill="rgb(0, 0, 0)" stroke="rgb(204, 204, 204)" stroke-width="1px"></line><line x1="849.744" y1="0" x2="849.744" y2="5" style="visibility: inherit;" fill="rgb(0, 0, 0)" stroke="rgb(204, 204, 204)" stroke-width="1px"></line><line x1="971.1360000000001" y1="0" x2="971.1360000000001" y2="5" style="visibility: inherit;" fill="rgb(0, 0, 0)" stroke="rgb(204, 204, 204)" stroke-width="1px"></line><line x1="1092.528" y1="0" x2="1092.528" y2="5" style="visibility: inherit;" fill="rgb(0, 0, 0)" stroke="rgb(204, 204, 204)" stroke-width="1px"></line><line x1="1213.92" y1="0" x2="1213.92" y2="5" style="visibility: inherit;" fill="rgb(0, 0, 0)" stroke="rgb(204, 204, 204)" stroke-width="1px"></line></g><g transform="translate(0, 8)"><text x="0" y="0" dx="0em" dy="0.95em" style="text-anchor: middle; visibility: hidden; font-family: &quot;Helvetica Neue&quot;, sans-serif; font-size: 12px; font-weight: 200;" fill="rgb(50, 49, 63)" stroke="none" stroke-width="1px">-1k</text><text x="121.39200000000001" y="0" dx="0em" dy="0.95em" style="text-anchor: middle; visibility: inherit; font-family: &quot;Helvetica Neue&quot;, sans-serif; font-size: 12px; font-weight: 200;" fill="rgb(50, 49, 63)" stroke="none" stroke-width="1px">0</text><text x="242.78400000000002" y="0" dx="0em" dy="0.95em" style="text-anchor: middle; visibility: inherit; font-family: &quot;Helvetica Neue&quot;, sans-serif; font-size: 12px; font-weight: 200;" fill="rgb(50, 49, 63)" stroke="none" stroke-width="1px">1k</text><text x="364.176" y="0" dx="0em" dy="0.95em" style="text-anchor: middle; visibility: inherit; font-family: &quot;Helvetica Neue&quot;, sans-serif; font-size: 12px; font-weight: 200;" fill="rgb(50, 49, 63)" stroke="none" stroke-width="1px">2k</text><text x="485.56800000000004" y="0" dx="0em" dy="0.95em" style="text-anchor: middle; visibility: inherit; font-family: &quot;Helvetica Neue&quot;, sans-serif; font-size: 12px; font-weight: 200;" fill="rgb(50, 49, 63)" stroke="none" stroke-width="1px">3k</text><text x="606.96" y="0" dx="0em" dy="0.95em" style="text-anchor: middle; visibility: inherit; font-family: &quot;Helvetica Neue&quot;, sans-serif; font-size: 12px; font-weight: 200;" fill="rgb(50, 49, 63)" stroke="none" stroke-width="1px">4k</text><text x="728.352" y="0" dx="0em" dy="0.95em" style="text-anchor: middle; visibility: inherit; font-family: &quot;Helvetica Neue&quot;, sans-serif; font-size: 12px; font-weight: 200;" fill="rgb(50, 49, 63)" stroke="none" stroke-width="1px">5k</text><text x="849.744" y="0" dx="0em" dy="0.95em" style="text-anchor: middle; visibility: inherit; font-family: &quot;Helvetica Neue&quot;, sans-serif; font-size: 12px; font-weight: 200;" fill="rgb(50, 49, 63)" stroke="none" stroke-width="1px">6k</text><text x="971.1360000000001" y="0" dx="0em" dy="0.95em" style="text-anchor: middle; visibility: inherit; font-family: &quot;Helvetica Neue&quot;, sans-serif; font-size: 12px; font-weight: 200;" fill="rgb(50, 49, 63)" stroke="none" stroke-width="1px">7k</text><text x="1092.528" y="0" dx="0em" dy="0.95em" style="text-anchor: middle; visibility: inherit; font-family: &quot;Helvetica Neue&quot;, sans-serif; font-size: 12px; font-weight: 200;" fill="rgb(50, 49, 63)" stroke="none" stroke-width="1px">8k</text><text x="1213.92" y="0" dx="0em" dy="0.95em" style="text-anchor: middle; visibility: hidden; font-family: &quot;Helvetica Neue&quot;, sans-serif; font-size: 12px; font-weight: 200;" fill="rgb(50, 49, 63)" stroke="none" stroke-width="1px">9k</text></g><line x1="0" y1="0" x2="1213.92" y2="0" fill="rgb(0, 0, 0)" stroke="rgb(204, 204, 204)" stroke-width="1px"></line></g></g></g></g></svg>