<svg viewBox="0 0 1263.92041015625 400" xmlns="http://www.w3.org/2000/svg"><g><g><g><g><g><line x1="60" y1="375" x2="55" y2="375" style="visibility: inherit;" fill="rgb(0, 0, 0)" stroke="rgb(204, 204, 204)" stroke-width="1px"></line><line x1="60" y1="343.75" x2="55" y2="343.75" style="visibility: inherit;" fill="rgb(0, 0, 0)" stroke="rgb(204, 204, 204)" stroke-width="1px"></line><line x1="60" y1="312.5" x2="55" y2="312.5" style="visibility: inherit;" fill="rgb(0, 0, 0)" stroke="rgb(204, 204, 204)" stroke-width="1px"></line><line x1="60" y1="281.25" x2="55" y2="281.25" style="visibility: inherit;" fill="rgb(0, 0, 0)" stroke="rgb(204, 204, 204)" stroke-width="1px"></line><line x1="60" y1="250" x2="55" y2="250" style="visibility: inherit;" fill="rgb(0, 0, 0)" stroke="rgb(204, 204, 204)" stroke-width="1px"></line><line x1="60" y1="218.75" x2="55" y2="218.75" style="visibility: inherit;" fill="rgb(0, 0, 0)" stroke="rgb(204, 204, 204)" stroke-width="1px"></line><line x1="60" y1="187.50000000000003" x2="55" y2="187.50000000000003" style="visibility: inherit;" fill="rgb(0, 0, 0)" stroke="rgb(204, 204, 204)" stroke-width="1px"></line><line x1="60" y1="156.25000000000003" x2="55" y2="156.25000000000003" style="visibility: inherit;" fill="rgb(0, 0, 0)" stroke="rgb(204, 204, 204)" stroke-width="1px"></line><line x1="60" y1="125.00000000000006" x2="55" y2="125.00000000000006" style="visibility: inherit;" fill="rgb(0, 0, 0)" stroke="rgb(204, 204, 204)" stroke-width="1px"></line><line x1="60" y1="93.75000000000006" x2="55" y2="93.75000000000006" style="visibility: inherit;" fill="rgb(0, 0, 0)" stroke="rgb(204, 204, 204)" stroke-width="1px"></line><line x1="60" y1="62.5" x2="55" y2="62.5" style="visibility: inherit;" fill="rgb(0, 0, 0)" stroke="rgb(204, 204, 204)" stroke-width="1px"></line><line x1="60" y1="31.25" x2="55" y2="31.25" style="visibility: inherit;" fill="rgb(0, 0, 0)" stroke="rgb(204, 204, 204)" stroke-width="1px"></line><line x1="60" y1="0" x2="55" y2="0" style="visibility: inherit;" fill="rgb(0, 0, 0)" stroke="rgb(204, 204, 204)" stroke-width="1px"></line></g><g transform="translate(50, 0)"><text x="0" y="375" dx="0em" dy="0.3em" style="text-anchor: end; visibility: hidden; font-family: &quot;Helvetica Neue&quot;, sans-serif; font-size: 12px; font-weight: 200;" fill="rgb(50, 49, 63)" stroke="none" stroke-width="1px">-0.05</text><text x="0" y="343.75" dx="0em" dy="0.3em" style="text-anchor: end; visibility: inherit; font-family: &quot;Helvetica Neue&quot;, sans-serif; font-size: 12px; font-weight: 200;" fill="rgb(50, 49, 63)" stroke="none" stroke-width="1px">0</text><text x="0" y="312.5" dx="0em" dy="0.3em" style="text-anchor: end; visibility: inherit; font-family: &quot;Helvetica Neue&quot;, sans-serif; font-size: 12px; font-weight: 200;" fill="rgb(50, 49, 63)" stroke="none" stroke-width="1px">0.05</text><text x="0" y="281.25" dx="0em" dy="0.3em" style="text-anchor: end; visibility: inherit; font-family: &quot;Helvetica Neue&quot;, sans-serif; font-size: 12px; font-weight: 200;" fill="rgb(50, 49, 63)" stroke="none" stroke-width="1px">0.1</text><text x="0" y="250" dx="0em" dy="0.3em" style="text-anchor: end; visibility: inherit; font-family: &quot;Helvetica Neue&quot;, sans-serif; font-size: 12px; font-weight: 200;" fill="rgb(50, 49, 63)" stroke="none" stroke-width="1px">0.15</text><text x="0" y="218.75" dx="0em" dy="0.3em" style="text-anchor: end; visibility: inherit; font-family: &quot;Helvetica Neue&quot;, sans-serif; font-size: 12px; font-weight: 200;" fill="rgb(50, 49, 63)" stroke="none" stroke-width="1px">0.2</text><text x="0" y="187.50000000000003" dx="0em" dy="0.3em" style="text-anchor: end; visibility: inherit; font-family: &quot;Helvetica Neue&quot;, sans-serif; font-size: 12px; font-weight: 200;" fill="rgb(50, 49, 63)" stroke="none" stroke-width="1px">0.25</text><text x="0" y="156.25000000000003" dx="0em" dy="0.3em" style="text-anchor: end; visibility: inherit; font-family: &quot;Helvetica Neue&quot;, sans-serif; font-size: 12px; font-weight: 200;" fill="rgb(50, 49, 63)" stroke="none" stroke-width="1px">0.3</text><text x="0" y="125.00000000000006" dx="0em" dy="0.3em" style="text-anchor: end; visibility: inherit; font-family: &quot;Helvetica Neue&quot;, sans-serif; font-size: 12px; font-weight: 200;" fill="rgb(50, 49, 63)" stroke="none" stroke-width="1px">0.35</text><text x="0" y="93.75000000000006" dx="0em" dy="0.3em" style="text-anchor: end; visibility: inherit; font-family: &quot;Helvetica Neue&quot;, sans-serif; font-size: 12px; font-weight: 200;" fill="rgb(50, 49, 63)" stroke="none" stroke-width="1px">0.4</text><text x="0" y="62.5" dx="0em" dy="0.3em" style="text-anchor: end; visibility: inherit; font-family: &quot;Helvetica Neue&quot;, sans-serif; font-size: 12px; font-weight: 200;" fill="rgb(50, 49, 63)" stroke="none" stroke-width="1px">0.45</text><text x="0" y="31.25" dx="0em" dy="0.3em" style="text-anchor: end; visibility: inherit; font-family: &quot;Helvetica Neue&quot;, sans-serif; font-size: 12px; font-weight: 200;" fill="rgb(50, 49, 63)" stroke="none" stroke-width="1px">0.5</text><text x="0" y="0" dx="0em" dy="0.3em" style="text-anchor: end; visibility: hidden; font-family: &quot;Helvetica Neue&quot;, sans-serif; font-size: 12px; font-weight: 200;" fill="rgb(50, 49, 63)" stroke="none" stroke-width="1px">0.55</text></g><line x1="60" y1="0" x2="60" y2="375" fill="rgb(0, 0, 0)" stroke="rgb(204, 204, 204)" stroke-width="1px"></line></g></g><g transform="translate(60, 0)" clip-path="url(#clip_0)"><clipPath id="clip_0"><rect width="1203" height="375"></rect></clipPath><g><g><g><line x1="0" y1="0" x2="0" y2="375" fill="rgb(0, 0, 0)" stroke="rgb(60, 60, 60)" stroke-width="1px" opacity="0.25"></line><line x1="120.39200000000001" y1="0" x2="120.39200000000001" y2="375" fill="rgb(0, 0, 0)" stroke="rgb(60, 60, 60)" stroke-width="1px" opacity="0.25"></line><line x1="240.78400000000002" y1="0" x2="240.78400000000002" y2="375" fill="rgb(0, 0, 0)" stroke="rgb(60, 60, 60)" stroke-width="1px" opacity="0.25"></line><line x1="361.176" y1="0" x2="361.176" y2="375" fill="rgb(0, 0, 0)" stroke="rgb(60, 60, 60)" stroke-width="1px" opacity="0.25"></line><line x1="481.56800000000004" y1="0" x2="481.56800000000004" y2="375" fill="rgb(0, 0, 0)" stroke="rgb(60, 60, 60)" stroke-width="1px" opacity="0.25"></line><line x1="601.96" y1="0" x2="601.96" y2="375" fill="rgb(0, 0, 0)" stroke="rgb(60, 60, 60)" stroke-width="1px" opacity="0.25"></line><line x1="722.352" y1="0" x2="722.352" y2="375" fill="rgb(0, 0, 0)" stroke="rgb(60, 60, 60)" stroke-width="1px" opacity="0.25"></line><line x1="842.744" y1="0" x2="842.744" y2="375" fill="rgb(0, 0, 0)" stroke="rgb(60, 60, 60)" stroke-width="1px" opacity="0.25"></line><line x1="963.1360000000001" y1="0" x2="963.1360000000001" y2="375" fill="rgb(0, 0, 0)" stroke="rgb(60, 60, 60)" stroke-width="1px" opacity="0.25"></line><line x1="1083.528" y1="0" x2="1083.528" y2="375" fill="rgb(0, 0, 0)" stroke="rgb(60, 60, 60)" stroke-width="1px" opacity="0.25"></line><line x1="1203.92" y1="0" x2="1203.92" y2="375" fill="rgb(0, 0, 0)" stroke="rgb(60, 60, 60)" stroke-width="1px" opacity="0.25"></line></g><g><line x1="0" y1="375" x2="1203.92" y2="375" fill="rgb(0, 0, 0)" stroke="rgb(60, 60, 60)" stroke-width="1px" opacity="0.25"></line><line x1="0" y1="343.75" x2="1203.92" y2="343.75" fill="rgb(0, 0, 0)" stroke="rgb(60, 60, 60)" stroke-width="1px" opacity="0.25"></line><line x1="0" y1="312.5" x2="1203.92" y2="312.5" fill="rgb(0, 0, 0)" stroke="rgb(60, 60, 60)" stroke-width="1px" opacity="0.25"></line><line x1="0" y1="281.25" x2="1203.92" y2="281.25" fill="rgb(0, 0, 0)" stroke="rgb(60, 60, 60)" stroke-width="1px" opacity="0.25"></line><line x1="0" y1="250" x2="1203.92" y2="250" fill="rgb(0, 0, 0)" stroke="rgb(60, 60, 60)" stroke-width="1px" opacity="0.25"></line><line x1="0" y1="218.75" x2="1203.92" y2="218.75" fill="rgb(0, 0, 0)" stroke="rgb(60, 60, 60)" stroke-width="1px" opacity="0.25"></line><line x1="0" y1="187.50000000000003" x2="1203.92" y2="187.50000000000003" fill="rgb(0, 0, 0)" stroke="rgb(60, 60, 60)" stroke-width="1px" opacity="0.25"></line><line x1="0" y1="156.25000000000003" x2="1203.92" y2="156.25000000000003" fill="rgb(0, 0, 0)" stroke="rgb(60, 60, 60)" stroke-width="1px" opacity="0.25"></line><line x1="0" y1="125.00000000000006" x2="1203.92" y2="125.00000000000006" fill="rgb(0, 0, 0)" stroke="rgb(60, 60, 60)" stroke-width="1px" opacity="0.25"></line><line x1="0" y1="93.75000000000006" x2="1203.92" y2="93.75000000000006" fill="rgb(0, 0, 0)" stroke="rgb(60, 60, 60)" stroke-width="1px" opacity="0.25"></line><line x1="0" y1="62.5" x2="1203.92" y2="62.5" fill="rgb(0, 0, 0)" stroke="rgb(60, 60, 60)" stroke-width="1px" opacity="0.25"></line><line x1="0" y1="31.25" x2="1203.92" y2="31.25" fill="rgb(0, 0, 0)" stroke="rgb(60, 60, 60)" stroke-width="1px" opacity="0.25"></line><line x1="0" y1="0" x2="1203.92" y2="0" fill="rgb(0, 0, 0)" stroke="rgb(60, 60, 60)" stroke-width="1px" opacity="0.25"></line></g></g></g><g><g><line x1="0" y1="343.75" x2="1203.92" y2="343.75" fill="rgb(0, 0, 0)" stroke="rgb(153, 153, 153)" stroke-width="1.5px"></line></g></g><g><g><line x1="120.39200000000001" y1="0" x2="120.39200000000001" y2="375" fill="rgb(0, 0, 0)" stroke="rgb(153, 153, 153)" stroke-width="1.5px"></line></g></g><g><g><g><g><g><path stroke="rgb(255, 112, 67)" stroke-width="2px" d="M153.379408,-1.4959039027831977L155.666856,0.9220280113988792L157.593128,6.437938992307409L157.833912,8.812252651268011L158.797048,5.327145960433199L160.241752,7.728043280861016L161.32528000000002,7.86671714211019L162.288416,9.976367567158775L164.214688,13.777747793551157L164.696256,15.033525600634391L171.197424,18.90337115678443L171.31781600000002,19.743845314134376L173.36448,22.518281746656953L173.72565600000001,22.95829503912239L174.08683200000002,24.62459785128908L175.89271200000002,25.823317733284455L176.25388800000002,28.260660355872233L176.37428,29.38314417914023L177.5782,31.02931362407179L179.624864,32.28697670042516L179.86564800000002,33.51942414708708L182.39388,34.177401268975245L184.44054400000002,35.676481400889486L185.042504,36.61242661662703L188.293088,39.4735397387027L189.49700800000002,39.923242910461965L190.21936000000002,41.89746749744819L190.460144,43.66352004747398L191.06210400000003,45.24356594938223L191.18249600000001,46.25915717199598L192.98837600000002,48.330661727132735L195.15543200000002,48.18767978091557L195.396216,50.19234787814588L196.84092,51.29063141787668L197.68366400000002,52.51774114464638L197.804056,53.29335149035205L198.04484000000002,54.5215591780626L198.40601600000002,56.260265897603404L198.6468,57.53254580448203L200.091504,58.89092612354648L201.295424,60.828307545605014L202.740128,61.82324918115745L203.34208800000002,61.31358522201168L206.47228000000004,62.13997711438503L206.95384800000002,63.01470795066422L207.43541600000003,63.71689981227922L207.555808,64.37442121772699L208.39855200000002,65.07438363355834L209.48208,66.18605269299832L209.963648,67.3274811414467L210.44521600000002,68.76073626682631L211.04717600000004,70.36127318183617L211.52874400000002,71.00697402720817L212.61227200000002,70.88310091962023L213.09384,71.67986621967128L213.33462400000002,72.13975140067788L213.575408,73.11777658404287L214.41815200000002,72.35978541773073L215.020112,73.59852993656318L215.260896,74.09718610622463L215.862856,75.34758348958417L216.10364,76.25807532124708L216.58520800000002,76.59553355045819L217.066776,76.71242948132306L217.78912800000003,77.98748825504612L217.90952000000001,78.59480200879028L220.678536,79.28582437571868L221.16010400000002,80.7609252419582L225.13304000000002,79.42820255816434L225.97578400000003,80.40466011535364L226.698136,81.44090736529722L228.38362400000003,82.23978146456068L228.865192,82.20347221166156L229.70793600000002,82.71546264164465L229.94872,82.84730079471103L230.671072,83.51418635032553L230.911856,84.22476436918413L232.59734400000002,84.98403598973385L232.717736,85.26738188551332L233.921656,85.78956641097676L234.282832,86.3324065874524L235.36636000000001,87.35713838489079L235.847928,87.55471873880037L236.329496,87.94333198482485L237.413024,88.36598614709789L237.53341600000002,88.98995110603664L238.25576800000002,89.32702610796628L238.37616000000003,89.80087765064025L238.97812000000002,90.24964679233182L241.14517600000002,90.78060282531857L241.50635200000002,90.8794437083996L242.58988000000002,90.965586331196L246.20164,91.76289967131737L247.76673600000004,91.88897791079438L248.489088,92.46101000587674L248.850264,92.72918228762023L249.09104800000003,92.43482469855928L249.57261600000004,91.7863162873769L250.294968,92.64083967500977L250.89692800000003,93.0712296889867L252.100848,93.58784963307926L252.8232,94.47572810624632L253.42516,94.55631507275592L254.62908000000002,94.3022566480476L255.23104,94.76935889846635L259.685544,95.51839623578519L260.167112,95.82099769280688L260.287504,96.10440383448685L260.407896,96.85696798421003L262.574952,96.90557194977333L264.019656,96.88126697295581L264.14004800000004,97.10118391354098L264.86240000000004,98.0495153424892L265.705144,98.3473888113653L268.83533600000004,98.6504660667186L270.28004000000004,98.9633012111533L271.604352,98.73493772534533L271.965528,99.30069931224205L272.326704,99.79477363581964L274.734544,99.946120108711L275.45689600000003,100.48353171787744L276.29964,100.79400475881005L277.021992,100.81508628001717L278.948264,101.24346863712503L279.30944000000005,101.76311511243654L280.633752,102.13156106772118L280.994928,102.64317130268358L281.356104,102.37835358171372L281.47649600000005,102.40498792011005L287.255312,102.36716764200935L287.616488,102.88227657171194L287.977664,103.25150375244607L288.09805600000004,103.80517655213669L290.74668,104.13061642119658L292.191384,104.4520544791987L292.43216800000005,104.33590210071486L292.91373600000003,104.50044219448205L293.395304,104.6303207498903L293.87687200000005,105.11202059288951L296.88667200000003,105.49506120936883L297.007064,106.03828295847205L298.33137600000003,106.7189542978656L299.294512,106.81533586262816L299.77608000000004,107.28616339588422L300.016864,107.62962938098349L302.063528,107.57796568987919L303.869408,107.32454861015003L304.35097600000006,107.57338098190195L307.36077600000004,107.71541683831714L309.287048,107.74857763502325L309.40744,107.5259832676108L311.21332,107.94677765533555L311.69488800000005,108.66099571976935L313.62116000000003,109.07826074428675L313.741552,109.4012979414614L315.30664800000005,108.90676409202092L316.390176,109.49764810615034L316.992136,110.01222681401072L317.594096,110.46268124966025L317.95527200000004,110.70784939514726L318.557232,110.69648587281779L318.91840800000006,110.46140844060278L320.363112,111.02645958686253L321.3262480000001,111.19939042768459L322.168992,111.2032379432203L323.011736,111.01928567274865L324.095264,111.13695133306385L324.576832,111.70618803382018L324.817616,111.65472525215819L325.05840000000006,111.95156375185906L325.419576,112.33542122040922L326.26232000000005,112.50864636783785L327.345848,112.72131252084449L328.549768,113.1163046560942L329.031336,113.01434153062354L329.27212000000003,113.33993127266234L329.63329600000003,113.84096640632737L330.235256,114.05524220904101L330.59643200000005,114.24071163065292L330.71682400000003,114.69384886844415L330.837216,114.81140251276423L333.124664,114.6244039068311L334.20819200000005,114.98105935998149L334.930544,115.13158666599304L335.773288,115.51841219211292L335.8936800000001,115.86918147072862L336.977208,116.11011121606481L337.81995200000006,116.62857776758136L340.348184,117.07819643733802L340.82975200000004,117.33550006226506L342.033672,117.72067527895655L342.51524,117.88089396639572L343.598768,118.29800988937347L345.16386400000005,118.76783619601451L345.52504,118.74274380323766L346.24739200000005,119.01360623981418L346.488176,119.23554198017513L350.58150400000005,119.65316108661028L351.30385600000005,119.62410576560004L353.35052,119.5217649701151L353.59130400000004,119.64619317933227L354.55444,120.06142332304063L354.91561600000006,120.30342976791803L355.1564,120.3170509850105L357.323456,120.42072544899912L359.00894400000004,120.64328135684943L359.249728,121.00413454668367L361.41678400000006,121.4510686611761L361.898352,121.73729926821693L362.861488,122.18629253191588L364.908152,122.29062194682649L365.63050400000003,122.56096580275471L368.519912,122.90781738110468L369.96461600000004,123.24597568628468L370.085008,123.55817022197868L370.446184,123.85625167932864L370.56657600000005,124.37326267458408L370.80736,124.70270950701504L371.048144,125.10940014172289L371.529712,125.25396214242627L372.01128,125.56457763594491L372.854024,125.28524854074519L374.659904,125.52881339095916L378.753232,125.66947182508918L379.2348,126.01582693453221L379.475584,126.19511817073254L380.077544,126.07323868009979L381.161072,126.17083135333112L382.60577600000005,126.3503574578721L383.809696,126.52573701302336L384.05048000000005,126.70249275203213L384.291264,126.95428421557102L384.411656,127.27484301210055L384.89322400000003,127.40049967232235L385.25440000000003,127.77912943978933L386.217536,127.96101569077007L386.69910400000003,128.21666217743638L388.384592,128.2376682109211L389.106944,128.41048085452715L389.708904,128.75738276644262L389.829296,128.8924381386148L390.07008,128.54068855126806L390.431256,128.72842231782565L390.912824,129.0459323323251L391.033216,129.40817093000163L391.87596,129.61135064660152L392.237136,129.59997441347306L392.839096,129.3633316682464L395.126544,128.71785358779715L396.330464,128.9882607173023L397.052816,129.33626430563663L397.77516800000006,128.9910796325648L398.256736,129.16606045503224L399.70144000000005,129.4491144783579L399.82183200000003,129.62877072329007L402.831632,129.5847876799213L403.91516000000007,129.71494133462744L405.96182400000004,129.88436437109482L408.12888000000004,129.92990049145635L408.249272,130.26471690667603L408.49005600000004,130.47274599756707L409.693976,130.80341467442912L410.175544,131.02787280122737L412.46299200000004,131.30505750451687L413.787304,131.5163823329754L414.75043999999997,131.79738434244192L415.472792,132.10092190649127L415.593184,132.04883549385676L415.833968,132.28642456718404L416.07475200000005,132.61452975838395L416.67671200000007,132.78571605331697L419.68651200000005,133.0449374348219L419.80690400000003,133.2735811418843L421.010824,133.3065653429555L421.25160800000003,133.41580826304278L421.853568,133.6863852778515L423.539056,133.90051434160588L424.261408,133.8501760950207L425.344936,134.04358665597866L427.150816,134.11789500284485L427.63238400000006,133.90734212010895L427.873168,134.0590957691116L429.43826400000006,134.06495179303624L430.882968,134.15934555308465L432.327672,134.2833509139084L433.531592,134.48306346197668L434.25394400000005,134.10118006241743L436.300608,134.0998844722859L437.02296,134.43434075050627L437.143352,134.53503560567535L438.106488,134.69913999193963L438.82884,134.80974027550164L439.551192,135.09484104304127L440.153152,135.4394262560205L442.92216800000006,135.6370070117651L443.764912,135.81529835454282L444.366872,136.168101617798L445.93196800000004,136.339067293712L446.774712,136.56049509890954L448.580592,136.6621536120663L450.025296,136.8322677954319L450.386472,137.116919897062L452.07196000000005,137.3111568828755L452.192352,137.54401757049627L452.43313600000005,137.760026589638L456.28568,137.81411604790034L456.406072,137.9820020891344L456.52646400000003,138.1226095348087L457.36920800000007,138.38902923736006L458.69352000000003,138.6516793586435L460.49940000000004,138.810640490699L461.10136000000006,139.00117012561293L464.71312000000006,139.16030125144047L466.278216,139.2839830663467L467.361744,139.34884395712237L468.44527200000005,139.43049477563696L469.167624,139.51594987601663L469.649192,139.6607127016547L471.695856,139.80676370184545L471.93664000000007,139.98172637408217L472.05703200000005,140.25110263152425L473.501736,140.48084464750968L475.66879200000005,140.5678614676824L477.715456,140.6628007748801L478.67859200000004,140.84541803237016L481.447608,140.97879495058885L482.531136,141.08841554482652L482.7719200000001,141.26832943349032L483.01270400000004,141.33693770647469L483.494272,141.39685447374194L483.614664,141.69462686709988L484.938976,141.92460051302078L485.300152,142.12854585928008L486.263288,142.1914777377875L486.62446400000005,142.40182300121663L489.51387200000005,142.64580909608543L489.99544,142.53092729107883L490.23622400000005,142.67554758926886L492.04210400000005,142.77056151822373L493.6072,143.04564794204222L496.37621600000006,143.07222485753158L498.18209600000006,143.30874492260838L498.30248800000004,143.51374172796778L499.1452320000001,143.6934905011472L499.74719200000004,143.97661057606436L500.34915200000006,144.25219248196493L500.83072,144.5542571510721L501.07150400000006,144.69522035503928L502.99777600000004,144.72005947972588L505.164832,144.8836990155765L505.285224,144.91179391884623L506.127968,145.1590938533713L506.48914400000007,145.37155769676764L509.378552,145.19133040629734L509.739728,145.18091207704188L510.582472,145.10197488615032L510.94364800000005,145.31280427661568L511.06404000000003,145.50301858171247L511.30482400000005,145.7584287503784L511.42521600000003,145.72110296891003L514.435016,145.81385768743496L515.518544,145.87904729448218L518.407952,146.09447738038895L519.371088,146.29723560245196L521.0565760000001,146.497026351733L521.176968,146.63631707250258L521.7789280000001,146.8093547575471L523.2236320000001,146.6930103739684L526.715,146.88995084985967L526.955784,147.06686120707013L527.1965680000001,147.30363696749228L528.159704,147.54868823429484L530.206368,147.72063683266174L530.8083280000001,147.89549323899547L533.456952,147.9997794174928L533.818128,148.06218781688412L534.4200880000001,148.12991179075414L535.7444,148.37141571323372L535.985184,148.49586909798967L536.707536,148.593596882812L536.827928,148.73736783021965L537.55028,148.67796749095245L538.393024,148.7875540398759L539.115376,148.9854078747044L539.4765520000001,149.08073146628965L541.523216,149.2290326540843L542.96792,149.43178900950775L543.329096,149.49770983336845L544.1718400000001,149.6274376105777L546.098112,149.8863724269811L546.338896,150.0272424246784L547.0612480000001,150.24029874108015L547.542816,150.4468735407439L549.469088,150.51997983806882L551.515752,150.59998050346L553.9235920000001,150.68682955723958L556.090648,150.78769930562976L556.3314320000001,150.9367163032338L556.572216,151.049071768987L556.933392,150.71411728877305L557.294568,150.8463910767301L559.3412320000001,150.95658905695925L560.6655440000001,150.93601534550473L560.785936,151.10432192232588L562.351032,151.23984067268069L565.962792,151.33568800453645L566.203576,151.40274921709337L569.092984,151.55789386849332L569.574552,151.68761161630437L569.815336,151.77797511433138L570.537688,151.91715227221817L570.898864,152.0591968968649L571.139648,152.16905221522157L572.2231760000001,152.299387779329L573.06592,152.40643205898613L574.631016,152.51472882552346L575.594152,152.60513685171506L577.159248,152.81667441152655L577.400032,152.99951824572133L577.761208,153.2386275378747L579.205912,153.26249299662805L579.68748,153.3155597467911L580.28944,153.5146754559497L580.5302240000001,153.7386656399783L581.734144,153.77128224437502L582.215712,153.89277881250382L585.70708,154.03936821647096L586.30904,154.2262502288701L587.151784,154.35609592549847L590.2819760000001,154.44625950912882L591.2451120000001,154.66671622315934L592.449032,154.79639435273538L593.4121680000001,154.97962825577264L594.254912,155.077623633078L594.73648,155.08078576105817L596.060792,155.2808335163388L596.783144,155.3523210884984L597.5054960000001,155.55096556434242L600.15412,155.55786155157347L601.478432,155.71517158749148L602.0803920000001,155.82674084549447L603.1639200000001,155.9478228187642L603.284312,156.04509567830033L604.729016,156.05726351088353L606.053328,156.2533890550357L606.4145040000001,156.34937088154717L607.6184240000001,156.54738305734324L613.276848,156.72640232157275L613.878808,156.76137835444248L613.9992000000001,156.79784945311474L615.20312,156.99175080756203L623.9917360000001,157.14057992697457L625.316048,157.08916259863616L625.43644,157.13434230389393L625.6772240000001,157.22662800935515L625.9180080000001,157.38691356294856L626.279184,157.5042573833703L626.399576,157.62922433647688L629.4093760000001,157.66454036438336L630.011336,157.35185468001472L630.372512,157.51377356035118L631.335648,157.66695443078888L632.65996,157.8581451298883L633.743488,157.98262638910109L634.104664,158.19327337304074L634.2250560000001,158.29246491511472L636.030936,158.23122914403345L637.957208,158.43865746490013L638.67956,158.52878380856976L639.1611280000001,158.65835917775206L640.2446560000001,158.6204257909462L640.48544,158.61281586979035L641.568968,158.63218838843937L642.0505360000001,158.55492237552662L642.7728880000001,158.70556550602652L643.374848,158.7419742688778L646.5050400000001,158.92635242480847L647.5885680000001,159.08795999090665L649.394448,159.23791999848902L650.237192,159.3386517293573L650.9595439999999,159.59716475431773L651.4411120000001,159.52623612728962L651.561504,159.6523392067197L653.848952,159.81068132208L654.210128,159.737981914878L654.93248,159.8536675115154L658.5442400000001,159.99838586575444L659.2665920000001,160.08828431856904L659.7481600000001,160.30318407085005L661.0724720000001,160.3750650951098L661.313256,160.50992844058968L663.3599200000001,160.61036395733342L663.480312,160.74425323164806L665.7677600000001,160.93138838661343L665.8881520000001,161.0687018307209L666.249328,161.2116066172129L667.3328560000001,161.19793406216564L668.2959920000001,161.29428766195696L668.536776,161.43754842700457L668.6571680000001,161.5193337659193L671.666968,161.70878110726628L672.0281440000001,161.76081892140758L673.3524560000001,161.97643564673098L673.7136320000001,162.02313370980164L673.954416,162.0499942732986L674.1952000000001,161.95595016357908L675.6399040000001,162.0492438147347L677.686568,162.04731827106997L680.2148,162.15366217197294L681.057544,162.35870224196034L682.0206800000001,162.25408134199324L682.502248,162.41338765981854L683.344992,162.54816689545055L683.465384,162.61225795578878L683.585776,162.72829550886098L684.789696,162.87665471449228L687.919888,162.9902556972331L688.521848,163.12273437039494L690.44812,163.01597186939165L691.7724320000001,162.9895747995772L692.254,163.14960882011613L692.374392,163.25440432609042L693.337528,163.36175950440904L693.6987040000001,163.4480967425541L693.8190960000001,163.33114286571188L694.05988,163.4202562161448L694.421056,163.53691015044086L695.504584,163.61944192777221L695.986152,163.7104471519902L696.828896,163.87124285547713L696.949288,163.86074693688886L697.67164,164.01056418342554L698.393992,164.07834752714103L698.6347760000001,164.18657227945613L698.9959520000001,164.17975355174414L703.209672,164.14397288798207L704.6543760000001,164.27622384738436L706.9418240000001,164.39498539835003L707.1826080000001,164.56095671084702L709.4700560000001,164.58792083450126L709.7108400000001,164.66950234322786L709.8312320000001,164.79680546852674L712.11868,164.9064172993289L715.008088,165.05722894767527L715.3692639999999,165.18601391830063L716.9343600000001,165.3729906366676L717.8974960000002,165.42785777451255L718.9810239999999,165.60524060043699L719.3422,165.6038605857266L719.582984,165.7419617335368L719.703376,165.75022418097677L721.388864,165.88764120269832L722.352,165.9465930036184L725.000624,166.01949660399166L725.722976,166.12608421092824L726.084152,166.30291805624444L726.926896,166.43540001691701L728.491992,166.56178146864193L728.732776,166.75104035703313L728.8531680000001,166.8496941953985L729.695912,166.8890520050527L731.862968,167.04462691041675L734.631984,166.98124152659028L735.2339440000001,167.09007786562412L737.641784,167.0211610701427L737.882568,167.0863967811154L738.6049200000001,167.16115933479892L741.7351120000001,167.34976731323744L742.337072,167.39874451516775L743.9021680000001,167.44616497312782L744.383736,167.57660714436537L746.550792,167.6816765312669L747.5139280000001,167.7739384492823L750.282944,167.79681627932956L750.6441200000002,167.86928509098377L750.7645120000001,168.04761541468653L751.24608,168.11660465105268L751.366472,168.2183526804457L751.8480400000001,168.21952066695687L754.4966640000001,168.24948483224483L757.2656800000001,168.23277439211054L758.830776,168.33515113496193L760.757048,168.32512585465503L762.08136,168.4707357386094L764.0076320000001,168.60085939720895L765.69312,168.56986518331482L765.8135120000001,168.44920840763112L766.1746880000001,168.54359878371378L768.221352,168.6241044938295L768.70292,168.75584367553117L771.11076,168.82351798807196L771.3515440000001,168.95316657372985L773.0370320000001,169.0634760502235L775.3244800000001,169.10057213662355L775.444872,169.21839319208905L775.685656,169.2914095128914L776.2876160000001,169.35611848931757L779.658592,169.4514987349421L780.74212,169.54254106847551L781.584864,169.58103429303873L782.066432,169.7277958376155L782.7887840000001,169.72169460325185L783.5111360000001,169.83577778259667L784.113096,169.94415347491983L784.474272,169.95359745378883L784.7150560000001,170.1053879839182L786.520936,170.22744370386755L787.604464,170.33715411564933L788.5676000000001,170.44253010697477L790.6142639999999,170.53961674485166L791.216224,170.64829785895904L791.457008,170.81610428626666L792.901712,170.9173580622941L793.1424960000002,170.90355358321372L793.864848,170.90428378918224L795.309552,171.0326481225919L795.9115120000001,171.11328283466153L797.115432,171.2488027671536L798.3193520000001,171.39831576285167L801.6903280000001,171.49232895386595L801.9311120000001,171.60828892947973L802.41268,171.50165699391314L804.2185600000001,171.5912291517295L809.1546320000001,171.65573434544157L809.515808,171.74218482686862L809.997376,171.86610564347035L811.6828640000001,171.83882180687277L813.0071760000001,171.97915748280516L813.8499200000001,172.15278080258082L815.896584,172.31678614515198L816.2577600000001,172.39095362981726L816.85972,172.44290489140053L817.4616800000001,172.50244385804547L818.184032,172.64180023160296L819.628736,172.74591767759438L819.749128,172.89864056082214L821.795792,172.810353132766L822.156968,172.89451979212566L822.999712,172.93606720113004L826.250296,173.06467616496985L826.49108,173.14805611719407L827.333824,173.18895368532793L829.5008799999999,173.283408608457L829.7416640000001,173.30989884984075L830.584408,173.47533917132816L831.667936,173.62243147170167L832.871856,173.75379711694396L832.992248,173.905104338081L834.1961680000001,173.9441665536305L834.6777360000001,173.79023179258178L834.798128,173.75338909820692L837.0855760000001,173.8572206403377L837.687536,173.94429028240276L837.92832,174.04625955233675L838.409888,174.15801827037507L839.4934160000001,174.2467368395195L841.6604720000001,174.3062093232858L844.068312,174.39444932622158L844.6702720000001,174.525171277046L845.7538000000001,174.58641579286436L846.476152,174.68637377055458L846.5965440000001,174.78728416841233L846.7169360000001,174.85157552615124L847.078112,174.90191270358216L847.439288,174.9296033581056L850.087912,175.0608367508947L852.134576,175.10935841263458L852.2549680000001,175.22252800688048L852.7365360000001,175.32291207231685L853.3384960000001,175.39066470610985L854.1812400000001,175.44082322600568L855.2647680000001,175.596325520412L855.5055520000001,175.74144723168513L856.7094720000001,175.81677419928943L857.4318240000001,175.86960428964417L857.6726080000001,175.9037347857922L858.39496,175.89206884364535L858.6357439999999,175.9594013528348L858.8765280000001,175.98092889614838L860.3212320000001,176.15632003067347L860.5620160000001,176.27829638676334L860.8028,176.30282138195608L863.5718160000001,176.40462874627667L864.655344,176.3417655013032L865.0165200000001,176.23864507348299L866.942792,176.29376107391673L868.146712,176.3817410154566L868.267104,176.48779428057304L868.5078880000001,176.52273294020995L869.23024,176.4587797195224L869.9525920000001,176.59727891110094L870.7953360000001,176.63677406243735L871.3972960000001,176.7673675040175L872.2400400000001,176.85505803983705L872.962392,176.84538578827548L874.5274880000001,176.8660596489875L877.65768,176.89515513869426L880.06552,177.01374058688776L880.426696,177.03282128905343L880.908264,177.12796334387042L881.0286560000001,177.22524707287917L881.8714000000001,177.31501692627685L883.918064,177.2189877588932L885.242376,177.30739946861104L886.5666880000001,177.3955592739562L887.409432,177.51470673937325L888.131784,177.61550995532417L891.021192,177.72082410638743L896.6796160000001,177.8258396854636L897.6427520000001,177.88985747612978L898.12432,177.98359363694365L899.689416,178.08901389633633L901.013728,178.23591964609807L901.495296,178.3263540491021L902.4584320000001,178.437983271801L902.578824,178.50405785118832L903.0603920000001,178.57708379936383L904.1439200000001,178.6285137899743L904.264312,178.66317714371482L905.4682320000001,178.67401830268062L905.588624,178.69075516133532L905.709016,178.64113367186684L906.6721520000001,178.68747980942837L909.0799920000001,178.769157636178L911.9694,178.89430428459067L912.4509680000001,178.908190900517L912.6917520000001,179.01634892687395L912.812144,179.12420736174457L913.17332,179.26589428476237L914.37724,179.3096023384472L915.460768,179.29797809244934L915.8219440000001,179.43192268656412L917.0258640000001,179.45644162928983L917.627824,179.54650429046467L921.9619360000002,179.61524870564583L923.0454640000002,179.71187449552193L923.2862480000001,179.8082355039014L923.767816,179.88448444344002L924.490168,179.91502999987495L924.851344,180.02241691694272L925.6940880000001,180.13300452080526L926.6572240000002,180.04316625629716L927.0184,180.17212498565743L927.9815360000001,180.2693723348293L928.463104,180.3663557044381L928.944672,180.36799508767908L930.148592,180.49127610273024L930.2689840000002,180.48342093958092L931.713688,180.55538968193503L932.1952560000001,180.64334228848654L933.0380000000001,180.76223194122304L933.519568,180.79081913809782L934.84388,180.79166598520882L936.288584,180.66928153823292L938.214856,180.7508999373457L941.2246560000001,180.8116043422574L943.0305360000001,180.96060166858166L944.716024,181.07476630929196L945.1975920000001,181.1817449449556L945.67916,181.29645944867673L946.6422960000001,181.37995490547425L947.3646480000001,181.3110777862915L947.4850400000001,181.43098512648245L949.531704,181.5151691980612L950.615232,181.66873998961438L951.3375840000001,181.69762143221024L952.3007200000001,181.84604948056318L952.6618960000001,181.86773049176267L955.31052,181.997406889856L957.3571840000001,182.13469651617692L957.838752,182.21825428748085L958.8018880000001,182.28911148742486L959.163064,182.33824242566348L959.8854160000001,182.4767325623516L962.0524720000001,182.56505840841976L962.293256,182.6429745452647L964.460312,182.6020356600745L964.9418800000001,182.6154004995027L965.303056,182.68739624205546L967.4701120000001,182.79640448821843L967.9516800000001,182.89048586626282L968.794424,182.985447890034L970.3595200000001,183.1082773631264L971.0818720000001,183.20494339630528L972.7673600000002,183.29911316365778L974.212064,183.38294198707922L975.054808,183.50018367087617L976.017944,183.62048257393334L976.98108,183.72704022037732L977.1014720000001,183.76063131834078L977.7034320000001,183.89694140825014L978.1850000000001,184.02285151023958L979.750096,184.07703346160946L980.2316640000001,184.19462094791785L981.9171520000001,184.29519758184807L983.361856,184.28754818242223L983.482248,184.36110945818697L984.3249920000001,184.46893417396666L985.288128,184.57093109643495L986.01048,184.49180061283835L986.732832,184.5248560562032L987.5755760000001,184.49467718554916L987.81636,184.58302855821577L988.899888,184.68664210790058L989.1406720000001,184.76346459275288L989.261064,184.88868983191037L991.5485120000001,184.95179399316922L991.9096880000001,185.04892524818771L992.9932160000001,185.1513208212373L994.558312,185.22703115212008L995.8826240000001,185.3531633019229L996.2438000000001,185.4152101718864L997.4477200000001,185.5034674786048L999.373992,185.59369847630012L1000.6983040000001,185.66176400887974L1002.86536,185.73952387071992L1004.06928,185.6977020750204L1004.189672,185.80592711679802L1004.791632,185.86685474399218L1004.9120240000001,185.96041500609664L1005.7547680000001,186.02316554487032L1006.236336,186.11631311724432L1006.3567280000001,186.1906922699318L1006.47712,186.29103609609814L1009.1257439999999,186.40419571157705L1009.2461360000001,186.51381059276662L1009.727704,186.6351122917448L1009.968488,186.61162966603675L1011.0520160000001,186.57083644917142L1011.533584,186.67549979018324L1011.8947600000001,186.77990467921921L1015.024952,186.8645553033499L1015.145344,186.8883852654306L1016.228872,186.9965187660668L1016.5900480000001,187.07628613108335L1017.0716160000001,187.18609723421343L1017.4327920000001,187.28052998904997L1018.636712,187.30571234318475L1018.757104,187.35238578341446L1018.8774960000002,187.38709959439743L1018.9978880000001,187.43141327026268L1019.5998480000001,187.5508900605879L1020.3222000000001,187.56047334328073L1020.803768,187.63016371003616L1021.0445520000001,187.5752178872268L1022.9708240000001,187.70375512423703L1023.693176,187.71519180474218L1023.8135680000001,187.76942821798767L1024.776704,187.8149737394261L1025.499056,187.72997102468509L1027.064152,187.7883401338901L1027.906896,187.86578578543575L1029.110816,187.94304442439292L1032.2410080000002,187.9700082317167L1035.0100240000002,188.03952247621464L1035.8527680000002,188.09289983515038L1036.57512,188.14827659188194L1036.936296,188.2226568071386L1040.668448,188.3159816077738L1040.7888400000002,188.4101442713464L1042.715112,188.45952307301854L1042.8355040000001,188.5437693775239L1044.039424,188.6394680268615L1044.4006000000002,188.6587118236629L1044.641384,188.69695306307744L1045.965696,188.7636483940781L1046.688048,188.70763076474654L1047.049224,188.7235389243852L1047.530792,188.82486792091L1049.4570640000002,188.81525274985339L1049.697848,188.91839513763387L1049.81824,188.9760195171574L1050.299808,188.97143040713914L1050.660984,189.0047038080312L1050.9017680000002,189.07782587288727L1052.587256,189.14972531426906L1053.0688240000002,189.22565235338934L1054.3931360000001,189.27728321489732L1054.754312,189.37385083691578L1057.162152,189.45448398917603L1058.1252880000002,189.53388125414466L1059.329208,189.60995493746162L1059.4496000000001,189.70361596765997L1060.773912,189.7876585301268L1063.542928,189.84123881201594L1064.144888,189.93536856953654L1066.1915520000002,190.01572926380032L1068.9605680000002,190.05632351136276L1069.201352,190.11139510823L1071.4888,190.11120971038054L1071.6091920000001,190.17339318816224L1072.09076,190.2042685476052L1072.5723280000002,190.2952818714792L1074.7393840000002,190.15266628965117L1075.461736,190.03007914504957L1075.582128,190.02277697373896L1080.638592,190.05069409065032L1081.601728,190.12200345081862L1082.5648640000002,190.15075382238032L1082.685256,190.1691045394657L1084.7319200000002,190.271058141302L1085.695056,190.33046562702307L1086.297016,190.3484839407686L1086.778584,190.4365444900939L1088.102896,190.4801139472208L1089.5476,190.49064562420347L1089.908776,190.51555413301156L1090.14956,190.6010562510305L1090.6311280000002,190.7120456120282L1091.594264,190.755022098521L1096.289552,190.76609459857616L1098.817784,190.8478900603078L1099.540136,190.90388205890127L1099.660528,190.91468941081777L1099.901312,190.8425790243589L1101.707192,190.93017694034324L1102.5499360000001,190.97056067903478L1105.318952,190.99859573342243L1105.5597360000002,191.0765851275195L1105.80052,191.1339953256055L1107.124832,191.21064577701588L1107.486008,191.25452004363424L1109.532672,191.24127610203269L1110.255024,191.3226949562629L1111.82012,191.36325345923157L1114.2279600000002,191.30514121926143L1115.311488,191.37919379226048L1116.996976,191.42059947407776L1117.2377600000002,191.50147290040468L1117.478544,191.5801373133569L1118.5620720000002,191.66166465645372L1119.6456,191.7369344026798L1120.608736,191.82114240549322L1123.016576,191.9486451824642L1123.25736,192.0020884676846L1123.6185360000002,192.06450232779946L1123.85932,192.09447725819504L1124.581672,192.1939888259191L1126.026376,192.23984811527595L1126.146768,192.32187570043908L1126.989512,192.36344525508554L1127.350688,192.39888483261566L1127.952648,192.37993990542742L1128.795392,192.46857755701197L1129.036176,192.5148323615326L1135.176168,192.5850767642485L1136.50048,192.60199501301418L1136.861656,192.6299046697248L1137.463616,192.68079899844832L1138.426752,192.76162332827195L1139.3898880000002,192.80123658066591L1139.871456,192.84476345614638L1139.9918480000001,192.91018587508654L1140.2326320000002,192.9634764844838L1140.593808,192.98869468288677L1141.4365520000001,193.0876955761484L1141.91812,193.17251846581735L1142.399688,193.27310157569443L1143.483216,193.2758536394762L1143.6036080000001,193.36918468088473L1144.205568,193.42152304223825L1144.687136,193.5105348621831L1144.807528,193.57550441743012L1146.6134080000002,193.61451212850338L1150.2251680000002,193.6315998473457L1150.34556,193.64666657420582L1151.790264,193.71325017964267L1152.633008,193.77572619113053L1153.234968,193.80836132408353L1154.920456,193.88347854004252L1156.0039840000002,193.89612462474184L1156.6059440000001,193.97595779510715" style="fill: none;" fill="none"></path></g></g></g></g><g opacity="0.2"><g><g><g><path stroke="rgb(255, 112, 67)" stroke-width="2px" d="M129.060224,-138.75000923871994L129.4214,24.375014007091522L131.82924,67.49999895691877L132.792376,45.00000923871994L133.27394400000003,90.00000730156904L135.681784,55.62500283122063L137.24688,40.624991059303284L139.173152,73.12500104308134L139.53432800000002,-8.750006556510868L140.61785600000002,5.624994635582027L141.942168,61.250004917383194L142.54412800000003,97.50000387430197L142.784912,90.624999254942L143.386872,60.624994337558746L148.08216000000002,121.87500670552257L148.68412,82.49999210238462L150.49,77.5000005960465L151.212352,66.24999642372137L151.814312,80.00000566244131L152.657056,41.25000163912773L153.379408,-26.874996721744537L155.666856,70.00000402331358L157.593128,169.37499120831495L157.833912,81.25000819563871L158.797048,-104.37500476837153L160.241752,85.62500774860388L161.32528000000002,12.500017881393433L162.288416,82.49999210238462L164.214688,148.12500402331355L164.696256,60.624994337558746L171.197424,163.12499716877943L171.31781600000002,51.87499523162842L173.36448,131.24999776482585L173.72565600000001,40.624991059303284L174.08683200000002,93.1250043213368L175.89271200000002,76.2499980628491L176.25388800000002,133.12499225139624L176.37428,78.75000312924391L177.5782,105.00000044703489L179.624864,90.00000730156904L179.86564800000002,91.24999120831495L182.39388,65.62500447034841L184.44054400000002,108.7500080466271L185.042504,83.12500268220907L188.293088,184.37500298023227L189.49700800000002,63.12499940395361L190.21936000000002,145.62499895691874L190.460144,138.12500238418582L191.06210400000003,131.24999776482585L191.18249600000001,102.49999538064003L192.98837600000002,164.99999165534976L195.15543200000002,39.99999910593033L195.396216,166.87500476837164L196.84092,116.25000461935997L197.68366400000002,126.25000625848773L197.804056,100.62500089406973L198.04484000000002,130.62500581145292L198.40601600000002,165.6250022351742L198.6468,138.74999433755877L200.091504,146.87500149011618L201.295424,188.12500126659873L202.740128,128.1250007450581L203.34208800000002,26.874981820583344L206.47228000000004,118.74999105930328L206.95384800000002,123.75000119209295L207.43541600000003,113.12500759959221L207.555808,111.24999448657042L208.39855200000002,115.62499403953552L209.48208,147.4999934434891L209.963648,151.87499299645427L210.44521600000002,176.24999582767492L211.04717600000004,191.8749995529652L211.52874400000002,120.62500417232519L212.61227200000002,61.250004917383194L213.09384,134.3749947845936L213.33462400000002,108.7500080466271L213.575408,151.87499299645427L214.41815200000002,10.625004768371582L215.020112,175.62500387430194L215.260896,115.62499403953552L215.862856,180.62499538064006L216.10364,153.75000610947615L216.58520800000002,105.62499240040779L217.066776,86.87499165534979L217.78912800000003,189.9999957531691L217.90952000000001,132.50000029802325L220.678536,141.24999940395358L221.16010400000002,214.37499858438972L225.13304000000002,-42.49998182058334L225.97578400000003,170.62499374151233L226.698136,178.12500894069674L228.38362400000003,157.49999508261683L228.865192,78.75000312924391L229.70793600000002,131.8750083446503L229.94872,95.62499076128006L230.671072,148.7499959766865L230.911856,154.37499806284907L232.59734400000002,160.6249921023846L232.717736,113.74999955296522L233.921656,138.74999433755877L234.282832,141.87499135732654L235.36636000000001,193.1250020861626L235.847928,108.12499746680265L236.329496,128.74999269843104L237.413024,133.12499225139624L237.53341600000002,155.62500059604648L238.25576800000002,125.62499567866328L238.37616000000003,141.24999940395358L238.97812000000002,139.37500491738322L241.14517600000002,149.37500655651095L241.50635200000002,101.87500342726713L242.58988000000002,100.62500089406973L246.20164,181.87499791383746L247.76673600000004,106.25000298023224L248.489088,158.12500566244128L248.850264,123.75000119209295L249.09104800000003,58.12500789761543L249.57261600000004,15.625014901161194L250.294968,193.7500033527613L250.89692800000003,144.37499642372134L252.100848,155.62500059604648L252.8232,201.87500119209292L253.42516,104.37500849366194L254.62908000000002,63.12499940395361L255.23104,152.50000357627871L259.685544,188.75000253319743L260.167112,133.75000283122068L260.287504,131.8750083446503L260.407896,192.5000008195639L262.574952,103.12500596046448L264.019656,93.74999627470976L264.14004800000004,125.62499567866328L264.86240000000004,221.8750044703484L265.705144,137.49999180436137L268.83533600000004,138.74999433755877L270.28004000000004,140.62500745058065L271.604352,68.12499091029173L271.965528,175.62500387430194L272.326704,166.87500476837164L274.734544,120.62500417232519L275.45689600000003,174.37500134110454L276.29964,143.75000447034841L277.021992,103.74999791383749L278.948264,161.25000268220904L279.30944000000005,174.9999932944775L280.633752,154.37499806284907L280.994928,175.62500387430194L281.356104,64.37500193715101L281.47649600000005,106.25000298023224L287.255312,96.87499329447752L287.616488,178.12500894069674L287.977664,157.49999508261683L288.09805600000004,185.62500551342967L290.74668,152.50000357627871L292.191384,152.50000357627871L292.43216800000005,86.87499165534979L292.91373600000003,129.3750032782555L293.395304,124.37499314546588L293.87687200000005,178.7500008940697L296.88667200000003,164.3749997019768L297.007064,189.9999957531691L298.33137600000003,212.50000409781936L299.294512,121.87500670552257L299.77608000000004,181.2500059604645L300.016864,161.874994635582L302.063528,99.37499836087227L303.869408,66.87500700354582L304.35097600000006,147.4999934434891L307.36077600000004,130.62500581145292L309.287048,113.12500759959221L309.40744,71.25000655651098L311.21332,176.87500640749937L311.69488800000005,226.25000402331355L313.62116000000003,178.12500894069674L313.741552,163.12499716877943L315.30664800000005,26.249989867210388L316.390176,208.74999649822715L316.992136,196.87500037252906L317.594096,186.8750080466271L317.95527200000004,152.50000357627871L318.557232,108.7500080466271L318.91840800000006,70.00000402331358L320.363112,208.74999649822715L321.3262480000001,141.24999940395358L322.168992,111.87500506639486L323.011736,78.75000312924391L324.095264,131.8750083446503L324.576832,212.50000409781936L324.817616,102.49999538064003L325.05840000000006,164.99999165534976L325.419576,181.2500059604645L326.26232000000005,143.75000447034841L327.345848,151.2500010430813L328.549768,184.99999493360522L329.031336,94.3750068545342L329.27212000000003,173.12499880790716L329.63329600000003,206.2500007450581L330.235256,153.75000610947615L330.59643200000005,148.7499959766865L330.71682400000003,199.37499612569812L330.837216,136.87499985098844L333.124664,79.37499508261686L334.20819200000005,182.5000084936619L334.930544,143.75000447034841L335.773288,189.37500379979613L335.8936800000001,183.1250004470349L336.977208,162.50000521540645L337.81995200000006,216.87500365078452L340.348184,204.37499694526198L340.82975200000004,167.49999672174457L342.033672,193.1250020861626L342.51524,149.37500655651095L343.598768,200.62499865889552L345.16386400000005,211.87500283122066L345.52504,113.74999955296522L346.24739200000005,173.12499880790716L346.488176,163.75000774860388L350.58150400000005,203.74999567866328L351.30385600000005,113.74999955296522L353.35052,98.75000640749937L353.59130400000004,145.0000070035458L354.55444,204.99999821186069L354.91561600000006,170.0000017881394L355.1564,123.12500923871997L357.323456,141.87499135732654L359.00894400000004,166.87500476837164L359.249728,196.24999910593036L361.41678400000006,214.99999985098842L361.898352,181.87499791383746L362.861488,216.87500365078452L364.908152,144.37499642372134L365.63050400000003,180.00000342726713L368.519912,196.87500037252906L369.96461600000004,195.62499783933166L370.085008,190.6249970197678L370.446184,188.12500126659873L370.56657600000005,236.24999634921554L370.80736,196.24999910593036L371.048144,213.749997317791L371.529712,156.8750031292439L372.01128,193.7500033527613L372.854024,63.749991357326564L374.659904,179.37499284744268L378.753232,156.8750031292439L379.2348,203.12500372529033L379.475584,166.2499941885472L380.077544,98.75000640749937L381.161072,148.12500402331355L382.60577600000005,166.87500476837164L383.809696,166.2499941885472L384.05048000000005,166.87500476837164L384.291264,184.37500298023227L384.411656,200.62499865889552L384.89322400000003,156.24999254941946L385.25440000000003,214.99999985098842L386.217536,170.0000017881394L386.69910400000003,187.50000000000003L388.384592,133.12499225139624L389.106944,168.74999925494197L389.708904,209.99999903142455L389.829296,160.6249921023846L390.07008,45.62500119209295L390.431256,173.12499880790716L390.912824,204.37499694526198L391.033216,215.62500111758712L391.87596,178.12500894069674L392.237136,126.87499821186071L392.839096,72.50000908970839L395.126544,-26.874996721744537L396.330464,194.37500461936L397.052816,213.749997317791L397.77516800000006,45.00000923871994L398.256736,171.87499627470973L399.70144000000005,198.75000417232516L399.82183200000003,173.7499907612801L402.831632,118.74999105930328L403.91516000000007,161.874994635582L405.96182400000004,171.87499627470973L408.12888000000004,141.24999940395358L408.249272,213.749997317791L408.49005600000004,182.5000084936619L409.693976,213.749997317791L410.175544,187.50000000000003L412.46299200000004,201.24999992549422L413.787304,184.99999493360522L414.75043999999997,203.12500372529033L415.472792,209.37499776482585L415.593184,118.74999105930328L415.833968,193.1250020861626L416.07475200000005,216.87500365078452L416.67671200000007,176.87500640749937L419.68651200000005,199.99999739229682L419.80690400000003,192.5000008195639L421.010824,141.87499135732654L421.25160800000003,161.874994635582L421.853568,204.37499694526198L423.539056,189.9999957531691L424.261408,120.62500417232519L425.344936,184.99999493360522L427.150816,153.75000610947615L427.63238400000006,78.12499254941946L427.873168,174.37500134110454L429.43826400000006,135.624997317791L430.882968,159.37500819563869L432.327672,167.49999672174457L433.531592,188.12500126659873L434.25394400000005,31.25L436.300608,133.75000283122068L437.02296,225.00000149011615L437.143352,161.874994635582L438.106488,179.37499284744268L438.82884,164.99999165534976L439.551192,213.1249960511923L440.153152,230.00000230968L442.92216800000006,189.9999957531691L443.764912,184.99999493360522L444.366872,233.75000059604648L445.93196800000004,183.74999240040782L446.774712,198.12500290572646L448.580592,164.99999165534976L450.025296,184.37500298023227L450.386472,216.87500365078452L452.07196000000005,191.8749995529652L452.192352,203.12500372529033L452.43313600000005,198.75000417232516L456.28568,153.1249955296517L456.406072,185.62500551342967L456.52646400000003,178.12500894069674L457.36920800000007,214.37499858438972L458.69352000000003,213.749997317791L460.49940000000004,184.37500298023227L461.10136000000006,193.7500033527613L464.71312000000006,184.99999493360522L466.278216,174.9999932944775L467.361744,158.12500566244128L468.44527200000005,163.12499716877943L469.167624,164.3749997019768L469.649192,181.87499791383746L471.695856,182.5000084936619L471.93664000000007,191.2499982863665L472.05703200000005,219.37499940395358L473.501736,208.1250045448542L475.66879200000005,166.2499941885472L477.715456,168.74999925494197L478.67859200000004,194.99999657273295L481.447608,180.62499538064006L482.531136,173.7499907612801L482.7719200000001,194.99999657273295L483.01270400000004,161.874994635582L483.494272,159.37500819563869L483.614664,231.24999552965167L484.938976,211.25000156462195L485.300152,203.74999567866328L486.263288,161.25000268220904L486.62446400000005,206.2500007450581L489.51387200000005,216.87500365078452L489.99544,107.5000055134297L490.23622400000005,186.8750080466271L492.04210400000005,171.87499627470973L493.6072,227.4999972432852L496.37621600000006,151.2500010430813L498.18209600000006,216.25000238418582L498.30248800000004,206.8750020116568L499.1452320000001,199.37499612569812L499.74719200000004,231.87499679625037L500.34915200000006,230.00000230968L500.83072,238.75000141561034L501.07150400000006,188.75000253319743L502.99777600000004,152.50000357627871L505.164832,196.24999910593036L505.285224,153.75000610947615L506.127968,223.12499769032004L506.48914400000007,212.50000409781936L509.378552,88.12499418854719L509.739728,141.87499135732654L510.582472,119.99999359250074L510.94364800000005,212.50000409781936L511.06404000000003,206.2500007450581L511.30482400000005,227.4999972432852L511.42521600000003,133.75000283122068L514.435016,175.62500387430194L515.518544,166.87500476837164L518.407952,215.62500111758712L519.371088,211.87500283122066L521.0565760000001,211.25000156462195L521.176968,191.8749995529652L521.7789280000001,203.12500372529033L523.2236320000001,108.7500080466271L526.715,211.25000156462195L526.955784,204.99999821186069L527.1965680000001,225.00000149011615L528.159704,228.1249985098839L530.206368,204.37499694526198L530.8083280000001,205.6249994784594L533.456952,182.5000084936619L533.818128,168.74999925494197L534.4200880000001,170.62499374151233L535.7444,228.7499997764826L535.985184,189.9999957531691L536.707536,181.2500059604645L536.827928,196.87500037252906L537.55028,128.74999269843104L538.393024,185.62500551342967L539.115376,215.62500111758712L539.4765520000001,181.2500059604645L541.523216,199.37499612569812L542.96792,218.12499687075618L543.329096,171.87499627470973L544.1718400000001,193.7500033527613L546.098112,238.12500014901164L546.338896,198.12500290572646L547.0612480000001,223.12499769032004L547.542816,221.25000320374969L549.469088,175.62500387430194L551.515752,178.12500894069674L553.9235920000001,180.62499538064006L556.090648,185.62500551342967L556.3314320000001,202.50000245869163L556.572216,189.9999957531691L556.933392,34.37499701976776L557.294568,196.87500037252906L559.3412320000001,189.37500379979613L560.6655440000001,143.75000447034841L560.785936,209.99999903142455L562.351032,198.75000417232516L565.962792,184.99999493360522L566.203576,174.9999932944775L569.092984,206.2500007450581L569.574552,197.50000163912776L569.815336,183.74999240040782L570.537688,201.24999992549422L570.898864,202.50000245869163L571.139648,191.2499982863665L572.2231760000001,198.75000417232516L573.06592,190.6249970197678L574.631016,191.2499982863665L575.594152,184.99999493360522L577.159248,228.7499997764826L577.400032,218.74999813735488L577.761208,239.37500268220904L579.205912,161.874994635582L579.68748,172.50000685453418L580.28944,225.62500275671485L580.5302240000001,235.00000312924388L581.734144,165.6250022351742L582.215712,198.12500290572646L585.70708,207.5000032782555L586.30904,222.49999642372134L587.151784,201.87500119209292L590.2819760000001,187.50000000000003L591.2451120000001,235.62500439584258L592.449032,202.50000245869163L593.4121680000001,222.49999642372134L594.254912,191.2499982863665L594.73648,156.24999254941946L596.060792,229.3750010430813L596.783144,181.87499791383746L597.5054960000001,229.3750010430813L600.15412,158.12500566244128L601.478432,214.37499858438972L602.0803920000001,197.50000163912776L603.1639200000001,201.24999992549422L603.284312,192.5000008195639L604.729016,160.6249921023846L606.053328,230.00000230968L606.4145040000001,192.5000008195639L607.6184240000001,231.24999552965167L613.276848,224.37500022351745L613.878808,170.0000017881394L613.9992000000001,170.62499374151233L615.20312,230.62500357627871L623.9917360000001,213.749997317791L625.316048,137.49999180436137L625.43644,174.37500134110454L625.6772240000001,192.5000008195639L625.9180080000001,218.74999813735488L626.279184,202.50000245869163L626.399576,205.6249994784594L629.4093760000001,171.25000432133677L630.011336,36.87500208616257L630.372512,220.00000067055228L631.335648,216.87500365078452L632.65996,231.87499679625037L633.743488,206.2500007450581L634.104664,240.00000394880774L634.2250560000001,196.87500037252906L636.030936,134.3749947845936L637.957208,239.37500268220904L638.67956,193.7500033527613L639.1611280000001,209.37499776482585L640.2446560000001,143.75000447034841L640.48544,155.62500059604648L641.568968,166.2499941885472L642.0505360000001,128.1250007450581L642.7728880000001,218.12499687075618L643.374848,173.12499880790716L646.5050400000001,231.87499679625037L647.5885680000001,223.12499769032004L649.394448,218.74999813735488L650.237192,199.37499612569812L650.9595439999999,262.50000298023224L651.4411120000001,131.24999776482585L651.561504,209.99999903142455L653.848952,223.12499769032004L654.210128,130.62500581145292L654.93248,206.2500007450581L658.5442400000001,218.12499687075618L659.2665920000001,196.24999910593036L659.7481600000001,246.87499925494197L661.0724720000001,189.37500379979613L661.313256,214.99999985098842L663.3599200000001,201.24999992549422L663.480312,214.99999985098842L665.7677600000001,236.87499761581424L665.8881520000001,216.87500365078452L666.249328,219.37499940395358L667.3328560000001,155.62500059604648L668.2959920000001,200.62499865889552L668.536776,220.00000067055228L668.6571680000001,194.99999657273295L671.666968,239.37500268220904L672.0281440000001,183.1250004470349L673.3524560000001,250.62499754130843L673.7136320000001,181.2500059604645L673.954416,173.12499880790716L674.1952000000001,123.12500923871997L675.6399040000001,200.62499865889552L677.686568,161.25000268220904L680.2148,206.2500007450581L681.057544,247.50000052154067L682.0206800000001,118.74999105930328L682.502248,228.7499997764826L683.344992,218.74999813735488L683.465384,189.37500379979613L683.585776,211.25000156462195L684.789696,225.00000149011615L687.919888,210.62500029802325L688.521848,218.74999813735488L690.44812,118.12499910593039L691.7724320000001,151.87499299645427L692.254,230.62500357627871L692.374392,207.5000032782555L693.337528,208.74999649822715L693.6987040000001,199.99999739229682L693.8190960000001,113.74999955296522L694.05988,201.24999992549422L694.421056,213.1249960511923L695.504584,198.75000417232516L695.986152,202.50000245869163L696.828896,232.49999806284907L696.949288,159.37500819563869L697.67164,228.1249985098839L698.393992,193.1250020861626L698.6347760000001,210.62500029802325L698.9959520000001,161.25000268220904L703.209672,148.7499959766865L704.6543760000001,221.25000320374969L706.9418240000001,215.62500111758712L707.1826080000001,236.24999634921554L709.4700560000001,176.24999582767492L709.7108400000001,199.99999739229682L709.8312320000001,220.00000067055228L712.11868,212.50000409781936L715.008088,230.62500357627871L715.3692639999999,221.25000320374969L716.9343600000001,246.87499925494197L717.8974960000002,189.37500379979613L718.9810239999999,243.1250009685755L719.3422,164.99999165534976L719.582984,226.25000402331355L719.703376,169.37499120831495L721.388864,226.25000402331355L722.352,191.8749995529652L725.000624,198.12500290572646L725.722976,213.1249960511923L726.084152,244.3750035017729L726.926896,225.00000149011615L728.491992,222.49999642372134L728.732776,250.62499754130843L728.8531680000001,210.62500029802325L729.695912,184.37500298023227L731.862968,236.24999634921554L734.631984,138.74999433755877L735.2339440000001,215.62500111758712L737.641784,136.25000789761546L737.882568,196.24999910593036L738.6049200000001,200.62499865889552L741.7351120000001,251.8750000745058L742.337072,189.37500379979613L743.9021680000001,188.75000253319743L744.383736,226.25000402331355L746.550792,214.99999985098842L747.5139280000001,209.37499776482585L750.282944,178.12500894069674L750.6441200000002,200.62499865889552L750.7645120000001,248.75000305473804L751.24608,199.37499612569812L751.366472,214.37499858438972L751.8480400000001,168.74999925494197L754.4966640000001,181.87499791383746L757.2656800000001,160.6249921023846L758.830776,214.99999985098842L760.757048,163.75000774860388L762.08136,235.00000312924388L764.0076320000001,228.1249985098839L765.69312,154.37499806284907L765.8135120000001,113.12500759959221L766.1746880000001,211.87500283122066L768.221352,205.6249994784594L768.70292,229.3750010430813L771.11076,199.99999739229682L771.3515440000001,228.7499997764826L773.0370320000001,220.00000067055228L775.3244800000001,186.24999746680265L775.444872,223.74999895691874L775.685656,203.12500372529033L776.2876160000001,199.37499612569812L779.658592,213.749997317791L780.74212,211.87500283122066L781.584864,187.50000000000003L782.066432,238.12500014901164L782.7887840000001,166.87500476837164L783.5111360000001,223.12499769032004L784.113096,220.62500193715098L784.474272,174.37500134110454L784.7150560000001,241.2499971687794L786.520936,227.4999972432852L787.604464,221.8750044703484L788.5676000000001,220.00000067055228L790.6142639999999,216.25000238418582L791.216224,221.8750044703484L791.457008,249.9999962747097L792.901712,218.74999813735488L793.1424960000002,164.3749997019768L793.864848,171.25000432133677L795.309552,231.87499679625037L795.9115120000001,209.37499776482585L797.115432,235.62500439584258L798.3193520000001,242.4999997019768L801.6903280000001,216.25000238418582L801.9311120000001,226.8749959766865L802.41268,120.62500417232519L804.2185600000001,214.37499858438972L809.1546320000001,202.50000245869163L809.515808,213.1249960511923L809.997376,231.24999552965167L811.6828640000001,158.74999761581424L813.0071760000001,239.37500268220904L813.8499200000001,255.6249983608723L815.896584,251.24999880790713L816.2577600000001,208.1250045448542L816.85972,197.50000163912776L817.4616800000001,201.24999992549422L818.184032,240.00000394880774L819.628736,223.12499769032004L819.749128,246.87499925494197L821.795792,129.99999523162847L822.156968,213.749997317791L822.999712,193.1250020861626L826.250296,235.62500439584258L826.49108,213.749997317791L827.333824,193.1250020861626L829.5008799999999,219.37499940395358L829.7416640000001,186.24999746680265L830.584408,254.3749958276749L831.667936,245.62499672174457L832.871856,238.12500014901164L832.992248,248.12500178813937L834.1961680000001,193.1250020861626L834.6777360000001,98.12499582767492L834.798128,155.62500059604648L837.0855760000001,225.00000149011615L837.687536,216.87500365078452L837.92832,224.37500022351745L838.409888,229.3750010430813L839.4934160000001,218.12499687075618L841.6604720000001,203.74999567866328L844.068312,218.12499687075618L844.6702720000001,239.37500268220904L845.7538000000001,204.99999821186069L846.476152,224.37500022351745L846.5965440000001,225.00000149011615L846.7169360000001,206.8750020116568L847.078112,199.99999739229682L847.439288,188.75000253319743L850.087912,240.6249959021807L852.134576,199.37499612569812L852.2549680000001,231.87499679625037L852.7365360000001,225.62500275671485L853.3384960000001,209.37499776482585L854.1812400000001,200.62499865889552L855.2647680000001,253.7500038743019L855.5055520000001,248.75000305473804L856.7094720000001,213.749997317791L857.4318240000001,202.50000245869163L857.6726080000001,193.1250020861626L858.39496,170.0000017881394L858.6357439999999,209.99999903142455L858.8765280000001,186.8750080466271L860.3212320000001,264.9999987334013L860.5620160000001,238.12500014901164L860.8028,188.75000253319743L863.5718160000001,228.1249985098839L864.655344,144.37499642372134L865.0165200000001,123.75000119209295L866.942792,204.37499694526198L868.146712,221.25000320374969L868.267104,230.62500357627871L868.5078880000001,194.37500461936L869.23024,143.75000447034841L869.9525920000001,247.50000052154067L870.7953360000001,196.87500037252906L871.3972960000001,243.7500022351742L872.2400400000001,221.8750044703484L872.962392,171.87499627470973L874.5274880000001,187.50000000000003L877.65768,191.8749995529652L880.06552,238.12500014901164L880.426696,186.8750080466271L880.908264,226.25000402331355L881.0286560000001,227.4999972432852L881.8714000000001,223.74999895691874L883.918064,127.50000879168516L885.242376,223.12499769032004L886.5666880000001,223.12499769032004L887.409432,239.37500268220904L888.131784,230.00000230968L891.021192,232.49999806284907L896.6796160000001,232.49999806284907L897.6427520000001,211.25000156462195L898.12432,226.8749959766865L899.689416,233.12499932944777L901.013728,254.99999709427357L901.495296,225.62500275671485L902.4584320000001,236.87499761581424L902.578824,213.1249960511923L903.0603920000001,216.87500365078452L904.1439200000001,205.6249994784594L904.264312,196.87500037252906L905.4682320000001,184.37500298023227L905.588624,187.50000000000003L905.709016,152.50000357627871L906.6721520000001,203.12500372529033L909.0799920000001,221.8750044703484L911.9694,244.99999545514586L912.4509680000001,186.24999746680265L912.6917520000001,236.24999634921554L912.812144,236.24999634921554L913.17332,254.3749958276749L914.37724,202.50000245869163L915.460768,173.12499880790716L915.8219440000001,250.62499754130843L917.0258640000001,192.5000008195639L917.627824,227.4999972432852L921.9619360000002,216.25000238418582L923.0454640000002,231.24999552965167L923.2862480000001,231.24999552965167L923.767816,220.62500193715098L924.490168,196.24999910593036L924.851344,237.49999888241294L925.6940880000001,239.37500268220904L926.6572240000002,131.8750083446503L927.0184,249.37500432133677L927.9815360000001,232.49999806284907L928.463104,232.49999806284907L928.944672,181.2500059604645L930.148592,246.87499925494197L930.2689840000002,176.24999582767492L931.713688,219.37499940395358L932.1952560000001,228.1249985098839L933.0380000000001,244.99999545514586L933.519568,196.24999910593036L934.84388,181.2500059604645L936.288584,114.37499150633818L938.214856,225.00000149011615L941.2246560000001,213.749997317791L943.0305360000001,261.87500171363354L944.716024,243.1250009685755L945.1975920000001,239.37500268220904L945.67916,243.7500022351742L946.6422960000001,226.8749959766865L947.3646480000001,143.75000447034841L947.4850400000001,246.87499925494197L949.531704,227.4999972432852L950.615232,265.625L951.3375840000001,197.50000163912776L952.3007200000001,263.12500424683094L952.6618960000001,193.7500033527613L955.31052,253.12500260770324L957.3571840000001,257.5000021606684L957.838752,228.1249985098839L958.8018880000001,221.25000320374969L959.163064,209.37499776482585L959.8854160000001,258.74999538064003L962.0524720000001,231.24999552965167L962.293256,225.62500275671485L964.460312,160.00000014901167L964.9418800000001,189.9999957531691L965.303056,222.49999642372134L967.4701120000001,243.1250009685755L967.9516800000001,235.00000312924388L968.794424,235.62500439584258L970.3595200000001,251.24999880790713L971.0818720000001,236.87499761581424L972.7673600000002,235.62500439584258L974.212064,230.00000230968L975.054808,248.75000305473804L976.017944,250.62499754130843L976.98108,243.1250009685755L977.1014720000001,202.50000245869163L977.7034320000001,259.99999791383743L978.1850000000001,254.3749958276749L979.750096,214.37499858438972L980.2316640000001,249.9999962747097L981.9171520000001,240.6249959021807L983.361856,180.00000342726713L983.482248,225.62500275671485L984.3249920000001,244.99999545514586L985.288128,241.8749984353781L986.01048,139.9999968707562L986.732832,203.12500372529033L987.5755760000001,167.49999672174457L987.81636,234.37500186264518L988.899888,243.1250009685755L989.1406720000001,228.1249985098839L989.261064,255.6249983608723L991.5485120000001,220.62500193715098L991.9096880000001,240.00000394880774L992.9932160000001,243.1250009685755L994.558312,228.1249985098839L995.8826240000001,256.8750008940697L996.2438000000001,220.62500193715098L997.4477200000001,235.62500439584258L999.373992,236.87499761581424L1000.6983040000001,224.37500022351745L1002.86536,230.00000230968L1004.06928,161.874994635582L1004.189672,247.50000052154067L1004.791632,220.62500193715098L1004.9120240000001,239.37500268220904L1005.7547680000001,221.8750044703484L1006.236336,239.37500268220904L1006.3567280000001,228.7499997764826L1006.47712,243.7500022351742L1009.1257439999999,251.24999880790713L1009.2461360000001,249.37500432133677L1009.727704,256.24999962747097L1009.968488,173.12499880790716L1011.0520160000001,163.12499716877943L1011.533584,246.87499925494197L1011.8947600000001,246.87499925494197L1015.024952,235.62500439584258L1015.145344,200.62499865889552L1016.228872,249.37500432133677L1016.5900480000001,233.12499932944777L1017.0716160000001,250.62499754130843L1017.4327920000001,241.8749984353781L1018.636712,201.87500119209292L1018.757104,214.37499858438972L1018.8774960000002,207.5000032782555L1018.9978880000001,213.1249960511923L1019.5998480000001,256.8750008940697L1020.3222000000001,193.1250020861626L1020.803768,228.1249985098839L1021.0445520000001,155.62500059604648L1022.9708240000001,262.50000298023224L1023.693176,194.37500461936L1023.8135680000001,219.37499940395358L1024.776704,214.37499858438972L1025.499056,138.12500238418582L1027.064152,221.8750044703484L1027.906896,233.12499932944777L1029.110816,233.12499932944777L1032.2410080000002,203.74999567866328L1035.0100240000002,228.7499997764826L1035.8527680000002,219.37499940395358L1036.57512,220.62500193715098L1036.936296,231.87499679625037L1040.668448,243.1250009685755L1040.7888400000002,243.7500022351742L1042.715112,217.49999560415748L1042.8355040000001,238.12500014901164L1044.039424,244.99999545514586L1044.4006000000002,199.99999739229682L1044.641384,211.25000156462195L1045.965696,228.1249985098839L1046.688048,155.62500059604648L1047.049224,198.12500290572646L1047.530792,248.75000305473804L1049.4570640000002,183.1250004470349L1049.697848,249.9999962747097L1049.81824,223.12499769032004L1050.299808,186.24999746680265L1050.660984,208.74999649822715L1050.9017680000002,232.49999806284907L1052.587256,231.87499679625037L1053.0688240000002,234.37500186264518L1054.3931360000001,220.00000067055228L1054.754312,246.87499925494197L1057.162152,237.49999888241294L1058.1252880000002,236.87499761581424L1059.329208,235.00000312924388L1059.4496000000001,245.62499672174457L1060.773912,240.00000394880774L1063.542928,221.8750044703484L1064.144888,246.24999798834327L1066.1915520000002,238.12500014901164L1068.9605680000002,214.37499858438972L1069.201352,223.12499769032004L1071.4888,189.9999957531691L1071.6091920000001,227.4999972432852L1072.09076,208.74999649822715L1072.5723280000002,244.99999545514586L1074.7393840000002,104.37500849366194L1075.461736,116.25000461935997L1075.582128,185.62500551342967L1080.638592,206.8750020116568L1081.601728,233.12499932944777L1082.5648640000002,207.5000032782555L1082.685256,201.24999992549422L1084.7319200000002,251.8750000745058L1085.695056,226.25000402331355L1086.297016,201.24999992549422L1086.778584,243.7500022351742L1088.102896,216.87500365078452L1089.5476,196.87500037252906L1089.908776,205.6249994784594L1090.14956,242.4999997019768L1090.6311280000002,258.1250034272671L1091.594264,216.87500365078452L1096.289552,197.50000163912776L1098.817784,240.6249959021807L1099.540136,225.00000149011615L1099.660528,197.50000163912776L1099.901312,146.87500149011618L1101.707192,244.3750035017729L1102.5499360000001,215.62500111758712L1105.318952,208.1250045448542L1105.5597360000002,238.75000141561034L1105.80052,226.25000402331355L1107.124832,238.12500014901164L1107.486008,218.12499687075618L1109.532672,183.1250004470349L1110.255024,241.2499971687794L1111.82012,216.25000238418582L1114.2279600000002,155.62500059604648L1115.311488,236.87499761581424L1116.996976,216.87500365078452L1117.2377600000002,241.2499971687794L1117.478544,240.00000394880774L1118.5620720000002,241.8749984353781L1119.6456,238.12500014901164L1120.608736,243.7500022351742L1123.016576,270.62500081956387L1123.25736,225.00000149011615L1123.6185360000002,230.62500357627871L1123.85932,210.62500029802325L1124.581672,253.7500038743019L1126.026376,220.62500193715098L1126.146768,243.1250009685755L1126.989512,218.12499687075618L1127.350688,214.37499858438972L1127.952648,180.62499538064006L1128.795392,247.50000052154067L1129.036176,221.25000320374969L1135.176168,236.24999634921554L1136.50048,203.12500372529033L1136.861656,209.99999903142455L1137.463616,224.37500022351745L1138.426752,243.1250009685755L1139.3898880000002,217.49999560415748L1139.871456,220.00000067055228L1139.9918480000001,233.75000059604648L1140.2326320000002,226.25000402331355L1140.593808,208.74999649822715L1141.4365520000001,254.99999709427357L1141.91812,246.24999798834327L1142.399688,256.24999962747097L1143.483216,194.99999657273295L1143.6036080000001,251.8750000745058L1144.205568,226.25000402331355L1144.687136,249.37500432133677L1144.807528,234.37500186264518L1146.6134080000002,218.12499687075618L1150.2251680000002,204.37499694526198L1150.34556,203.12500372529033L1151.790264,235.62500439584258L1152.633008,233.12499932944777L1153.234968,214.37499858438972L1154.920456,241.2499971687794L1156.0039840000002,201.87500119209292L1156.6059440000001,244.3750035017729" style="fill: none;" fill="none"></path></g></g></g></g></g></g><g transform="translate(60, 375)" clip-path="url(#clip_1)"><clipPath id="clip_1"><rect width="1203" height="25"></rect></clipPath><g><g><line x1="0" y1="0" x2="0" y2="5" style="visibility: inherit;" fill="rgb(0, 0, 0)" stroke="rgb(204, 204, 204)" stroke-width="1px"></line><line x1="120.39200000000001" y1="0" x2="120.39200000000001" y2="5" style="visibility: inherit;" fill="rgb(0, 0, 0)" stroke="rgb(204, 204, 204)" stroke-width="1px"></line><line x1="240.78400000000002" y1="0" x2="240.78400000000002" y2="5" style="visibility: inherit;" fill="rgb(0, 0, 0)" stroke="rgb(204, 204, 204)" stroke-width="1px"></line><line x1="361.176" y1="0" x2="361.176" y2="5" style="visibility: inherit;" fill="rgb(0, 0, 0)" stroke="rgb(204, 204, 204)" stroke-width="1px"></line><line x1="481.56800000000004" y1="0" x2="481.56800000000004" y2="5" style="visibility: inherit;" fill="rgb(0, 0, 0)" stroke="rgb(204, 204, 204)" stroke-width="1px"></line><line x1="601.96" y1="0" x2="601.96" y2="5" style="visibility: inherit;" fill="rgb(0, 0, 0)" stroke="rgb(204, 204, 204)" stroke-width="1px"></line><line x1="722.352" y1="0" x2="722.352" y2="5" style="visibility: inherit;" fill="rgb(0, 0, 0)" stroke="rgb(204, 204, 204)" stroke-width="1px"></line><line x1="842.744" y1="0" x2="842.744" y2="5" style="visibility: inherit;" fill="rgb(0, 0, 0)" stroke="rgb(204, 204, 204)" stroke-width="1px"></line><line x1="963.1360000000001" y1="0" x2="963.1360000000001" y2="5" style="visibility: inherit;" fill="rgb(0, 0, 0)" stroke="rgb(204, 204, 204)" stroke-width="1px"></line><line x1="1083.528" y1="0" x2="1083.528" y2="5" style="visibility: inherit;" fill="rgb(0, 0, 0)" stroke="rgb(204, 204, 204)" stroke-width="1px"></line><line x1="1203.92" y1="0" x2="1203.92" y2="5" style="visibility: inherit;" fill="rgb(0, 0, 0)" stroke="rgb(204, 204, 204)" stroke-width="1px"></line></g><g transform="translate(0, 8)"><text x="0" y="0" dx="0em" dy="0.95em" style="text-anchor: middle; visibility: hidden; font-family: &quot;Helvetica Neue&quot;, sans-serif; font-size: 12px; font-weight: 200;" fill="rgb(50, 49, 63)" stroke="none" stroke-width="1px">-1k</text><text x="120.39200000000001" y="0" dx="0em" dy="0.95em" style="text-anchor: middle; visibility: inherit; font-family: &quot;Helvetica Neue&quot;, sans-serif; font-size: 12px; font-weight: 200;" fill="rgb(50, 49, 63)" stroke="none" stroke-width="1px">0</text><text x="240.78400000000002" y="0" dx="0em" dy="0.95em" style="text-anchor: middle; visibility: inherit; font-family: &quot;Helvetica Neue&quot;, sans-serif; font-size: 12px; font-weight: 200;" fill="rgb(50, 49, 63)" stroke="none" stroke-width="1px">1k</text><text x="361.176" y="0" dx="0em" dy="0.95em" style="text-anchor: middle; visibility: inherit; font-family: &quot;Helvetica Neue&quot;, sans-serif; font-size: 12px; font-weight: 200;" fill="rgb(50, 49, 63)" stroke="none" stroke-width="1px">2k</text><text x="481.56800000000004" y="0" dx="0em" dy="0.95em" style="text-anchor: middle; visibility: inherit; font-family: &quot;Helvetica Neue&quot;, sans-serif; font-size: 12px; font-weight: 200;" fill="rgb(50, 49, 63)" stroke="none" stroke-width="1px">3k</text><text x="601.96" y="0" dx="0em" dy="0.95em" style="text-anchor: middle; visibility: inherit; font-family: &quot;Helvetica Neue&quot;, sans-serif; font-size: 12px; font-weight: 200;" fill="rgb(50, 49, 63)" stroke="none" stroke-width="1px">4k</text><text x="722.352" y="0" dx="0em" dy="0.95em" style="text-anchor: middle; visibility: inherit; font-family: &quot;Helvetica Neue&quot;, sans-serif; font-size: 12px; font-weight: 200;" fill="rgb(50, 49, 63)" stroke="none" stroke-width="1px">5k</text><text x="842.744" y="0" dx="0em" dy="0.95em" style="text-anchor: middle; visibility: inherit; font-family: &quot;Helvetica Neue&quot;, sans-serif; font-size: 12px; font-weight: 200;" fill="rgb(50, 49, 63)" stroke="none" stroke-width="1px">6k</text><text x="963.1360000000001" y="0" dx="0em" dy="0.95em" style="text-anchor: middle; visibility: inherit; font-family: &quot;Helvetica Neue&quot;, sans-serif; font-size: 12px; font-weight: 200;" fill="rgb(50, 49, 63)" stroke="none" stroke-width="1px">7k</text><text x="1083.528" y="0" dx="0em" dy="0.95em" style="text-anchor: middle; visibility: inherit; font-family: &quot;Helvetica Neue&quot;, sans-serif; font-size: 12px; font-weight: 200;" fill="rgb(50, 49, 63)" stroke="none" stroke-width="1px">8k</text><text x="1203.92" y="0" dx="0em" dy="0.95em" style="text-anchor: middle; visibility: hidden; font-family: &quot;Helvetica Neue&quot;, sans-serif; font-size: 12px; font-weight: 200;" fill="rgb(50, 49, 63)" stroke="none" stroke-width="1px">9k</text></g><line x1="0" y1="0" x2="1203.92" y2="0" fill="rgb(0, 0, 0)" stroke="rgb(204, 204, 204)" stroke-width="1px"></line></g></g></g></g></svg>